<svg xmlns="http://www.w3.org/2000/svg" viewBox="0 0 453.04 112.64"><defs><style>.cls-1{fill:#fff;}</style></defs><g id="Layer_2" data-name="Layer 2"><g id="Layer_1-2" data-name="Layer 1"><path class="cls-1" d="M236.9,105.19c.16-.32.27-.59.41-.85a58,58,0,0,0,7.35-30.76c-.25-9.35-2.54-18.26-5.42-27.07a20.16,20.16,0,0,1-.1-12.48,1.58,1.58,0,0,1,.94-1c7.17-1.33,14.31-1.6,21.19,1.34C267.52,37,271,42,272.44,48.54c1.31,5.91.89,11.83,0,17.73a3.61,3.61,0,0,1-.58,1.3A136.07,136.07,0,0,1,238,104.62c-.25.2-.52.38-.78.55C237.19,105.2,237.1,105.18,236.9,105.19Z"/><path class="cls-1" d="M176,83.49c2.54.81,4.92,1.7,7.36,2.33,11.39,2.93,22.49,1.66,33.5-2.14,9.69-3.35,15.54-10.39,19.65-19.28.94-2,1.58-4.16,2.36-6.26l.3-.86.38,0c.64,4,1.46,8.06,1.88,12.11a56.32,56.32,0,0,1-3.16,25.91,49.77,49.77,0,0,1-6.9,12.67,9.33,9.33,0,0,1-3.11,2.53c-5.82,3-11.8,2.56-17.81.62-8.72-2.82-16.1-7.84-22.79-14a82.31,82.31,0,0,1-11.1-12.7C176.34,84.15,176.19,83.85,176,83.49Z"/><path class="cls-1" d="M212.11,82.17c-2.64.56-5.22,1.24-7.85,1.65a48,48,0,0,1-31-5.17,3.34,3.34,0,0,1-1.2-1.1,74.49,74.49,0,0,1-9.88-26.27,42.67,42.67,0,0,1,.85-19.1c2.36-7.92,7.94-12,15.82-13.46.74-.14,1.49-.2,2.27-.3a62.22,62.22,0,0,0-.85,6.42c-.14,4-.24,8,0,12a72.24,72.24,0,0,0,1.38,10.78,39.74,39.74,0,0,0,8.41,16.62c5.57,6.92,12,12.8,20.06,16.77l1.83.88S212,81.91,212.11,82.17Z"/><path class="cls-1" d="M418.84,86.55c.55-4.34-2.11-6.13-5.46-7.46a44.76,44.76,0,0,1-4.61-2.27,14.24,14.24,0,0,1-2.28-1.54c-2.68-2.24-3.06-4.19-1.41-7.28,2.54-4.74,5.12-9.47,7.67-14.21a3.11,3.11,0,0,1,3-1.77q4.73.06,9.47,0a3.05,3.05,0,0,1,3,1.8l24.56,46.42c.11.2.18.42.28.65-6.4.65-11.73-.27-15.26-7.22-1.06-2.09-2.27-4.12-3.34-6.21a1.49,1.49,0,0,0-1.58-.93C428.27,86.57,423.68,86.55,418.84,86.55Zm1.7-24.62c-2.76,4.87-5.4,9.52-8.08,14.26h15.82C425.68,71.41,423.16,66.77,420.54,61.93Z"/><path class="cls-1" d="M129.08,89c0-.5-.06-.81-.06-1.13a5.55,5.55,0,0,0-3.55-5.45c-1.91-.9-3.85-1.75-5.72-2.74a20,20,0,0,1-3.38-2.24c-2.28-1.87-2.79-3.74-1.45-6.36,2.64-5.14,5.44-10.21,8.21-15.29a2.73,2.73,0,0,1,2.51-1.37h10a3.25,3.25,0,0,1,2.92,2.12q9.14,17.31,18.29,34.6l5.82,11c.2.37.37.77.58,1.18-6.46.65-11.79-.41-15.24-7.14-1.09-2.13-2.29-4.2-3.4-6.33a1.42,1.42,0,0,0-1.48-.88c-4.2,0-8.39,0-12.59,0Zm1.59-24.65-8.11,14.29h15.88Z"/><path class="cls-1" d="M384,54.61c.82,6.77-4.16,10.61-9.06,10.17a47.88,47.88,0,0,0-6,0,20.94,20.94,0,0,0-3.79.42c-7,1.51-11.36,7.57-10.92,14.92a14.08,14.08,0,0,0,12.61,12.94c3.5.28,7,.12,10.54.16,2.42,0,6.25,3.34,6.61,5.7a3,3,0,0,1-2.25,3.69,16.48,16.48,0,0,1-4.81.75c-4.46,0-9,.12-13.37-.57-10.09-1.6-18.12-10.63-19.42-20.77a24.38,24.38,0,0,1,21.24-27.25,22.93,22.93,0,0,1,2.75-.15H384Z"/><path class="cls-1" d="M82.23,85.93l13,16.45-.12.37c-3.28-.15-6.59,0-9.83-.51-3.07-.44-5.19-2.69-7.09-5-2.4-2.89-4.73-5.83-7.07-8.77a1.88,1.88,0,0,1-.5-1c0-3.79,0-7.58,0-11.52.49,0,.91-.06,1.33-.06,2.64,0,5.28,0,7.92,0a5.58,5.58,0,0,0,5.7-5.33A5.45,5.45,0,0,0,80,64.69c-2.39-.06-4.79,0-7.19,0-3.4,0-6.8,0-10.2,0-2.46,0-6.38-3.44-6.75-5.87a2.77,2.77,0,0,1,1.73-3.33,16.49,16.49,0,0,1,5-1c6.2-.12,12.4-.23,18.59,0,6.53.22,12,5,13.78,11.42C97.44,75,91,84.24,83.09,85.65,82.83,85.7,82.58,85.82,82.23,85.93Z"/><path class="cls-1" d="M14.86,84.82V74.75c2.4,0,4.75,0,7.09,0a24.79,24.79,0,0,0,3.23-.1c3-.41,4.89-2.86,4.66-6.06a5.18,5.18,0,0,0-5.34-5c-5.87,0-11.75,0-17.62,0C4,63.52.28,60,.09,57.13a2.4,2.4,0,0,1,1.51-2.7,16.21,16.21,0,0,1,4.84-1.12c6.31-.13,12.63-.12,18.94-.06,6.61.07,12.37,4.87,14.2,11.69,2.29,8.56-3.39,17.9-12,19.57a28,28,0,0,1-4.77.3C20.2,84.85,17.57,84.82,14.86,84.82Z"/><path class="cls-1" d="M276.54,59.43c-.42-4-.52-7.77-1.23-11.38-2-10.09-9-16.66-19.19-18.32A45.85,45.85,0,0,0,242,29.67c-.31,0-.62,0-1.09,0a22.21,22.21,0,0,1,4.63-6c4.26-4,9.24-6.44,15.14-6.56,9.39-.2,17.12,5.62,19.89,14.78,1.7,5.62,1.25,11.24-.33,16.76C279.26,52.25,277.85,55.71,276.54,59.43Z"/><path class="cls-1" d="M.08,61.84c3.1,3.08,7,4.37,10.62,6.14a3.51,3.51,0,0,1,2.15,3.22c0,11.7,0,23.4,0,35.32-.45-.21-.79-.34-1.11-.51L3,101.57a5.07,5.07,0,0,1-3-4.7C0,85.41,0,74,0,62.49,0,62.35,0,62.21.08,61.84Z"/><path class="cls-1" d="M55.94,63c2.89,2.89,6.59,4.24,10.13,5.87a4.11,4.11,0,0,1,2.64,4q0,17,0,33.93c0,.19,0,.39,0,.77-.46-.2-.85-.35-1.21-.53-2.92-1.49-5.84-3-8.75-4.47a4.89,4.89,0,0,1-2.85-4.52c0-11.55,0-23.1,0-34.65A2,2,0,0,1,55.94,63Z"/><path class="cls-1" d="M288.82,63.17c3,3,6.71,4.26,10.26,5.94a3.82,3.82,0,0,1,2.47,3.63q0,17.25,0,34.49a3.21,3.21,0,0,1-.12.6c-3.58-1.86-7.12-3.59-10.55-5.51a4.49,4.49,0,0,1-2.16-4.06q0-17.25,0-34.5A4.11,4.11,0,0,1,288.82,63.17Z"/><path class="cls-1" d="M328.43,54.59a8.35,8.35,0,0,1-8.21,10.16q-12.48,0-24.94,0c-2.32,0-6.2-3.39-6.5-5.66a3.32,3.32,0,0,1,2.49-3.86,15.63,15.63,0,0,1,4.35-.69c10.63-.06,21.26,0,31.89,0A8.75,8.75,0,0,1,328.43,54.59Z"/><path class="cls-1" d="M417,105.34,408.48,101a18.31,18.31,0,0,1-2-1.06,4.77,4.77,0,0,1-2.28-3.88c-.05-6.63,0-13.26,0-19.88.11,0,.22-.08.25,0,2.85,2.54,6.36,3.93,9.77,5.46A4.21,4.21,0,0,1,417,85.88c-.06,6,0,12.06,0,18.09Z"/><path class="cls-1" d="M127,107.65c-3.5-1.79-6.9-3.45-10.23-5.25a4.4,4.4,0,0,1-2.42-3.9c-.06-6.59,0-13.18,0-19.77,0-.07.07-.13.16-.31,3.07,2.81,7,4.13,10.57,5.92a3.41,3.41,0,0,1,2,3.16c0,6.55,0,13.1,0,19.65A3.88,3.88,0,0,1,127,107.65Z"/><path class="cls-1" d="M222.51,0a9.06,9.06,0,0,1,9.24,9.23,9.24,9.24,0,1,1-18.47-.07A9.15,9.15,0,0,1,222.51,0Z"/><path class="cls-1" d="M365.07,71.78l6.27,3c3.18,1.49,6.35,3,9.52,4.48A5.06,5.06,0,0,1,384,84.13v10.6c-.34-.27-.58-.42-.79-.62-2.47-2.26-5.58-3.36-8.57-4.67q-3.51-1.55-7.05-3a3.88,3.88,0,0,1-2.62-4c0-3.16,0-6.31,0-9.47C365,72.63,365,72.28,365.07,71.78Z"/><path class="cls-1" d="M303.48,93.34h25A8.41,8.41,0,0,1,320,103.52c-5.07,0-10.15,0-15.22,0-1,0-1.3-.27-1.28-1.27C303.52,99.32,303.48,96.38,303.48,93.34Z"/><path class="cls-1" d="M328.41,73.93c.83,5.76-3,10.21-8.64,10.22h-15c-.39,0-.77,0-1.23-.06V73.93Z"/><path class="cls-1" d="M183,33.44a52.94,52.94,0,0,1,1.18-14.29c.16-.67.52-.74,1.12-.7a38.12,38.12,0,0,1,13.57,3.61,39.79,39.79,0,0,1,15.25,11.85.77.77,0,0,1,.18.56l-1.05-.54c-5.81-3-11.9-5-18.5-5.15C190.37,28.7,186.3,29.69,183,33.44Z"/></g></g></svg>