<?xml version="1.0" standalone="no"?>
<!DOCTYPE svg PUBLIC "-//W3C//DTD SVG 20010904//EN"
 "http://www.w3.org/TR/2001/REC-SVG-20010904/DTD/svg10.dtd">
<svg version="1.0" xmlns="http://www.w3.org/2000/svg"
 width="6656.000000pt" height="5428.000000pt" viewBox="0 0 6656.000000 5428.000000"
 preserveAspectRatio="xMidYMid meet">
<metadata>
Created by potrace 1.16, written by Peter Selinger 2001-2019
</metadata>
<g transform="translate(0.000000,5428.000000) scale(0.100000,-0.100000)"
fill="#000000" stroke="none">
<path d="M21918 53423 c-35 -3 -51 -9 -58 -24 -9 -17 -22 -19 -103 -19 -121 0
-164 -8 -170 -30 -4 -14 -19 -18 -87 -22 -63 -4 -85 -9 -92 -21 -7 -14 -25
-17 -88 -17 -74 0 -81 -2 -96 -25 -15 -24 -21 -25 -109 -25 -78 0 -96 -3 -115
-20 -19 -16 -37 -20 -97 -20 -40 0 -73 -4 -73 -9 0 -28 -34 -41 -105 -41 -67
0 -74 -2 -89 -25 -15 -23 -23 -25 -91 -25 -59 0 -76 -3 -83 -17 -8 -13 -31
-17 -116 -21 -82 -4 -106 -8 -106 -19 0 -21 -44 -33 -120 -33 -51 0 -69 -4
-74 -15 -4 -11 -21 -15 -65 -15 -69 0 -111 -13 -111 -35 0 -12 -14 -15 -67
-15 -76 0 -113 -8 -113 -22 0 -5 -13 -23 -29 -39 -22 -21 -39 -29 -65 -29 -30
0 -38 -5 -46 -25 -5 -14 -14 -25 -20 -25 -6 0 -15 -11 -20 -25 -5 -14 -16 -25
-24 -25 -9 0 -20 -9 -26 -20 -7 -14 -21 -20 -44 -20 -25 0 -35 -6 -44 -25 -6
-14 -17 -25 -23 -25 -20 0 -59 -50 -59 -76 0 -33 -17 -64 -35 -64 -8 0 -15 -5
-15 -10 0 -6 -11 -15 -25 -20 -19 -7 -25 -17 -25 -40 0 -18 -8 -37 -20 -47
-14 -12 -20 -30 -20 -56 0 -27 -5 -39 -17 -44 -10 -4 -21 -11 -25 -17 -4 -6
-8 -84 -8 -174 0 -161 0 -162 25 -184 20 -17 25 -31 25 -70 0 -42 -3 -50 -24
-58 -13 -5 -26 -15 -28 -22 -3 -9 -34 -14 -110 -16 -100 -4 -106 -5 -117 -28
-10 -22 -16 -24 -85 -24 -58 0 -77 -4 -84 -16 -7 -12 -31 -17 -97 -22 -72 -4
-88 -8 -92 -23 -6 -20 -32 -29 -91 -29 -35 0 -45 -4 -49 -19 -6 -22 -41 -31
-118 -31 -38 0 -55 -4 -59 -15 -3 -10 -19 -15 -48 -15 -62 0 -88 -9 -88 -31 0
-16 -8 -19 -54 -19 -38 0 -60 -6 -79 -20 -14 -11 -37 -20 -51 -20 -19 0 -29
-7 -36 -25 -9 -23 -15 -25 -70 -25 -55 0 -61 -2 -70 -25 -7 -19 -17 -25 -38
-25 -16 0 -39 -9 -52 -20 -17 -14 -37 -20 -75 -20 -46 0 -53 -3 -63 -25 -9
-19 -19 -25 -44 -25 -25 0 -36 -6 -43 -22 -7 -17 -20 -24 -48 -26 -21 -2 -47
-12 -58 -23 -10 -10 -32 -19 -49 -19 -23 0 -30 -4 -30 -20 0 -15 -9 -21 -41
-26 -22 -4 -43 -13 -46 -20 -3 -8 -16 -14 -30 -14 -32 0 -63 -17 -63 -35 0
-10 -10 -15 -30 -15 -23 0 -42 -11 -74 -45 -34 -34 -52 -45 -75 -45 -24 0 -34
-6 -41 -25 -8 -21 -16 -25 -50 -25 -30 0 -42 -5 -47 -17 -13 -35 -61 -73 -91
-73 -21 0 -32 -7 -40 -25 -6 -14 -18 -25 -26 -25 -9 0 -20 -9 -26 -20 -6 -11
-17 -20 -25 -20 -8 0 -15 -4 -15 -9 0 -19 -32 -41 -60 -41 -19 0 -29 -6 -33
-20 -3 -11 -13 -23 -22 -26 -24 -9 -65 -49 -65 -62 0 -6 -9 -16 -20 -22 -29
-16 -70 -56 -70 -69 0 -6 -11 -16 -25 -21 -14 -5 -25 -17 -25 -25 0 -9 -8 -19
-17 -22 -21 -8 -58 -45 -73 -73 -6 -11 -17 -20 -24 -20 -7 0 -18 -11 -24 -25
-6 -14 -16 -25 -21 -25 -19 0 -61 -51 -61 -73 0 -27 -10 -41 -32 -50 -10 -3
-18 -13 -18 -21 0 -9 -9 -20 -20 -26 -11 -6 -20 -17 -20 -26 0 -8 -11 -19 -25
-24 -20 -8 -25 -16 -25 -45 0 -29 -5 -37 -25 -45 -20 -7 -25 -17 -25 -43 0
-20 -7 -39 -20 -50 -11 -9 -20 -29 -20 -45 0 -21 -7 -32 -25 -40 -21 -10 -25
-19 -25 -51 0 -26 -6 -43 -16 -49 -9 -5 -17 -29 -21 -65 -5 -47 -9 -57 -24
-57 -12 0 -21 -10 -25 -25 -4 -16 -13 -25 -25 -25 -12 0 -21 -9 -25 -25 -5
-20 -12 -25 -39 -25 -19 0 -39 -8 -50 -20 -10 -11 -31 -20 -47 -20 -18 0 -31
-6 -35 -17 -9 -24 -23 -33 -56 -33 -20 0 -30 -7 -37 -25 -5 -14 -17 -25 -25
-25 -9 0 -18 -7 -21 -15 -4 -8 -24 -18 -45 -21 -21 -4 -39 -10 -39 -15 0 -18
-34 -39 -63 -39 -32 0 -67 -27 -80 -62 -4 -11 -17 -18 -34 -18 -33 0 -47 -9
-56 -32 -4 -12 -17 -18 -40 -18 -35 0 -88 -38 -100 -72 -4 -10 -13 -18 -21
-18 -9 0 -20 -9 -26 -20 -7 -14 -21 -20 -44 -20 -25 0 -35 -6 -44 -25 -6 -14
-18 -25 -27 -25 -8 0 -15 -5 -15 -10 0 -22 -69 -80 -96 -80 -27 0 -84 -51 -84
-76 0 -7 -11 -16 -25 -20 -14 -3 -25 -11 -25 -18 0 -6 -9 -17 -20 -24 -11 -7
-20 -19 -20 -27 0 -10 -10 -15 -27 -15 -43 0 -73 -11 -73 -26 0 -8 -7 -14 -15
-14 -8 0 -17 -11 -21 -25 -4 -15 -13 -25 -24 -25 -10 0 -22 -10 -25 -22 -9
-25 -53 -68 -70 -68 -7 0 -16 -11 -19 -25 -4 -16 -13 -25 -25 -25 -12 0 -21
-9 -25 -25 -4 -14 -13 -25 -21 -25 -8 0 -15 -7 -15 -15 0 -8 -11 -17 -25 -21
-16 -4 -25 -13 -25 -25 0 -12 -9 -21 -25 -25 -14 -3 -25 -11 -25 -18 0 -6 -9
-17 -20 -24 -11 -7 -20 -18 -20 -26 0 -7 -9 -16 -20 -19 -11 -3 -23 -13 -26
-22 -10 -25 -53 -65 -69 -65 -8 0 -17 -11 -21 -25 -4 -15 -13 -25 -24 -25 -10
0 -22 -9 -25 -20 -3 -11 -13 -20 -21 -20 -9 0 -14 -11 -14 -34 0 -44 -9 -66
-26 -66 -18 0 -114 -97 -114 -115 0 -8 -11 -17 -25 -21 -14 -3 -25 -11 -25
-18 0 -6 -9 -17 -20 -24 -13 -8 -20 -23 -20 -42 0 -23 -6 -33 -25 -40 -14 -5
-25 -16 -25 -25 0 -9 -11 -20 -25 -25 -14 -5 -25 -17 -25 -25 0 -9 -6 -18 -14
-21 -8 -3 -18 -24 -21 -46 -5 -26 -13 -42 -25 -45 -10 -3 -23 -16 -29 -29 -6
-13 -15 -24 -20 -24 -5 0 -11 -17 -13 -37 -2 -28 -9 -41 -25 -48 -13 -5 -23
-13 -23 -18 0 -4 -11 -12 -25 -17 -20 -8 -25 -16 -25 -43 0 -35 -38 -88 -72
-100 -12 -4 -18 -17 -18 -35 0 -20 -13 -43 -45 -76 -31 -33 -45 -57 -45 -75 0
-20 -7 -31 -25 -39 -21 -10 -25 -19 -25 -52 0 -27 -5 -43 -15 -46 -8 -4 -18
-24 -21 -45 -4 -23 -12 -39 -20 -39 -8 0 -19 -9 -26 -20 -7 -11 -21 -20 -30
-20 -13 0 -19 -12 -24 -49 -4 -28 -12 -52 -20 -55 -8 -3 -14 -16 -14 -30 0
-37 -10 -56 -31 -56 -15 0 -19 -7 -19 -30 0 -20 -9 -39 -25 -54 -14 -13 -25
-33 -25 -45 0 -12 -9 -29 -20 -38 -13 -12 -20 -30 -20 -55 0 -32 -4 -40 -25
-48 -22 -8 -25 -15 -25 -58 0 -35 -6 -56 -20 -72 -11 -13 -20 -37 -20 -57 0
-27 -5 -35 -25 -43 -20 -8 -25 -16 -25 -43 0 -26 -6 -36 -25 -45 -22 -10 -25
-18 -25 -68 0 -40 -5 -60 -16 -68 -10 -8 -18 -34 -21 -74 -5 -52 -9 -62 -24
-62 -14 0 -20 -10 -25 -41 -4 -22 -13 -43 -20 -46 -9 -3 -14 -22 -14 -55 0
-55 -13 -88 -35 -88 -12 0 -15 -14 -15 -62 0 -79 -7 -105 -30 -111 -14 -3 -18
-18 -22 -67 -3 -44 -9 -65 -21 -72 -13 -7 -17 -23 -17 -63 0 -47 -3 -57 -25
-71 -23 -15 -25 -23 -25 -85 0 -61 -3 -72 -25 -91 -22 -19 -25 -29 -25 -94 0
-56 -4 -77 -17 -90 -14 -14 -19 -39 -22 -113 -3 -86 -6 -98 -27 -118 -22 -20
-24 -30 -24 -117 0 -74 -3 -97 -15 -103 -12 -7 -16 -40 -21 -153 -6 -128 -9
-147 -26 -161 -18 -14 -21 -32 -26 -169 -4 -133 -7 -153 -22 -157 -20 -5 -30
-113 -30 -333 0 -96 -4 -140 -12 -148 -18 -18 -19 -1797 -1 -1833 7 -14 14
-98 17 -208 4 -171 6 -184 25 -198 18 -12 21 -25 21 -86 0 -105 11 -177 25
-177 7 0 16 -7 19 -16 3 -9 6 -319 6 -689 0 -672 0 -674 -21 -694 -19 -17 -22
-34 -26 -165 -5 -126 -8 -146 -23 -151 -20 -6 -30 -67 -30 -186 0 -56 -4 -80
-15 -89 -10 -9 -15 -32 -15 -77 0 -68 -12 -103 -34 -103 -10 0 -15 -21 -17
-83 -3 -63 -8 -88 -21 -101 -14 -13 -18 -34 -18 -84 0 -71 -5 -85 -32 -95 -14
-5 -18 -18 -18 -61 0 -48 -3 -58 -25 -72 -21 -14 -25 -24 -25 -68 0 -39 -5
-56 -20 -69 -16 -13 -20 -29 -20 -72 0 -44 -4 -57 -17 -62 -24 -9 -33 -23 -33
-56 0 -17 -7 -30 -17 -34 -27 -10 -33 -23 -33 -81 0 -38 -4 -54 -15 -58 -8 -4
-18 -23 -21 -44 -4 -26 -12 -40 -25 -43 -13 -3 -20 -18 -25 -45 -3 -23 -13
-43 -20 -46 -8 -3 -14 -16 -14 -30 0 -37 -10 -56 -31 -56 -15 0 -19 -7 -19
-34 0 -47 -9 -66 -31 -66 -14 0 -19 -7 -19 -29 0 -15 -9 -40 -20 -54 -11 -14
-20 -37 -20 -51 0 -19 -7 -29 -25 -36 -20 -8 -25 -16 -25 -44 0 -25 -6 -38
-25 -50 -18 -12 -25 -25 -25 -49 0 -20 -8 -39 -20 -50 -12 -10 -20 -29 -20
-47 0 -23 -6 -33 -25 -40 -14 -5 -25 -17 -25 -25 0 -9 -7 -18 -15 -21 -8 -4
-18 -24 -21 -45 -4 -25 -13 -40 -25 -44 -13 -4 -21 -20 -25 -46 -4 -23 -12
-39 -20 -39 -7 0 -19 -10 -25 -22 -7 -13 -18 -27 -25 -31 -8 -4 -14 -19 -14
-32 0 -31 -10 -55 -22 -55 -5 0 -23 -13 -39 -29 -21 -22 -29 -39 -29 -65 0
-30 -5 -38 -25 -46 -14 -5 -25 -14 -25 -20 0 -5 -11 -12 -25 -16 -21 -5 -25
-12 -25 -43 -1 -38 -30 -81 -64 -94 -10 -4 -20 -16 -23 -26 -3 -11 -16 -22
-29 -25 -13 -4 -24 -13 -24 -21 0 -8 -7 -15 -15 -15 -10 0 -16 -16 -21 -50 -4
-32 -11 -50 -20 -50 -16 0 -58 -41 -68 -65 -3 -9 -15 -19 -25 -22 -11 -3 -21
-14 -24 -25 -3 -11 -15 -22 -26 -25 -15 -4 -21 -13 -21 -33 0 -30 -45 -90 -68
-90 -7 0 -16 -8 -19 -17 -9 -22 -109 -123 -123 -123 -6 0 -14 -8 -17 -17 -9
-24 -55 -73 -69 -73 -6 0 -16 -11 -22 -25 -6 -14 -18 -25 -27 -25 -8 0 -15 -5
-15 -10 0 -6 -16 -26 -35 -45 -19 -19 -39 -35 -45 -35 -5 0 -10 -7 -10 -15 0
-8 -9 -20 -20 -27 -11 -7 -20 -21 -20 -30 0 -10 -10 -20 -25 -24 -14 -3 -25
-10 -25 -15 0 -5 -11 -14 -25 -19 -14 -5 -25 -14 -25 -21 0 -14 -50 -63 -73
-72 -9 -3 -17 -13 -17 -21 0 -7 -11 -21 -25 -30 -14 -9 -25 -23 -25 -31 0 -8
-6 -15 -13 -15 -7 0 -18 -9 -25 -20 -7 -11 -19 -20 -27 -20 -8 0 -15 -5 -15
-10 0 -6 -16 -26 -35 -45 -19 -19 -39 -35 -45 -35 -5 0 -10 -7 -10 -15 0 -9
-11 -21 -25 -27 -14 -6 -25 -16 -25 -22 0 -14 -55 -66 -69 -66 -6 0 -16 -11
-21 -25 -5 -14 -14 -25 -20 -25 -5 0 -12 -11 -16 -24 -3 -15 -15 -27 -30 -30
-13 -4 -24 -11 -24 -16 0 -6 -11 -15 -25 -20 -14 -5 -25 -15 -25 -21 0 -14
-52 -69 -66 -69 -6 0 -16 -11 -22 -25 -9 -20 -19 -25 -46 -25 -25 0 -35 -5
-39 -20 -3 -11 -13 -23 -22 -26 -25 -10 -65 -53 -65 -69 0 -8 -11 -17 -25 -21
-16 -4 -25 -13 -25 -25 0 -12 -9 -21 -25 -25 -14 -3 -25 -12 -25 -20 0 -8 -7
-14 -15 -14 -8 0 -17 -11 -21 -25 -3 -14 -12 -25 -18 -25 -17 0 -86 -63 -86
-78 0 -6 -7 -12 -15 -12 -8 0 -17 -11 -21 -25 -3 -14 -12 -25 -20 -25 -16 0
-58 -41 -68 -65 -3 -9 -15 -19 -26 -22 -11 -3 -20 -9 -20 -14 0 -5 -11 -15
-25 -21 -14 -6 -25 -17 -25 -25 0 -7 -9 -18 -20 -25 -11 -7 -20 -21 -20 -30 0
-10 -10 -20 -25 -24 -14 -3 -25 -12 -25 -20 0 -8 -7 -14 -15 -14 -8 0 -17 -11
-21 -24 -3 -13 -15 -26 -26 -29 -11 -3 -22 -15 -25 -26 -4 -16 -13 -21 -39
-21 -23 0 -38 -6 -46 -20 -7 -11 -21 -20 -30 -20 -10 0 -20 -10 -24 -25 -3
-14 -12 -25 -20 -25 -16 0 -58 -41 -68 -65 -3 -9 -15 -19 -25 -22 -11 -3 -22
-16 -25 -29 -4 -13 -13 -24 -21 -24 -8 0 -15 -7 -15 -15 0 -8 -11 -17 -25 -21
-16 -4 -25 -13 -25 -25 0 -12 -9 -21 -25 -25 -14 -3 -25 -12 -25 -20 0 -16
-41 -58 -65 -68 -9 -3 -19 -15 -22 -25 -3 -11 -16 -22 -29 -25 -13 -4 -24 -13
-24 -21 0 -8 -7 -15 -15 -15 -8 0 -17 -11 -21 -25 -4 -16 -13 -25 -25 -25 -12
0 -21 -9 -25 -25 -5 -20 -12 -25 -38 -25 -19 0 -38 -8 -49 -20 -9 -11 -23 -20
-31 -20 -8 0 -17 -11 -20 -25 -4 -14 -13 -25 -21 -25 -8 0 -15 -7 -15 -15 0
-8 -11 -17 -25 -21 -14 -3 -25 -13 -25 -23 0 -9 -9 -22 -20 -29 -11 -7 -20
-18 -20 -25 0 -8 -11 -19 -25 -25 -14 -6 -25 -16 -25 -21 0 -5 -9 -11 -21 -14
-11 -3 -23 -15 -26 -26 -3 -12 -9 -21 -14 -21 -5 0 -15 -11 -21 -25 -6 -14
-16 -25 -23 -25 -6 0 -21 -10 -33 -22 -53 -56 -69 -68 -91 -68 -23 0 -72 -42
-84 -72 -3 -10 -13 -18 -22 -18 -8 0 -20 -11 -25 -25 -5 -14 -15 -25 -21 -25
-14 0 -69 -52 -69 -66 0 -6 -11 -16 -25 -22 -14 -6 -25 -16 -25 -21 0 -24 -52
-61 -85 -61 -24 0 -38 -6 -45 -20 -16 -29 -56 -70 -69 -70 -6 0 -16 -11 -21
-25 -8 -20 -16 -25 -45 -25 -29 0 -37 -5 -45 -25 -5 -14 -14 -25 -21 -25 -14
0 -69 -55 -69 -69 0 -7 -11 -16 -25 -21 -14 -5 -25 -13 -25 -18 0 -5 -11 -14
-25 -20 -14 -6 -25 -16 -25 -22 0 -5 -8 -19 -17 -29 -10 -11 -23 -26 -30 -33
-7 -7 -24 -22 -39 -33 -14 -11 -31 -26 -37 -33 -7 -7 -20 -21 -29 -30 -10 -9
-18 -22 -18 -30 0 -7 -8 -16 -17 -19 -23 -9 -73 -58 -73 -72 0 -7 -11 -16 -25
-21 -14 -5 -25 -14 -25 -20 0 -6 -11 -15 -25 -20 -14 -5 -25 -15 -25 -23 0 -7
-9 -20 -20 -30 -11 -9 -20 -29 -20 -45 0 -21 -7 -32 -25 -40 -14 -6 -25 -18
-25 -26 0 -7 -6 -16 -14 -19 -8 -3 -17 -24 -21 -46 -4 -26 -12 -41 -21 -41 -8
0 -19 -11 -25 -24 -6 -13 -20 -26 -30 -29 -11 -3 -20 -18 -25 -43 -4 -22 -13
-43 -20 -49 -7 -5 -14 -23 -16 -40 -2 -20 -11 -33 -25 -40 -20 -8 -23 -17 -23
-62 0 -44 -4 -57 -25 -75 -25 -21 -25 -23 -25 -195 0 -156 2 -174 18 -180 23
-9 32 -23 32 -56 0 -20 7 -30 25 -37 14 -5 25 -15 25 -22 0 -7 11 -23 25 -36
l24 -23 327 0 c281 0 329 2 343 15 13 12 40 16 107 16 106 0 131 6 137 31 4
15 14 19 50 19 29 0 53 7 70 20 18 14 40 20 76 20 46 0 53 3 61 25 9 23 15 25
70 25 55 0 61 2 70 25 9 23 15 25 68 25 45 0 61 4 75 20 13 15 29 20 70 20 48
0 55 3 65 25 9 20 19 25 47 25 28 0 35 4 35 19 0 24 19 31 81 31 33 0 51 5 55
14 3 7 23 17 46 20 28 5 42 12 45 26 3 12 17 21 43 25 21 4 41 13 44 21 3 9
20 14 46 14 33 0 42 4 52 25 10 22 18 25 60 25 39 0 53 5 72 25 14 15 34 25
50 25 14 0 34 9 43 20 11 13 30 20 50 20 26 0 36 5 43 25 7 19 17 25 38 25 16
0 37 9 47 20 11 12 31 20 52 20 26 0 33 4 33 19 0 22 19 31 66 31 27 0 34 4
34 19 0 21 19 31 56 31 14 0 27 7 30 15 4 8 18 15 33 15 58 0 104 13 108 31 3
11 19 20 44 24 24 4 40 13 44 25 4 12 20 21 45 25 21 4 41 13 44 21 3 8 19 14
36 14 20 0 39 9 54 25 14 15 34 25 50 25 14 0 34 9 43 20 11 13 30 20 50 20
26 0 36 5 43 25 7 19 17 25 39 25 20 0 34 8 45 25 14 21 24 25 69 25 40 0 57
5 70 20 10 12 29 20 47 20 20 0 33 6 37 18 9 24 23 32 61 32 22 0 35 6 39 18
9 23 23 32 56 32 15 0 30 6 33 14 3 8 23 17 44 21 25 4 41 13 45 25 4 12 20
21 45 25 21 4 41 13 44 21 3 8 18 14 33 14 33 0 47 9 56 32 4 13 20 18 64 20
49 3 60 6 68 26 8 17 18 22 47 22 26 0 44 7 55 20 10 11 30 20 45 20 21 0 32
7 40 25 8 19 19 25 42 25 19 0 38 8 49 20 10 12 29 20 47 20 20 0 33 6 37 18
9 23 23 32 54 32 15 0 35 11 47 25 14 16 32 25 52 25 17 0 33 6 36 14 3 8 23
17 44 21 25 4 41 13 45 25 4 14 20 19 69 25 50 5 65 10 69 25 3 12 18 20 45
25 22 3 43 13 46 20 3 8 20 15 38 17 23 2 36 10 43 26 8 17 18 22 47 22 26 0
44 7 55 20 10 11 30 20 45 20 21 0 32 7 40 25 9 19 19 25 45 25 27 0 35 5 43
25 7 20 17 25 43 25 20 0 39 7 50 20 13 16 29 20 72 20 44 0 57 4 62 18 9 23
23 32 53 32 17 0 29 8 35 23 8 16 20 23 50 25 22 2 43 10 48 17 4 7 25 16 46
20 26 4 41 13 44 25 3 12 18 20 45 25 22 3 43 13 46 20 3 8 20 15 38 17 23 2
36 10 43 25 7 17 19 23 50 25 30 2 42 8 50 26 8 18 18 22 57 22 36 0 53 5 65
20 12 13 30 20 55 20 32 0 40 4 48 25 7 20 17 25 43 25 20 0 39 7 50 20 10 12
29 20 47 20 20 0 33 6 37 18 9 23 23 32 53 32 17 0 29 8 35 23 8 16 20 23 50
25 22 2 44 10 48 18 14 25 27 5 27 -41 0 -52 8 -75 25 -75 20 0 25 -24 25
-120 0 -71 3 -92 18 -106 12 -13 18 -38 21 -96 2 -57 7 -78 17 -78 22 0 34
-35 34 -104 0 -56 3 -67 22 -80 19 -14 23 -27 26 -94 2 -46 9 -81 16 -87 7 -6
16 -46 19 -90 6 -64 11 -83 27 -94 11 -7 20 -24 20 -36 0 -47 13 -88 30 -92
14 -4 18 -21 23 -91 5 -61 11 -90 22 -98 10 -7 15 -28 15 -60 0 -54 6 -67 33
-77 13 -5 17 -18 17 -62 0 -43 4 -59 20 -72 15 -13 20 -30 20 -69 0 -44 3 -52
25 -62 24 -11 25 -16 25 -92 0 -77 1 -81 25 -90 20 -8 25 -16 25 -44 0 -22 6
-38 17 -44 12 -7 18 -27 21 -72 3 -45 9 -63 21 -68 25 -9 31 -23 31 -79 0 -29
4 -53 9 -53 25 0 41 -34 41 -85 0 -35 4 -55 14 -58 7 -3 16 -24 20 -46 5 -31
11 -41 25 -41 15 0 19 -10 24 -61 3 -34 12 -68 21 -78 9 -10 16 -30 16 -45 0
-19 7 -30 25 -38 19 -9 25 -19 25 -45 0 -27 5 -35 25 -43 18 -7 25 -17 25 -37
0 -16 9 -41 20 -58 13 -19 20 -47 20 -78 0 -41 3 -49 25 -57 20 -8 25 -16 25
-46 0 -37 24 -70 70 -94 14 -7 20 -21 20 -43 0 -24 6 -35 23 -42 16 -8 23 -20
25 -49 2 -22 9 -45 17 -50 7 -6 16 -28 19 -48 5 -29 12 -38 26 -38 11 0 20 -4
20 -10 0 -5 11 -19 24 -32 13 -13 27 -36 30 -53 7 -29 57 -85 77 -85 5 0 9
-17 9 -38 0 -26 7 -45 20 -57 11 -10 20 -31 20 -47 0 -21 6 -31 25 -38 20 -8
25 -16 25 -45 0 -29 5 -37 25 -45 20 -8 25 -16 25 -44 0 -22 6 -38 17 -44 12
-7 18 -27 21 -70 4 -51 8 -61 28 -71 18 -8 24 -18 24 -43 0 -25 6 -36 23 -43
16 -8 23 -20 25 -49 2 -22 9 -45 17 -50 7 -6 16 -28 19 -48 5 -28 12 -38 25
-38 14 0 20 -10 25 -39 3 -21 13 -44 21 -51 8 -7 15 -25 15 -41 0 -22 7 -32
25 -41 20 -9 25 -18 25 -50 0 -31 5 -41 25 -50 19 -9 25 -19 25 -44 0 -23 6
-37 20 -44 14 -8 20 -21 20 -46 0 -28 5 -36 25 -44 14 -5 25 -15 25 -23 0 -7
9 -20 20 -30 12 -10 20 -29 20 -47 0 -20 6 -33 18 -37 23 -9 32 -23 32 -54 0
-18 8 -29 25 -37 14 -6 25 -18 25 -26 0 -7 6 -16 14 -19 7 -3 16 -23 20 -45 4
-27 12 -41 24 -44 13 -4 21 -18 26 -47 5 -31 11 -41 25 -41 14 0 20 -10 24
-45 7 -46 44 -95 73 -95 9 0 14 -12 14 -33 0 -21 8 -41 20 -52 12 -11 20 -31
20 -50 0 -24 7 -37 25 -49 17 -12 25 -25 25 -46 0 -23 6 -33 25 -40 20 -7 25
-17 25 -43 0 -20 7 -39 20 -50 12 -10 20 -29 20 -47 0 -20 6 -33 18 -37 23 -9
32 -23 32 -54 0 -15 6 -32 14 -38 7 -6 16 -29 20 -51 4 -25 12 -41 25 -45 14
-4 20 -19 24 -62 4 -40 12 -62 25 -73 14 -10 22 -33 27 -72 3 -31 13 -62 21
-69 9 -7 14 -30 14 -60 0 -43 3 -51 25 -61 24 -11 25 -15 25 -107 0 -100 4
-113 33 -124 71 -26 -72 -41 -350 -35 -167 3 -202 6 -223 21 -21 14 -50 17
-198 17 -172 0 -173 0 -196 25 -22 23 -30 25 -120 25 -83 0 -98 2 -103 18 -4
9 -11 20 -17 24 -6 4 -86 8 -178 8 l-168 0 -16 -25 c-11 -17 -25 -25 -46 -25
-22 0 -31 -6 -35 -21 -3 -11 -16 -25 -29 -30 -18 -6 -24 -16 -24 -37 0 -18 -9
-36 -25 -50 l-25 -22 0 -647 c0 -357 3 -658 6 -670 4 -13 12 -23 19 -23 18 0
25 -47 25 -161 l0 -99 -104 0 c-94 0 -105 2 -111 19 -8 26 -33 31 -154 31 -76
0 -109 4 -120 14 -11 10 -55 17 -136 22 -98 6 -122 10 -132 25 -11 14 -36 18
-163 24 -107 6 -153 11 -161 21 -9 11 -45 14 -148 14 -167 0 -208 6 -214 31
-5 18 -17 19 -164 19 -187 0 -230 6 -236 30 -4 16 -25 18 -246 21 -201 3 -243
7 -251 19 -8 13 -55 16 -290 20 -267 5 -282 6 -296 25 -15 20 -28 20 -1119 23
l-1105 3 0 -46 c0 -30 5 -47 14 -51 7 -3 17 -23 20 -46 5 -27 12 -42 25 -45
14 -3 21 -18 26 -49 3 -25 13 -48 21 -51 8 -3 14 -19 14 -39 0 -27 5 -37 25
-46 22 -10 25 -18 25 -62 0 -56 6 -69 32 -79 12 -4 18 -17 18 -37 0 -18 8 -37
20 -47 13 -11 20 -30 20 -50 0 -26 5 -36 25 -43 20 -8 25 -16 25 -44 0 -25 6
-38 25 -50 16 -11 25 -26 25 -42 0 -14 9 -37 20 -51 11 -14 20 -39 20 -54 0
-19 5 -29 15 -29 21 0 35 -33 35 -85 0 -30 5 -47 14 -51 7 -3 17 -23 20 -46 5
-27 12 -42 25 -45 13 -3 21 -17 25 -43 4 -25 12 -41 25 -45 14 -4 20 -19 25
-67 4 -39 12 -65 21 -71 8 -4 15 -20 15 -35 0 -32 9 -46 33 -55 13 -5 17 -18
17 -56 0 -62 7 -81 31 -81 15 0 19 -7 19 -33 0 -21 8 -41 20 -52 15 -14 20
-31 20 -72 0 -48 3 -54 25 -63 21 -8 25 -16 25 -49 0 -27 5 -43 17 -49 11 -7
18 -28 21 -67 3 -40 9 -58 21 -63 25 -9 31 -23 31 -79 0 -29 4 -53 9 -53 25 0
41 -34 41 -85 0 -38 4 -54 15 -59 8 -3 15 -18 15 -33 0 -62 12 -103 30 -103
14 0 18 -12 24 -62 3 -38 12 -67 21 -74 9 -7 15 -27 15 -50 0 -56 9 -81 31
-87 16 -4 19 -14 19 -57 0 -41 5 -55 24 -73 20 -19 24 -34 28 -100 3 -61 7
-81 21 -88 14 -8 17 -24 17 -85 0 -67 3 -76 25 -96 22 -19 25 -29 25 -95 0
-61 3 -75 17 -80 30 -11 33 -24 33 -142 0 -94 3 -118 17 -134 15 -16 18 -50
23 -252 5 -219 6 -235 25 -249 19 -13 20 -28 23 -200 3 -144 7 -188 18 -197
20 -16 20 -162 0 -178 -11 -10 -15 -56 -18 -222 -3 -201 -4 -211 -25 -227 -18
-15 -22 -29 -25 -114 -3 -73 -8 -101 -21 -116 -13 -14 -17 -37 -17 -91 0 -67
-2 -72 -25 -81 -24 -9 -25 -14 -25 -87 0 -82 -4 -96 -33 -106 -13 -5 -17 -18
-17 -60 0 -41 -5 -58 -20 -72 -12 -11 -20 -31 -20 -52 0 -26 -4 -33 -19 -33
-24 0 -31 -19 -31 -81 0 -38 -4 -51 -18 -56 -23 -9 -32 -23 -32 -56 0 -15 -7
-30 -15 -33 -8 -4 -18 -24 -21 -45 -4 -25 -13 -40 -25 -44 -13 -4 -21 -20 -25
-45 -4 -21 -13 -41 -20 -44 -8 -3 -14 -19 -14 -35 0 -40 -9 -61 -26 -61 -8 0
-17 -7 -21 -16 -3 -8 -16 -20 -29 -25 -19 -7 -24 -16 -24 -42 0 -36 -28 -74
-68 -96 -15 -8 -22 -21 -22 -40 0 -15 -9 -36 -20 -46 -11 -10 -20 -23 -20 -29
0 -6 -10 -16 -23 -21 -16 -7 -23 -20 -25 -47 -2 -29 -8 -37 -25 -40 -12 -2
-23 -12 -26 -23 -2 -11 -12 -26 -22 -33 -11 -7 -19 -19 -19 -26 0 -8 -9 -16
-20 -19 -14 -3 -21 -17 -26 -46 -4 -24 -12 -41 -20 -41 -16 0 -58 -41 -68 -65
-3 -9 -15 -19 -26 -22 -11 -3 -20 -12 -20 -19 0 -8 -9 -19 -20 -26 -11 -7 -20
-18 -20 -24 0 -7 -11 -15 -25 -18 -16 -4 -25 -13 -25 -26 0 -11 -6 -20 -14
-20 -18 0 -76 -57 -76 -75 0 -8 -10 -15 -22 -17 -15 -2 -24 -11 -26 -25 -2
-13 -9 -23 -17 -23 -18 0 -75 -58 -75 -76 0 -8 -9 -14 -20 -14 -13 0 -22 -9
-26 -25 -3 -14 -11 -25 -18 -25 -6 0 -17 -9 -24 -20 -7 -11 -18 -20 -26 -20
-7 0 -16 -9 -19 -20 -3 -11 -13 -23 -22 -26 -24 -10 -65 -52 -65 -68 0 -8 -11
-17 -25 -20 -15 -4 -25 -13 -25 -25 0 -14 -10 -20 -40 -25 -21 -3 -43 -12 -47
-20 -4 -8 -17 -15 -28 -17 -12 -3 -21 -14 -23 -27 -2 -12 -8 -22 -13 -22 -5 0
-15 -11 -21 -25 -6 -14 -17 -25 -23 -25 -7 0 -20 -9 -30 -20 -10 -11 -31 -20
-47 -20 -21 0 -31 -6 -38 -25 -5 -14 -16 -25 -23 -25 -8 0 -22 -9 -32 -20 -10
-11 -31 -20 -47 -20 -21 0 -31 -6 -38 -25 -5 -14 -17 -25 -25 -25 -9 0 -19 -8
-22 -17 -9 -24 -23 -33 -56 -33 -15 0 -30 -7 -33 -15 -3 -8 -14 -17 -24 -20
-11 -3 -22 -14 -25 -24 -3 -12 -19 -21 -43 -25 -37 -6 -72 -35 -85 -68 -5 -13
-17 -18 -47 -18 -34 0 -42 -4 -50 -25 -7 -19 -17 -25 -38 -25 -30 0 -84 -41
-95 -73 -5 -12 -17 -17 -47 -17 -34 0 -42 -4 -50 -25 -7 -18 -17 -25 -36 -25
-14 0 -37 -9 -51 -20 -14 -11 -38 -20 -52 -20 -18 0 -29 -7 -36 -22 -7 -15
-20 -24 -40 -26 -16 -2 -34 -9 -40 -16 -5 -7 -31 -16 -58 -20 -36 -6 -47 -11
-47 -25 0 -14 -10 -20 -40 -25 -23 -4 -43 -13 -47 -22 -13 -35 -54 -64 -88
-64 -24 0 -38 -6 -45 -20 -24 -46 -57 -70 -94 -70 -30 0 -38 -5 -46 -25 -8
-20 -16 -25 -45 -25 -25 0 -38 -5 -42 -18 -9 -22 -53 -66 -75 -75 -10 -3 -18
-13 -18 -21 0 -16 -21 -26 -55 -26 -15 0 -26 -7 -30 -21 -4 -11 -18 -24 -31
-29 -13 -5 -24 -14 -24 -18 0 -5 -18 -12 -40 -16 -25 -4 -40 -12 -40 -21 0 -8
-9 -19 -20 -25 -28 -15 -65 -52 -73 -73 -3 -9 -13 -17 -22 -17 -8 0 -20 -11
-25 -25 -7 -19 -17 -25 -40 -25 -18 0 -37 -8 -47 -20 -10 -11 -23 -20 -30 -20
-8 0 -18 -11 -23 -25 -5 -14 -14 -25 -20 -25 -5 0 -12 -11 -16 -25 -3 -14 -13
-25 -23 -25 -9 0 -22 -9 -29 -20 -7 -11 -19 -20 -27 -20 -8 0 -15 -5 -15 -10
0 -13 -66 -80 -79 -80 -5 0 -11 -8 -14 -19 -3 -12 -17 -20 -46 -25 -32 -5 -41
-11 -41 -26 0 -11 -6 -20 -14 -20 -19 0 -76 -57 -76 -76 0 -8 -9 -14 -20 -14
-10 0 -24 -9 -30 -20 -6 -11 -17 -20 -24 -20 -16 0 -26 -22 -26 -57 0 -26 -46
-83 -67 -83 -7 0 -13 -5 -13 -10 0 -14 -116 -130 -129 -130 -6 0 -11 -6 -11
-13 0 -8 -9 -22 -20 -32 -11 -10 -20 -31 -20 -47 0 -21 -6 -31 -25 -38 -14 -5
-25 -16 -25 -25 0 -9 -11 -20 -25 -25 -20 -8 -25 -16 -25 -44 0 -25 -6 -38
-20 -46 -11 -6 -20 -17 -20 -26 0 -8 -8 -18 -18 -21 -23 -9 -32 -23 -32 -52 0
-22 -52 -81 -71 -81 -4 0 -11 -20 -14 -45 -5 -30 -13 -46 -25 -50 -12 -4 -21
-20 -25 -45 -4 -21 -13 -41 -21 -44 -10 -4 -14 -22 -14 -58 0 -58 -6 -71 -33
-81 -11 -4 -17 -17 -17 -36 0 -22 -8 -35 -25 -47 -21 -14 -25 -24 -25 -64 0
-32 -6 -55 -20 -73 -17 -21 -20 -40 -20 -122 0 -87 -2 -97 -19 -102 -11 -3
-22 -15 -25 -26 -7 -29 -7 -525 0 -554 3 -11 14 -23 25 -26 17 -5 19 -15 19
-102 0 -82 3 -101 20 -122 14 -19 20 -41 20 -79 0 -46 3 -54 19 -54 21 0 31
-19 31 -56 0 -14 7 -27 18 -31 23 -9 32 -23 32 -56 0 -15 6 -30 14 -33 8 -3
17 -23 21 -45 4 -21 15 -45 24 -52 10 -6 21 -29 25 -49 4 -23 14 -39 25 -43
12 -3 21 -19 26 -42 5 -26 23 -52 66 -94 47 -46 59 -64 59 -89 0 -23 6 -33 25
-40 14 -5 25 -16 25 -25 0 -9 11 -20 25 -25 14 -5 25 -15 25 -21 0 -14 41 -53
64 -62 9 -4 19 -14 23 -23 9 -23 98 -114 112 -114 6 0 15 -9 21 -20 15 -28 52
-65 73 -73 9 -3 17 -13 17 -22 0 -8 11 -20 25 -25 14 -5 25 -15 25 -21 0 -13
41 -53 70 -69 11 -6 20 -16 20 -22 0 -12 36 -46 66 -64 13 -7 20 -25 22 -53 2
-25 8 -41 16 -41 13 0 76 -66 76 -81 0 -5 7 -9 15 -9 9 0 21 -11 27 -25 6 -14
16 -25 22 -25 14 0 66 -55 66 -69 0 -6 11 -16 25 -21 19 -7 25 -17 25 -40 0
-19 7 -34 20 -42 11 -7 20 -17 20 -21 0 -16 62 -67 82 -67 28 0 58 -18 58 -35
0 -8 6 -15 14 -15 7 0 29 -20 47 -45 19 -24 40 -45 47 -45 7 0 18 -11 24 -25
6 -14 16 -25 22 -25 14 0 60 -49 69 -72 3 -10 13 -18 22 -18 8 0 20 -11 25
-25 5 -14 16 -25 23 -25 8 0 22 -9 32 -20 10 -11 31 -20 47 -20 18 0 31 -6 35
-18 8 -21 45 -57 68 -66 9 -3 19 -15 22 -25 3 -12 17 -21 38 -24 22 -4 48 -20
73 -46 22 -23 45 -41 51 -41 6 0 17 -11 23 -25 9 -19 19 -25 45 -25 23 0 36
-6 40 -18 9 -22 58 -72 72 -72 7 0 16 -11 21 -25 8 -20 16 -25 44 -25 25 0 38
-6 46 -20 6 -11 17 -20 26 -20 8 0 18 -8 21 -18 9 -22 23 -32 50 -32 13 0 39
-17 60 -39 25 -25 51 -41 75 -45 24 -4 38 -12 38 -22 0 -8 11 -19 24 -25 13
-6 26 -19 29 -29 3 -11 18 -19 45 -23 22 -4 42 -13 45 -21 3 -8 21 -16 39 -18
23 -2 36 -10 43 -25 5 -13 15 -23 22 -23 7 0 21 -9 30 -20 10 -12 30 -20 48
-20 22 0 33 -6 40 -22 6 -15 21 -24 39 -26 18 -2 46 -20 73 -48 33 -32 53 -44
74 -44 19 0 32 -6 36 -17 9 -24 23 -33 56 -33 15 0 30 -6 33 -14 3 -7 23 -16
44 -20 25 -4 41 -12 45 -25 4 -13 18 -20 47 -24 22 -3 45 -11 49 -19 31 -50
55 -68 92 -68 31 0 39 -4 47 -25 7 -19 17 -25 40 -25 20 0 38 -9 52 -25 12
-14 32 -25 45 -25 13 0 31 -9 40 -20 10 -12 30 -20 48 -20 22 0 33 -6 40 -23
7 -14 20 -23 40 -25 17 -2 35 -10 42 -19 7 -8 32 -18 56 -20 32 -4 46 -11 53
-27 6 -14 20 -22 42 -24 20 -2 36 -10 39 -20 9 -23 23 -32 56 -32 15 0 30 -6
33 -14 3 -7 23 -16 44 -20 25 -4 41 -12 45 -25 4 -14 19 -19 66 -24 45 -4 65
-10 75 -25 7 -11 30 -22 53 -26 21 -3 41 -13 45 -21 3 -8 18 -15 33 -15 33 0
47 -9 56 -32 4 -12 17 -18 37 -18 18 0 37 -8 47 -20 14 -16 30 -20 73 -20 48
0 57 -3 65 -22 7 -16 20 -24 43 -26 21 -2 38 -12 48 -28 11 -16 26 -24 45 -24
16 0 32 -7 37 -17 7 -12 27 -18 72 -21 45 -3 63 -9 68 -21 8 -22 22 -31 53
-31 15 0 29 -7 33 -15 3 -8 16 -15 28 -15 40 0 67 -12 73 -31 4 -13 16 -19 34
-19 52 0 90 -12 96 -30 4 -13 20 -19 62 -22 35 -3 60 -11 68 -21 6 -8 29 -17
51 -19 29 -2 41 -9 49 -26 8 -18 18 -22 58 -22 38 0 53 -5 71 -25 18 -20 33
-25 70 -25 34 0 51 -5 63 -20 12 -13 30 -20 55 -20 32 0 40 -4 48 -25 8 -22
16 -25 56 -25 31 0 54 -7 71 -20 19 -14 41 -20 79 -20 46 0 54 -3 54 -19 0
-21 26 -31 84 -31 28 0 45 -7 62 -25 13 -14 34 -25 49 -25 14 0 28 -7 31 -15
4 -10 20 -15 48 -15 57 0 84 -9 91 -30 4 -13 20 -19 67 -23 41 -4 64 -11 70
-21 5 -9 21 -16 36 -16 32 0 46 -9 55 -32 4 -13 20 -18 64 -20 49 -3 60 -6 68
-25 8 -20 17 -23 66 -23 43 0 60 -5 74 -20 14 -15 31 -20 72 -20 48 0 54 -3
63 -25 8 -20 16 -25 44 -25 25 0 38 -6 50 -25 14 -22 24 -25 71 -25 40 0 56
-4 63 -17 7 -12 27 -18 70 -21 51 -4 61 -8 71 -28 8 -19 18 -24 45 -24 21 0
36 -6 40 -15 3 -10 19 -15 48 -15 62 0 88 -9 88 -31 0 -16 8 -19 44 -19 54 0
96 -15 96 -33 0 -9 15 -17 39 -21 21 -3 41 -13 45 -21 4 -11 20 -15 58 -15 58
0 71 -6 81 -32 5 -14 18 -18 62 -18 46 0 59 -4 77 -25 17 -20 31 -25 70 -25
36 0 53 -5 65 -20 10 -12 30 -20 48 -20 22 0 33 -6 40 -22 8 -19 19 -23 65
-26 36 -2 59 -8 67 -19 8 -10 33 -18 69 -21 39 -3 57 -9 62 -21 8 -23 23 -31
60 -31 22 0 35 -6 39 -17 10 -27 23 -33 79 -33 37 0 54 -4 58 -15 3 -9 18 -15
34 -15 56 0 92 -12 92 -30 0 -14 11 -18 61 -22 41 -3 66 -10 73 -21 7 -8 30
-17 52 -19 29 -2 41 -9 49 -26 8 -18 18 -22 58 -22 38 0 53 -5 71 -25 18 -20
33 -25 70 -25 34 0 51 -5 63 -20 11 -13 30 -20 50 -20 26 0 36 -5 43 -25 9
-22 15 -25 63 -25 44 0 57 -4 75 -25 18 -20 31 -25 71 -25 36 0 53 -5 59 -17
7 -12 27 -18 72 -21 45 -3 63 -9 68 -21 8 -22 23 -31 55 -31 15 0 30 -7 33
-15 4 -10 20 -15 48 -15 58 0 83 -9 89 -31 4 -15 14 -19 49 -19 59 0 85 -9 91
-29 3 -12 18 -20 45 -24 22 -4 42 -13 45 -21 4 -10 25 -16 64 -18 49 -3 60 -6
68 -25 8 -20 17 -23 63 -23 44 0 57 -4 76 -25 18 -20 33 -25 70 -25 34 0 51
-5 63 -20 11 -13 30 -20 50 -20 26 0 36 -5 43 -25 9 -23 15 -25 69 -25 46 0
62 -4 69 -17 7 -12 27 -18 69 -21 49 -3 61 -8 69 -26 6 -15 20 -22 47 -24 28
-2 37 -8 37 -21 0 -22 26 -31 88 -31 29 0 45 -5 48 -15 4 -10 20 -15 49 -15
53 0 95 -15 95 -33 0 -9 15 -17 39 -21 21 -3 41 -13 45 -21 4 -11 21 -15 66
-15 55 0 61 -2 70 -25 8 -22 15 -25 62 -25 58 0 71 -6 81 -32 5 -14 18 -18 55
-18 36 0 54 -5 67 -20 12 -13 31 -20 54 -20 28 0 39 -5 46 -23 8 -19 19 -22
68 -25 44 -2 60 -7 64 -20 10 -26 24 -32 73 -32 33 0 50 -6 63 -20 11 -13 29
-20 52 -20 25 0 38 -5 42 -17 10 -27 23 -33 79 -33 37 0 54 -4 58 -15 3 -10
19 -15 43 -15 56 0 83 -10 83 -30 0 -14 11 -18 62 -22 49 -4 64 -9 76 -26 8
-12 25 -22 38 -22 13 0 32 -9 41 -20 14 -16 30 -20 75 -20 53 0 59 -2 68 -25
9 -23 15 -25 65 -25 43 0 59 -4 72 -20 11 -13 30 -20 50 -20 26 0 36 -5 43
-25 9 -22 15 -25 63 -25 44 0 57 -4 75 -25 18 -20 31 -25 71 -25 36 0 53 -5
59 -17 7 -12 27 -18 72 -21 45 -3 63 -9 68 -21 8 -22 22 -31 51 -31 13 0 34
-11 47 -25 19 -20 33 -25 72 -25 35 0 52 -4 56 -15 3 -10 19 -15 48 -15 59 0
85 -9 91 -29 3 -12 18 -20 45 -24 22 -4 42 -13 45 -21 4 -10 25 -16 64 -18 49
-3 60 -6 68 -25 8 -20 17 -23 68 -23 52 0 59 -3 69 -25 8 -19 19 -25 42 -25
19 0 38 -8 49 -20 13 -16 29 -20 72 -20 50 0 56 -2 65 -25 9 -23 15 -25 69
-25 52 0 61 -3 75 -25 14 -21 24 -25 62 -25 31 0 54 -7 71 -20 14 -11 39 -20
54 -20 22 0 29 -5 29 -19 0 -22 26 -31 88 -31 29 0 45 -5 48 -15 4 -10 20 -15
49 -15 55 0 95 -15 95 -35 0 -10 10 -15 28 -15 31 0 46 -9 54 -31 5 -12 23
-18 68 -21 45 -3 65 -9 72 -21 6 -13 23 -17 61 -17 57 0 70 -6 80 -32 5 -14
18 -18 55 -18 36 0 54 -5 67 -20 12 -13 31 -20 54 -20 28 0 39 -5 46 -22 8
-19 19 -24 62 -26 42 -2 54 -8 67 -27 14 -21 24 -25 69 -25 40 0 57 -5 70 -20
11 -13 29 -20 52 -20 25 0 38 -5 42 -17 10 -27 23 -33 75 -33 37 0 48 -4 53
-19 6 -21 33 -31 88 -31 24 0 40 -5 43 -15 4 -10 20 -15 49 -15 53 0 95 -15
95 -33 0 -9 15 -17 39 -21 21 -3 41 -13 45 -21 4 -11 21 -15 66 -15 55 0 61
-2 70 -25 9 -23 15 -25 65 -25 46 0 59 -4 77 -25 12 -14 31 -25 43 -25 12 0
30 -9 40 -20 14 -15 31 -20 74 -20 49 0 58 -3 66 -22 8 -19 19 -23 68 -26 48
-3 60 -7 73 -28 11 -16 26 -24 45 -24 16 0 32 -7 37 -17 7 -12 27 -18 72 -21
45 -3 63 -9 68 -21 9 -25 23 -31 78 -31 37 0 54 -4 58 -15 3 -10 19 -15 48
-15 60 0 85 -9 91 -31 3 -13 14 -19 32 -19 14 0 36 -10 48 -24 16 -17 36 -25
76 -28 34 -3 59 -12 66 -22 9 -11 28 -16 69 -16 50 0 58 -3 68 -25 8 -19 19
-25 42 -25 19 0 38 -8 49 -20 13 -16 29 -20 72 -20 50 0 56 -2 65 -25 9 -23
15 -25 70 -25 55 0 61 -2 70 -25 8 -22 15 -25 61 -25 36 0 58 -6 76 -20 14
-11 39 -20 54 -20 22 0 29 -5 29 -19 0 -21 26 -31 86 -31 31 0 45 -5 56 -22
11 -16 27 -22 72 -26 36 -3 60 -10 63 -18 3 -8 17 -14 32 -14 31 0 45 -9 53
-31 5 -12 23 -18 67 -21 41 -3 65 -10 74 -21 7 -10 30 -17 62 -19 41 -2 52 -7
60 -25 8 -20 17 -23 63 -23 44 0 57 -4 76 -25 15 -16 34 -25 53 -25 17 0 38
-9 48 -20 13 -15 31 -20 67 -20 43 0 50 -3 58 -25 9 -23 15 -25 65 -25 46 0
59 -4 77 -25 15 -17 32 -25 54 -25 20 0 37 -6 42 -17 7 -11 27 -18 65 -21 43
-3 58 -9 62 -22 6 -20 34 -30 88 -30 24 0 40 -5 43 -15 4 -8 17 -15 31 -15 31
0 63 -17 63 -34 0 -9 19 -15 61 -18 46 -3 65 -9 78 -25 11 -15 31 -22 70 -26
36 -3 57 -10 63 -21 6 -11 23 -16 61 -16 57 0 70 -6 80 -32 4 -12 17 -18 35
-18 16 0 37 -9 47 -20 14 -15 31 -20 74 -20 49 0 58 -3 66 -22 8 -20 19 -23
68 -26 51 -3 59 -6 67 -28 8 -19 17 -24 44 -24 22 0 38 -6 44 -17 7 -12 27
-18 72 -21 45 -3 63 -9 68 -21 9 -25 23 -31 80 -31 45 0 55 -3 59 -19 6 -22
31 -31 89 -31 26 0 44 -5 47 -14 3 -7 24 -16 46 -20 31 -5 41 -11 41 -25 0
-16 10 -19 61 -23 42 -3 66 -10 74 -21 9 -13 27 -17 69 -17 50 0 58 -3 68 -25
9 -19 19 -25 45 -25 27 0 35 -5 43 -25 9 -23 15 -25 65 -25 43 0 59 -4 72 -20
14 -16 30 -20 75 -20 53 0 59 -2 68 -25 8 -22 15 -25 61 -25 36 0 58 -6 76
-20 14 -11 39 -20 54 -20 22 0 29 -5 29 -19 0 -22 26 -31 88 -31 35 0 45 -4
49 -19 5 -21 31 -31 84 -31 23 0 39 -6 43 -15 3 -9 18 -15 38 -15 38 0 52 -8
61 -33 5 -12 18 -17 49 -17 59 0 85 -9 91 -30 3 -13 18 -18 57 -22 32 -3 58
-12 65 -21 6 -9 29 -17 51 -19 29 -2 41 -9 49 -25 8 -20 17 -23 66 -23 43 0
60 -5 74 -20 13 -15 31 -20 67 -20 43 0 50 -3 58 -25 9 -23 15 -25 65 -25 46
0 59 -4 77 -25 12 -14 32 -25 45 -25 13 0 32 -9 43 -20 15 -15 33 -20 75 -20
47 0 55 -3 55 -19 0 -21 26 -31 84 -31 28 0 45 -7 62 -25 13 -14 34 -25 49
-25 14 0 28 -7 31 -15 4 -10 20 -15 48 -15 57 0 83 -9 89 -30 3 -14 18 -18 67
-22 44 -3 65 -9 72 -21 6 -13 23 -17 61 -17 57 0 70 -6 80 -32 4 -12 17 -18
36 -18 22 0 35 -8 47 -25 14 -21 24 -25 69 -25 39 0 56 -5 70 -20 14 -15 31
-20 72 -20 48 0 54 -3 63 -25 8 -20 16 -25 44 -25 22 0 38 -6 44 -17 7 -12 27
-18 72 -21 45 -3 63 -9 68 -21 9 -25 23 -31 80 -31 39 0 52 -4 52 -15 0 -22
33 -35 88 -35 33 0 52 -5 55 -14 3 -7 24 -16 46 -20 32 -5 41 -11 41 -26 0
-17 7 -20 44 -20 54 0 96 -15 96 -34 0 -10 17 -15 61 -18 44 -3 64 -9 71 -21
5 -9 18 -17 28 -17 18 0 20 7 20 70 0 54 -4 72 -15 76 -8 4 -15 17 -15 31 0
13 -11 35 -25 49 -14 14 -25 35 -25 47 0 27 -10 41 -32 50 -12 4 -18 17 -18
37 0 18 -8 37 -20 47 -12 11 -20 30 -20 50 0 23 -7 37 -25 49 -19 13 -25 25
-27 67 -2 43 -7 54 -25 62 -18 7 -23 18 -23 46 0 23 -7 42 -20 54 -12 11 -20
31 -20 49 0 23 -6 34 -22 41 -16 7 -24 20 -26 43 -2 18 -10 36 -18 39 -8 3
-17 23 -20 45 -4 23 -14 42 -23 46 -23 8 -31 23 -31 60 0 25 -5 35 -19 39 -21
5 -31 31 -31 84 0 23 -6 39 -15 43 -9 3 -15 18 -15 36 0 20 -9 39 -25 54 -15
14 -25 34 -25 50 0 14 -9 34 -20 43 -13 11 -20 30 -20 50 0 26 -5 36 -24 43
-18 7 -26 18 -28 42 -2 23 -10 36 -25 43 -18 7 -23 18 -23 46 0 23 -7 42 -20
54 -15 13 -20 31 -20 67 0 43 -3 50 -25 58 -21 8 -25 16 -25 50 0 34 -4 42
-25 50 -20 7 -25 17 -25 43 0 20 -7 39 -20 50 -12 10 -20 29 -20 47 0 16 -4
30 -9 30 -19 0 -41 32 -41 60 0 16 -7 30 -15 34 -9 3 -15 18 -15 36 0 20 -9
39 -24 53 -17 16 -25 36 -28 76 -4 38 -11 59 -26 70 -11 9 -23 32 -26 53 -4
20 -13 38 -21 41 -7 3 -15 21 -17 39 -2 23 -10 36 -25 43 -17 7 -23 18 -23 41
0 18 -8 38 -20 49 -11 10 -20 31 -20 47 0 21 -6 31 -25 38 -21 8 -25 16 -25
50 0 30 -5 42 -17 47 -27 10 -33 23 -33 74 0 29 -6 51 -15 59 -8 7 -18 30 -21
51 -4 22 -10 39 -15 39 -17 0 -39 33 -39 61 0 19 -5 29 -15 29 -18 0 -35 31
-35 63 0 14 -7 27 -15 31 -9 3 -15 18 -15 36 0 20 -9 39 -24 53 -12 12 -26 38
-30 59 -4 20 -13 39 -21 42 -11 4 -15 21 -15 56 0 41 -5 54 -25 72 -16 14 -25
32 -25 50 0 21 -6 31 -25 38 -20 7 -25 17 -25 43 0 20 -7 39 -20 50 -12 10
-20 29 -20 47 0 23 -6 33 -25 40 -20 8 -25 16 -25 44 0 19 -5 38 -11 42 -6 3
-19 25 -30 48 -11 22 -26 52 -34 66 -8 14 -15 42 -15 64 0 28 -7 45 -25 62
-16 14 -25 34 -25 52 0 17 -6 32 -15 36 -8 3 -15 16 -15 30 0 37 -10 56 -31
56 -14 0 -19 7 -19 26 0 33 -17 64 -35 64 -10 0 -15 11 -15 35 0 22 -8 43 -20
55 -11 11 -20 33 -20 50 0 23 -6 33 -25 40 -23 9 -25 15 -25 69 0 50 -3 62
-20 71 -13 7 -20 21 -20 39 0 17 -10 36 -25 49 -16 14 -25 32 -25 50 0 21 -7
32 -25 40 -17 8 -25 20 -25 38 0 14 -9 37 -20 51 -11 14 -20 37 -20 51 0 14
-11 35 -25 48 -16 15 -25 34 -25 54 0 23 -5 30 -19 30 -22 0 -31 26 -31 88 0
29 -5 45 -15 48 -8 4 -15 17 -15 31 0 32 -17 63 -35 63 -10 0 -15 10 -15 30 0
18 -8 37 -20 47 -13 11 -20 30 -20 50 0 26 -5 36 -25 43 -21 8 -25 16 -25 49
0 29 -5 43 -19 51 -11 5 -22 23 -26 39 -3 16 -15 39 -26 52 -13 16 -19 37 -19
74 0 46 -3 53 -25 63 -19 9 -25 19 -25 44 0 25 -6 36 -22 43 -16 7 -24 20 -26
43 -2 18 -10 36 -18 39 -8 3 -17 23 -20 45 -4 23 -14 42 -23 46 -23 8 -31 23
-31 60 0 20 -6 35 -15 38 -8 4 -15 17 -15 31 0 32 -17 63 -35 63 -11 0 -15 12
-15 43 0 59 -9 84 -31 90 -14 4 -19 14 -19 36 0 19 -8 38 -20 48 -13 11 -20
30 -20 50 0 26 -5 36 -25 43 -18 7 -25 17 -25 37 0 16 -9 42 -20 58 -11 17
-20 40 -20 51 0 12 -11 29 -25 38 -18 12 -25 25 -25 49 0 24 -6 35 -22 42 -20
8 -23 19 -26 68 -2 39 -8 60 -18 64 -8 3 -17 23 -20 45 -4 23 -14 42 -23 46
-22 8 -31 23 -31 55 0 15 -4 27 -9 27 -21 0 -41 33 -41 66 0 22 -6 37 -15 40
-8 4 -15 18 -15 34 0 15 -11 39 -25 54 -14 15 -25 36 -25 47 0 10 -9 27 -20
36 -15 13 -20 30 -20 65 0 37 -5 52 -24 70 -14 13 -26 37 -28 53 -2 20 -11 33
-25 40 -17 7 -23 18 -23 40 0 18 -8 38 -20 48 -13 11 -20 29 -20 51 0 25 -6
38 -25 50 -17 12 -25 25 -25 47 0 17 -6 32 -15 35 -8 4 -18 24 -22 46 -4 27
-12 42 -24 45 -20 6 -29 32 -29 91 0 31 -5 44 -17 49 -24 9 -33 23 -33 54 0
15 -7 29 -15 33 -8 3 -15 12 -15 21 0 8 -11 20 -25 25 -21 8 -25 16 -25 52 0
60 -9 85 -31 91 -18 5 -19 19 -19 350 l0 345 22 14 c19 13 23 26 26 93 4 64 7
78 22 82 21 6 30 32 30 91 0 29 5 45 15 48 10 4 15 20 15 48 0 58 9 83 31 89
15 4 19 14 19 49 0 60 9 85 31 91 12 3 19 14 19 30 0 13 9 35 19 49 11 13 21
37 23 53 2 19 11 34 26 40 19 8 22 17 22 65 0 43 4 59 20 73 12 10 20 29 20
47 0 23 6 33 25 40 14 5 25 16 25 25 0 9 11 20 25 25 20 7 25 17 25 43 0 20 7
39 20 50 12 10 20 29 20 47 0 16 4 30 9 30 21 0 41 33 41 66 0 22 6 37 15 40
8 4 15 17 15 29 0 34 10 55 26 55 8 0 17 7 21 16 3 8 16 19 28 24 16 6 24 19
27 47 6 40 38 84 71 96 11 4 17 17 17 36 0 22 8 35 25 47 14 9 25 21 25 28 0
6 9 17 20 24 13 8 20 23 20 42 0 23 6 33 25 42 14 6 25 17 25 25 0 7 9 22 20
33 11 11 20 33 20 50 0 23 4 30 20 30 13 0 22 9 26 25 4 15 13 25 24 25 20 0
30 19 30 55 0 13 6 28 13 32 8 4 17 16 20 26 4 11 16 21 27 24 14 4 20 14 20
34 0 16 9 38 20 49 11 11 20 33 20 50 0 23 6 33 25 40 14 5 25 16 25 25 0 9
11 20 25 25 20 8 25 16 25 44 0 25 6 38 20 46 11 6 20 17 20 26 0 8 11 19 25
24 20 8 25 16 25 45 0 25 5 37 18 42 35 12 72 63 72 99 0 19 4 34 9 34 5 0 23
12 40 27 22 19 31 37 31 58 0 34 8 49 31 57 13 5 18 24 21 84 3 66 7 79 26 92
21 14 22 19 22 212 0 190 -1 198 -21 212 -16 10 -23 27 -27 67 -4 41 -9 55
-23 58 -11 3 -19 9 -19 14 0 4 -11 21 -25 36 -27 30 -28 32 -80 81 -19 19 -35
38 -35 42 0 5 -20 12 -44 15 -25 4 -47 13 -50 21 -3 8 -16 14 -30 14 -37 0
-56 10 -56 30 0 11 -10 20 -25 24 -14 4 -25 13 -25 21 0 18 -46 65 -64 65 -7
0 -18 11 -24 25 -8 17 -20 25 -37 25 -17 0 -43 17 -80 55 -30 30 -55 59 -55
65 0 6 -8 14 -17 17 -25 9 -73 55 -73 70 0 6 -21 15 -46 19 -26 4 -48 13 -51
21 -8 20 -47 59 -68 67 -9 3 -19 15 -22 26 -3 11 -11 20 -18 20 -6 0 -20 9
-30 20 -10 11 -31 20 -46 20 -18 0 -32 7 -39 21 -16 28 -101 114 -122 122 -10
3 -18 11 -18 17 0 23 -67 80 -93 80 -14 0 -30 6 -34 14 -4 7 -18 18 -30 25
-13 6 -23 18 -23 26 0 8 -4 15 -9 15 -14 0 -67 52 -74 73 -4 11 -17 17 -36 17
-36 0 -61 9 -61 22 0 13 -51 63 -72 71 -10 3 -18 12 -18 18 0 6 -25 36 -56 65
-46 45 -62 54 -91 54 l-35 0 4 54 c3 32 11 61 21 71 15 14 17 41 17 190 0 177
7 225 35 225 12 0 15 14 15 73 0 76 5 90 33 100 14 5 17 19 17 87 0 68 3 83
20 97 12 11 20 30 20 49 0 23 6 34 25 42 22 10 25 18 25 63 0 36 6 58 20 76
11 14 20 39 20 54 0 22 5 29 19 29 21 0 31 19 31 56 0 14 7 27 18 31 23 9 32
23 32 56 0 15 7 30 15 33 8 4 15 13 15 20 0 8 11 19 24 25 16 8 26 22 29 44 4
22 20 48 46 73 31 30 41 47 41 71 0 24 6 34 25 41 19 7 25 17 25 40 0 18 8 37
20 47 11 10 20 23 20 30 0 8 11 18 25 23 20 8 25 16 25 43 0 26 6 36 25 45 14
6 25 16 25 21 0 13 44 56 65 65 9 3 19 15 22 26 3 11 9 20 14 20 5 0 15 11 21
25 8 19 19 25 43 25 33 0 86 39 98 73 5 12 17 17 47 17 34 0 42 4 50 25 7 20
17 25 43 25 20 0 39 7 50 20 13 16 29 20 72 20 44 0 57 4 62 17 10 28 24 33
92 33 46 0 70 5 83 17 15 14 43 16 179 16 140 0 163 -2 171 -16 8 -14 27 -17
124 -17 116 0 154 -9 154 -35 0 -11 13 -15 53 -15 40 0 60 -5 77 -20 17 -15
37 -20 77 -20 48 0 54 -3 63 -25 8 -21 16 -25 54 -25 53 0 76 -8 76 -25 0 -17
23 -25 72 -25 25 0 49 -8 65 -20 19 -14 41 -20 79 -20 46 0 54 -3 54 -19 0
-22 26 -31 88 -31 31 0 44 -5 49 -17 10 -27 23 -33 81 -33 37 0 54 -4 58 -15
4 -8 18 -15 33 -15 56 0 99 -13 104 -30 3 -13 20 -18 68 -24 40 -4 66 -12 72
-21 6 -11 26 -15 73 -15 70 0 104 -12 104 -35 0 -11 13 -15 53 -15 56 0 70 -6
79 -31 5 -13 24 -18 88 -21 65 -2 84 -7 91 -21 8 -13 23 -17 70 -17 54 0 60
-2 69 -25 9 -24 13 -25 88 -25 71 0 80 -2 100 -25 19 -22 30 -25 91 -25 56 0
72 -3 80 -17 8 -15 27 -19 97 -22 73 -3 87 -6 91 -21 6 -22 32 -30 104 -30 38
0 61 -5 69 -15 8 -10 31 -15 70 -15 98 0 152 -11 158 -32 3 -14 14 -18 47 -18
80 0 133 -11 138 -30 4 -14 22 -18 108 -24 69 -4 108 -11 119 -21 12 -11 42
-15 116 -15 117 0 140 -5 147 -31 5 -17 15 -19 119 -19 94 0 120 -3 151 -20
31 -17 56 -20 161 -20 131 0 156 -4 156 -25 0 -21 36 -25 242 -25 192 0 198
-1 218 -23 l21 -22 462 -3 c481 -3 567 0 567 23 0 22 25 25 185 25 126 0 156
3 169 16 9 8 16 20 16 25 0 5 33 9 73 9 60 0 78 4 97 20 17 15 37 20 77 20 42
0 55 4 60 17 10 27 23 33 79 33 37 0 54 4 58 15 3 8 23 17 45 21 25 4 41 12
44 24 5 19 62 30 159 30 50 0 61 3 65 19 5 19 45 31 104 31 15 0 29 7 33 15 4
11 22 15 73 15 85 0 110 7 116 31 4 14 14 19 36 19 19 0 38 8 48 20 13 15 30
20 70 20 45 0 55 4 69 25 11 17 25 25 45 25 22 0 32 7 41 25 8 19 19 25 42 25
19 0 38 8 49 20 10 12 29 20 47 20 23 0 33 6 40 25 5 14 16 25 25 25 9 0 20
11 25 25 8 20 16 25 45 25 23 0 38 6 41 15 4 8 24 18 45 21 24 4 39 12 39 20
0 8 11 20 25 26 14 6 25 15 25 20 0 5 11 13 25 18 14 5 25 16 25 24 0 9 9 20
20 26 11 6 20 17 20 26 0 8 11 19 25 24 14 5 25 14 25 20 0 6 11 15 25 20 14
5 25 16 25 24 0 9 9 20 20 26 11 6 20 17 20 26 0 8 8 18 18 21 20 8 57 45 72
73 6 11 16 20 23 20 7 0 20 8 29 18 9 9 24 23 32 30 9 7 16 28 16 48 0 22 6
37 15 40 8 4 15 18 15 33 0 30 9 45 31 53 9 4 19 23 23 46 4 28 12 43 26 47
14 4 20 15 20 34 0 15 9 36 20 46 15 14 20 31 20 71 0 46 4 56 25 70 24 15 25
21 25 109 0 76 3 97 18 111 15 16 17 45 17 304 0 259 -2 288 -17 304 -14 14
-18 35 -18 97 0 76 -1 80 -25 89 -22 8 -25 16 -25 55 0 26 -8 61 -20 82 -11
21 -20 55 -20 76 0 30 -4 40 -19 44 -22 6 -31 41 -31 125 0 50 -3 61 -19 65
-24 6 -31 31 -31 109 0 43 -4 63 -14 67 -10 4 -14 42 -18 157 -5 140 -6 152
-26 166 -21 15 -22 21 -22 249 0 220 1 234 19 240 23 7 31 49 31 168 0 69 3
89 15 93 11 4 15 21 15 56 0 55 13 88 35 88 11 0 15 12 15 43 0 59 9 84 31 90
14 4 19 14 19 36 0 19 8 38 20 48 13 11 20 30 20 50 0 26 5 36 25 43 20 8 25
16 25 43 0 36 28 74 68 96 17 9 22 21 22 51 0 22 4 40 9 40 15 0 81 63 81 77
0 7 6 13 13 13 14 0 77 66 77 81 0 5 7 9 15 9 9 0 20 11 26 24 6 13 20 27 30
29 13 3 19 14 19 31 0 14 9 35 20 46 11 11 20 24 20 30 0 5 11 12 24 16 13 3
26 15 29 26 3 11 15 22 26 25 12 3 21 11 21 18 0 6 9 20 20 30 12 11 20 31 20
50 0 27 5 34 25 39 14 4 25 13 25 21 0 8 9 24 20 35 11 11 20 33 20 50 0 22 5
30 18 30 9 0 23 9 30 20 7 11 18 20 26 20 17 0 26 22 26 61 0 17 6 32 15 35 8
4 15 18 15 34 0 28 22 60 41 60 5 0 9 13 9 30 0 18 9 38 24 52 17 17 25 37 29
77 2 30 10 57 18 62 11 7 15 64 17 299 l3 290 29 0 c20 0 35 -8 46 -25 14 -21
24 -25 65 -25 37 0 54 -5 66 -20 12 -13 30 -20 55 -20 31 0 41 -5 50 -25 8
-19 19 -25 42 -25 19 0 38 -8 49 -20 10 -12 29 -20 47 -20 23 0 33 -6 40 -25
5 -14 17 -25 25 -25 9 0 19 -8 22 -17 9 -24 23 -33 56 -33 15 0 30 -6 33 -14
3 -8 23 -17 45 -21 23 -4 39 -12 39 -21 0 -7 13 -20 29 -28 16 -9 31 -22 34
-30 3 -8 22 -18 41 -21 19 -4 37 -13 40 -21 3 -8 12 -14 21 -14 8 0 20 -11 25
-25 7 -19 17 -25 38 -25 30 0 71 -31 91 -68 7 -12 18 -22 25 -22 7 0 18 -11
24 -25 8 -18 19 -25 40 -25 16 0 37 -9 47 -20 10 -11 23 -20 29 -20 6 0 16
-10 21 -22 7 -15 20 -24 40 -26 17 -2 35 -9 40 -16 6 -7 20 -16 33 -20 12 -4
22 -13 22 -19 1 -24 56 -74 88 -80 34 -7 92 -53 92 -73 0 -7 9 -14 20 -17 11
-3 23 -13 26 -22 15 -38 51 -65 87 -65 26 0 39 -6 47 -21 15 -26 43 -54 69
-69 12 -6 21 -17 21 -26 0 -8 11 -19 25 -24 14 -5 25 -16 25 -24 0 -15 21 -26
52 -26 22 0 78 -48 78 -67 0 -7 4 -13 10 -13 5 0 30 -20 56 -45 33 -33 53 -45
75 -45 19 0 32 -6 36 -17 9 -23 58 -73 72 -73 7 0 16 -11 21 -25 7 -19 17 -25
41 -25 24 0 41 -10 72 -43 23 -24 50 -46 60 -50 9 -4 17 -12 17 -18 0 -13 41
-53 70 -69 11 -6 20 -15 20 -21 0 -14 91 -104 113 -112 9 -3 17 -11 17 -17 0
-15 100 -114 123 -123 9 -3 17 -11 17 -17 0 -15 50 -64 73 -73 9 -3 17 -12 17
-18 0 -10 69 -79 125 -127 8 -7 15 -26 15 -42 0 -30 31 -71 63 -83 9 -3 17
-11 17 -17 0 -15 50 -64 73 -73 9 -3 17 -13 17 -22 0 -8 11 -20 25 -25 19 -7
25 -17 25 -40 0 -18 8 -37 20 -47 11 -10 20 -23 20 -30 0 -8 11 -18 25 -23 14
-5 25 -14 25 -19 0 -5 9 -11 20 -14 11 -3 23 -13 27 -23 3 -10 15 -26 25 -36
10 -10 18 -31 18 -47 0 -20 6 -30 20 -34 11 -3 23 -13 27 -23 3 -9 24 -34 45
-55 21 -20 38 -46 38 -57 0 -29 10 -52 24 -52 13 0 66 -54 66 -67 0 -6 11 -15
25 -21 19 -9 25 -19 25 -42 0 -23 6 -33 25 -42 14 -6 25 -17 25 -23 0 -7 9
-20 20 -30 11 -10 20 -31 20 -47 0 -21 6 -31 25 -38 14 -5 25 -16 25 -25 0 -8
9 -24 20 -35 11 -11 20 -32 20 -46 0 -17 6 -28 19 -31 10 -2 24 -16 30 -29 6
-13 17 -24 25 -24 10 0 18 -14 22 -37 6 -36 52 -93 75 -93 5 0 9 -15 9 -34 0
-36 37 -87 73 -99 11 -4 17 -17 17 -38 0 -25 10 -42 45 -76 34 -32 45 -51 45
-73 0 -23 6 -33 25 -40 21 -8 25 -16 25 -50 0 -30 5 -42 18 -47 32 -11 72 -63
72 -94 0 -19 5 -29 15 -29 18 0 35 -31 35 -64 0 -29 39 -76 64 -76 12 0 16
-10 16 -37 0 -43 7 -57 33 -66 10 -4 17 -17 17 -32 0 -14 9 -34 20 -45 11 -11
20 -24 20 -29 0 -5 11 -12 25 -15 21 -5 25 -12 25 -45 0 -25 7 -44 20 -56 12
-11 20 -31 20 -50 0 -26 5 -34 24 -39 14 -3 28 -15 31 -26 3 -11 12 -20 20
-20 15 0 25 -22 25 -56 0 -14 7 -27 15 -30 8 -4 18 -24 21 -46 4 -23 14 -42
23 -46 22 -8 31 -23 31 -54 0 -16 4 -28 9 -28 19 0 41 -32 41 -60 0 -16 7 -30
15 -34 8 -3 15 -12 15 -21 0 -8 11 -20 25 -25 19 -7 25 -17 25 -40 0 -18 8
-37 20 -47 12 -11 20 -30 20 -50 0 -24 7 -37 25 -49 19 -12 25 -25 25 -50 0
-28 5 -36 25 -44 19 -7 25 -17 25 -38 0 -16 9 -37 20 -47 11 -10 20 -31 20
-47 0 -18 6 -31 18 -35 23 -9 32 -23 32 -56 0 -20 7 -30 25 -37 20 -8 25 -16
25 -46 0 -26 8 -43 29 -65 16 -16 34 -29 39 -29 13 0 22 -25 22 -61 0 -17 6
-32 15 -35 8 -4 15 -18 15 -34 0 -28 22 -60 41 -60 5 0 9 -12 9 -27 0 -33 9
-47 33 -56 11 -4 17 -17 17 -37 0 -18 8 -37 20 -47 12 -11 20 -30 20 -50 0
-24 7 -37 25 -49 17 -11 25 -25 25 -45 0 -17 9 -37 20 -46 12 -10 20 -30 20
-48 0 -22 6 -33 23 -40 15 -7 23 -20 25 -43 2 -20 10 -36 20 -39 23 -9 32 -23
32 -55 0 -15 7 -31 16 -36 8 -5 18 -27 21 -50 4 -27 11 -43 23 -47 19 -6 30
-45 30 -102 0 -23 6 -36 18 -40 23 -9 32 -23 32 -54 0 -15 7 -29 15 -33 8 -3
15 -18 15 -33 0 -33 9 -47 33 -56 11 -4 17 -17 17 -37 0 -18 8 -37 20 -47 12
-11 20 -30 20 -50 0 -24 7 -37 25 -49 19 -12 25 -25 25 -50 0 -28 5 -36 25
-44 19 -7 25 -17 25 -38 0 -16 9 -37 20 -47 11 -10 20 -31 20 -47 0 -18 6 -31
18 -35 26 -10 32 -23 32 -81 0 -47 3 -54 25 -62 20 -8 25 -16 25 -45 0 -23 6
-38 15 -41 8 -4 18 -24 21 -45 4 -22 15 -46 25 -53 10 -7 22 -28 26 -47 3 -19
12 -38 19 -44 6 -5 14 -35 17 -65 3 -41 10 -58 26 -68 12 -9 21 -25 21 -41 0
-31 9 -45 33 -54 10 -4 17 -17 17 -30 0 -14 9 -36 20 -50 11 -14 20 -37 20
-51 0 -18 8 -30 25 -38 22 -10 25 -17 25 -67 0 -44 4 -60 20 -74 12 -10 20
-29 20 -47 0 -23 6 -33 25 -40 20 -8 25 -16 25 -43 0 -23 8 -40 25 -55 20 -18
25 -31 25 -71 0 -31 5 -53 15 -61 8 -7 18 -30 21 -51 4 -24 12 -39 21 -39 18
0 33 -42 33 -96 0 -32 4 -44 15 -44 17 0 35 -30 35 -58 0 -11 7 -25 15 -32 9
-8 15 -30 15 -57 0 -50 14 -83 34 -83 10 0 15 -21 18 -81 2 -64 7 -83 21 -90
13 -8 17 -23 17 -70 0 -54 2 -60 25 -69 22 -8 25 -15 25 -62 0 -58 6 -71 33
-81 13 -5 17 -18 17 -60 0 -41 5 -58 20 -72 11 -10 20 -31 20 -47 0 -18 6 -31
18 -35 26 -10 32 -23 32 -80 0 -37 5 -55 16 -61 9 -5 17 -29 21 -66 4 -41 11
-61 25 -69 10 -7 21 -29 25 -49 3 -23 11 -38 20 -38 18 0 33 -42 33 -95 0 -29
5 -45 15 -49 8 -3 15 -16 15 -30 0 -37 10 -56 30 -56 14 0 20 -9 22 -37 2 -28
9 -41 26 -48 19 -8 22 -17 22 -62 0 -40 5 -58 20 -73 11 -11 20 -33 20 -50 0
-23 6 -33 25 -40 21 -8 25 -16 25 -48 0 -25 7 -43 20 -55 12 -10 20 -29 20
-47 0 -23 6 -33 25 -40 20 -8 25 -16 25 -45 0 -29 5 -37 25 -45 19 -7 25 -17
25 -40 0 -17 9 -39 20 -50 11 -11 20 -33 20 -50 0 -19 7 -33 20 -40 12 -7 22
-25 26 -50 4 -24 12 -40 20 -40 16 0 34 -31 34 -58 0 -11 6 -25 14 -32 8 -6
16 -26 18 -43 2 -22 10 -35 26 -42 15 -7 22 -18 22 -37 0 -16 9 -37 20 -48 11
-11 20 -33 20 -50 0 -20 9 -38 25 -52 16 -14 25 -32 25 -50 0 -21 6 -31 25
-38 14 -5 25 -15 25 -23 0 -7 9 -20 20 -30 12 -10 20 -29 20 -47 0 -23 6 -33
25 -40 19 -7 25 -17 25 -41 0 -30 30 -65 125 -147 8 -7 15 -25 15 -40 1 -29
34 -75 63 -85 9 -4 17 -13 17 -22 0 -8 11 -20 25 -25 19 -7 25 -17 25 -40 0
-24 14 -43 65 -95 36 -35 65 -69 65 -75 0 -6 11 -15 25 -20 14 -5 25 -14 25
-19 0 -5 9 -11 20 -14 11 -3 23 -13 26 -22 9 -22 97 -110 118 -118 9 -4 19
-15 23 -24 4 -10 32 -43 63 -73 31 -30 59 -63 63 -72 3 -10 12 -18 19 -18 8 0
21 -9 31 -20 10 -12 29 -20 47 -20 23 0 33 -6 40 -25 5 -14 17 -25 25 -25 9 0
19 -8 22 -17 10 -27 52 -63 73 -63 27 0 70 -18 70 -29 0 -21 57 -68 92 -75 20
-3 39 -13 42 -21 3 -9 19 -15 41 -15 29 0 37 -5 45 -25 7 -19 17 -25 40 -25
18 0 37 -8 47 -20 11 -12 30 -20 49 -20 23 0 34 -6 42 -25 8 -18 19 -25 40
-25 18 0 36 -9 50 -25 13 -15 33 -25 48 -25 14 0 37 -9 51 -20 18 -14 41 -20
75 -20 41 0 51 -4 55 -19 6 -22 31 -31 86 -31 24 0 40 -5 43 -15 4 -11 21 -15
58 -15 81 0 124 -10 129 -30 4 -15 21 -18 132 -22 119 -4 129 -6 143 -26 14
-22 17 -22 304 -22 275 0 290 1 295 19 6 22 47 31 149 31 61 0 72 3 77 18 5
22 45 32 119 32 34 0 50 4 54 15 4 11 21 15 56 15 55 0 88 13 88 35 0 10 10
15 30 15 18 0 37 8 47 20 14 16 30 20 75 20 53 0 59 2 68 25 8 20 16 25 45 25
29 0 37 5 45 25 5 14 16 25 24 25 9 0 20 9 26 20 7 14 21 20 44 20 25 0 35 6
44 25 9 19 19 25 44 25 22 0 37 7 46 20 7 11 18 20 26 20 7 0 16 9 19 21 3 11
15 23 26 26 12 3 21 11 21 19 0 16 31 34 58 34 20 0 82 51 82 67 0 4 9 14 20
21 11 7 20 18 20 26 0 8 11 17 25 20 14 4 25 13 25 21 0 8 7 15 15 15 8 0 17
11 21 25 3 14 13 25 23 25 9 0 22 9 29 20 7 11 18 20 25 20 8 0 19 11 25 25 6
14 16 25 21 25 5 0 11 9 14 20 3 11 13 23 22 26 25 10 65 53 65 69 0 8 11 17
25 21 16 4 25 13 25 25 0 12 9 21 25 25 14 3 25 11 25 18 0 6 9 17 20 24 13 8
20 23 20 42 0 23 6 33 25 40 14 5 25 17 25 25 0 9 8 19 18 22 23 9 32 23 32
55 0 15 6 31 14 35 7 4 18 18 25 30 6 13 18 23 26 23 8 0 17 15 21 38 3 20 12
42 18 47 7 6 15 18 19 28 4 11 16 21 27 24 14 4 20 14 20 32 0 31 9 45 33 54
11 4 17 17 17 37 0 18 8 37 20 47 13 11 20 30 20 50 0 26 5 36 25 43 21 8 25
16 25 50 0 34 4 42 25 50 22 9 25 15 25 63 0 41 5 58 20 72 12 11 20 31 20 49
0 23 6 34 23 41 19 8 22 19 25 68 2 38 8 60 17 63 9 4 17 29 21 66 5 46 11 62
25 65 18 5 29 31 29 70 0 12 8 24 19 28 19 6 31 43 31 100 0 20 6 35 15 39 8
3 15 18 15 33 0 32 9 47 31 55 12 5 18 23 21 67 3 41 10 65 21 74 8 6 17 26
19 42 2 20 11 33 26 40 16 7 22 18 22 43 0 25 5 35 25 42 23 9 25 15 25 68 0
45 4 61 20 75 12 10 20 29 20 47 0 23 6 33 25 40 20 8 25 16 25 45 0 25 5 38
18 42 26 10 32 23 32 77 0 33 5 53 16 60 8 7 18 30 21 53 4 29 11 43 24 46 13
3 21 18 25 45 3 23 13 43 20 46 8 3 14 16 14 30 0 37 10 56 30 56 14 0 20 9
22 37 2 28 9 41 26 48 15 7 22 18 22 37 0 16 9 36 20 45 16 14 20 30 20 75 0
53 2 59 25 68 21 8 25 16 25 48 0 25 7 43 20 55 12 10 20 29 20 47 0 23 6 33
25 40 14 5 25 13 25 18 0 5 11 14 25 20 21 10 25 19 25 52 0 27 5 43 15 46 8
4 18 23 21 44 4 26 12 40 25 43 13 3 21 18 25 46 5 31 11 41 25 41 13 0 20 10
25 38 3 20 12 42 18 47 7 6 15 18 19 28 4 11 16 21 27 24 14 4 20 14 20 33 0
15 9 39 20 53 11 14 20 37 20 51 0 19 7 29 25 36 14 5 25 16 25 25 0 9 11 20
25 25 20 8 25 16 25 44 0 25 6 38 20 46 11 6 20 17 20 26 0 8 11 19 25 24 14
5 25 17 25 25 0 9 8 19 18 22 30 11 64 55 69 89 3 19 13 36 23 39 9 3 22 17
28 30 6 14 16 25 21 25 5 0 11 9 14 21 3 11 15 23 26 26 14 3 21 13 21 28 0
31 10 55 22 55 5 0 23 13 39 29 21 22 29 39 29 65 0 30 5 38 25 46 20 7 25 17
25 43 0 20 7 39 20 50 16 13 20 29 20 72 0 30 4 55 9 55 5 0 17 7 25 16 13 12
16 38 16 117 0 115 -6 147 -26 147 -8 0 -19 11 -24 25 -8 20 -16 25 -45 25
-29 0 -37 5 -45 25 -9 23 -15 25 -65 25 -43 0 -59 4 -72 20 -10 12 -30 20 -48
20 -22 0 -33 6 -40 23 -8 19 -19 22 -68 25 -44 2 -60 7 -64 20 -10 26 -24 32
-81 32 -36 0 -54 4 -58 14 -4 9 -27 17 -62 21 -38 5 -62 13 -72 26 -10 13 -34
22 -70 26 -30 3 -59 12 -63 19 -5 10 -29 14 -75 14 -83 0 -109 7 -115 30 -4
15 -18 18 -82 22 -63 3 -79 7 -93 25 -14 18 -30 22 -95 25 -62 3 -81 7 -88 21
-8 14 -24 17 -82 17 -76 0 -90 5 -100 32 -5 15 -20 18 -102 18 -89 0 -98 2
-119 25 -22 23 -30 25 -114 25 -73 0 -94 3 -108 18 -14 14 -40 18 -142 20
-110 3 -125 6 -129 22 -7 25 -31 30 -160 30 -89 0 -114 3 -120 15 -7 12 -40
16 -153 21 -128 6 -147 9 -161 26 -14 18 -32 20 -180 25 -147 5 -166 7 -180
25 -14 18 -33 20 -225 25 -142 4 -215 10 -229 19 -15 9 -100 13 -319 16 -297
3 -299 3 -314 25 -14 23 -16 23 -279 23 -252 0 -265 -1 -270 -19 -6 -24 -31
-31 -115 -31 -46 0 -70 -4 -75 -14 -4 -7 -33 -16 -63 -19 -36 -4 -60 -13 -70
-26 -8 -10 -32 -22 -52 -25 -21 -4 -38 -12 -38 -19 0 -14 -48 -61 -72 -70 -10
-3 -18 -13 -18 -22 0 -8 -11 -20 -25 -25 -20 -8 -25 -16 -25 -44 0 -23 -6 -38
-17 -45 -26 -14 -26 -210 0 -238 11 -13 17 -36 17 -72 0 -45 3 -53 25 -63 14
-6 25 -17 25 -24 0 -7 10 -18 22 -25 37 -20 68 -61 68 -91 0 -21 6 -31 25 -38
14 -5 25 -17 25 -25 0 -9 7 -18 15 -21 8 -3 17 -14 20 -24 3 -11 15 -22 26
-25 13 -4 21 -19 25 -47 5 -27 13 -42 25 -45 20 -6 29 -32 29 -89 0 -28 5 -44
15 -48 11 -4 15 -20 15 -56 0 -41 5 -55 25 -74 l25 -23 0 -208 c0 -195 -1
-207 -19 -212 -22 -6 -31 -31 -31 -91 0 -27 -5 -45 -14 -48 -7 -3 -16 -23 -20
-44 -4 -25 -12 -41 -25 -45 -12 -4 -21 -19 -25 -45 -4 -27 -12 -41 -26 -45
-11 -3 -20 -11 -20 -16 0 -14 -56 -69 -69 -69 -7 0 -16 -11 -21 -25 -8 -20
-16 -25 -45 -25 -29 0 -37 -5 -45 -25 -9 -23 -15 -25 -69 -25 -47 0 -62 -4
-70 -18 -8 -15 -28 -17 -169 -17 -138 0 -163 2 -179 17 -13 12 -36 18 -72 18
-45 0 -53 3 -63 25 -9 19 -19 25 -44 25 -25 0 -38 7 -50 25 -11 16 -26 25 -43
25 -15 0 -34 9 -44 20 -9 11 -28 20 -43 20 -17 0 -39 14 -65 41 -26 27 -50 42
-74 46 -20 3 -35 11 -35 20 0 7 -11 19 -25 25 -14 6 -25 17 -25 24 0 7 -9 18
-20 24 -28 15 -65 52 -73 73 -3 9 -13 17 -21 17 -9 0 -20 9 -26 19 -7 13 -23
21 -48 23 -36 3 -37 4 -40 46 -2 29 -9 45 -20 49 -22 9 -72 59 -72 72 0 7 -11
16 -25 21 -14 5 -25 15 -25 23 0 14 -56 67 -71 67 -5 0 -9 7 -9 15 0 8 -9 19
-20 25 -40 22 -70 57 -70 85 0 29 -47 84 -82 98 -12 4 -18 17 -18 40 0 35 -38
88 -72 100 -10 4 -18 12 -18 19 0 8 -9 21 -20 31 -12 10 -20 29 -20 47 0 16
-4 30 -9 30 -19 0 -41 32 -41 60 0 19 -6 29 -20 33 -11 3 -23 13 -27 24 -4 10
-12 23 -19 28 -6 6 -15 26 -18 46 -4 25 -13 38 -26 42 -12 3 -20 14 -20 27 0
30 -18 60 -35 60 -10 0 -15 11 -15 34 0 18 -9 44 -19 58 -11 13 -21 37 -23 53
-2 19 -11 34 -25 40 -17 7 -23 18 -23 40 0 18 -8 38 -20 48 -12 10 -20 29 -20
47 0 23 -6 33 -25 40 -20 8 -25 16 -25 43 0 23 -8 40 -25 55 -15 14 -25 32
-25 50 0 15 -9 35 -20 45 -12 10 -20 29 -20 47 0 16 -4 30 -9 30 -19 0 -41 32
-41 60 0 15 -6 30 -14 33 -7 3 -16 24 -20 46 -5 32 -11 41 -26 41 -15 0 -20 7
-20 28 0 45 -11 70 -31 75 -12 3 -19 14 -19 30 0 13 -9 35 -19 49 -11 13 -21
37 -23 53 -2 19 -11 34 -25 40 -17 7 -23 18 -23 43 0 25 -5 35 -25 42 -20 8
-25 16 -25 46 0 36 -34 82 -72 97 -12 4 -18 17 -18 39 0 21 -7 40 -20 51 -11
9 -20 29 -20 45 0 18 -9 37 -25 50 -16 14 -25 32 -25 51 0 21 -6 32 -21 36
-11 4 -24 18 -29 31 -5 13 -14 24 -20 24 -5 0 -10 12 -10 28 0 31 -9 46 -31
54 -9 4 -19 23 -23 46 -4 28 -12 41 -26 45 -14 3 -20 14 -20 31 0 14 -9 35
-20 46 -11 11 -20 27 -20 35 0 9 -11 20 -25 25 -19 7 -25 17 -25 38 0 16 -9
37 -20 47 -11 10 -20 31 -20 47 0 21 -7 32 -25 40 -14 6 -25 17 -25 25 0 7
-11 18 -25 23 -20 7 -25 17 -25 43 0 20 -7 39 -20 50 -12 10 -20 29 -20 47 0
23 -6 33 -25 40 -14 5 -25 17 -25 25 0 9 -7 18 -15 21 -8 4 -15 18 -15 34 0
28 -22 60 -41 60 -5 0 -9 7 -9 15 0 9 -11 20 -24 26 -17 8 -26 22 -30 49 -3
21 -13 40 -21 44 -8 3 -15 12 -15 21 0 8 -11 20 -25 25 -20 8 -25 16 -25 45 0
29 -5 37 -25 45 -19 7 -25 17 -25 40 0 18 -8 37 -20 47 -11 10 -20 23 -20 30
0 8 -11 18 -25 23 -19 7 -25 17 -25 39 0 22 -12 42 -45 75 -32 33 -45 54 -45
75 0 20 -6 30 -20 34 -11 3 -23 13 -27 24 -4 10 -12 23 -19 28 -6 6 -15 27
-18 48 -4 23 -12 37 -21 37 -8 0 -20 9 -27 20 -7 11 -18 20 -25 20 -7 0 -13 9
-13 20 0 12 -10 24 -24 30 -18 7 -26 18 -28 42 -2 23 -10 36 -25 43 -13 5 -23
15 -23 21 0 6 -9 19 -20 29 -11 10 -20 31 -20 47 0 21 -7 32 -25 40 -14 6 -25
17 -25 24 0 7 -10 18 -22 25 -40 22 -68 61 -68 95 0 19 -4 34 -9 34 -22 0 -68
60 -74 96 -4 21 -11 40 -16 42 -5 2 -21 14 -36 28 -14 13 -30 24 -36 24 -5 0
-9 7 -9 15 0 8 -9 20 -20 27 -13 9 -20 24 -20 46 0 25 -5 35 -25 42 -14 5 -25
17 -25 25 0 9 -8 19 -17 22 -36 14 -73 61 -73 92 0 24 -6 34 -25 41 -14 5 -25
15 -25 23 0 7 -9 20 -20 30 -11 9 -20 29 -20 45 0 21 -7 32 -25 40 -14 6 -25
18 -25 26 0 8 -8 17 -19 21 -10 3 -31 23 -46 44 -14 22 -34 41 -44 44 -12 3
-20 18 -25 46 -3 22 -11 41 -16 41 -6 0 -15 11 -20 25 -5 14 -16 25 -25 25 -9
0 -20 11 -25 25 -5 14 -14 25 -21 25 -23 0 -69 58 -69 88 0 21 -7 32 -25 40
-14 6 -25 18 -25 25 0 8 -11 19 -25 25 -14 6 -25 16 -25 21 0 13 -43 56 -64
64 -9 4 -19 14 -23 23 -9 25 -102 114 -118 114 -10 0 -15 10 -15 30 0 17 -9
39 -20 50 -11 11 -20 27 -20 36 0 9 -9 18 -21 21 -11 3 -25 16 -30 29 -5 14
-17 24 -29 24 -11 0 -20 6 -20 13 0 7 -9 18 -20 25 -11 7 -20 19 -20 27 0 8
-11 17 -25 21 -14 3 -25 11 -25 18 -1 16 -42 61 -64 69 -10 4 -20 16 -23 27
-3 11 -12 20 -19 20 -8 0 -19 9 -26 20 -7 11 -18 20 -24 20 -7 0 -15 11 -18
25 -4 14 -13 25 -21 25 -8 0 -19 10 -26 22 -23 43 -60 68 -100 68 -29 0 -39 4
-39 16 0 18 -37 56 -70 74 -11 6 -20 17 -20 24 0 7 -11 18 -25 24 -14 6 -25
16 -25 21 0 13 -43 56 -64 64 -9 4 -19 14 -23 23 -3 9 -28 38 -55 65 -37 37
-56 49 -79 49 -22 0 -32 6 -39 25 -5 14 -17 25 -25 25 -9 0 -18 7 -22 16 -3 8
-16 20 -29 25 -13 4 -24 15 -24 23 0 9 -9 20 -20 26 -11 6 -20 17 -20 24 0 16
-21 26 -55 26 -13 0 -28 6 -32 14 -4 7 -18 18 -30 25 -13 6 -23 18 -23 25 0 7
-11 18 -25 24 -14 6 -25 18 -25 26 0 8 -15 17 -36 20 -26 5 -52 24 -94 67 -46
47 -64 59 -89 59 -24 0 -34 6 -41 25 -5 14 -16 25 -25 25 -9 0 -20 11 -25 25
-7 19 -17 25 -40 25 -18 0 -37 8 -47 20 -10 11 -23 20 -30 20 -8 0 -18 11 -23
25 -8 20 -16 25 -45 25 -19 0 -35 5 -35 10 0 6 -11 15 -24 21 -13 6 -26 20
-29 30 -3 12 -18 21 -45 25 -27 4 -42 12 -45 24 -3 12 -18 21 -42 26 -20 3
-39 13 -42 20 -3 8 -14 14 -24 14 -12 0 -23 10 -29 25 -7 18 -17 25 -35 25
-15 0 -36 11 -49 25 -14 14 -34 25 -50 25 -15 0 -31 8 -38 20 -7 11 -19 20
-26 20 -7 0 -18 11 -24 25 -8 19 -19 25 -42 25 -19 0 -38 8 -49 20 -10 12 -29
20 -47 20 -20 0 -33 6 -37 18 -9 24 -23 32 -61 32 -22 0 -35 6 -39 18 -9 23
-23 32 -56 32 -15 0 -30 6 -33 14 -3 8 -23 17 -44 21 -26 4 -40 13 -43 25 -3
14 -17 21 -45 26 -23 3 -43 13 -46 20 -3 8 -16 14 -30 14 -37 0 -56 10 -56 31
0 15 -7 19 -37 19 -43 0 -57 7 -66 33 -4 11 -17 17 -35 17 -16 0 -37 9 -47 20
-14 15 -31 20 -72 20 -47 0 -55 3 -65 25 -9 19 -19 25 -45 25 -27 0 -35 5 -43
25 -7 20 -17 25 -43 25 -20 0 -39 7 -50 20 -13 16 -29 20 -72 20 -50 0 -56 2
-65 25 -8 20 -16 25 -44 25 -20 0 -36 6 -39 14 -4 9 -29 17 -70 21 -51 6 -66
11 -70 25 -4 15 -19 20 -67 26 -48 5 -64 11 -67 25 -4 14 -20 19 -70 25 -40 4
-67 12 -70 20 -3 9 -22 14 -57 14 -56 0 -69 6 -79 33 -5 14 -20 17 -92 17
l-85 0 0 54 c0 39 5 60 18 72 14 14 18 40 20 141 3 105 6 125 20 130 26 10 32
24 32 76 0 40 4 50 20 54 28 7 32 53 28 317 -3 224 -3 229 -25 244 -21 13 -23
22 -23 108 0 71 -4 96 -16 108 -8 9 -20 16 -25 16 -5 0 -9 33 -9 73 0 60 -4
78 -20 97 -15 17 -20 37 -20 77 0 48 -3 54 -25 63 -19 7 -25 17 -25 40 0 17
-9 39 -20 50 -11 11 -20 33 -20 49 0 18 -8 34 -21 43 -16 10 -23 27 -27 68 -4
41 -11 61 -29 78 -29 26 -27 53 5 67 15 7 22 18 22 37 0 38 56 95 102 103 20
4 39 13 42 21 4 10 22 14 58 14 58 0 71 6 81 33 5 14 19 17 74 17 72 0 86 5
96 31 4 14 23 18 92 20 69 3 88 7 96 22 8 14 24 17 84 17 68 0 76 2 91 25 15
23 22 25 90 25 59 0 75 3 83 18 8 14 27 18 96 21 69 2 88 6 92 20 10 26 24 31
101 31 56 0 72 3 72 15 0 24 35 35 108 35 47 0 73 4 81 14 7 9 43 17 93 21 65
6 81 11 85 25 4 15 20 19 93 25 62 5 90 11 94 21 4 10 24 14 68 14 80 0 105 7
111 31 4 16 15 19 77 19 74 0 110 11 110 34 0 10 26 15 106 18 87 3 107 7 115
21 8 14 24 17 84 17 68 0 76 2 91 25 15 23 22 25 95 25 76 0 80 1 89 25 9 23
15 25 68 25 45 0 61 4 75 20 12 15 29 20 64 20 42 0 51 4 83 39 24 26 50 42
73 46 22 4 37 14 40 25 3 13 18 20 51 25 25 4 46 12 46 19 0 14 49 60 73 69 9
3 17 11 17 17 0 15 50 64 73 73 9 3 17 13 17 22 0 8 11 20 25 25 14 5 25 14
25 21 0 13 55 69 68 69 5 0 14 11 20 25 6 14 18 25 25 25 8 0 19 11 25 25 6
14 16 25 22 25 5 0 10 13 10 29 0 29 22 61 41 61 5 0 9 14 9 30 0 18 8 37 20
47 13 11 20 30 20 50 0 26 5 36 25 43 24 9 25 14 25 84 0 82 6 106 25 106 7 0
16 7 19 16 3 9 6 116 6 239 l0 224 -25 27 c-22 23 -25 36 -25 95 0 62 -2 70
-25 85 -21 14 -25 24 -25 66 0 35 -6 58 -20 75 -11 14 -20 36 -20 50 0 13 -7
26 -17 30 -24 9 -33 23 -33 56 0 15 -7 30 -15 33 -8 4 -15 16 -15 28 0 39 -12
65 -31 71 -13 4 -19 16 -19 35 0 29 -6 37 -59 80 -22 17 -31 33 -31 54 0 30
-46 85 -82 99 -12 4 -18 17 -18 37 0 18 -8 37 -20 47 -14 12 -20 30 -20 56 0
27 -5 39 -17 44 -31 10 -73 63 -73 90 0 24 -34 64 -76 89 -11 6 -20 24 -22 40
-2 16 -9 34 -16 39 -7 6 -15 26 -19 47 -4 25 -18 48 -46 75 -28 25 -41 47 -41
64 0 29 -46 83 -79 94 -16 5 -21 15 -21 40 0 24 -6 38 -20 45 -11 6 -20 17
-20 26 0 8 -11 19 -25 24 -20 8 -25 16 -25 45 0 29 -5 37 -25 45 -20 8 -25 16
-25 44 0 25 -6 38 -20 46 -11 6 -20 17 -20 26 0 8 -8 18 -17 21 -24 9 -33 23
-33 56 0 15 -5 27 -10 27 -6 0 -15 11 -20 24 -5 13 -18 27 -29 31 -14 4 -21
15 -21 33 0 31 -9 46 -31 54 -9 4 -19 23 -23 46 -3 22 -13 42 -21 46 -8 3 -15
12 -15 21 0 8 -11 20 -25 25 -19 7 -25 17 -25 39 0 23 -12 42 -45 75 -32 33
-45 53 -45 74 0 21 -7 32 -25 40 -14 6 -25 16 -25 22 0 5 -9 19 -20 30 -11 11
-20 32 -20 48 0 19 -7 30 -22 37 -16 7 -24 20 -26 44 -2 21 -10 35 -20 38 -19
5 -62 67 -62 89 0 24 -19 54 -35 54 -8 0 -15 6 -15 13 0 8 -9 22 -20 32 -11
10 -20 31 -20 47 0 21 -7 32 -25 40 -19 9 -25 19 -25 45 0 27 -5 35 -25 43
-14 5 -25 15 -25 23 0 7 -9 20 -20 30 -12 10 -20 29 -20 47 0 23 -6 33 -25 40
-14 5 -25 16 -25 25 0 9 -11 20 -25 25 -20 7 -25 17 -25 43 0 20 -7 39 -20 50
-11 9 -20 29 -20 45 0 21 -7 32 -25 40 -14 6 -25 18 -25 26 0 7 -7 16 -15 20
-8 3 -15 16 -15 30 0 35 -10 56 -26 56 -8 0 -19 11 -25 24 -6 13 -19 26 -29
29 -10 3 -19 18 -23 41 -6 36 -48 86 -73 86 -10 0 -14 13 -14 40 0 28 -6 45
-20 57 -11 10 -20 28 -20 41 0 16 -17 40 -50 71 -32 30 -50 55 -50 70 0 24
-47 81 -66 81 -15 0 -24 23 -24 61 0 19 -6 32 -17 36 -24 9 -33 23 -33 53 0
24 -50 80 -71 80 -5 0 -9 15 -9 34 0 36 -37 87 -72 99 -13 5 -18 17 -18 47 0
34 -4 42 -25 50 -19 7 -25 17 -25 38 0 30 -41 84 -72 95 -13 5 -18 17 -18 47
0 30 -5 42 -17 47 -31 11 -73 63 -73 91 0 19 -12 37 -40 61 -24 21 -40 44 -40
57 0 36 -11 54 -31 54 -14 0 -19 7 -19 28 0 43 -11 72 -27 72 -22 0 -62 52
-63 83 0 19 -7 31 -25 39 -14 6 -25 17 -25 23 0 7 -9 20 -20 30 -11 10 -20 31
-20 47 0 21 -6 31 -25 38 -21 8 -25 16 -25 50 0 30 -5 42 -17 47 -32 11 -73
65 -73 95 0 21 -6 31 -25 38 -14 5 -25 17 -25 25 0 9 -8 19 -17 22 -24 9 -33
23 -33 56 0 15 -5 27 -10 27 -6 0 -15 11 -20 24 -5 13 -18 27 -29 31 -15 4
-21 15 -21 36 0 17 -8 36 -20 46 -13 11 -20 30 -20 50 0 26 -5 36 -25 43 -14
5 -25 16 -25 25 0 9 -11 20 -25 25 -19 7 -25 17 -25 40 0 18 -8 37 -20 47 -11
10 -20 23 -20 30 0 8 -11 18 -25 23 -19 7 -25 17 -25 40 0 17 -9 39 -20 50
-11 11 -20 33 -20 49 0 21 -6 30 -21 34 -11 3 -23 14 -25 24 -3 10 -15 23 -27
28 -14 7 -23 21 -25 40 -2 17 -9 35 -16 40 -7 6 -16 20 -20 33 -4 13 -15 22
-27 22 -14 0 -19 7 -19 26 0 33 -17 64 -35 64 -10 0 -15 10 -15 30 0 17 -9 39
-20 50 -11 11 -20 25 -20 30 0 6 -11 16 -25 22 -19 9 -25 19 -25 44 0 23 -6
37 -20 44 -11 6 -20 17 -20 25 0 8 -4 15 -9 15 -19 0 -41 32 -41 61 0 22 -6
32 -25 39 -14 5 -25 15 -25 23 0 7 -9 20 -20 30 -12 10 -20 29 -20 47 0 20 -6
33 -17 37 -24 9 -33 23 -33 54 0 18 -8 29 -25 37 -14 6 -25 18 -25 26 0 7 -7
16 -15 20 -8 3 -15 18 -15 33 0 32 -9 47 -31 55 -12 5 -18 23 -21 68 -3 45 -9
65 -21 72 -14 7 -17 24 -17 84 0 70 -2 75 -25 86 -24 11 -25 15 -25 107 0 100
-4 113 -32 124 -16 6 -18 25 -18 197 0 172 2 191 18 197 9 4 20 11 24 17 4 6
8 73 8 149 0 122 2 138 18 144 28 10 32 24 32 105 0 62 3 79 17 86 12 7 18 28
21 72 4 49 8 64 22 67 21 5 30 31 30 84 0 23 6 39 15 43 10 3 15 19 15 48 0
60 9 85 31 91 16 4 19 14 19 57 0 42 5 55 25 74 l25 23 0 395 0 396 -25 16
c-17 12 -25 25 -25 47 0 19 -6 32 -17 36 -25 9 -33 23 -33 61 0 20 -6 35 -15
38 -42 16 -1 24 129 24 112 0 146 -3 155 -14 9 -11 50 -15 177 -18 155 -3 166
-4 182 -25 16 -20 27 -21 163 -25 122 -3 148 -6 163 -21 15 -15 38 -17 172
-17 152 0 154 0 176 -25 21 -24 25 -25 162 -25 78 0 146 -4 152 -8 6 -4 13
-15 17 -24 6 -16 22 -18 146 -18 120 0 142 -3 157 -17 15 -15 40 -19 158 -21
131 -3 142 -5 158 -25 16 -21 27 -22 165 -25 139 -3 149 -5 165 -25 16 -20 27
-22 155 -25 100 -3 142 -7 153 -18 11 -9 57 -16 144 -20 109 -6 129 -10 133
-24 5 -20 80 -30 219 -30 60 0 85 -4 94 -15 10 -11 35 -15 110 -15 120 0 157
-7 163 -30 4 -16 19 -19 131 -22 116 -3 129 -5 144 -24 15 -20 29 -22 133 -26
92 -3 120 -8 134 -21 13 -14 36 -17 110 -17 90 0 95 -1 111 -25 16 -24 19 -25
134 -25 100 0 121 -3 136 -17 14 -14 39 -19 121 -21 57 -2 103 -8 103 -12 0
-5 7 -16 16 -24 12 -12 37 -16 109 -16 86 0 95 -2 109 -22 14 -19 27 -23 94
-26 51 -3 81 -8 88 -18 8 -10 44 -16 117 -20 87 -6 106 -10 110 -24 4 -17 61
-30 133 -30 23 0 37 -6 44 -20 8 -14 25 -21 71 -26 37 -4 63 -12 66 -20 4 -10
25 -14 72 -14 83 0 108 -7 114 -31 4 -14 14 -19 36 -19 19 0 38 -8 48 -20 14
-16 30 -20 76 -20 46 0 59 -4 64 -17 3 -10 13 -26 22 -35 9 -9 22 -24 29 -33
7 -8 24 -15 38 -15 14 0 37 -9 51 -20 20 -16 41 -20 95 -20 60 0 71 -3 75 -19
6 -25 31 -31 129 -31 73 0 84 -3 108 -25 24 -23 35 -25 113 -25 63 0 91 -4
103 -15 13 -12 59 -16 213 -22 171 -5 196 -8 200 -23 4 -14 26 -18 155 -24 82
-3 214 -3 292 0 118 6 142 10 150 24 7 13 30 18 111 24 67 4 108 11 119 21 8
7 40 15 70 17 46 2 57 7 65 26 7 16 18 22 43 22 25 0 35 5 42 25 7 19 17 25
39 25 17 0 38 8 48 18 10 11 26 22 36 25 9 4 17 13 17 21 0 9 9 20 20 26 11 6
20 17 20 26 0 8 11 19 25 24 20 8 25 16 25 45 0 29 5 37 25 45 23 9 25 15 25
65 0 35 5 62 14 70 31 32 31 338 0 370 -8 7 -14 18 -14 24 0 6 -11 13 -25 17
-21 5 -25 12 -25 40 0 27 -5 37 -25 46 -14 6 -25 16 -25 23 0 6 -11 21 -25 33
-14 12 -25 26 -25 31 0 5 -9 13 -20 16 -11 3 -20 10 -20 15 0 4 -13 22 -29 39
-20 22 -38 31 -60 31 -20 0 -35 7 -43 20 -7 11 -18 20 -24 20 -7 0 -15 11 -18
25 -4 15 -14 25 -24 25 -9 0 -22 10 -27 23 -7 14 -20 23 -40 25 -16 2 -38 12
-48 23 -10 10 -24 19 -32 19 -8 0 -15 9 -15 19 0 21 -19 31 -56 31 -17 0 -27
8 -34 25 -5 14 -17 25 -25 25 -9 0 -18 6 -21 14 -3 7 -23 17 -46 20 -27 5 -42
12 -45 25 -3 13 -17 21 -44 25 -21 3 -39 11 -39 16 0 6 -11 15 -24 20 -13 5
-27 18 -31 29 -5 16 -15 21 -41 21 -28 0 -36 5 -44 25 -7 19 -17 25 -40 25
-18 0 -37 8 -47 20 -10 11 -30 20 -45 20 -18 0 -36 10 -50 25 -13 16 -32 25
-50 25 -18 0 -36 9 -50 25 -12 14 -31 25 -43 25 -12 0 -30 9 -40 20 -11 12
-31 20 -52 20 -26 0 -33 4 -33 19 0 21 -19 31 -56 31 -14 0 -27 6 -30 14 -3 8
-27 16 -55 20 -39 5 -49 11 -49 25 0 14 -10 20 -41 25 -28 4 -43 12 -46 25 -3
13 -17 21 -43 25 -21 3 -40 13 -44 21 -3 9 -18 15 -41 15 -29 0 -37 5 -45 25
-8 20 -16 25 -45 25 -23 0 -41 7 -52 20 -11 13 -30 20 -50 20 -26 0 -36 5 -43
25 -9 23 -15 25 -70 25 -55 0 -61 2 -70 25 -7 19 -17 25 -38 25 -16 0 -37 9
-47 20 -11 12 -31 20 -52 20 -26 0 -33 4 -33 19 0 20 -18 31 -52 31 -11 0 -31
11 -44 25 -19 20 -33 25 -74 25 -34 0 -52 5 -56 14 -3 7 -23 16 -44 20 -23 4
-43 14 -49 25 -6 11 -26 21 -50 25 -21 3 -41 13 -45 21 -4 11 -20 15 -58 15
-58 0 -71 6 -81 33 -4 10 -17 17 -34 17 -33 0 -47 9 -56 33 -5 13 -18 17 -60
17 -41 0 -58 5 -72 20 -10 11 -30 20 -45 20 -18 0 -33 8 -44 25 -14 22 -24 25
-71 25 -47 0 -57 3 -71 25 -11 17 -25 25 -45 25 -16 0 -32 7 -37 17 -7 12 -27
18 -72 21 -45 3 -63 9 -68 21 -8 22 -22 31 -53 31 -15 0 -29 7 -33 15 -3 9
-18 15 -39 15 -59 0 -95 11 -100 31 -4 13 -14 19 -34 19 -62 0 -103 12 -103
30 0 13 -11 19 -40 24 -23 3 -43 13 -46 21 -4 9 -19 15 -40 15 -27 0 -37 5
-46 25 -8 18 -19 25 -40 25 -16 0 -36 9 -45 20 -12 13 -30 20 -55 20 -32 0
-40 4 -48 25 -8 20 -16 25 -45 25 -29 0 -37 5 -45 25 -7 20 -17 25 -43 25 -20
0 -39 7 -50 20 -9 11 -29 20 -43 20 -16 0 -34 10 -46 25 -14 18 -29 25 -54 25
-19 0 -34 4 -34 9 0 19 -32 41 -60 41 -15 0 -30 6 -33 14 -3 7 -24 16 -46 20
-31 5 -41 11 -41 25 0 14 -10 20 -40 25 -21 3 -43 12 -47 20 -4 8 -26 16 -47
18 -25 2 -43 10 -50 22 -25 42 -65 76 -90 76 -15 0 -30 8 -36 20 -8 15 -21 20
-51 20 -29 0 -41 5 -46 18 -14 36 -69 82 -99 82 -17 0 -37 8 -47 20 -10 12
-29 20 -47 20 -20 0 -33 6 -37 18 -11 29 -47 62 -68 62 -35 1 -65 12 -65 24 0
7 -11 22 -25 34 -14 12 -25 26 -25 31 0 4 -18 11 -39 15 -21 3 -41 13 -45 21
-3 8 -12 15 -21 15 -8 0 -20 11 -25 25 -7 19 -17 25 -38 25 -16 0 -37 9 -47
20 -10 11 -23 20 -30 20 -6 0 -17 11 -23 25 -9 19 -19 25 -42 25 -21 0 -34 8
-46 25 -9 14 -22 25 -29 25 -8 0 -17 9 -20 20 -3 11 -13 20 -21 20 -8 0 -14 4
-14 9 0 20 -33 41 -66 41 -20 0 -34 5 -34 13 -1 18 -44 64 -69 72 -11 3 -21
14 -21 24 0 14 -10 20 -40 25 -21 3 -43 12 -47 19 -4 8 -16 16 -26 20 -9 4
-20 13 -23 22 -14 34 -62 75 -91 75 -28 0 -83 46 -83 69 0 7 -8 15 -17 18 -23
9 -73 58 -73 72 0 7 -11 16 -25 21 -14 5 -25 16 -25 24 0 16 -21 26 -56 26
-14 0 -27 6 -30 14 -3 8 -14 16 -25 19 -11 3 -23 14 -26 25 -3 11 -13 22 -24
25 -10 3 -22 13 -25 22 -9 24 -49 65 -62 65 -6 0 -16 9 -22 20 -15 28 -52 65
-72 73 -10 3 -18 13 -18 22 0 8 -11 20 -25 25 -14 5 -25 14 -25 21 0 14 -50
63 -72 72 -10 3 -18 13 -18 22 0 8 -11 20 -25 25 -14 5 -25 15 -25 21 0 14
-41 53 -64 62 -9 4 -19 14 -23 23 -9 23 -48 64 -62 64 -6 0 -17 11 -23 25 -6
14 -17 25 -24 25 -7 0 -18 9 -24 20 -15 28 -52 65 -72 73 -10 3 -18 11 -18 17
0 15 -50 64 -72 73 -10 3 -18 13 -18 22 0 8 -11 20 -25 25 -14 5 -25 15 -25
23 0 7 -9 20 -20 30 -11 9 -20 29 -20 46 0 21 -6 30 -21 34 -11 3 -23 15 -26
26 -3 12 -11 21 -17 21 -13 0 -76 66 -76 80 0 4 -8 10 -18 12 -13 4 -21 18
-25 42 -4 26 -20 50 -57 86 -28 28 -58 50 -66 50 -9 0 -14 11 -14 32 0 39 -37
95 -67 103 -13 3 -23 12 -23 20 0 8 -9 24 -20 35 -11 11 -20 33 -20 49 0 21
-6 30 -21 34 -11 3 -23 14 -25 24 -3 10 -15 23 -27 28 -13 6 -24 22 -27 40 -6
33 -46 85 -67 85 -8 0 -13 12 -13 31 0 33 -15 69 -30 69 -12 0 -60 48 -60 61
0 5 -11 15 -25 21 -19 9 -25 19 -25 44 0 23 -6 37 -20 44 -11 6 -20 17 -20 25
0 8 -4 15 -9 15 -19 0 -41 32 -41 61 0 22 -6 32 -25 39 -14 5 -25 15 -25 23 0
7 -9 20 -20 30 -12 10 -20 29 -20 47 0 23 -6 33 -25 40 -14 5 -25 14 -25 20 0
5 -7 10 -15 10 -18 0 -35 31 -35 64 0 26 -33 68 -61 78 -10 4 -18 22 -21 45
-6 39 -38 84 -70 96 -10 3 -18 19 -20 39 -2 23 -10 36 -25 43 -13 5 -23 18
-23 27 0 10 -9 22 -20 28 -14 7 -20 21 -20 44 0 28 -5 35 -25 40 -14 4 -25 13
-25 21 0 8 -9 24 -20 35 -11 11 -20 33 -20 49 0 21 -6 30 -21 34 -11 3 -23 15
-26 26 -3 12 -13 21 -23 21 -19 0 -30 19 -30 52 0 21 -11 35 -57 80 -13 12
-23 30 -23 40 0 24 -18 58 -30 58 -5 0 -20 11 -34 24 -19 17 -26 34 -26 59 0
26 -6 39 -20 47 -40 22 -70 57 -70 85 0 29 -47 84 -82 98 -12 4 -18 17 -18 39
0 21 -7 40 -20 51 -11 9 -20 29 -20 43 0 25 -50 84 -71 84 -13 0 -29 36 -29
64 0 26 -33 68 -61 78 -9 4 -19 23 -23 46 -3 22 -13 42 -21 46 -9 3 -15 18
-15 35 0 31 -59 101 -86 101 -9 0 -14 11 -14 33 0 21 -8 41 -20 52 -13 12 -20
31 -20 55 0 32 -4 39 -25 44 -14 4 -25 13 -25 21 0 8 -6 15 -14 15 -14 0 -26
29 -26 64 0 10 -11 29 -25 42 -14 13 -25 34 -25 49 0 15 -7 28 -17 32 -26 9
-63 51 -63 71 0 35 -13 62 -31 67 -13 4 -19 16 -19 35 0 28 -22 60 -41 60 -5
0 -9 14 -9 30 0 18 -8 37 -20 47 -13 11 -20 30 -20 50 0 26 -5 36 -25 43 -20
8 -25 16 -25 45 0 23 -7 41 -20 52 -11 10 -20 29 -20 44 0 17 -9 32 -25 43
-18 12 -25 25 -25 49 0 24 -6 35 -22 42 -19 8 -23 19 -26 65 -2 37 -8 59 -19
67 -11 9 -18 33 -21 74 -3 44 -9 62 -21 67 -22 8 -31 23 -31 55 0 15 -7 30
-15 33 -8 4 -15 18 -15 33 0 31 -9 45 -32 54 -13 5 -18 18 -18 49 0 59 -9 85
-29 91 -12 3 -20 18 -24 45 -4 22 -14 42 -22 46 -9 3 -15 18 -15 35 0 19 -9
39 -24 53 -14 13 -26 37 -28 53 -2 20 -11 33 -25 40 -13 5 -23 14 -23 20 0 6
-9 16 -20 23 -14 8 -20 23 -20 46 0 25 -7 38 -25 50 -16 11 -25 26 -25 42 0
14 -9 37 -20 51 -11 14 -20 36 -20 50 0 13 -7 26 -17 30 -24 9 -33 23 -33 56
0 20 -7 30 -25 37 -14 5 -25 17 -25 25 0 9 -7 18 -15 21 -8 4 -15 18 -15 34 0
28 -22 60 -41 60 -5 0 -9 11 -9 24 0 34 -10 56 -26 56 -7 0 -19 10 -25 23 -7
12 -18 26 -25 30 -8 4 -14 24 -14 43 0 28 -5 36 -25 44 -14 5 -25 16 -25 24 0
9 -9 20 -20 26 -14 8 -20 21 -20 46 0 28 -5 36 -25 44 -14 5 -25 16 -25 25 0
9 -11 20 -25 25 -19 7 -25 17 -25 39 0 22 -12 42 -45 75 -29 30 -45 55 -45 71
0 27 -91 125 -115 125 -10 0 -15 10 -15 30 0 17 -9 39 -20 50 -11 11 -20 27
-20 35 0 8 -11 17 -25 21 -16 4 -25 13 -25 25 0 12 -9 21 -25 25 -20 5 -25 12
-25 38 0 32 -35 75 -72 89 -10 3 -18 13 -18 21 0 17 -53 76 -69 76 -6 0 -14
18 -17 41 -5 30 -13 43 -30 50 -13 4 -24 13 -24 18 0 14 -53 71 -66 71 -6 0
-14 9 -17 20 -3 11 -13 23 -22 26 -24 10 -65 49 -65 63 0 6 -11 17 -25 23 -19
9 -25 19 -25 44 0 23 -6 37 -20 44 -11 6 -20 17 -20 26 0 8 -11 19 -25 24 -14
5 -25 14 -25 20 0 6 -11 15 -25 20 -14 5 -25 16 -25 24 0 8 -6 19 -14 23 -7 4
-18 18 -25 31 -6 12 -17 22 -23 22 -13 0 -53 41 -62 65 -3 9 -15 19 -25 22
-11 3 -21 13 -24 24 -3 10 -13 22 -22 25 -24 10 -65 49 -65 63 0 6 -11 17 -25
23 -14 6 -25 15 -25 20 0 5 -11 13 -25 18 -14 5 -25 16 -25 24 0 9 -9 20 -19
26 -11 5 -23 19 -26 30 -3 11 -11 20 -17 20 -13 0 -78 67 -78 81 0 5 -6 9 -14
9 -7 0 -21 11 -30 25 -11 17 -26 25 -44 25 -16 0 -32 8 -40 20 -7 11 -19 20
-27 20 -8 0 -15 6 -15 13 0 14 -66 77 -81 77 -5 0 -9 7 -9 15 0 9 -11 21 -25
27 -14 6 -25 16 -25 22 0 20 -58 66 -83 66 -33 0 -57 9 -57 22 0 14 -53 68
-66 68 -6 0 -16 11 -22 25 -9 20 -19 25 -46 25 -28 0 -35 4 -40 25 -4 14 -13
25 -21 25 -18 0 -65 46 -65 64 0 17 -22 26 -66 26 -25 0 -34 4 -34 16 0 18
-38 57 -65 68 -9 3 -19 15 -22 26 -4 14 -14 20 -34 20 -16 0 -37 8 -47 18 -10
10 -26 22 -36 25 -10 4 -20 16 -23 27 -4 15 -14 20 -39 20 -27 0 -37 5 -46 25
-9 19 -19 25 -44 25 -23 0 -37 6 -44 20 -6 11 -17 20 -26 20 -8 0 -19 11 -24
25 -7 19 -17 25 -40 25 -23 0 -42 11 -76 45 -33 33 -52 45 -75 45 -19 0 -32 6
-36 18 -9 23 -23 32 -54 32 -15 0 -29 7 -33 15 -3 8 -18 15 -33 15 -33 0 -47
9 -56 33 -4 11 -17 17 -39 17 -37 0 -52 8 -60 31 -4 9 -23 19 -46 23 -22 3
-42 12 -45 20 -3 8 -21 16 -39 18 -23 2 -36 10 -43 26 -7 16 -18 22 -41 22
-18 0 -38 8 -49 20 -10 11 -31 20 -47 20 -21 0 -31 6 -38 25 -8 21 -16 25 -50
25 -34 0 -42 4 -50 25 -7 20 -17 25 -43 25 -20 0 -39 7 -50 20 -10 12 -29 20
-47 20 -20 0 -33 6 -37 18 -10 26 -23 32 -80 32 -42 0 -53 4 -58 19 -7 22 -33
31 -91 31 -26 0 -44 5 -47 14 -3 7 -24 16 -46 20 -31 5 -41 11 -41 25 0 16
-10 19 -61 23 -42 3 -66 10 -74 21 -9 13 -27 17 -69 17 -51 0 -57 2 -66 25 -9
23 -15 25 -70 25 -55 0 -61 2 -70 25 -9 24 -14 25 -83 25 -61 0 -77 3 -92 20
-14 15 -31 20 -70 20 -45 0 -55 4 -69 25 -16 24 -21 25 -111 25 -89 0 -97 2
-117 25 -19 22 -29 25 -94 25 -55 0 -77 4 -90 17 -13 13 -39 18 -113 21 -83 3
-98 7 -113 25 -15 20 -28 22 -160 25 -100 3 -146 8 -153 17 -7 9 -58 14 -179
17 -161 4 -170 6 -184 26 -14 21 -20 22 -216 22 -253 0 -366 8 -366 26 0 8
-10 16 -22 18 -13 3 -193 7 -400 9 -301 4 -381 7 -395 18 -25 21 -2792 21
-2817 0 -13 -11 -76 -15 -292 -19 -262 -5 -275 -6 -289 -25 -10 -15 -29 -21
-70 -25 l-55 -4 0 41 c0 35 -4 43 -25 51 -23 9 -25 15 -25 70 0 55 -2 61 -25
70 -14 5 -25 16 -25 24 0 9 -9 20 -20 26 -14 8 -20 21 -20 46 0 26 -5 37 -22
44 -13 5 -34 25 -48 44 -14 19 -33 37 -43 40 -10 2 -21 14 -24 25 -3 12 -10
21 -17 21 -14 0 -60 49 -69 73 -3 9 -13 17 -22 17 -8 0 -20 11 -25 25 -8 20
-16 25 -44 25 -25 0 -38 6 -46 20 -8 14 -21 20 -46 20 -28 0 -36 5 -44 25 -9
23 -15 25 -69 25 -46 0 -62 4 -69 17 -7 12 -27 18 -70 21 -46 3 -61 8 -65 22
-6 23 -47 30 -169 30 -89 0 -100 2 -105 19 -4 15 -18 20 -71 25 -68 6 -339 5
-424 -1z"/>
</g>
</svg>
