<?xml version="1.0" standalone="no"?>
<!DOCTYPE svg PUBLIC "-//W3C//DTD SVG 20010904//EN"
 "http://www.w3.org/TR/2001/REC-SVG-20010904/DTD/svg10.dtd">
<svg version="1.0" xmlns="http://www.w3.org/2000/svg"
 width="625.000000pt" height="448.000000pt" viewBox="0 0 625.000000 448.000000"
 preserveAspectRatio="xMidYMid meet">
<metadata>
Created by potrace 1.16, written by Peter Selinger 2001-2019
</metadata>
<g transform="translate(0.000000,448.000000) scale(0.100000,-0.100000)"
fill="#000000" stroke="none">
<path d="M2170 3715 c-340 -57 -611 -201 -850 -451 -91 -96 -220 -267 -220
-291 0 -4 94 -56 209 -115 l208 -107 31 47 c138 211 344 359 599 429 86 24
116 28 248 28 145 0 293 -21 319 -46 5 -5 -5 -26 -26 -51 -136 -166 -252 -425
-295 -658 -26 -144 -23 -402 6 -540 53 -252 128 -409 316 -666 14 -19 5 -24
-92 -46 -137 -31 -337 -29 -468 6 -232 61 -435 197 -576 387 -28 38 -53 69
-56 69 -8 0 -381 -191 -400 -205 -15 -11 -11 -20 39 -96 76 -113 229 -273 347
-362 218 -165 462 -257 787 -297 202 -25 509 35 741 145 l93 44 93 -44 c169
-81 317 -120 542 -144 160 -18 409 18 595 85 264 95 524 287 688 508 104 140
108 147 88 161 -19 14 -391 205 -399 205 -3 0 -28 -31 -56 -69 -173 -233 -424
-376 -721 -412 -102 -12 -188 -7 -316 18 -95 18 -113 26 -99 46 6 8 36 50 67
93 116 159 204 362 249 574 33 151 32 409 0 564 -49 234 -141 440 -273 612
-58 76 -59 75 47 100 203 47 448 22 644 -67 151 -69 324 -213 413 -345 24 -35
49 -64 56 -64 19 0 412 203 412 213 0 24 -138 205 -227 298 -205 212 -424 341
-703 413 -152 40 -246 49 -424 43 -228 -8 -407 -52 -598 -148 l-76 -38 -94 44
c-214 101 -416 146 -651 144 -78 -1 -176 -7 -217 -14z m1010 -832 c56 -64 126
-179 160 -261 97 -239 95 -532 -6 -770 -51 -118 -177 -312 -204 -312 -14 0
-104 121 -147 195 -91 159 -133 317 -133 504 0 261 67 443 247 668 10 12 23
22 30 23 6 0 30 -21 53 -47z"/>
</g>
</svg>
