<?xml version="1.0" standalone="no"?>
<!DOCTYPE svg PUBLIC "-//W3C//DTD SVG 20010904//EN"
 "http://www.w3.org/TR/2001/REC-SVG-20010904/DTD/svg10.dtd">
<svg version="1.0" xmlns="http://www.w3.org/2000/svg"
 width="489.000000pt" height="489.000000pt" viewBox="0 0 489.000000 489.000000"
 preserveAspectRatio="xMidYMid meet">
<metadata>
Created by potrace 1.16, written by Peter Selinger 2001-2019
</metadata>
<g transform="translate(0.000000,489.000000) scale(0.069857,-0.071076)"
fill="#000000" stroke="none">
<path d="M3298 6473 c-295 -238 -450 -488 -435 -704 6 -92 25 -137 111 -267
36 -54 82 -133 102 -177 75 -164 111 -393 83 -520 -8 -37 -14 -52 -17 -38 -6
37 -89 120 -237 238 -180 144 -245 212 -275 290 -28 75 -37 220 -21 335 7 45
10 84 7 87 -11 11 -98 -190 -123 -283 -22 -86 -26 -119 -26 -249 0 -179 15
-249 94 -419 101 -216 132 -353 110 -483 -21 -120 -66 -126 -69 -9 -4 145 -98
291 -256 398 -57 40 -175 98 -197 98 -6 0 13 -26 41 -57 67 -76 127 -197 140
-288 19 -123 -5 -234 -90 -415 -87 -183 -95 -221 -95 -430 0 -131 4 -195 18
-254 12 -56 18 -135 21 -270 2 -169 6 -202 29 -288 54 -197 141 -356 308 -558
118 -143 244 -424 314 -702 24 -93 25 -109 25 -427 l0 -330 26 -3 c23 -2 29
-10 39 -48 18 -73 45 -120 107 -185 283 -303 888 -190 982 184 11 41 16 46 43
49 l31 3 5 387 c4 378 5 389 31 487 30 117 126 318 211 445 32 47 96 133 144
193 151 188 220 322 266 517 37 155 45 211 45 313 0 94 1 98 36 152 100 158
202 493 234 773 12 105 8 490 -5 545 -13 48 -29 24 -42 -61 -7 -45 -22 -110
-33 -144 -50 -150 -171 -343 -215 -343 -19 0 -20 8 -21 165 -2 243 -33 403
-124 629 -53 134 -100 227 -168 331 -78 121 -214 282 -227 269 -2 -3 11 -43
30 -89 73 -181 63 -370 -27 -542 -17 -31 -38 -64 -47 -72 -15 -14 -16 -9 -17
62 0 49 -8 103 -22 147 -40 132 -78 180 -348 450 -272 271 -383 406 -459 557
-54 108 -69 176 -63 292 6 104 28 172 88 265 22 34 36 61 31 61 -5 0 -47 -30
-93 -67z m378 -2328 c242 -43 450 -151 625 -324 133 -133 224 -284 273 -453
102 -352 29 -683 -219 -993 -228 -285 -364 -544 -406 -778 l-12 -67 -165 0
-164 0 6 28 c3 15 51 335 106 712 56 377 105 693 111 702 5 10 9 24 9 32 0 8
35 33 78 55 91 48 173 117 196 165 31 66 12 142 -42 170 -140 72 -264 -21
-305 -230 -10 -51 -15 -59 -37 -62 -33 -5 -92 13 -124 39 l-27 21 37 40 c57
63 84 131 84 211 0 104 -30 147 -102 147 -47 0 -92 -31 -116 -82 -28 -57 -46
-168 -39 -235 l6 -55 -45 -20 c-57 -24 -215 -65 -273 -70 l-45 -3 -22 116
c-32 167 -61 216 -141 233 -48 11 -115 -23 -149 -74 -58 -87 -40 -213 41 -294
34 -34 112 -76 142 -76 10 0 24 -4 31 -9 35 -22 133 -845 157 -1329 l7 -132
-75 0 -74 0 -28 98 c-86 305 -214 569 -355 727 -118 134 -206 298 -251 472
-38 148 -22 417 36 590 125 371 463 653 871 727 107 19 292 19 400 1z m58
-1192 c-2 -10 -49 -324 -104 -698 -55 -374 -103 -690 -105 -702 -5 -23 -8 -23
-144 -23 l-139 0 -6 73 c-3 39 -10 151 -16 247 -16 254 -56 636 -93 895 l-33
225 322 0 c302 0 322 -1 318 -17z m186 -1688 l0 -45 -445 0 -445 0 0 45 0 45
445 0 445 0 0 -45z m0 -305 l0 -50 -445 0 -445 0 0 50 0 50 445 0 445 0 0 -50z
m-80 -256 c0 -4 -9 -22 -21 -40 -68 -111 -268 -183 -427 -155 -71 13 -152 45
-204 82 -30 22 -88 94 -88 111 0 4 167 8 370 8 204 0 370 -3 370 -6z"/>
</g>
</svg>
