<?xml version="1.0" standalone="no"?>
<!DOCTYPE svg PUBLIC "-//W3C//DTD SVG 20010904//EN"
 "http://www.w3.org/TR/2001/REC-SVG-20010904/DTD/svg10.dtd">
<svg version="1.0" xmlns="http://www.w3.org/2000/svg"
 width="607.000000pt" height="607.000000pt" viewBox="0 0 607.000000 607.000000"
 preserveAspectRatio="xMidYMid meet">
<metadata>
Created by potrace 1.16, written by Peter Selinger 2001-2019
</metadata>
<g transform="translate(0.000000,607.000000) scale(0.100000,-0.100000)"
fill="#000000" stroke="none">
<path d="M2890 6055 c-131 -16 -178 -27 -280 -64 -196 -72 -341 -204 -431
-394 l-29 -62 -242 0 c-279 0 -311 -6 -468 -82 -83 -41 -108 -60 -195 -147
-180 -182 -237 -308 -311 -694 -5 -24 -5 -24 -112 -17 -132 8 -232 -10 -342
-62 -108 -51 -228 -174 -292 -298 -82 -159 -132 -330 -163 -555 -22 -155 -33
-917 -16 -1110 29 -328 75 -520 172 -710 136 -268 346 -392 636 -376 111 6
113 6 117 -16 3 -13 12 -64 20 -114 44 -255 169 -492 334 -629 84 -70 219
-137 337 -167 79 -20 112 -22 265 -20 96 1 193 3 215 4 l40 3 50 -94 c142
-266 398 -412 767 -437 l98 -7 2 3009 c2 1655 0 3019 -4 3032 -9 26 -14 26
-168 7z m-22 -3017 l2 -2808 -23 0 c-36 0 -164 38 -215 64 -125 63 -240 184
-282 293 -10 28 -24 82 -31 120 -6 37 -14 71 -18 75 -4 4 -61 -4 -126 -19
-104 -24 -142 -27 -290 -27 -158 0 -176 2 -250 27 -112 37 -197 91 -269 168
-76 83 -120 155 -162 267 -50 134 -74 268 -74 416 0 100 -3 128 -14 132 -8 3
-65 -9 -128 -27 -97 -29 -129 -33 -223 -34 -103 0 -114 2 -178 32 -102 48
-172 124 -235 253 -105 213 -142 424 -157 885 -9 257 8 693 29 733 27 52 243
133 411 154 79 10 105 9 176 -5 220 -43 376 -186 504 -461 56 -121 79 -146
138 -146 32 0 49 6 65 23 38 40 38 76 -2 172 -72 178 -188 345 -308 444 -223
184 -546 225 -862 110 -44 -16 -81 -27 -84 -25 -9 10 51 180 93 264 59 117
137 200 231 245 64 30 76 32 169 31 79 0 126 -7 224 -33 68 -17 130 -30 137
-27 10 4 13 36 13 127 1 214 47 395 142 561 165 284 477 387 892 293 66 -14
125 -24 131 -22 7 3 18 39 25 80 28 176 136 318 306 405 68 34 184 72 215 69
l25 -2 3 -2807z"/>
<path d="M2530 4980 c-11 -11 -33 -45 -49 -77 -34 -67 -71 -106 -123 -127 -81
-34 -208 -9 -354 70 -45 24 -90 44 -102 44 -37 0 -71 -22 -87 -57 -34 -71 5
-122 147 -192 302 -149 575 -85 696 162 41 83 43 138 6 172 -35 32 -104 35
-134 5z"/>
<path d="M1783 4145 c-30 -21 -46 -75 -33 -109 5 -15 38 -59 72 -99 241 -280
368 -627 355 -972 -11 -296 -85 -491 -311 -828 -137 -204 -145 -227 -88 -278
23 -21 43 -29 69 -29 32 0 44 8 85 51 63 67 193 263 257 387 280 546 249 1127
-87 1632 -75 113 -170 228 -205 247 -31 17 -88 16 -114 -2z"/>
<path d="M1005 2315 c-5 -2 -23 -6 -38 -10 -72 -15 -101 -106 -53 -162 l24
-28 120 3 c138 3 183 -9 231 -64 48 -54 77 -192 66 -311 -5 -54 -3 -78 8 -100
37 -71 150 -67 175 7 18 51 25 190 13 266 -42 272 -189 405 -445 403 -50 0
-95 -2 -101 -4z"/>
<path d="M2404 2046 c-71 -32 -171 -200 -200 -336 -21 -97 -14 -239 16 -335
30 -95 105 -239 150 -286 31 -33 43 -39 77 -39 92 0 122 90 63 184 -90 142
-124 249 -118 371 5 94 42 186 101 252 48 53 61 87 47 128 -20 62 -77 87 -136
61z"/>
<path d="M3192 6058 c-18 -18 -17 -971 1 -985 6 -6 64 -20 127 -32 252 -49
503 -154 729 -305 499 -334 790 -791 898 -1411 24 -140 24 -441 0 -586 -52
-310 -165 -602 -325 -839 -307 -453 -778 -768 -1302 -871 -63 -12 -121 -26
-127 -32 -18 -14 -19 -967 -1 -985 14 -14 174 -16 232 -2 49 11 85 37 111 81
26 44 24 115 -8 279 -19 95 -22 128 -14 137 12 11 298 90 363 100 36 5 27 22
103 -193 18 -50 41 -105 51 -122 36 -58 108 -87 179 -71 38 8 601 326 668 376
62 47 81 139 44 211 -10 20 -62 88 -115 149 -53 62 -96 116 -96 120 0 5 65 73
144 152 l145 144 57 -49 c152 -132 208 -173 251 -183 51 -13 106 -2 146 29 22
18 195 306 351 586 66 118 74 175 34 234 -35 51 -61 65 -221 124 -81 29 -150
56 -153 59 -3 2 13 72 35 153 22 82 45 168 51 192 6 24 17 45 25 48 8 3 81 -6
164 -21 171 -31 223 -29 272 13 58 48 59 55 59 477 0 422 -1 429 -59 478 -49
41 -89 43 -241 17 -74 -13 -151 -24 -170 -25 -40 0 -32 -19 -100 234 -33 122
-38 156 -28 162 7 5 73 30 146 55 74 26 148 57 165 68 50 34 77 82 77 137 0
58 -12 81 -226 449 -178 305 -194 324 -282 324 -63 -1 -97 -20 -235 -137
l-118 -100 -145 144 c-79 79 -144 147 -144 152 0 4 45 60 100 124 55 65 107
132 115 149 20 43 19 111 -3 154 -21 44 -33 51 -396 259 -289 166 -300 171
-355 171 -65 0 -111 -23 -140 -71 -11 -17 -40 -91 -66 -164 -26 -74 -52 -140
-58 -149 -11 -13 -35 -9 -197 35 -102 28 -190 56 -196 62 -9 9 -6 43 12 137
33 167 35 235 9 279 -26 44 -62 70 -111 81 -58 14 -218 12 -232 -2z"/>
<path d="M3185 4768 c-3 -7 -4 -204 -3 -438 l3 -424 98 -27 c326 -90 548 -307
639 -626 31 -108 31 -311 0 -426 -91 -335 -325 -562 -660 -642 -58 -14 -73
-22 -77 -39 -3 -12 -4 -208 -3 -436 l3 -415 29 -3 c15 -2 62 4 103 13 440 98
881 410 1113 790 191 310 293 738 261 1089 -20 223 -64 387 -156 583 -101 213
-203 362 -354 516 -223 229 -471 372 -800 463 -131 36 -188 42 -196 22z"/>
</g>
</svg>
