<?xml version="1.0" standalone="no"?>
<!DOCTYPE svg PUBLIC "-//W3C//DTD SVG 20010904//EN"
 "http://www.w3.org/TR/2001/REC-SVG-20010904/DTD/svg10.dtd">
<svg version="1.0" xmlns="http://www.w3.org/2000/svg"
 width="8334.000000pt" height="8334.000000pt" viewBox="0 0 8334.000000 8334.000000"
 preserveAspectRatio="xMidYMid meet">
<metadata>
Created by potrace 1.16, written by Peter Selinger 2001-2019
</metadata>
<g transform="translate(0.000000,8334.000000) scale(0.100000,-0.100000)"
fill="#000000" stroke="none">
<path d="M41262 72669 c-2505 -88 -4857 -676 -7012 -1754 -3737 -1869 -6751
-5165 -8717 -9535 -1486 -3301 -2349 -7129 -2558 -11340 -36 -736 -40 -926
-40 -2015 0 -1231 13 -1682 76 -2610 183 -2729 640 -5186 1400 -7541 l81 -250
3781 -1442 c2079 -794 3784 -1441 3789 -1440 4 2 -20 46 -55 98 -483 724
-1057 1807 -1472 2775 -949 2215 -1573 4730 -1839 7420 -175 1761 -193 3906
-50 5835 380 5127 1897 9549 4305 12550 519 647 1100 1248 1684 1744 1790
1517 3870 2368 6205 2541 1187 87 2353 -6 3439 -275 2902 -719 5353 -2704
7172 -5807 450 -767 897 -1686 1257 -2583 1032 -2571 1664 -5580 1827 -8700
32 -611 39 -920 39 -1655 0 -737 -9 -1106 -39 -1730 -261 -5271 -1698 -9855
-4081 -13021 -764 -1016 -1636 -1891 -2574 -2586 -383 -283 -779 -538 -1200
-773 -184 -103 -638 -328 -835 -415 -185 -82 -579 -237 -735 -291 -69 -23
-129 -45 -133 -49 -10 -9 -388 137 2891 -1114 l2844 -1085 116 71 c1787 1093
3433 2651 4754 4498 2543 3559 4060 8250 4457 13785 118 1635 137 3401 56
4995 -405 7896 -3253 14409 -7950 18179 -2636 2116 -5749 3301 -9200 3501
-500 29 -1186 37 -1683 19z"/>
<path d="M43249 56756 c-416 -63 -822 -254 -1224 -576 -158 -126 -475 -441
-612 -606 l-100 -122 -66 92 c-382 535 -924 928 -1515 1100 -142 41 -334 80
-487 98 -162 19 -514 16 -655 -6 -658 -100 -1179 -440 -1567 -1024 -95 -142
-223 -396 -278 -547 -19 -55 -39 -106 -43 -114 -5 -8 -73 -31 -154 -52 -945
-246 -1543 -832 -1702 -1669 -29 -156 -39 -309 -32 -525 4 -115 9 -228 12
-250 l6 -41 -174 -86 c-506 -252 -857 -589 -1083 -1038 -119 -238 -189 -473
-231 -780 -22 -154 -24 -531 -5 -700 27 -243 94 -563 169 -805 l18 -59 -80
-59 c-106 -79 -251 -221 -345 -337 -311 -387 -514 -898 -618 -1555 -30 -194
-42 -557 -24 -724 39 -358 164 -697 357 -967 l61 -86 -40 -67 c-22 -36 -75
-137 -118 -224 -176 -359 -270 -712 -287 -1075 -24 -510 75 -958 317 -1428
125 -243 304 -499 479 -687 l68 -72 -9 -105 c-12 -148 -1 -562 18 -700 135
-972 682 -1647 1622 -2000 273 -103 652 -187 933 -207 l92 -6 22 -36 c13 -20
47 -81 77 -136 30 -55 99 -167 154 -250 379 -570 849 -942 1350 -1069 152 -38
212 -46 430 -56 220 -10 321 -26 459 -72 187 -63 333 -154 477 -297 178 -178
282 -369 341 -629 l22 -97 6 -2064 5 -2064 295 -113 c162 -63 298 -114 303
-114 4 0 6 1002 4 2228 l-2 2227 -27 120 c-38 167 -80 289 -149 435 -179 374
-460 661 -829 850 -238 121 -479 184 -770 200 -358 21 -462 44 -662 147 -400
207 -793 686 -1023 1246 l-62 152 -244 6 c-150 4 -286 13 -354 23 -710 111
-1210 373 -1532 806 -77 104 -191 328 -237 470 -44 131 -82 319 -97 475 -16
162 -6 536 20 730 l19 150 -51 45 c-291 251 -543 599 -686 943 -201 487 -220
964 -56 1455 37 110 169 412 181 412 2 0 56 -35 121 -77 311 -204 668 -357
1075 -463 212 -55 417 -92 518 -93 99 -2 151 17 220 79 145 131 126 378 -37
482 -53 34 -87 43 -243 67 -309 48 -658 159 -934 297 -241 121 -407 240 -571
410 -352 362 -477 790 -399 1363 98 720 354 1273 717 1546 112 85 168 110 369
164 l176 48 -18 41 c-9 22 -49 111 -88 196 -142 314 -242 668 -284 1010 -19
154 -16 499 5 635 83 530 346 923 807 1208 102 63 321 166 455 215 242 88 570
151 825 159 163 5 167 4 300 -30 591 -151 1018 -493 1290 -1032 159 -313 252
-671 279 -1067 10 -142 26 -189 88 -253 58 -60 133 -90 223 -89 125 0 223 61
277 172 27 55 28 63 26 197 -4 402 -122 873 -317 1272 -341 695 -870 1151
-1586 1366 -228 69 -313 82 -535 82 -203 0 -337 -14 -559 -56 -55 -10 -101
-17 -103 -15 -11 10 -1 363 12 449 104 680 583 1108 1446 1292 165 35 288 42
407 21 281 -49 584 -203 877 -445 128 -106 176 -126 284 -119 108 8 193 63
247 160 26 48 29 62 29 143 0 74 -4 98 -23 137 -61 123 -383 365 -697 524
-183 92 -341 151 -504 187 -62 14 -116 28 -119 31 -6 7 51 124 112 227 73 123
193 278 296 379 398 392 935 531 1568 404 641 -128 1194 -551 1548 -1183 l57
-103 -4 -7547 -4 -7546 28 -57 c55 -111 152 -171 277 -171 125 0 219 57 278
168 l27 50 6 4030 c3 2217 7 5608 8 7537 l1 3506 81 114 c427 598 937 1029
1404 1186 367 124 741 94 1142 -94 339 -157 666 -444 932 -814 33 -47 61 -90
61 -96 0 -6 -26 -17 -57 -24 -86 -19 -297 -94 -425 -151 -202 -90 -423 -217
-613 -352 -202 -144 -249 -210 -249 -347 0 -99 28 -163 99 -228 84 -77 191
-100 301 -67 31 9 90 46 161 99 331 249 716 427 1041 481 125 21 335 16 426
-9 436 -122 917 -625 1134 -1188 46 -120 89 -282 98 -374 6 -58 5 -64 -12 -64
-11 1 -77 5 -149 10 -161 11 -433 -2 -624 -30 -1018 -149 -1750 -795 -2089
-1842 -122 -375 -195 -905 -147 -1066 22 -74 82 -144 152 -178 50 -25 70 -29
143 -29 98 0 152 21 215 82 65 63 87 126 96 282 43 697 316 1327 733 1693 357
313 808 470 1356 472 207 0 292 -9 450 -50 302 -78 536 -218 770 -460 171
-176 284 -341 400 -579 188 -387 274 -760 274 -1180 1 -306 -35 -498 -129
-691 -36 -74 -68 -118 -179 -245 -75 -85 -134 -157 -133 -161 1 -3 63 -50 137
-104 182 -131 272 -209 416 -356 224 -229 378 -444 504 -703 157 -320 219
-593 207 -909 -8 -223 -54 -379 -194 -660 -253 -507 -641 -922 -1045 -1119
-224 -109 -422 -156 -681 -162 -152 -4 -173 -6 -220 -28 -63 -29 -119 -84
-149 -146 -19 -38 -23 -62 -23 -136 0 -78 4 -97 27 -140 31 -60 77 -104 138
-136 41 -22 60 -24 214 -27 261 -6 452 23 696 104 251 84 538 246 750 423 47
39 87 71 90 71 14 0 171 -305 226 -436 229 -551 229 -1005 2 -1458 -129 -257
-333 -492 -560 -644 -58 -39 -109 -75 -111 -79 -3 -5 5 -60 18 -123 36 -176
48 -306 48 -520 1 -547 -132 -1005 -400 -1384 -79 -110 -297 -327 -410 -406
-393 -275 -854 -427 -1479 -486 l-181 -17 -64 -115 c-171 -306 -397 -602 -645
-842 -243 -236 -473 -387 -708 -465 -122 -41 -214 -55 -416 -65 -341 -17 -569
-74 -840 -210 -367 -184 -657 -477 -835 -845 -109 -223 -167 -445 -185 -711
-7 -100 -10 -998 -8 -2734 l3 -2584 305 -117 305 -116 5 2796 6 2796 22 100
c104 453 426 804 865 944 132 42 238 58 457 70 253 14 381 39 590 118 204 77
442 217 650 383 140 112 411 385 537 541 107 132 261 345 306 422 21 36 34 47
60 52 17 3 93 14 167 25 1049 156 1819 667 2211 1465 115 236 183 434 234 684
52 253 59 333 60 713 l2 357 119 124 c389 402 611 880 656 1414 36 422 -82
920 -333 1413 -57 113 -170 308 -221 384 l-26 38 57 82 c281 396 487 888 522
1246 21 217 2 512 -47 734 -116 526 -411 1040 -850 1479 l-116 117 46 113 c57
142 100 302 128 482 26 169 31 541 9 720 -66 555 -245 1058 -527 1482 -247
370 -581 672 -930 842 l-91 44 -6 166 c-3 91 -12 204 -21 249 -124 668 -590
1372 -1161 1754 -168 112 -407 214 -583 248 l-62 13 -57 101 c-31 55 -98 165
-150 244 -467 710 -1110 1159 -1858 1297 -120 23 -487 29 -606 11z"/>
<path d="M47127 49210 c-91 -23 -168 -85 -207 -166 -14 -28 -25 -79 -31 -146
-68 -697 -516 -1299 -1242 -1668 -270 -137 -493 -213 -707 -241 -123 -17 -390
-6 -514 21 -352 75 -692 247 -1041 527 -141 112 -385 355 -507 503 -113 138
-162 170 -268 178 -97 7 -165 -16 -233 -78 -94 -86 -126 -213 -84 -336 33 -96
319 -419 561 -633 608 -538 1242 -811 1882 -811 343 0 606 57 966 211 877 373
1473 999 1713 1800 62 206 104 500 85 599 -18 97 -86 181 -176 221 -51 23
-145 32 -197 19z"/>
<path d="M35284 49201 c-99 -25 -168 -84 -212 -180 -24 -52 -25 -60 -19 -195
18 -421 221 -934 522 -1321 433 -555 1167 -998 1875 -1132 76 -14 148 -18 355
-18 228 0 276 3 388 23 464 84 906 296 1347 648 255 204 656 627 714 754 29
64 28 178 -2 245 -79 173 -292 237 -453 134 -26 -16 -76 -67 -114 -117 -95
-120 -397 -420 -530 -526 -331 -264 -686 -444 -1020 -516 -154 -34 -431 -39
-592 -11 -197 33 -429 119 -683 252 -510 268 -898 680 -1077 1143 -70 182 -98
296 -118 483 -14 137 -25 169 -77 235 -57 73 -211 123 -304 99z"/>
<path d="M38745 44844 c-16 -2 -79 -9 -140 -15 -419 -42 -886 -191 -1263 -403
-507 -285 -984 -732 -1306 -1224 -101 -153 -121 -202 -120 -292 0 -88 22 -146
79 -208 117 -130 335 -130 449 -1 21 24 73 98 115 164 369 573 957 1032 1584
1236 260 84 471 119 792 128 284 9 311 16 395 108 110 121 106 307 -10 423
-78 78 -106 85 -340 86 -113 1 -218 0 -235 -2z"/>
<path d="M43305 44833 c-98 -35 -162 -102 -190 -196 -33 -112 -10 -218 67
-302 75 -82 118 -96 326 -106 196 -10 456 -45 647 -88 812 -184 1407 -570
1762 -1142 47 -75 126 -232 168 -333 52 -124 145 -193 271 -204 89 -7 162 19
229 79 109 101 129 230 61 394 -232 556 -651 1031 -1198 1361 -124 75 -389
205 -528 259 -428 168 -953 277 -1400 291 -143 4 -172 2 -215 -13z"/>
<path d="M37519 41937 c-186 -96 -221 -349 -68 -495 39 -38 127 -82 164 -82
29 0 204 -64 285 -105 149 -75 267 -161 390 -284 305 -306 462 -694 499 -1237
11 -163 30 -213 108 -284 149 -136 391 -93 479 85 34 71 40 144 24 321 -32
373 -112 677 -260 979 -188 385 -477 700 -839 913 -224 132 -487 222 -646 222
-63 0 -82 -4 -136 -33z"/>
<path d="M44605 41946 c-224 -58 -464 -177 -673 -333 -102 -76 -297 -267 -382
-373 -231 -290 -389 -641 -466 -1038 -53 -269 -69 -544 -38 -635 20 -60 84
-131 148 -165 44 -23 63 -27 141 -27 75 0 97 4 133 23 119 63 166 148 177 312
41 670 283 1152 728 1451 144 96 255 144 501 214 48 14 71 28 116 74 73 72 94
131 88 240 -5 88 -26 136 -85 195 -88 89 -208 108 -388 62z"/>
<path d="M25530 35287 c0 -24 343 -663 563 -1047 1052 -1840 2344 -3530 3754
-4910 l263 -257 5172 -1973 c2845 -1085 8991 -3429 13658 -5210 4667 -1781
9094 -3470 9839 -3754 1035 -395 1356 -514 1363 -504 18 29 121 357 153 490
88 369 110 561 110 983 0 365 -10 488 -61 765 -124 674 -417 1314 -850 1860
-134 168 -468 504 -629 631 -340 270 -698 479 -1085 632 -140 56 -3491 1335
-7910 3020 -2213 844 -5594 2134 -7515 2867 -1078 411 -2556 975 -3285 1253
-729 278 -2040 778 -2915 1112 -1316 502 -10401 3968 -10572 4033 -34 13 -53
16 -53 9z"/>
<path d="M31733 26399 c3 -13 24 -121 47 -239 171 -888 439 -2093 681 -3060
183 -736 417 -1603 435 -1619 11 -9 13861 -5293 13889 -5298 19 -4 37 31 158
304 373 842 690 1655 1033 2648 121 348 314 939 314 958 0 9 -9596 3676
-16549 6325 -10 4 -13 -1 -8 -19z"/>
<path d="M33510 19471 c0 -5 44 -139 99 -298 658 -1919 1370 -3526 2168 -4889
l123 -211 3692 -1408 c2031 -775 3702 -1410 3714 -1413 22 -4 99 53 279 207
729 626 1448 1517 2122 2631 178 295 345 589 341 601 -3 8 -12417 4752 -12520
4785 -10 3 -18 1 -18 -5z"/>
</g>
</svg>
