<?xml version="1.0" standalone="no"?>
<!DOCTYPE svg PUBLIC "-//W3C//DTD SVG 20010904//EN"
 "http://www.w3.org/TR/2001/REC-SVG-20010904/DTD/svg10.dtd">
<svg version="1.0" xmlns="http://www.w3.org/2000/svg"
 width="489.000000pt" height="489.000000pt" viewBox="0 0 489.000000 489.000000"
 preserveAspectRatio="xMidYMid meet">
<metadata>
Created by potrace 1.16, written by Peter Selinger 2001-2019
</metadata>
<g transform="translate(0.000000,489.000000) scale(0.024450,-0.024450)"
fill="#000000" stroke="none">
<path d="M4196 17354 c-582 -388 -1054 -709 -1050 -714 5 -4 483 -323 1061
-709 l1053 -701 2435 0 2435 0 0 1415 0 1415 -2438 0 -2437 0 -1059 -706z
m3732 -661 c188 -450 342 -822 342 -826 0 -4 -48 -6 -106 -5 l-106 3 -72 180
-72 180 -415 2 -414 3 -73 -185 -74 -185 -104 0 c-57 0 -104 3 -104 7 0 4 154
375 341 825 l342 818 86 0 87 0 342 -817z"/>
<path d="M7331 16843 c-90 -225 -165 -414 -168 -420 -4 -10 66 -13 331 -13
216 0 336 4 336 10 0 13 -320 813 -329 823 -4 4 -81 -176 -170 -400z"/>
<path d="M11070 17958 c0 -51 -9 -554 -20 -1118 -11 -564 -20 -1055 -20 -1092
l0 -66 1128 -5 c727 -3 1173 -8 1257 -16 313 -27 551 -74 732 -144 278 -108
585 -308 773 -503 215 -223 308 -457 341 -850 16 -195 7 -502 -19 -622 -45
-206 -135 -414 -307 -707 -119 -205 -161 -261 -295 -399 -142 -147 -288 -271
-635 -541 -283 -220 -1852 -1516 -2014 -1664 -176 -160 -349 -369 -482 -583
-88 -140 -289 -547 -323 -650 -34 -104 -61 -275 -92 -578 -14 -140 -32 -316
-41 -390 -12 -108 -16 -310 -20 -997 l-5 -863 1211 0 1211 0 0 698 c0 708 5
840 40 1057 65 403 182 644 480 981 147 167 280 283 1332 1166 541 454 1053
890 1138 970 457 428 844 928 1074 1386 333 663 461 1460 361 2237 -130 1001
-643 1799 -1545 2400 -196 131 -309 195 -540 309 -613 303 -1331 502 -2180
606 -473 57 -790 70 -1732 70 l-808 0 0 -92z"/>
<path d="M4202 12836 c-578 -386 -1055 -705 -1058 -709 -3 -3 470 -323 1053
-711 l1058 -706 2437 0 2438 0 0 1415 0 1415 -2437 -1 -2438 0 -1053 -703z
m3558 30 c176 -57 269 -155 300 -314 37 -184 -35 -346 -188 -430 l-54 -29 65
-31 c76 -35 137 -92 170 -159 85 -168 50 -401 -77 -522 -63 -59 -113 -85 -214
-113 -72 -20 -108 -22 -514 -26 l-438 -4 0 827 0 826 448 -3 c396 -4 453 -6
502 -22z"/>
<path d="M7020 12445 l0 -265 303 0 c327 0 375 6 447 54 63 42 84 86 88 193 4
85 2 98 -23 148 -32 66 -74 97 -160 120 -47 12 -121 15 -357 15 l-298 0 0
-265z"/>
<path d="M7020 11715 l0 -286 338 3 337 3 57 27 c100 47 145 140 136 283 -8
121 -65 193 -185 232 -38 13 -110 17 -365 21 l-318 4 0 -287z"/>
<path d="M4196 8304 c-582 -388 -1054 -709 -1050 -714 5 -4 483 -323 1061
-709 l1053 -701 2435 0 2435 0 0 1415 0 1415 -2438 0 -2437 0 -1059 -706z
m3459 91 c270 -47 440 -211 461 -445 l7 -70 -105 0 -105 0 -6 59 c-10 115 -83
205 -205 252 -71 28 -283 38 -371 19 -171 -37 -272 -142 -318 -327 -22 -90
-25 -535 -4 -628 50 -222 176 -328 411 -349 86 -8 214 6 282 31 116 41 195
139 205 254 l6 59 103 0 104 0 0 -27 c0 -16 -7 -59 -15 -98 -55 -256 -283
-405 -624 -405 -190 0 -318 35 -440 120 -79 56 -136 125 -180 220 -62 133 -66
164 -66 505 0 292 1 314 23 388 35 121 76 193 156 273 68 68 131 108 220 141
116 42 311 54 461 28z"/>
<path d="M4205 3785 c-583 -388 -1061 -709 -1062 -713 -1 -4 472 -323 1052
-709 l1055 -703 2440 0 2440 0 0 1415 0 1415 -2432 0 -2433 0 -1060 -705z
m3481 62 c172 -58 296 -171 360 -328 50 -123 58 -185 58 -459 0 -230 -2 -264
-22 -344 -49 -194 -154 -330 -316 -407 -134 -63 -186 -69 -596 -69 l-360 0 0
821 0 820 398 -3 397 -4 81 -27z"/>
<path d="M7020 3060 l0 -640 238 0 c326 0 414 21 512 120 50 50 82 110 108
203 25 92 25 533 -1 627 -38 139 -100 226 -198 275 -88 45 -161 55 -421 55
l-238 0 0 -640z"/>
<path d="M11030 3075 l0 -1415 1205 0 1205 0 0 1415 0 1415 -1205 0 -1205 0 0
-1415z"/>
</g>
</svg>
