<?xml version="1.0" standalone="no"?>
<!DOCTYPE svg PUBLIC "-//W3C//DTD SVG 20010904//EN"
 "http://www.w3.org/TR/2001/REC-SVG-20010904/DTD/svg10.dtd">
<svg version="1.0" xmlns="http://www.w3.org/2000/svg"
 width="489.000000pt" height="489.000000pt" viewBox="0 0 489.000000 489.000000"
 preserveAspectRatio="xMidYMid meet">
<metadata>
Created by potrace 1.16, written by Peter Selinger 2001-2019
</metadata>
<g transform="translate(0.000000,489.000000) scale(0.083590,-0.086396)"
fill="#000000" stroke="none">
<path d="M2727 5069 c-841 -89 -1567 -618 -1909 -1392 -85 -193 -152 -443
-178 -662 -15 -125 -15 -431 -1 -550 88 -714 488 -1340 1097 -1717 679 -420
1541 -462 2256 -109 155 76 322 182 440 278 84 69 221 194 255 232 111 124
280 365 344 491 18 36 39 71 46 78 7 7 13 20 13 28 0 8 4 22 9 32 5 9 14 31
21 47 7 17 16 38 21 47 5 10 9 23 9 28 0 6 9 30 20 52 11 23 20 49 20 58 0 9
3 20 8 24 4 4 7 11 8 14 1 12 15 66 29 117 53 186 82 571 60 785 -33 311 -113
589 -241 841 -368 723 -1063 1199 -1868 1278 -124 12 -343 12 -459 0z m454
-99 c343 -35 720 -164 973 -334 38 -25 72 -46 77 -46 18 0 20 -23 2 -43 -18
-22 -18 -22 3 -4 29 24 35 22 84 -23 24 -22 46 -40 50 -40 17 0 220 -196 220
-212 0 -4 7 -8 15 -8 8 0 15 -5 15 -11 0 -5 -4 -7 -10 -4 -5 3 -10 -1 -10 -11
0 -11 6 -15 18 -12 23 6 44 -24 35 -48 -5 -13 -2 -15 14 -10 16 5 28 -2 53
-34 21 -26 30 -48 27 -60 -3 -11 -1 -22 3 -25 5 -3 10 3 12 12 3 14 8 11 21
-14 9 -18 17 -41 17 -53 0 -11 7 -20 16 -20 11 0 14 -6 9 -21 -6 -18 -4 -20
16 -14 19 6 21 5 14 -11 -4 -11 -10 -27 -12 -37 -4 -14 -8 -15 -19 -6 -8 6
-14 18 -14 25 0 8 -6 14 -13 14 -8 0 -24 11 -37 25 -26 28 -16 33 17 10 12 -8
24 -11 27 -6 5 8 -32 24 -59 25 -14 1 -71 58 -78 79 -4 9 -10 16 -15 15 -5 -2
-32 21 -61 50 -29 28 -57 52 -62 52 -5 0 -9 8 -9 19 0 10 -9 21 -20 24 -14 3
-20 14 -20 31 0 14 5 26 10 26 6 0 10 -7 8 -16 -2 -10 3 -19 11 -22 10 -3 12
0 8 12 -4 9 -2 16 3 16 6 0 10 -9 10 -20 0 -11 5 -20 10 -20 12 0 13 30 2 48
-5 7 -16 10 -25 6 -10 -3 -17 -1 -17 5 0 6 -7 11 -15 11 -8 0 -15 -7 -15 -16
0 -8 -4 -13 -10 -9 -5 3 -7 12 -4 19 3 8 1 17 -5 21 -7 3 -11 -3 -11 -15 0
-12 -4 -18 -10 -15 -5 3 -10 15 -10 25 0 20 -17 36 -27 26 -3 -3 -1 -11 5 -18
6 -7 8 -37 6 -68 l-5 -55 22 22 c19 19 21 24 9 40 -8 10 5 0 27 -22 28 -27 37
-41 27 -43 -18 -4 -18 -22 0 -22 21 0 48 -30 42 -46 -3 -9 1 -14 13 -14 10 0
24 -12 32 -27 8 -15 24 -38 37 -51 12 -14 22 -29 22 -35 0 -5 8 -16 18 -23 12
-10 14 -16 5 -22 -8 -5 -9 -13 -3 -22 8 -12 10 -11 10 5 1 19 1 19 14 3 18
-24 29 -23 16 2 -6 11 -8 25 -5 30 3 6 -2 10 -12 10 -10 0 -27 13 -37 27 -16
22 -17 25 -3 20 11 -4 14 -2 10 9 -3 7 -12 14 -20 14 -8 0 -12 4 -8 10 8 13
33 1 40 -20 3 -10 21 -28 40 -41 25 -17 33 -29 29 -42 -4 -12 -1 -17 8 -15 7
1 28 -11 46 -27 25 -22 32 -36 29 -53 -3 -17 -1 -20 6 -13 16 16 30 13 23 -4
-3 -10 1 -15 13 -15 22 0 47 -27 36 -38 -4 -4 -10 -2 -12 5 -2 7 -20 15 -40
19 -19 4 -37 13 -40 20 -3 8 -9 14 -15 14 -5 0 -6 -6 -3 -12 4 -7 -5 1 -19 17
-16 18 -24 38 -21 50 3 11 2 14 -1 7 -3 -6 -10 -10 -15 -6 -13 8 -10 -8 6 -29
18 -24 9 -47 -19 -48 -20 0 -20 -1 -1 -8 14 -6 23 -4 28 6 8 12 12 12 28 -3
10 -9 19 -22 19 -27 0 -5 8 -16 18 -23 10 -9 13 -17 7 -21 -12 -10 -16 -45 -4
-37 5 3 9 12 9 20 0 8 5 12 10 9 6 -3 10 -15 10 -26 0 -11 4 -18 9 -15 4 3 16
-3 26 -14 17 -18 16 -21 -4 -55 -24 -41 -25 -45 -11 -45 5 0 17 14 25 30 16
31 42 32 30 2 -3 -9 -3 -13 1 -9 4 4 17 -1 28 -10 12 -11 8 -1 -11 25 -31 44
-31 44 -15 78 20 40 37 45 28 8 -4 -16 -3 -23 3 -20 15 10 24 -13 11 -29 -7
-8 -7 -15 -1 -19 5 -3 11 -1 13 5 4 12 35 -29 40 -53 2 -7 5 -15 9 -18 3 -3
13 -23 24 -45 16 -35 19 -37 26 -20 6 15 7 11 6 -15 -1 -23 2 -34 10 -33 9 2
9 -5 1 -28 -6 -16 -8 -33 -4 -36 3 -4 6 2 6 12 0 27 18 6 22 -26 2 -15 9 -33
16 -41 16 -20 30 -130 21 -156 -5 -12 -4 -24 1 -27 6 -4 10 2 10 12 1 15 2 16
9 3 31 -54 55 -540 27 -540 -7 0 -6 -3 2 -8 19 -13 5 -173 -14 -165 -8 3 -14
1 -14 -5 0 -6 5 -12 12 -14 12 -4 -9 -145 -37 -243 -7 -27 -21 -77 -30 -110
-25 -90 -56 -169 -72 -181 -7 -6 -11 -19 -7 -28 4 -10 0 -18 -11 -22 -9 -4
-14 -12 -11 -19 2 -7 -2 -21 -9 -32 -8 -10 -15 -26 -15 -36 0 -10 -6 -17 -12
-16 -25 3 -38 -1 -38 -12 0 -6 7 -9 15 -5 13 5 13 1 -1 -32 -9 -20 -18 -43
-21 -49 -7 -17 -13 -16 -35 3 -16 16 -18 15 -24 0 -8 -22 4 -35 16 -16 6 9 8
2 6 -22 -2 -24 -22 -64 -59 -120 -116 -172 -314 -395 -341 -385 -10 4 -13 1
-10 -7 14 -36 -315 -271 -515 -370 -174 -86 -256 -115 -491 -176 -285 -73
-692 -79 -796 -11 -25 16 -21 51 5 51 29 0 33 13 9 32 l-23 18 31 0 c25 0 36
8 57 41 39 60 43 83 15 96 -21 9 -15 14 72 57 133 66 150 84 150 160 0 95 13
127 80 192 36 35 60 67 60 79 0 24 -27 51 -85 85 -22 13 -47 31 -57 40 -10 11
-41 20 -80 24 -86 8 -138 24 -138 41 0 14 -56 35 -93 35 -10 0 -29 -7 -43 -16
-27 -18 -40 -12 -46 21 -3 15 -11 20 -31 18 l-27 -2 24 41 c27 45 23 70 -17
115 l-20 22 69 77 c93 103 140 163 78 99 -27 -28 -73 -77 -103 -108 -48 -52
-55 -57 -70 -43 -9 8 -36 25 -60 38 -38 19 -51 35 -82 98 -44 87 -50 86 -14
-2 30 -73 29 -68 6 -68 -11 0 -34 18 -53 39 -18 21 -50 47 -71 57 -26 13 -37
24 -37 40 0 29 -67 57 -115 48 -28 -5 -45 1 -92 28 -42 25 -69 35 -98 34 -37
-1 -40 -3 -42 -31 0 -16 -2 -36 -2 -42 -1 -7 -7 -13 -15 -13 -21 0 -30 54 -16
96 15 45 1 63 -25 34 -10 -11 -29 -20 -41 -20 -18 0 -25 -7 -30 -27 -9 -42
-26 -73 -41 -73 -7 0 -27 13 -45 29 -28 25 -35 27 -64 18 -42 -13 -55 -3 -94
74 -32 64 -37 89 -17 90 8 0 8 2 1 5 -7 3 -10 21 -7 48 7 59 -8 83 -65 100
l-47 14 3 53 c2 34 13 76 31 114 16 33 27 63 25 67 -12 19 -49 4 -93 -37 -26
-25 -54 -45 -61 -45 -7 0 -35 14 -61 30 -47 31 -47 31 -54 98 -5 54 -3 79 13
122 60 167 72 190 98 190 8 0 14 4 14 10 0 5 9 14 20 20 16 9 30 5 74 -19 l54
-30 26 24 c22 20 30 22 57 15 18 -5 39 -16 49 -25 9 -8 28 -15 43 -15 24 0 26
-3 25 -42 0 -24 -4 -48 -9 -54 -11 -14 20 -115 36 -118 10 -1 27 117 27 179
-1 56 16 89 58 112 22 12 40 17 40 11 0 -5 7 -2 16 6 8 9 19 16 24 16 5 0 24
12 42 28 18 15 42 32 53 38 11 6 27 32 36 59 9 26 23 51 30 55 8 3 58 19 112
35 70 20 94 31 83 37 -9 5 -13 15 -9 25 4 11 3 14 -5 9 -7 -4 -12 -16 -12 -26
0 -14 -13 -22 -52 -34 -29 -8 -54 -13 -57 -11 -9 10 76 76 109 85 19 5 53 22
75 38 22 16 60 37 85 46 25 10 66 27 93 37 26 10 47 14 47 9 0 -6 -11 -15 -24
-20 -30 -11 -41 -29 -28 -42 7 -7 21 -4 45 11 19 11 40 21 46 21 23 0 102 41
108 56 8 20 -5 30 -19 16 -17 -17 -52 -15 -78 6 l-21 17 25 24 c31 29 33 47 6
61 -15 8 -30 6 -66 -10 -49 -23 -65 -21 -44 5 20 25 114 47 164 40 39 -6 125
7 211 32 11 3 -12 -26 -52 -66 -40 -39 -73 -75 -73 -80 0 -5 23 -7 50 -5 46 3
68 -8 38 -19 -7 -2 -10 -8 -6 -12 4 -4 14 -3 21 4 16 13 47 5 47 -13 1 -11 29
33 30 47 0 4 -7 7 -15 7 -8 0 -15 5 -15 11 0 6 7 9 15 5 17 -6 18 -4 9 18 -3
9 -16 16 -29 16 -33 0 -40 29 -13 57 12 13 23 31 24 41 2 9 6 29 10 45 5 23 3
27 -15 27 -27 0 -27 17 -1 25 28 9 25 22 -7 32 -27 9 -28 12 -29 81 -1 95 -10
103 -69 62 -42 -29 -49 -31 -62 -17 -14 14 -14 18 6 43 25 31 27 54 6 54 -9 0
-18 7 -21 15 -5 12 -60 35 -85 35 -3 0 -23 -25 -44 -55 -20 -30 -43 -55 -50
-55 -8 0 -31 -33 -52 -72 -35 -66 -43 -73 -72 -76 -32 -3 -33 -3 -27 30 4 23
1 19 -10 -14 -8 -25 -32 -66 -53 -90 -34 -37 -40 -41 -46 -25 -4 10 -3 23 4
30 6 6 11 21 11 32 0 13 10 27 25 35 32 17 32 28 -2 36 -16 4 -43 24 -61 46
-19 21 -40 38 -48 38 -12 0 -13 4 -3 23 7 12 14 32 15 45 3 24 18 43 49 59 32
17 135 54 190 68 42 10 50 15 48 34 -2 17 2 21 27 21 40 0 38 -11 -7 -43 -21
-15 -32 -27 -25 -27 7 0 10 -4 7 -10 -9 -14 1 -13 35 5 18 9 31 11 35 5 8 -12
45 -13 45 -1 0 4 -9 19 -19 33 -34 43 -31 52 16 49 37 -2 47 2 73 30 16 19 30
39 30 46 0 8 12 13 30 13 17 0 30 -4 30 -10 0 -5 -4 -10 -10 -10 -5 0 -10 -5
-10 -11 0 -6 9 -8 20 -4 26 8 25 -2 -2 -27 l-23 -19 34 5 c42 8 50 14 31 26
-13 8 -13 10 1 10 19 0 30 -21 20 -38 -3 -6 -19 -15 -34 -21 -15 -6 -27 -18
-27 -27 0 -14 -7 -16 -37 -11 -21 4 -42 2 -50 -5 -23 -19 -14 -26 27 -21 38 5
40 4 46 -25 3 -17 14 -33 23 -36 9 -3 24 -11 33 -18 23 -16 35 -2 20 22 -14
24 0 26 22 5 12 -13 19 -13 35 -3 22 14 24 46 3 67 -12 13 -12 17 4 28 16 12
20 10 32 -12 l13 -25 35 26 34 27 -22 22 c-13 12 -31 25 -41 28 -10 4 -15 11
-12 17 4 6 10 8 15 5 4 -3 11 2 14 11 6 16 -35 64 -55 64 -5 0 -9 11 -9 25 0
14 -4 25 -10 25 -5 0 -12 1 -15 2 -2 1 -30 5 -62 9 -46 6 -65 4 -99 -11 -69
-32 -101 -80 -53 -80 18 0 20 -2 9 -16 -8 -8 -30 -23 -49 -32 -20 -9 -39 -18
-43 -20 -5 -2 -8 1 -8 7 0 6 5 11 11 11 6 0 18 8 27 17 16 16 16 16 -6 11 -15
-4 -25 -2 -29 8 -7 19 47 82 72 84 27 1 59 26 50 39 -3 6 -1 11 4 11 6 0 11 5
11 10 0 6 -7 10 -16 10 -13 0 -14 3 -5 14 10 11 4 15 -31 18 -24 3 -45 3 -48
1 -10 -8 18 -38 39 -41 11 -2 21 -7 21 -12 0 -13 -34 -22 -38 -11 -3 10 -36 7
-72 -6 -8 -4 -22 -7 -30 -7 -9 -1 -14 -9 -12 -21 5 -28 7 -29 43 -16 18 6 34
10 35 8 2 -2 -18 -19 -44 -39 -26 -20 -49 -33 -52 -28 -7 11 -50 1 -50 -11 0
-5 7 -9 15 -9 8 0 15 -4 15 -10 0 -5 -7 -10 -15 -10 -8 0 -15 5 -15 10 0 6
-18 10 -39 10 -22 0 -52 5 -67 10 -19 8 -36 7 -62 -2 -28 -10 -36 -10 -39 0
-3 6 -13 12 -24 12 -10 0 -19 7 -19 15 0 21 -48 65 -71 65 -9 0 -19 5 -21 11
-2 6 -35 11 -76 12 -39 1 -72 5 -72 9 0 10 -29 45 -57 71 -12 11 -19 26 -16
35 5 11 3 13 -7 7 -8 -5 -11 -4 -6 3 4 6 0 27 -8 46 l-15 35 62 39 c77 49 111
66 104 55 -3 -4 36 -25 87 -45 100 -41 94 -28 -9 18 -35 16 -65 32 -65 36 0 9
130 71 252 119 95 38 138 49 252 64 l48 7 -32 -47 c-36 -53 -36 -72 1 -24 13
18 30 38 37 45 6 7 12 15 12 19 0 4 7 13 15 21 13 13 15 13 15 1 0 -10 8 -13
25 -9 31 6 33 22 3 23 -33 1 34 16 128 28 61 8 81 7 89 -2 6 -8 27 -11 57 -9
35 3 54 -1 75 -15 37 -26 95 -54 100 -49 10 9 -140 88 -158 83 -10 -3 -19 -1
-19 4 0 12 244 11 371 -1z m-1808 -666 c-4 -10 1 -17 16 -21 12 -3 21 -13 21
-24 0 -10 4 -20 9 -23 12 -8 -9 -66 -40 -107 -13 -19 -33 -47 -43 -62 -9 -16
-25 -37 -34 -46 -40 -43 -53 -67 -47 -88 6 -24 -3 -53 -16 -53 -5 0 -9 13 -9
29 0 17 -4 32 -9 35 -10 6 -21 -26 -21 -61 0 -24 -128 -192 -147 -193 -9 0
-71 31 -92 46 -12 10 133 244 227 367 54 69 182 217 188 217 2 0 1 -7 -3 -16z
m-336 -625 c7 -2 -11 -38 -47 -91 -32 -47 -56 -89 -53 -92 4 -3 1 -6 -6 -6 -6
0 -20 19 -30 42 -17 42 -17 44 3 90 23 52 42 60 71 28 10 -11 21 -17 24 -14 3
3 -9 18 -28 33 -45 37 -34 58 17 32 20 -10 42 -20 49 -22z m-137 -268 c-45
-135 -74 -493 -44 -553 12 -24 12 -27 -11 -42 -14 -9 -25 -24 -25 -33 0 -13 5
-12 28 9 15 14 37 31 48 37 19 9 23 7 29 -17 4 -15 9 -38 10 -52 2 -14 8 -45
15 -70 6 -25 12 -54 14 -65 1 -11 10 -46 20 -77 31 -103 93 -167 136 -140 11
6 21 12 23 12 2 0 39 -39 82 -87 43 -49 89 -94 101 -101 15 -8 24 -22 24 -37
0 -14 8 -29 20 -35 11 -6 18 -15 15 -20 -3 -5 0 -12 6 -15 5 -4 8 -13 5 -20
-2 -7 7 -23 21 -36 14 -13 31 -36 39 -51 8 -16 21 -28 30 -28 8 0 26 -12 39
-26 l25 -27 0 27 c0 24 4 27 27 24 24 -3 28 -10 48 -86 12 -45 28 -93 35 -107
12 -22 10 -27 -19 -60 -36 -41 -33 -34 -36 -103 -1 -36 2 -55 11 -59 7 -3 15
-31 19 -67 l7 -62 97 -95 c53 -51 172 -167 264 -257 110 -106 180 -182 201
-220 76 -128 231 -261 368 -314 32 -13 58 -26 58 -29 0 -10 -216 37 -324 71
-158 48 -416 161 -416 182 0 5 4 7 9 4 9 -6 101 31 101 39 0 3 -22 -4 -50 -14
-27 -11 -50 -17 -50 -14 0 3 14 26 31 52 45 65 70 111 61 111 -7 0 -52 -65
-52 -76 0 -12 -61 -94 -71 -94 -13 0 -157 91 -238 150 -36 27 -71 61 -78 77
-6 15 -35 105 -63 198 -29 94 -65 204 -80 245 -22 60 -100 304 -128 405 -8 29
-32 72 -32 58 0 -7 6 -30 14 -50 8 -21 29 -87 46 -148 18 -60 56 -182 86 -270
69 -210 135 -428 130 -433 -3 -2 -62 54 -133 125 -134 134 -264 298 -352 444
-49 83 -59 109 -43 109 4 0 27 19 52 41 l45 41 -55 -41 c-50 -37 -56 -39 -67
-24 -21 28 -15 45 35 98 l47 50 -52 -49 c-29 -28 -55 -48 -57 -45 -22 22 -155
383 -145 394 2 2 30 -5 63 -16 32 -11 63 -18 69 -16 6 2 -22 14 -62 27 -75 25
-91 41 -91 91 0 19 4 18 60 -12 33 -18 63 -30 65 -27 3 3 -25 20 -61 39 -36
19 -68 40 -71 46 -3 7 17 45 44 85 58 86 66 98 60 98 -2 0 -28 -34 -58 -75
-53 -75 -54 -75 -62 -48 -10 37 -2 101 34 250 16 69 29 131 29 140 0 18 -12
10 -17 -10 -1 -7 -15 -68 -30 -135 -36 -164 -45 -139 -45 128 -1 276 33 491
114 728 l31 92 24 -41 23 -41 -20 -57z"/>
<path d="M3654 4756 c-3 -7 -4 -17 -2 -22 2 -8 -25 -140 -38 -186 -8 -26 -18
-22 -47 19 -15 21 -27 34 -27 30 0 -4 13 -26 30 -48 26 -36 29 -48 25 -93 -3
-37 -2 -45 5 -28 5 12 14 22 20 22 6 0 8 6 5 13 -4 6 14 -10 40 -38 l46 -50
-42 61 -41 62 23 101 23 100 50 -124 c27 -69 51 -123 53 -121 7 6 -20 99 -48
167 -15 37 -30 85 -34 108 -7 41 -30 56 -41 27z"/>
<path d="M3325 4590 c-22 -4 -53 -12 -70 -17 -16 -5 -49 -8 -72 -6 -24 1 -43
-2 -43 -7 0 -5 -17 -2 -37 6 -28 12 -57 14 -122 10 -47 -3 -101 -6 -119 -6
-48 1 -75 -9 -64 -23 15 -20 22 -47 12 -47 -6 0 -10 9 -10 20 0 11 -6 20 -14
20 -8 0 -16 4 -18 10 -2 6 -16 6 -41 -1 -31 -8 -38 -14 -35 -32 2 -17 10 -22
35 -22 18 -1 35 -4 39 -8 7 -7 -25 -12 -60 -8 -11 1 -23 -4 -27 -11 -7 -10
-15 -10 -41 0 -39 14 -66 -2 -27 -17 13 -5 18 -10 12 -10 -7 -1 -13 -8 -13
-16 0 -11 14 -15 58 -17 72 -2 103 0 110 7 10 10 -5 15 -56 16 -29 1 -52 7
-52 12 0 6 30 8 80 4 45 -4 80 -2 80 3 0 13 119 70 161 76 20 4 39 2 43 -4 3
-6 -14 -13 -40 -17 -26 -3 -53 -9 -60 -12 -14 -5 -20 -24 -6 -22 19 3 26 -2
13 -10 -28 -18 1 -32 61 -29 82 4 101 -21 72 -96 -4 -11 0 -16 14 -16 11 0 25
-7 32 -15 11 -13 8 -14 -19 -9 -40 8 -40 -4 -1 -18 38 -13 34 -29 -8 -44 -40
-13 -63 -34 -44 -41 17 -6 15 -23 -3 -23 -19 0 -19 -14 -1 -29 10 -8 13 -23 9
-45 -3 -21 1 -45 12 -65 14 -27 21 -32 41 -27 17 5 24 2 24 -8 0 -47 56 -11
66 43 4 17 14 31 25 34 11 3 19 14 19 25 0 35 38 71 82 78 22 4 51 16 64 28
23 20 25 28 32 209 l7 187 -30 -1 c-16 -1 -48 -5 -70 -9z"/>
<path d="M2162 4458 c-7 -7 -26 -17 -44 -22 -17 -6 -34 -17 -36 -25 -4 -11 4
-13 36 -7 25 4 43 2 47 -5 4 -6 0 -9 -10 -7 -10 2 -20 -3 -22 -9 -3 -9 6 -13
26 -13 17 0 31 -5 31 -10 0 -6 -16 -8 -42 -4 -37 6 -41 5 -35 -10 4 -10 7 -22
7 -28 0 -7 20 -8 56 -4 41 4 61 2 77 -9 28 -20 34 -19 40 5 4 14 10 18 22 14
14 -6 16 -3 11 13 -7 22 15 46 52 57 12 4 22 12 22 17 0 15 -46 10 -60 -6 -7
-8 -16 -15 -21 -15 -5 0 -6 7 -3 15 4 8 1 15 -5 15 -7 0 -14 -7 -17 -15 -4 -8
-10 -15 -15 -15 -4 0 -6 7 -3 15 4 8 1 15 -5 15 -6 0 -8 6 -5 13 10 28 -80 49
-104 25z"/>
<path d="M4517 3993 c-4 -3 -7 -15 -7 -26 0 -13 -5 -17 -15 -13 -8 3 -15 1
-15 -3 0 -5 6 -12 13 -14 10 -4 10 -6 0 -6 -15 -1 -18 -51 -4 -51 5 0 12 11
15 25 4 15 11 23 17 19 6 -4 7 -9 3 -13 -5 -3 -9 -10 -10 -16 -1 -21 -35 -85
-44 -85 -14 0 -12 14 2 28 10 10 10 15 -2 22 -11 7 -16 4 -21 -13 -7 -28 11
-77 29 -77 7 0 10 -5 7 -10 -4 -6 -11 -8 -16 -4 -6 3 -9 0 -8 -7 4 -23 -12
-52 -45 -83 -19 -18 -24 -27 -13 -23 10 4 22 7 27 7 4 0 10 9 13 20 3 11 10
20 17 20 6 0 9 -8 6 -17 -8 -25 9 -47 28 -40 9 4 16 2 16 -3 0 -6 5 -10 11
-10 8 0 7 5 -1 16 -11 12 -11 18 2 31 16 16 43 9 33 -8 -4 -5 -1 -9 4 -9 6 0
11 7 11 15 0 18 40 29 70 20 17 -5 21 -3 18 6 -3 8 -14 13 -24 12 -10 -1 -22
4 -26 10 -5 8 -14 4 -29 -12 -16 -17 -24 -20 -27 -12 -3 8 0 16 5 20 6 3 13
16 17 29 4 12 12 20 17 17 5 -4 9 -1 9 4 0 22 -18 10 -44 -28 -29 -42 -63 -65
-52 -35 5 12 2 15 -10 10 -22 -8 -9 28 29 81 17 24 27 46 23 50 -5 6 -18 -8
-47 -50 -4 -5 -11 -8 -17 -6 -6 2 5 26 25 53 21 29 38 44 42 38 4 -7 11 -4 19
8 10 17 10 20 -3 20 -8 0 -15 6 -15 14 0 7 -7 19 -15 26 -11 9 -12 17 -5 30 6
10 10 21 10 24 0 8 -15 7 -23 -1z"/>
<path d="M3630 3903 c-19 -15 -68 -56 -107 -91 -40 -35 -73 -59 -73 -53 0 5 5
13 11 17 7 4 8 9 1 13 -10 6 -2 74 13 114 4 9 3 17 -1 17 -5 0 -19 -41 -31
-91 -12 -50 -24 -93 -26 -96 -3 -2 -28 6 -57 17 -29 11 -55 18 -58 15 -9 -8 2
-14 59 -35 30 -11 47 -19 38 -20 -9 0 -19 -6 -22 -14 -5 -11 0 -12 24 -3 33
13 42 10 218 -52 63 -23 116 -40 118 -38 2 3 -43 21 -99 41 -57 21 -122 46
-146 57 l-43 19 23 24 c25 25 112 103 167 149 43 36 36 44 -9 10z"/>
<path d="M3873 3550 c10 -6 57 -25 105 -41 48 -17 91 -34 95 -39 5 -4 1 -23
-8 -41 l-17 -34 29 34 30 35 49 -19 c27 -10 69 -27 94 -38 51 -23 47 -21 115
-41 28 -8 111 -36 185 -63 116 -42 137 -52 149 -77 8 -17 16 -24 20 -17 5 7
13 3 25 -11 18 -21 18 -22 -3 -39 -19 -16 -29 -39 -16 -39 7 0 75 67 75 74 0
2 -9 2 -20 -1 -14 -4 -20 0 -20 11 0 10 -4 15 -10 11 -15 -9 -41 39 -33 61 6
17 5 17 -10 6 -17 -14 -42 -7 -32 9 4 5 2 9 -4 9 -5 0 -13 -5 -17 -12 -5 -7
-10 -4 -15 11 -5 12 -17 24 -26 28 -10 4 -35 18 -56 31 -27 18 -34 28 -25 33
7 4 9 11 6 15 -4 3 -14 -1 -23 -9 -14 -14 -14 -17 2 -27 13 -8 14 -13 5 -16
-6 -3 -10 -10 -6 -15 3 -5 0 -9 -6 -9 -6 0 -13 7 -16 15 -4 10 -13 13 -25 10
-13 -4 -19 -1 -19 9 0 9 -4 16 -10 16 -5 0 -10 -4 -10 -10 0 -5 -7 -7 -15 -4
-8 4 -12 11 -9 16 4 6 -4 8 -17 7 -13 -2 -31 1 -39 6 -8 5 -26 11 -40 13 -21
2 -117 36 -250 87 -30 12 -146 50 -190 62 -10 3 -9 0 3 -7z"/>
<path d="M4235 2910 c-3 -5 -38 -10 -77 -10 -89 0 -86 -9 4 -11 l67 -2 -50
-56 c-27 -31 -72 -76 -100 -100 l-51 -44 -32 18 -31 17 29 -26 29 -26 -124
-121 c-112 -111 -124 -120 -136 -103 -11 15 -13 16 -13 2 0 -14 -8 -13 -60 8
-81 33 -89 30 -12 -6 34 -16 62 -33 62 -39 0 -6 -15 -27 -32 -48 l-33 -38 42
37 c26 23 56 39 80 43 64 11 69 13 36 14 -18 0 -33 4 -33 9 0 4 52 59 114 121
l115 115 70 -47 c39 -26 71 -45 71 -43 0 2 -29 26 -65 52 l-65 48 87 89 c119
119 118 119 138 54 10 -28 28 -76 42 -106 13 -29 21 -61 18 -72 -4 -12 -2 -19
7 -19 11 -1 53 -109 76 -195 5 -18 4 -18 -12 -6 -9 8 -20 11 -24 7 -4 -4 3
-15 16 -24 21 -17 21 -17 -31 -15 -41 2 -47 1 -29 -7 12 -5 28 -7 35 -5 24 9
41 -14 46 -62 l6 -48 14 45 c19 58 17 57 40 29 l20 -24 -19 39 c-11 22 -23 42
-27 45 -5 3 -29 67 -55 141 -25 74 -60 171 -77 215 -17 44 -34 94 -37 112 -7
36 -28 60 -39 43z"/>
<path d="M3648 2784 c-4 -6 -24 -14 -45 -17 -21 -3 -112 -17 -203 -31 -228
-34 -308 -49 -285 -54 11 -2 34 -9 50 -17 91 -41 239 -95 249 -91 7 3 6 5 -2
5 -7 1 -56 21 -109 46 -52 25 -99 45 -104 45 -8 0 -13 19 -6 21 23 7 439 64
442 60 3 -2 1 -9 -3 -15 -15 -20 -63 -139 -58 -143 5 -5 66 120 66 136 0 5 5
11 11 13 6 2 9 15 7 28 -2 15 -6 20 -10 14z"/>
<path d="M4336 2207 c-22 -39 -56 -98 -75 -129 -20 -32 -74 -125 -121 -208
-47 -83 -103 -179 -125 -213 -44 -68 -37 -66 -160 -54 -38 3 -63 3 -55 -2 8
-5 49 -11 90 -15 53 -4 79 -11 88 -23 6 -9 12 -13 12 -7 1 5 19 -11 40 -36 22
-25 40 -38 40 -30 0 8 -16 31 -36 51 l-36 37 74 22 c40 13 78 24 83 26 6 1 26
9 45 17 54 24 12 20 -80 -8 -46 -14 -89 -25 -96 -25 -11 0 26 70 154 295 25
44 76 134 112 200 36 66 74 132 84 148 10 15 14 27 10 27 -5 0 -27 -33 -48
-73z"/>
<path d="M2854 2136 c18 -14 18 -17 2 -40 -9 -14 -43 -55 -77 -91 -34 -36 -59
-65 -56 -65 8 0 41 34 106 108 30 34 58 62 62 62 4 0 23 -15 43 -34 19 -19 59
-53 88 -75 92 -70 101 -78 95 -88 -4 -6 1 -17 11 -24 15 -13 16 -12 3 4 -22
28 1 19 40 -16 19 -17 52 -45 72 -60 20 -15 37 -31 37 -35 -1 -4 -17 -19 -37
-34 -30 -23 -39 -26 -51 -15 -13 10 -15 9 -10 -5 5 -11 0 -18 -14 -21 -32 -9
-15 -31 33 -43 24 -5 51 -13 59 -17 29 -12 154 -46 157 -43 5 5 -94 46 -111
46 -9 0 -25 9 -37 21 -12 12 -27 18 -39 14 -36 -12 -29 14 13 49 24 20 49 36
55 36 7 0 11 11 10 25 -2 18 -7 24 -18 20 -9 -3 -25 3 -36 13 -10 9 -41 35
-69 56 -27 22 -57 47 -65 55 -8 9 -42 36 -74 61 -33 25 -84 67 -113 94 -29 26
-53 45 -53 42 0 -4 -10 -2 -22 4 -22 11 -22 10 -4 -4z"/>
</g>
</svg>
