<svg id="a13f0d6c-8804-4a9e-9f5a-70f4403e4d86" data-name="Layer 1" xmlns="http://www.w3.org/2000/svg" viewBox="0 0 1080 1080"><defs><style>.a18a1af9-6673-486c-89a3-439157d8c8ff,.b53b6b32-7405-46b1-ac39-8687bec67217,.eb5bbe21-dfcd-41b7-9464-de28e6dc0264{fill:none;stroke:#000;stroke-linecap:round;stroke-miterlimit:10;}.b53b6b32-7405-46b1-ac39-8687bec67217{stroke-width:5px;}.a18a1af9-6673-486c-89a3-439157d8c8ff{stroke-width:6.97px;}.eb5bbe21-dfcd-41b7-9464-de28e6dc0264{stroke-width:6px;}.e89f02f4-95a9-46cb-a2d5-0410465d5a42{fill:#fff;}</style></defs><title>logo wwdd_black</title><path d="M799.15,710.08c-10.65,6.56-18.26,17.52-22.17,32.1-1.5,5.61-1.5,7.31.11,8.61,1.44,1.16,2.07,1.28,3.71.53,1.38-.55,1.52-.87,3.63-7.61,2-6.25,4.85-12.89,5.76-13.41.19-.16,4.39,6.83,9.38,15.42,8.08,14,9.22,15.67,10.61,16a3.45,3.45,0,0,0,4.38-2.53c.38-1.44-.6-3.35-9.48-18.73l-9.93-17.21,1.66-1.81a42.23,42.23,0,0,1,5.14-4.23c3.81-2.68,4.75-4.48,3.52-6.61S802,708.37,799.15,710.08Z"/><path d="M837,770.14a41.51,41.51,0,0,0-4.61,1.85,49.27,49.27,0,0,1-17.33,3.48c-3.08,0-6.1-.45-12.13-1.91-9-2.11-13.83-4-22.72-9C769,758.29,760.45,755,751,753.16c-14.14-2.66-25.84-.81-36.7,6-10.42,6.46-18,17.53-21.85,31.87a41.35,41.35,0,0,0-1.29,6c.13,1.22,2.32,3,3.67,3,2.59-.07,3.13-.75,4.44-5.64,2.54-9.29,5.69-15.49,10.91-21.54,7.15-8.27,15.31-12.25,26.51-13,11.72-.77,23.57,2.57,38.58,10.8,10.61,5.88,14.6,7.51,23.55,10A99.85,99.85,0,0,0,810.26,783a63.45,63.45,0,0,0,17.56-1.31c5.42-1.43,12.21-4.49,12.93-5.84a3.7,3.7,0,0,0-.58-4.73C838.72,769.77,838.53,769.72,837,770.14Z"/><path d="M742.54,774a3.07,3.07,0,0,0-2,2.4c-.43,1.63.1,2.7,9.36,18.8l9.86,17.09-2.7,2.41a54.09,54.09,0,0,1-5.08,4c-2.73,1.78-9.89,4.49-11,4.19-.43-.11-4.55-6.82-9.17-14.89-10.68-18.64-11.22-19.51-13-19.56a3.93,3.93,0,0,0-4,2.78c-.36,1.34.64,3.35,8.61,17.16,5,8.63,8.82,15.78,8.55,15.86-1.63.49-9.75-.66-15.5-2.2a73.29,73.29,0,0,1-18.11-7.22c-10.52-5.64-15.39-8-20.89-9.91-16.38-5.83-32.36-5.44-44.43,1-3.67,2-4.49,3.53-3,6,1.29,2.3,2.66,2.36,7.44.25a39.71,39.71,0,0,1,14.34-3.66c11.74-.81,24.25,2.74,39.2,11,21.69,12.08,39.5,15.26,55.68,9.93q22.6-7.51,30.83-34.3c2.15-7.08,2.19-7.43,1.53-9a3.07,3.07,0,0,0-2.33-2c-3-.8-3.6,0-6,7.45-1.8,5.79-4.91,13-5.82,13.5-.14.12-4.38-6.88-9.33-15.45C745.89,772.86,745.73,772.66,742.54,774Z"/><path d="M660,822.81c-2.64,2-2.36,2.71,8.22,21.12L678,861l-2,2a40,40,0,0,1-4.91,3.93c-3.49,2.3-4.42,3.85-3.47,6.06a3.12,3.12,0,0,0,2.38,2c1.44.38,2.22.18,4.36-1.1a47.62,47.62,0,0,0,15.74-16.75,72.37,72.37,0,0,0,7-18c.62-3.28.62-3.84-.3-5.22a3.08,3.08,0,0,0-2.6-1.62c-2.87-.21-3.6.78-5.36,7.35-1.38,5.13-4.78,13.63-5.64,14.12-.13.11-4.37-6.88-9.32-15.46-8.5-14.71-9.17-15.66-10.8-16.1A3.15,3.15,0,0,0,660,822.81Z"/><path d="M878.39,378.93c.35,12.5,6,24.57,16.71,35.25,4.11,4.1,5.58,4.95,7.51,4.21,1.72-.67,2.14-1.16,2.32-2.95.21-1.48,0-1.76-4.77-6.95-4.43-4.85-8.75-10.64-8.75-11.69,0-.25,8.11-.39,18.05-.42,16.15,0,18.19-.14,19.2-1.16a3.44,3.44,0,0,0,0-5.06c-1-1.05-3.19-1.16-21-1.16H887.83l-.73-2.35a42.52,42.52,0,0,1-1.09-6.56c-.42-4.64-1.51-6.36-4-6.36S878.32,375.63,878.39,378.93Z"/><path d="M949.34,376.15a40,40,0,0,0-.7,4.92A49.17,49.17,0,0,1,943,397.81c-1.55,2.67-3.44,5.06-7.72,9.55-6.32,6.74-10.4,10-19.17,15.17-11,6.6-18.19,12.36-24.47,19.62-9.38,10.92-13.62,22-13.2,34.76.38,12.25,6.17,24.37,16.67,34.86a42.66,42.66,0,0,0,4.53,4.11c1.12.49,3.79-.49,4.42-1.68,1.23-2.29.92-3.09-2.66-6.67-6.78-6.85-10.57-12.68-13.2-20.23-3.58-10.32-3-19.37,2-29.45,5.19-10.53,14-19.13,28.64-28,10.4-6.25,13.8-8.89,20.4-15.42a97.78,97.78,0,0,0,7.83-8.67,63.48,63.48,0,0,0,7.65-15.87c1.48-5.4,2.21-12.81,1.41-14.11a3.7,3.7,0,0,0-4.39-1.86C949.87,374.5,949.73,374.65,949.34,376.15Z"/><path d="M905.46,459.92a3.05,3.05,0,0,0,1.09,2.91c1.19,1.2,2.38,1.27,21,1.3h19.73l.74,3.55a55.2,55.2,0,0,1,.92,6.39c.17,3.26-1.06,10.81-1.86,11.62-.32.32-8.19.53-17.49.49-21.48-.07-22.5,0-23.41,1.44a3.93,3.93,0,0,0,.38,4.88c1,1,3.23,1.12,19.17,1.12,10,0,18.08.25,18,.53-.38,1.65-5.44,8.11-9.65,12.32a73.48,73.48,0,0,1-15.31,12.08c-10.15,6.28-14.61,9.34-19,13.13-13.23,11.27-20.89,25.31-21.31,39-.1,4.18-.13,5.65,2.71,5.62,2.64,0,3.37-1.12,3.94-6.32.66-5.79,2.73-9.8,4.94-14.26,5.16-10.56,14.5-19.62,29.14-28.43,21.31-12.75,33-26.58,36.44-43.25q4.79-23.34-14.29-43.85c-5-5.41-5.34-5.62-7-5.83a3,3,0,0,0-2.91,1c-2.18,2.17-1.79,3.12,3.47,8.88,4.11,4.46,8.78,10.74,8.78,11.79,0,.18-8.15.36-18.05.35C906.12,456.44,905.88,456.48,905.46,459.92Z"/><path d="M904.05,557.94c.42,3.3,1.16,3.4,22.4,3.44h19.66l.74,2.77a40.08,40.08,0,0,1,.94,6.22c.25,4.17,1.13,5.75,3.51,6a3.09,3.09,0,0,0,3-1c1.06-1.05,1.27-1.82,1.23-4.32a47.73,47.73,0,0,0-6.63-22,73,73,0,0,0-12-15.06c-2.53-2.18-3-2.46-4.67-2.35a3.1,3.1,0,0,0-2.71,1.44c-1.61,2.38-1.12,3.51,3.69,8.32,3.76,3.75,9.41,11,9.41,11.93,0,.18-8.15.36-18,.35-17,0-18.15.11-19.34,1.3A3.15,3.15,0,0,0,904.05,557.94Z"/><path d="M881.34,557.24c-5.94,11-7.05,24.3-3.15,38.88,1.51,5.61,2.36,7.08,4.4,7.41,1.83.28,2.44.06,3.48-1.4.92-1.17.88-1.52-.66-8.41-1.4-6.4-2.25-13.58-1.72-14.49.09-.23,7.22,3.72,15.84,8.66,14,8.07,15.82,9,17.21,8.59a3.44,3.44,0,0,0,2.53-4.37c-.39-1.44-2.19-2.6-17.58-11.49l-17.21-9.93.54-2.41a44.17,44.17,0,0,1,2.34-6.23c2-4.22,1.87-6.25-.26-7.48S882.94,554.35,881.34,557.24Z"/><path d="M944.18,590.31a40.1,40.1,0,0,0-3.07,3.91,49.15,49.15,0,0,1-13.27,11.68c-2.67,1.53-5.5,2.65-11.46,4.4-8.84,2.68-14,3.44-24.18,3.55-12.85.21-21.93,1.61-31,4.76-13.58,4.77-22.79,12.23-28.81,23.5-5.8,10.81-6.84,24.19-3,38.53a43,43,0,0,0,1.87,5.82c.73,1,3.53,1.47,4.68.76,2.2-1.37,2.33-2.22,1-7.11-2.44-9.32-2.81-16.26-1.32-24.12,2.06-10.72,7.14-18.25,16.46-24.5,9.77-6.53,21.7-9.57,38.82-9.94,12.12-.22,16.39-.8,25.37-3.15a100.21,100.21,0,0,0,11.11-3.59A63.31,63.31,0,0,0,942,604.89c4-3.95,8.33-10,8.28-11.52a3.71,3.71,0,0,0-2.87-3.81C945.46,589.15,945.27,589.2,944.18,590.31Z"/><path d="M864.29,640.91a3.07,3.07,0,0,0-.51,3.07c.43,1.63,1.43,2.29,17.5,11.61l17.08,9.86-1.13,3.44a55.22,55.22,0,0,1-2.4,6c-1.48,2.92-6.32,8.84-7.43,9.14-.43.11-7.34-3.64-15.38-8.32-18.57-10.8-19.47-11.28-21-10.46a3.94,3.94,0,0,0-2.11,4.42c.36,1.34,2.24,2.58,16,10.55,8.64,5,15.54,9.26,15.34,9.47-1.16,1.23-8.77,4.3-14.53,5.84a73,73,0,0,1-19.29,2.8c-11.93.37-17.32.79-23,1.86-17.1,3.14-30.75,11.48-38,23.12-2.18,3.57-2.94,4.83-.46,6.22,2.26,1.35,3.48.72,6.56-3.5,3.48-4.69,7.27-7.12,11.41-9.88,9.76-6.57,22.37-9.74,39.46-10,24.82-.38,41.83-6.53,53.18-19.24q15.81-17.8,9.55-45.12c-1.67-7.21-1.81-7.53-3.16-8.55a3.08,3.08,0,0,0-3-.58c-3,.8-3.11,1.81-1.43,9.43,1.33,5.91,2.23,13.69,1.7,14.6,0,.17-7.22-3.77-15.8-8.72C866.61,638.24,866.37,638.14,864.29,640.91Z"/><path d="M814.06,725.1c-1.28,3.07-.69,3.53,17.68,14.18l17,9.83-.75,2.77a40,40,0,0,1-2.29,5.85c-1.87,3.74-1.9,5.55,0,7a3.11,3.11,0,0,0,3.08.56c1.44-.39,2-.95,3.23-3.13a47.76,47.76,0,0,0,5.26-22.38,72.68,72.68,0,0,0-2.9-19.06c-1.1-3.15-1.39-3.64-2.87-4.37a3.11,3.11,0,0,0-3.06-.11c-2.59,1.26-2.73,2.48-1,9,1.38,5.13,2.67,14.19,2.18,15-.06.17-7.23-3.77-15.8-8.72-14.72-8.49-15.77-9-17.4-8.54A3.14,3.14,0,0,0,814.06,725.1Z"/><path d="M653,800.86c-12.5.35-24.57,6-35.25,16.71-4.1,4.1-4.94,5.58-4.21,7.51.67,1.72,1.16,2.14,3,2.32,1.48.21,1.76,0,6.95-4.78,4.85-4.42,10.64-8.74,11.69-8.74.25,0,.39,8.11.42,18,0,16.14.14,18.18,1.16,19.2a3.45,3.45,0,0,0,5.06,0c1-1,1.16-3.19,1.16-21V810.3l2.35-.74a45.1,45.1,0,0,1,6.56-1.09c4.64-.42,6.36-1.5,6.36-4S656.29,800.79,653,800.86Z"/><path d="M655.77,871.81a40,40,0,0,0-4.92-.7,49.41,49.41,0,0,1-16.74-5.66c-2.67-1.54-5.06-3.44-9.55-7.72-6.74-6.32-10-10.39-15.17-19.17-6.6-11-12.36-18.18-19.62-24.47-10.92-9.37-22-13.62-34.76-13.2-12.25.39-24.37,6.18-34.86,16.68A41.64,41.64,0,0,0,516,822.1c-.49,1.12.49,3.79,1.68,4.42,2.29,1.23,3.09.91,6.67-2.67,6.85-6.77,12.68-10.57,20.23-13.2,10.32-3.58,19.38-2.95,29.45,2,10.53,5.2,19.13,14,28,28.65,6.25,10.39,8.89,13.8,15.42,20.4a99.44,99.44,0,0,0,8.67,7.83A63.48,63.48,0,0,0,642,877.18c5.4,1.47,12.81,2.21,14.11,1.4A3.68,3.68,0,0,0,658,874.2C657.42,872.33,657.27,872.19,655.77,871.81Z"/><path d="M572,827.92a3.07,3.07,0,0,0-2.91,1.09c-1.2,1.2-1.27,2.39-1.3,21V869.7l-3.55.74a53,53,0,0,1-6.39.91c-3.26.18-10.81-1.05-11.62-1.86-.31-.31-.53-8.18-.49-17.48.07-21.49,0-22.5-1.44-23.42a4,4,0,0,0-4.88.39c-1,1-1.12,3.23-1.12,19.17,0,10-.25,18.08-.53,18-1.65-.39-8.11-5.44-12.32-9.66a73.49,73.49,0,0,1-12.08-15.3c-6.28-10.15-9.34-14.61-13.13-19-11.27-13.24-25.31-20.89-39-21.31-4.18-.11-5.65.81-5.62,3.65,0,2.63,1.13,3.37,6.32,3.93a39.76,39.76,0,0,1,14.26,4c10.56,5.16,19.62,14.5,28.43,29.14,12.75,21.31,26.58,33,43.25,36.44q23.34,4.79,43.85-14.29c5.41-5.06,5.62-5.34,5.83-7a3.07,3.07,0,0,0-1-2.92c-2.17-2.17-3.12-1.79-8.88,3.48-4.46,4.11-10.74,8.78-11.79,8.77-.18,0-.36-8.14-.35-18C575.48,828.59,575.44,828.34,572,827.92Z"/><path d="M474,826.52c-3.3.42-3.4,1.16-3.44,22.4v19.66l-2.77.73a40,40,0,0,1-6.22,1c-4.17.25-5.75,1.12-6,3.51a3.1,3.1,0,0,0,1.05,3c1.05,1,1.82,1.26,4.32,1.23a47.74,47.74,0,0,0,22-6.64,72.41,72.41,0,0,0,15.06-12c2.18-2.52,2.46-3,2.35-4.67a3.09,3.09,0,0,0-1.44-2.7c-2.38-1.62-3.51-1.12-8.32,3.69-3.75,3.75-10.95,9.4-11.93,9.4-.18,0-.36-8.14-.35-18,0-17-.11-18.15-1.3-19.35A3.16,3.16,0,0,0,474,826.52Z"/><path d="M291.28,701.32c-1.34,2.33-.31,4.29,3.84,7.22a46.63,46.63,0,0,1,5.61,4.61l1.82,2L291.71,733.9c-9.7,16.79-10.76,18.87-10.34,20.44a3.75,3.75,0,0,0,4.77,2.75c1.52-.4,2.77-2.25,11.57-17.51,5.46-9.37,10-17,10.25-16.82,1,.58,4.11,7.82,6.27,14.64,2.31,7.34,2.46,7.7,4,8.3,1.79.81,2.48.68,4.05-.58,1.75-1.42,1.76-3.27.12-9.4-4.27-15.9-12.57-27.86-24.19-35C295.1,698.84,292.62,699,291.28,701.32Z"/><path d="M253.43,767.27a4,4,0,0,0-.64,5.16c.79,1.47,8.19,4.81,14.1,6.37a69.39,69.39,0,0,0,19.17,1.42,109.21,109.21,0,0,0,12.47-2.66c9.77-2.68,14.11-4.46,25.69-10.87,16.37-9,29.31-12.62,42.09-11.78,12.22.82,21.13,5.16,28.92,14.17,5.7,6.61,9.14,13.37,11.91,23.51,1.43,5.33,2,6.07,4.85,6.16,1.47,0,3.85-1.93,4-3.26a45.14,45.14,0,0,0-1.41-6.52c-4.19-15.65-12.48-27.73-23.84-34.78-11.85-7.37-24.61-9.39-40-6.48-10.3,2-19.64,5.59-31.9,12.41-9.69,5.46-15,7.54-24.78,9.84-6.58,1.59-9.87,2.08-13.24,2.09a53.8,53.8,0,0,1-18.9-3.8,44.71,44.71,0,0,0-5-2C255.21,765.77,255,765.83,253.43,767.27Z"/><path d="M345.66,787.52c-5.4,9.36-10,17-10.17,16.86-1-.57-4.39-8.41-6.36-14.72-2.57-8.12-3.25-9-6.5-8.13a3.35,3.35,0,0,0-2.55,2.2c-.72,1.7-.67,2.08,1.68,9.81q9,29.22,33.63,37.42c17.66,5.81,37.08,2.35,60.75-10.84,16.31-9,30-12.9,42.76-12a43.6,43.6,0,0,1,15.66,4c5.21,2.3,6.71,2.24,8.11-.27,1.59-2.67.69-4.34-3.31-6.52-13.17-7.07-30.61-7.5-48.48-1.14-6,2.11-11.31,4.66-22.79,10.82a79.58,79.58,0,0,1-19.76,7.87c-6.28,1.68-15.14,2.94-16.91,2.4-.3-.08,3.89-7.88,9.33-17.3,8.7-15.06,9.79-17.26,9.4-18.73a4.3,4.3,0,0,0-4.4-3c-1.9.06-2.48,1-14.14,21.34-5,8.81-9.53,16.12-10,16.25-1.2.32-9-2.64-12-4.58a57,57,0,0,1-5.54-4.35l-2.95-2.63,10.76-18.65C362,776,362.57,774.86,362.1,773.08a3.38,3.38,0,0,0-2.16-2.62C356.46,769,356.29,769.2,345.66,787.52Z"/><path d="M451.91,817c-1.78.47-2.51,1.51-11.78,17.56-5.4,9.36-10,17-10.18,16.86-.93-.53-4.64-9.8-6.14-15.4-1.92-7.17-2.72-8.24-5.86-8a3.39,3.39,0,0,0-2.83,1.77c-1,1.5-1,2.12-.33,5.7a79.55,79.55,0,0,0,7.67,19.59,52,52,0,0,0,17.18,18.28c2.33,1.39,3.18,1.61,4.75,1.19a3.39,3.39,0,0,0,2.6-2.21c1-2.41,0-4.1-3.79-6.61a43.55,43.55,0,0,1-5.36-4.29l-2.21-2.21,10.72-18.57c11.55-20.09,11.86-20.84,9-23A3.43,3.43,0,0,0,451.91,817Z"/><path d="M207.74,333.73c-2.68,0-3.87,1.88-4.33,6.94a46,46,0,0,1-1.19,7.16l-.8,2.56H179.74c-19.38,0-21.72.12-22.87,1.27a3.75,3.75,0,0,0,0,5.51c1.11,1.11,3.34,1.27,21,1.27,10.84,0,19.72.19,19.68.46,0,1.15-4.71,7.47-9.53,12.75-5.21,5.67-5.44,6-5.21,7.59.19,1.95.65,2.49,2.52,3.21,2.11.81,3.72-.11,8.2-4.59,11.64-11.65,17.85-24.82,18.23-38.46C211.8,335.8,210.42,333.73,207.74,333.73Z"/><path d="M131.71,333.93a4,4,0,0,0-4.79,2c-.88,1.41-.08,9.49,1.53,15.39a69.3,69.3,0,0,0,8.35,17.32,108,108,0,0,0,8.54,9.46c7.2,7.12,10.92,10,22.26,16.81,16,9.69,25.58,19.08,31.25,30.57,5.4,11,6.09,20.87,2.19,32.13-2.88,8.24-7,14.6-14.41,22.07-3.9,3.9-4.25,4.78-2.91,7.27.69,1.31,3.6,2.38,4.83,1.84a46.39,46.39,0,0,0,4.94-4.48c11.45-11.45,17.77-24.67,18.19-38,.46-13.94-4.17-26-14.4-37.92-6.85-7.93-14.67-14.21-26.7-21.41-9.57-5.67-14-9.19-20.91-16.54-4.67-4.91-6.74-7.51-8.43-10.42a53.62,53.62,0,0,1-6.16-18.27,43.24,43.24,0,0,0-.77-5.37C133.89,334.73,133.74,334.57,131.71,333.93Z"/><path d="M160.28,423.93c-10.8,0-19.73-.19-19.69-.38,0-1.15,5.09-8,9.57-12.87,5.75-6.28,6.17-7.32,3.8-9.69a3.35,3.35,0,0,0-3.18-1.11c-1.84.23-2.15.46-7.66,6.36q-20.81,22.41-15.59,47.84c3.79,18.19,16.51,33.28,39.76,47.19,16,9.61,26.16,19.5,31.79,31,2.41,4.87,4.67,9.24,5.39,15.56.62,5.67,1.42,6.93,4.29,6.89,3.1,0,3.07-1.57,3-6.13-.46-14.94-8.81-30.26-23.25-42.55-4.82-4.14-9.69-7.47-20.76-14.33A79.91,79.91,0,0,1,151,478.56c-4.6-4.6-10.11-11.65-10.53-13.45-.08-.3,8.77-.57,19.65-.57,17.39,0,19.84-.16,20.91-1.23a4.29,4.29,0,0,0,.42-5.32c-1-1.61-2.1-1.65-25.55-1.57-10.14,0-18.73-.19-19.07-.54-.88-.88-2.22-9.12-2-12.68a59.89,59.89,0,0,1,1-7l.8-3.87h21.53c20.26,0,21.56-.11,22.86-1.41a3.33,3.33,0,0,0,1.19-3.18C181.73,424,181.46,424,160.28,423.93Z"/><path d="M182.54,531.45c-1.3-1.3-2.57-1.42-21.1-1.42-10.81,0-19.73-.18-19.69-.38,0-1.07,6.16-8.92,10.26-13,5.25-5.25,5.79-6.47,4-9.08a3.37,3.37,0,0,0-2.95-1.57c-1.8-.11-2.33.19-5.09,2.57A78.75,78.75,0,0,0,134.85,525a52,52,0,0,0-7.24,24c0,2.72.19,3.56,1.34,4.71a3.41,3.41,0,0,0,3.22,1.15c2.6-.31,3.56-2,3.83-6.59a43,43,0,0,1,1-6.78l.81-3h21.45c23.17,0,24-.15,24.43-3.75A3.41,3.41,0,0,0,182.54,531.45Z"/><path d="M202.22,531c-2.33,1.34-2.42,3.56-.29,8.17a47,47,0,0,1,2.56,6.8l.58,2.62L186.3,559.46c-16.79,9.69-18.75,11-19.17,12.53a3.75,3.75,0,0,0,2.75,4.77c1.52.41,3.52-.57,18.78-9.38,9.41-5.39,17.18-9.7,17.28-9.44.57,1-.34,8.82-1.88,15.81-1.68,7.51-1.72,7.89-.72,9.17,1.14,1.6,1.81,1.83,3.8,1.53,2.22-.36,3.16-2,4.8-8.08C216.2,560.46,215,546,208.5,534,206.76,530.79,204.54,529.69,202.22,531Z"/><path d="M136.47,569.21a4,4,0,0,0-3.13,4.16c-.06,1.66,4.68,8.26,9,12.56a68.83,68.83,0,0,0,15.89,10.82,106.24,106.24,0,0,0,12.13,3.92c9.79,2.57,14.45,3.21,27.68,3.44,18.67.41,31.69,3.73,42.35,10.84,10.17,6.82,15.71,15,18,26.74,1.64,8.57,1.23,16.15-1.44,26.31-1.43,5.34-1.28,6.27,1.12,7.76,1.25.78,4.31.25,5.1-.82a46.41,46.41,0,0,0,2-6.36c4.19-15.64,3.06-30.25-3.26-42-6.58-12.31-16.62-20.44-31.44-25.64-9.9-3.44-19.81-5-33.82-5.2-11.13-.12-16.74-1-26.39-3.87-6.5-1.91-9.59-3.13-12.5-4.81a53.57,53.57,0,0,1-14.48-12.74A43.52,43.52,0,0,0,140,570C138.76,568.82,138.55,568.76,136.47,569.21Z"/><path d="M206.21,632.88c-9.35,5.4-17.18,9.69-17.24,9.51-.58-1,.41-9.48,1.86-15.93,1.83-8.32,1.68-9.42-1.56-10.29a3.32,3.32,0,0,0-3.31.63c-1.48,1.11-1.63,1.47-3.46,9.33q-6.8,29.8,10.42,49.23c12.39,13.86,30.94,20.57,58,21,18.64.34,32.4,3.8,43.05,11,4.52,3,8.65,5.66,12.44,10.77,3.37,4.6,4.7,5.3,7.16,3.83,2.71-1.52,1.88-2.9-.5-6.79-7.86-12.71-22.76-21.8-41.41-25.23-6.25-1.17-12.13-1.62-25.14-2a80.29,80.29,0,0,1-21.05-3.06c-6.28-1.69-14.58-5-15.85-6.38-.21-.23,7.31-4.88,16.73-10.32,15.06-8.7,17.11-10.06,17.5-11.52a4.29,4.29,0,0,0-2.29-4.82c-1.67-.9-2.65-.38-22.91,11.41-8.77,5.11-16.32,9.2-16.79,9.07-1.2-.32-6.48-6.78-8.1-10a58.09,58.09,0,0,1-2.62-6.54L189.93,652l18.64-10.76c17.53-10.17,18.62-10.88,19.1-12.66a3.37,3.37,0,0,0-.56-3.35C224.83,622.22,224.58,622.32,206.21,632.88Z"/><path d="M280.25,712.86c-1.78-.48-2.93.06-19,9.32-9.36,5.41-17.18,9.7-17.25,9.52-.53-.93.88-10.81,2.38-16.41,1.92-7.17,1.77-8.5-1.05-9.88a3.39,3.39,0,0,0-3.34.12c-1.62.8-1.93,1.33-3.13,4.77a78.6,78.6,0,0,0-3.16,20.8,52,52,0,0,0,5.73,24.42c1.33,2.37,2,3,3.52,3.41a3.39,3.39,0,0,0,3.36-.62c2.1-1.56,2.07-3.54,0-7.62a42.75,42.75,0,0,1-2.49-6.39l-.82-3,18.58-10.72c20.05-11.62,20.69-12.13,19.28-15.47A3.41,3.41,0,0,0,280.25,712.86Z"/><path class="b53b6b32-7405-46b1-ac39-8687bec67217" d="M552.5,493.5l1.3-.51H760.17l-41.64,50c-13.33,16-31.41,25-50.26,25H541.07"/><path class="b53b6b32-7405-46b1-ac39-8687bec67217" d="M642.67,349.49v80.16a94.42,94.42,0,0,0-29.3-4.66h-11.7v-75.5Z"/><path class="b53b6b32-7405-46b1-ac39-8687bec67217" d="M521.5,425h91.87a94.5,94.5,0,0,1,76.12,38.51L711.17,493l-156.67.51"/><path class="a18a1af9-6673-486c-89a3-439157d8c8ff" d="M681.67,275.49c16.55-11,39.33-18.4,76.6-18,0,0,100.43,4.58,118.57,102"/><path class="a18a1af9-6673-486c-89a3-439157d8c8ff" d="M635.67,234.49c25.12-19.48,72-40,136.1-31.5,0,0,153.64,13,181.4,162"/><path d="M230.16,564.35c.08-5.68.28-11.36.63-17s.84-11.35,1.54-17a267.36,267.36,0,0,1,6.27-33.67c.68-2.78,1.5-5.53,2.26-8.29s1.68-5.49,2.64-8.2,1.87-5.44,3-8.1l1.58-4,1.72-4c1.1-2.67,2.42-5.24,3.65-7.85s2.68-5.13,4-7.7,2.87-5,4.44-7.48l2.36-3.66c.4-.6.77-1.23,1.2-1.82l1.28-1.76a149.27,149.27,0,0,1,52.9-44.75l3.93-1.9c1.31-.62,2.6-1.3,4-1.83,2.69-1.1,5.34-2.3,8.07-3.3s5.46-2,8.22-2.88,5.55-1.74,8.37-2.43c5.6-1.55,11.32-2.62,17-3.61,5.75-.82,11.52-1.55,17.32-1.81a176.16,176.16,0,0,1,34.73,1.49A188,188,0,0,1,455,380.89a215.29,215.29,0,0,1,31.87,13.6,165.06,165.06,0,0,1,29,19.28,123,123,0,0,1,23.51,26,109.88,109.88,0,0,1,14.63,32,124.62,124.62,0,0,1,4.24,34.81A175.91,175.91,0,0,1,553.61,541c-5.52,22.51-14.48,43.9-25.26,64.12-2.8,5-5.56,10-8.41,15l-9,14.63A263.26,263.26,0,0,0,494.55,664a126.09,126.09,0,0,0-6.1,15.31,60.44,60.44,0,0,0-3,15.6c-.18,5.13.74,10.08,3.27,14s6.62,6.73,11.41,8.53a56.81,56.81,0,0,0,15.5,3.21,123.7,123.7,0,0,0,16.46.13,263,263,0,0,0,33.23-4.21c22.1-4.1,44-9.85,65.7-16.1q16.29-4.71,32.49-9.83c5.39-1.7,10.8-3.4,16.17-5.19s10.73-3.61,16.15-5.26c43.39-13.13,86.54-27.27,129.9-40.76-42.3,16.52-84.63,32.88-127.38,48.35-5.35,1.92-10.77,3.63-16.19,5.33l-16.25,5.16q-16.27,5.13-32.67,9.89c-21.87,6.29-43.94,12.1-66.47,16.28a270.91,270.91,0,0,1-34.26,4.33,130.11,130.11,0,0,1-17.54-.15,64.74,64.74,0,0,1-17.71-3.71,35.22,35.22,0,0,1-8.41-4.49,27.53,27.53,0,0,1-6.85-7.17,27.92,27.92,0,0,1-3.75-9.14,38.22,38.22,0,0,1-.79-9.47,67.6,67.6,0,0,1,3.38-17.72,134.41,134.41,0,0,1,6.48-16.29,272.92,272.92,0,0,1,16.92-30.1L513,616.07c2.8-4.87,5.5-9.79,8.26-14.68,10.55-19.8,19.22-40.61,24.53-62.2a169.17,169.17,0,0,0,4.42-32.83,116.93,116.93,0,0,0-4-32.52,101.75,101.75,0,0,0-13.57-29.64,115,115,0,0,0-22-24.31,157.91,157.91,0,0,0-27.58-18.33,206,206,0,0,0-30.68-13.08,180,180,0,0,0-32.33-7.78A167.94,167.94,0,0,0,387,379.28c-5.53.24-11,1-16.51,1.72-5.46.95-10.91,2-16.24,3.45-2.7.65-5.32,1.53-8,2.31s-5.22,1.83-7.83,2.74-5.12,2.1-7.68,3.14c-1.29.5-2.51,1.15-3.76,1.74l-3.73,1.8a139.12,139.12,0,0,0-27.54,18.24,137.1,137.1,0,0,0-11.92,11.45L281,429c-.9,1-1.75,2.13-2.64,3.18s-1.78,2.11-2.63,3.2l-2.54,3.27c-1.74,2.15-3.31,4.44-4.95,6.67s-3.07,4.61-4.62,6.92-2.91,4.74-4.26,7.17-2.72,4.87-3.92,7.39a213.36,213.36,0,0,0-12.62,31.12,265.13,265.13,0,0,0-8.18,32.8c-1.08,5.55-1.91,11.15-2.69,16.76S230.63,558.69,230.16,564.35Z"/><line class="a18a1af9-6673-486c-89a3-439157d8c8ff" x1="940.67" y1="329.49" x2="888.67" y2="329.49"/><line class="a18a1af9-6673-486c-89a3-439157d8c8ff" x1="842.3" y1="292.15" x2="887.32" y2="274.72"/><line class="a18a1af9-6673-486c-89a3-439157d8c8ff" x1="756.28" y1="257" x2="761.55" y2="221.98"/><line class="a18a1af9-6673-486c-89a3-439157d8c8ff" x1="817.58" y1="251.99" x2="834.67" y2="223.49"/><path d="M657.15,300.49c-.29,2.53-.65,4.91-1,7.36-.2,1.22-.39,2.44-.64,3.7l-.2,1-.14.56a4.49,4.49,0,0,1-.16.48c-.2.62-.43,1.23-.67,1.83a30.22,30.22,0,0,1-8.85,12,28.29,28.29,0,0,0,5.38-13c.08-.57.15-1.13.19-1.7,0-.13,0-.29,0-.41V312l0-.82c0-1.15-.12-2.35-.21-3.54-.18-2.38-.39-4.84-.65-7.14v0a3.51,3.51,0,1,1,7-.79A3.66,3.66,0,0,1,657.15,300.49Z"/><path class="eb5bbe21-dfcd-41b7-9464-de28e6dc0264" d="M679.67,272c7.5,25-11.41,35.41-25.67,40"/><path class="e89f02f4-95a9-46cb-a2d5-0410465d5a42" d="M392.92,511.49A42.25,42.25,0,1,1,426.81,444a41.86,41.86,0,0,1,8.36,25.23A42.47,42.47,0,0,1,411,507.45,41.91,41.91,0,0,1,392.92,511.49Z"/><path d="M392.92,428.49a41,41,0,0,1,32.69,16.42,40.41,40.41,0,0,1,8.06,24.33,40.94,40.94,0,0,1-23.34,36.85,40.35,40.35,0,0,1-17.41,3.9,40.75,40.75,0,0,1,0-81.5m0-3A43.75,43.75,0,1,0,428,443.11a43.75,43.75,0,0,0-35.09-17.62Z"/><path d="M436.67,469.24a43.74,43.74,0,0,1-25.06,39.56,33.87,33.87,0,0,1,9.53-66.38,34.57,34.57,0,0,1,6.87.69A43.53,43.53,0,0,1,436.67,469.24Z"/><circle class="e89f02f4-95a9-46cb-a2d5-0410465d5a42" cx="419.03" cy="469.24" r="8.82"/><path d="M637.54,237.42c-.72.44-1.63,1.05-2.43,1.63s-1.66,1.2-2.47,1.84c-1.61,1.27-3.21,2.59-4.73,4A87.58,87.58,0,0,0,612,264.14a84.36,84.36,0,0,0-5.67,11.23,78.12,78.12,0,0,0-3.91,12,83.86,83.86,0,0,0-2.05,12.54,99.74,99.74,0,0,0,1.26,25.56,100.79,100.79,0,0,1-3-25.65,85.87,85.87,0,0,1,1.23-13,79.93,79.93,0,0,1,3.21-12.71A87.25,87.25,0,0,1,608.24,262a93.31,93.31,0,0,1,15.41-21.48c1.52-1.61,3.14-3.15,4.79-4.65.84-.75,1.69-1.48,2.56-2.19s1.73-1.39,2.79-2.14a3.49,3.49,0,0,1,4,5.7l-.2.13Z"/><path d="M618.27,547.46H612v-14H598v14h-6.29V514.33H598V528h14V514.33h6.29Z"/><path d="M657.1,547.46h-6.29v-21l-8.11,14.59h-4.22l-8.26-14.74v21.13h-6.29V514.33h6.29l10.37,19,10.22-19h6.29Z"/><path d="M660.8,537.37h6a5,5,0,0,0,2.13,3.82,9.69,9.69,0,0,0,5.26,1.18q6.76,0,6.77-4.47a3.55,3.55,0,0,0-1.35-3,9,9,0,0,0-4.41-1.37l-3.51-.43q-10.08-1.25-10.08-9.26a8.82,8.82,0,0,1,3.36-7.32q3.36-2.67,9.17-2.67,5.61,0,8.79,2.55a10,10,0,0,1,3.55,7.34h-6.05a4.45,4.45,0,0,0-1.75-3.5,8.08,8.08,0,0,0-4.68-1.11,8.23,8.23,0,0,0-4.71,1.11,3.58,3.58,0,0,0-1.58,3.12,3.29,3.29,0,0,0,1.39,2.83,9.87,9.87,0,0,0,4.46,1.39l4,.53a12.51,12.51,0,0,1,7.15,2.95,8.36,8.36,0,0,1,2.45,6.36,9,9,0,0,1-3.55,7.66q-3.55,2.67-9.75,2.66-6,0-9.36-2.66A10.38,10.38,0,0,1,660.8,537.37Z"/><path class="b53b6b32-7405-46b1-ac39-8687bec67217" d="M521.5,425.5s27.6,20,32.3,67.49"/></svg>