<svg id="Layer_1" data-name="Layer 1" xmlns="http://www.w3.org/2000/svg" viewBox="0 0 968.71 546.67"><defs><style>.cls-1,.cls-2{fill:#010101;}.cls-2{fill-rule:evenodd;}</style></defs><title>Untitled-1</title><path class="cls-1" d="M124.52,272.05c1.19,7-.24,9.3-5.72,9.3-1.67,0-2.74.71-2.74,1.78,0,1.91.72,2.15,6.56,2.27,3.33.12,3.69.59,4.64,5.84.84,4.29.72,6.43-.35,8.34-1.31,2-1.31,2.62.23,3.81,1,.72,2.15,3.82,2.63,6.91.83,5.49.83,5.61-2.15,5.61a8.49,8.49,0,0,0-5.48,2.62c-1.91,1.9-2.74,2.26-4,1.07-1.91-1.55-4-16.68-4.89-35.63-.36-6.67-1.19-13.11-1.9-14.3-2-3.46.59,39.09,3.21,49.45.36,1.67.12,2.74-.71,2.74-3,0-15.26-9.65-19.78-15.49-6.2-8.1-11.09-12.75-15.38-14.42-5.12-2.14-7.15-.24-7.62,6.91-.36,5.37,0,6.32,3,8.82a40.07,40.07,0,0,1,6.19,7,124.94,124.94,0,0,0,10.37,11.92c7.87,8.1,10,12,10,18.11,0,3.94,10.73,21.93,21.81,36.47,5.12,6.91,5.6,7.86,4.53,11.56-.84,3.1-.48,5.36,1.67,10.72,1.9,4.65,2.38,6.92,1.43,7.15A109.51,109.51,0,0,1,119,413c-16.8,3.33-28.48,10.36-32.29,19.3-1.08,2.39-1.67,8.34-1.67,15.85,0,9.89.59,13.71,3.57,23,3.34,10.49,12.75,28,18.12,33.84,2,2.27,2.26,3.58,1.67,8.94-.84,6.2-4.18,20.38-6.08,25.38-.72,1.67-.6,2,.36,1.2.71-.72,2.62-6.08,4.29-11.92A118.21,118.21,0,0,1,113,512.53c4.17-8,12-33.25,15.5-50,1.78-8.22,3.81-16.56,4.64-18.47.84-2.14,1.43-10.25,1.43-20.26,0-14.77-.35-17.4-2.74-22.64-2-4.65-2.38-6.67-1.55-9.53,1.79-5.72,2.51-12.52,1.31-12.52-.59,0-1.43,1.08-1.78,2.39s-1.08,2.38-1.55,2.38c-1.08,0-9.77-12.51-9.77-14.06,0-.6-3.22-5.6-7.15-11.08-5.84-8.23-7.15-10.85-7.15-14.78,0-5.48-2.86-10.37-11.21-19a72.25,72.25,0,0,1-7.5-8.82,21.74,21.74,0,0,0-4.29-4.76,3.47,3.47,0,0,1-1.43-3.82A6.24,6.24,0,0,0,79,303c-2-3.22-.59-6.2,2.38-5.37,2.51.6,4.29,2.27,12.16,11.32a62.36,62.36,0,0,0,11.92,10.13c6.43,4.17,8.46,6.32,6,6.32-1.43,0-7.26,5.6-7.26,7.15,0,2.62,3.21.83,7.62-4.17,2.62-3,5.36-5.36,6.32-5.36a10.37,10.37,0,0,0,3.69-1.08c5.84-3.09,31.22-7,31.22-4.88,0,.59,3.34,1.19,7.51,1.43,6.32.36,7.39.71,7.75,2.74.24,1.79-1.19,3.34-5.13,5.84-3.57,2.38-5.36,4.29-5.36,6,0,4.52,1.43,11.44,2.38,11.44,1.43,0,2-5.25,1.08-8.11a3.79,3.79,0,0,1,.83-4.41c2.27-2.14,2.86-2.26,5.84-.23,4,2.74,21,9.29,22.88,8.93s-.12-1.55-11.68-6.67c-5-2.26-5.48-2.86-6.91-8.7A28.08,28.08,0,0,1,172,312c1.07-6.19,2-7.74,8-13.46,3.57-3.58,7.15-6.44,7.74-6.44,2,0-1.67-3.1-4.53-3.81-1.78-.48-2.74-.24-2.74.71,0,3-5.48,6.68-9.77,6.68-3.81,0-4.29-.36-5.6-5s-1.31-5.12,1-7c1.43-1.19,2.51-2.38,2.51-2.74,0-1.19-5.25,1.79-6.32,3.58a3.42,3.42,0,0,1-2.62,1.66c-1.43,0-1.79-1.78-1.79-7.62a49.84,49.84,0,0,0-.71-9.54c-1.43-3.69-2.27-1.78-1.91,4.06.48,5.48.24,5.95-2.15,5.95-1.54,0-4.52-1.19-6.79-2.5s-4.29-2.26-4.65-1.91c-.71.6-3.57,15.73-4.76,24.91-.48,3.22-1.43,6.2-2.27,6.91-1.66,1.43-5.95-14.42-7.62-29.07-.6-5.13-1.67-9.9-2.27-10.49S123.93,268.12,124.52,272.05Zm27.05,11.68c3.82,0,3.82.12,3.82,5.84,0,6.91-2.62,9.65-9.3,9.65-3.1,0-3.93.48-3.57,2,.59,3.1,5.24,3.33,9.89.47l4.17-2.38v4.05a21.79,21.79,0,0,1-1.19,7c-1.07,2.86-1.67,3.1-8.22,3.1-9.06,0-10.37-1.78-8.58-11.08.71-3.46,1.54-9.65,2-13.94.95-9.77,1.31-10.25,4.53-7.27A10.55,10.55,0,0,0,151.57,283.73ZM123.45,427.45c6,1.66,6.91,2.38,6.91,4.88,0,2.74-.24,2.74-6.19,1.91-11.92-1.55-24-1.07-27.06,1.07s-5.6,8.1-6.67,15.85c-.83,5.84,2.86,20.74,7,28.84,1.67,3.1,3.1,6.32,3.1,7.15s2.38,5,5.36,9.41c5.6,8.23,6.32,12,1.08,5.84-10.49-12.75-22.17-44.21-20.14-54.81,2.62-13.59,6.19-20.14,11.79-21.22C104.86,425.18,117.13,425.66,123.45,427.45Zm-11.2,9.77c1.19.83,1.19,1.79.24,4.41-.72,1.78-1.55,7.15-2,11.79-.71,9.54,1.55,20.26,5.6,26,2.27,3.1,2.15,6.92-.24,6.92-.59,0-2.5-3.1-4.29-6.92-2.86-5.95-3.21-8.58-3.57-20.85-.48-14.66-2.62-18.71-2.62-4.77,0,9.54-1.55,9.06-1.79-.47a27,27,0,0,1,1.91-11.92C107.6,436.38,109.27,435.31,112.25,437.22Zm16.21,1.19c.35.6.12,2.86-.48,5.12s-2.5,10.49-4.17,18.24-3.58,15.13-4.17,16.08c-2.74,4.89-7.87-18.11-6.44-28.83s2-11.56,8.7-11.56C125.12,437.46,128.1,437.93,128.46,438.41Z" transform="translate(-55.65 -266.67)"/><path class="cls-1" d="M266.81,278.49c-4.17,4.17-8.94,12.87-10.85,19.78-1.07,3.81-2.38,6.55-3,6.2s-2.15,1.78-3.34,4.64c-2,4.77-2.74,5.37-7.15,6.08-5.36.84-6.79,3.34-1.55,2.86,2.74-.36,3.22.12,3.57,3.1.24,1.91-.11,3.93-.83,4.65-.95.95-1.31.35-1.31-1.91,0-1.79-.48-3.22-1.19-3.22s-1.19,1.19-1.19,2.62-1.31,5.37-3,8.58-3,6.56-3,7.39c0,1.79,4.29,9.54,6.91,12.75,2.14,2.51,1.07,4.17-1.43,2.15-1.79-1.55-3.81.12-2.5,2.14a1.46,1.46,0,0,1-.6,1.91c-.71.48-1.19-1.19-1.19-4.17a50.61,50.61,0,0,0-1.31-10.13c-1.19-4.53-.95-6.32,1.19-12.63,1.43-4.17,2.5-8.34,2.38-9.3s-1.66,2.86-3.57,8.58c-2.62,8.23-3.1,11.21-2.15,13.59a41.21,41.21,0,0,1,1.55,8.58c.24,3,.72,6.31,1.19,7.27s-1.78,6.67-5,13.11l-5.6,11.32-5.36-.12c-6.08-.12-5.84-.36-13.71,12.87-5.72,9.53-6.91,10.72-8.22,7.39-2-5.25-.72-12.16,3.57-18.47a111.92,111.92,0,0,0,7.15-12.52c2.51-5.72,2.63-6.55,1.08-12.27-1.31-5.13-1.31-6.91.24-12.16l1.78-6.19-6.67-6.68c-8-8-8.82-7.38-1.31,1.08,5.72,6.43,6.31,8.34,3.57,11.2-2.26,2.14-2.26,4.76,0,13.34l1.79,6.92-5.48,9.29c-3,5.13-6,9.65-6.55,10-2.27,1.31-4.77,7.75-3.7,9.18.6.83,1.43,4.88,1.79,8.93.48,5.25,1.31,8.47,3,10.13,1.31,1.43,4.65,9.54,7.39,18.12s5.72,17.28,6.67,19.42a19.51,19.51,0,0,1,1.67,5.6,2.3,2.3,0,0,0,1.07,2c.6.12,3.93,6.2,7.63,13.46s8.34,15.38,10.48,18.12,7.27,8.82,11.21,13.7l7.15,8.7-.12,14.3c-.12,9.77-.84,16.57-2.27,21.21s-2,11-2,18.47c0,8.94-.6,13.35-2.63,19.31a85.06,85.06,0,0,0-3.57,13.7,44.72,44.72,0,0,1-2.62,9.3c-1,1.79-1.55,3.69-1.19,4.29,1.43,2.38-19.79,11.44-29.08,12.51A126.66,126.66,0,0,0,193.52,631c-5,1.2-13.46,1.91-23.71,1.91H153.72l-13.23-13.46c-20.85-21.1-30.27-38.38-36.23-66.38-1.66-7.39-2.5-9.53-3.21-7.87-2.27,5.6,7.15,37.42,14.3,48.39,9.53,14.89,13.23,19.54,23.71,30.62,11.8,12.28,11.8,12.28,17.52,12.28h5.6l6.44,9.65c6.67,10.25,11.08,14.3,24.07,22.28l8.1,5H436.38l.72-2.74c.36-1.43.24-6.44-.24-11a64.81,64.81,0,0,1,0-13.7c.48-3,1.19-14.54,1.67-25.62.71-21.09.12-26.93-5.84-48.15-1.79-6.31-1.67-6.67,1.55-15.49a84.41,84.41,0,0,0,4.17-15.49,37,37,0,0,1,1.91-8.82c1.43-2.5-3.82-15.85-11.44-29.31-4.05-7.27-4.05-7.51-2.15-11.2,2-4.06,7.27-11.92,12.51-18.71,4.41-5.84,7.63-14.54,10-27.41,1.91-10.49,1.91-11.8-.11-23.72-1.08-7-3.34-15.37-4.89-18.82-3.22-6.68-9.53-13-14.18-14.19-2.62-.59-27.53,6.44-45.29,12.87-4.29,1.55-24.19,2.15-31.34,1a17.72,17.72,0,0,1-8.46-4c-1.78-1.67-3.81-3.1-4.64-3.1-2.63,0-1.43-3.46,2.14-6.2,4-3,4.89-5.24,1.19-3.34-2.86,1.55-3,.84-.59-2.86a7.13,7.13,0,0,0,1.07-6c-.84-3.7-2.38-4.06-3.46-.72-.35,1.31-1.31,2.38-1.9,2.38-1.43,0-1.43-.59.59-5.24,1.19-3,2.39-3.93,4.41-3.81,2.5.12,3,.95,3.93,6.31,1.43,8.23,3.34,8.23,2.39,0-.6-5.24-.36-6.55,1.19-7.15a3.47,3.47,0,0,0,1.91-3c0-1.31,1.31-4.29,3-6.67,3.58-5.24,4.18-9.17,1-6.55-1.79,1.55-1.91,1.31-1.19-2.86.83-5.37-1.2-6-2.86-.84-.72,1.91-1.79,3.58-2.39,3.58-1.07,0-.83-7.15.72-32.53.36-5.13.12-9.18-.48-9.18-1.67,0-3.93,14.42-2.38,16.21.83,1.07.83,3-.12,6.19A102.35,102.35,0,0,0,347,349.15c-.24,8.7-.72,11.32-2.38,12.87-1.91,1.79-2.39,1.67-5.37-1.43-6.07-5.95-14.54-7.15-21.45-2.86-9.05,5.6-5.6-2,5.13-11.44,4.17-3.69,8-8.22,8.7-10.36,1.43-4.17,1.07-3.94-3.82,2.74a20.63,20.63,0,0,1-8.58,6.55c-4.17,1.79-5.6,3.1-6.31,5.72-1.43,5.48-3.82,5.36-2.62,0A107.59,107.59,0,0,0,312,337.48c.6-9.66.36-9.06-2.38,7.62-1.91,11.8-4.17,16.45-7.15,15.26-1.91-.72-1.91-.84,0-2.15,2.38-1.79,2.38-4,.12-7a14.72,14.72,0,0,1-1.91-6.55l-.12-4.29-1.07,4.17a18.88,18.88,0,0,0-.36,7.15c.36,2.26-.35,3.93-3,6.43-3.33,3.22-3.45,3.22-4.29.84-.83-2.86-9.17-9.66-11.79-9.66-1.08,0-1.91-.47-1.91-1.07s.72-1.07,1.55-.95c3.57.12,5.6-.48,5.6-1.55a1.33,1.33,0,0,0-1.43-1.19c-.83,0-3.93-1.67-6.91-3.58-6.56-4.29-8.58-4.65-4.77-.59,3.1,3.21,3,3.45-.83,4.64-2.27.72-3,.12-4.77-3.69-2.62-5.6-2.62-5.72-3.46-4.89-.35.36.24,2.74,1.32,5.25,1.78,4.41,1.78,4.76-.6,6.67-2.15,1.79-2.74,1.79-6.08.12-3.1-1.55-3.57-2.38-3.1-5,.48-2-.59-5.95-2.74-10.84-3.21-7.15-3.33-7.87-1.67-11.8a30.16,30.16,0,0,1,2.75-5.36c1.66-2.26,6.07-16.57,6.07-20,0-2.15,1.79-5.24,5.13-9.18l5-6h19.07c20.38,0,35.15,1.91,40.28,5.25,1.79,1.07,3.81,1.79,4.53,1.55,2.14-.72-6.92-5.84-13.83-7.75-3.69-1.07-14.54-2-28-2.38C270.62,276.34,269,276.46,266.81,278.49ZM250.13,343.2c2.14,6.43,4.29,10.84,5.48,11.2s1.67,1.55,1.31,4.76c-.36,3.46.36,5.25,4.41,10.73,5.48,7.15,7.15,8,16.56,8,5.84,0,6.44.24,7.51,3.22s5.24,6.44,10.72,8.82c2.51,1.07,13-2.62,13-4.53,0-5.36,4.65.12,6.32,7.39.71,3.34-5.72,11.2-7.63,9.29-.95-.95-.95-2,.12-4.05l1.31-2.86-2.38,2.62a8.11,8.11,0,0,1-5.48,2.74c-2.74,0-3-.35-2.39-2.74a9.08,9.08,0,0,1,2.75-4c.95-.83,1.54-1.79,1.19-2.26-1.08-1-5.84,1.9-5.13,3.1a1.33,1.33,0,0,1-.71,1.78,2.51,2.51,0,0,0-.6,2.63c.6,1.43.12,1.66-2.5.83-1.91-.6-8.46-1.07-14.9-1.07s-11.91-.36-12.39-.84c-.95-1.07-6.44,0-8.46,1.79-2.5,1.91-1.79,3.46,1.19,2.5,8.58-3,43.26,1.55,53.63,6.91l4.41,2.27,1.31-3.34a18.63,18.63,0,0,0,.59-7.86c-.47-2.39-.36-4.41.24-4.41a9.09,9.09,0,0,0,3.34-1.91c2.14-1.67,2.14-1.79-.6-.48-3,1.55-3.69,1.08-5.84-3.93l-1.43-3.22h6.44a25.38,25.38,0,0,0,12-3c3.22-1.55,6.08-2.75,6.32-2.51.59.72-5.13,9.42-7.51,11.44a72.87,72.87,0,0,0-6.79,8.7c-4.65,6.91-4.77,7-5.6,21.81-.48,8.7-1.43,15.37-2.27,16.21s-1.55.95-1.55.35a13.2,13.2,0,0,0-.47-2.38c-.12-.71-.36-3.1-.48-5.36-.24-3.82-.48-3.46-2.26,3.33S307.8,446,306,444.25c-.24-.24.23-3.93,1.31-8.1,3.33-14.54,1.78-14.3-3,.47-2.86,8.94-3.34,9.77-6.44,10.13l-3.45.48.83-5.84c2.26-15.49,1.91-16.8-.83-3.34L293,445.2l-4.65-.24c-2.62-.23-4.89-.47-5.13-.71s.36-2,1.32-3.93c2-4.17,3.69-16.45,2.14-15.5-.6.36-1.79,3.94-2.5,7.87-1.67,8.34-5.48,13.7-8.82,12.39-1.79-.59-2.15-1.67-1.55-4.53.36-2,1-8,1.31-13.22.6-11.2-.83-7.87-3.1,6.79-1.31,8.58-1.67,9.29-4.29,9.29H264.9l.6-14.65.59-14.54-1.55,13.35c-.83,7.38-1.78,13.82-2.26,14.18s-2.38-.48-4.41-1.91c-3.45-2.5-3.57-2.86-2.86-8.58.6-4.41.48-5.84-.59-5.24a3.48,3.48,0,0,0-1.32,2.62c0,3.45-2,1.55-4.52-4.41s-2.51-6.2-.24-9.18c3.33-4.05,5.84-13.46,6.55-23.47.48-7.39.36-7.87-.71-3.94-1.55,5.13-3.1,5.84-4.17,1.67a61.74,61.74,0,0,0-3.58-8.58c-3.57-7-3.69-13.34-.36-21.92,3.58-9.3,4.17-13.11,1.91-13.11-1.07,0-2-1.55-2.38-3.93-.48-2-1.08-5.72-1.55-8C242.5,325.8,246.43,331.87,250.13,343.2Zm-10.61,24.42a10.88,10.88,0,0,0,1.19,7.39c1.91,3.46,1.91,3.94-1.19,11.68-3.69,9.06-3.58,10.61,2.26,29.32,1.55,4.88,2.51,9.17,2.27,9.41s-4.89-3.34-10.37-8c-7.75-6.44-10.37-9.54-12-13.83l-2-5.36,3.81-8.1C234.51,366.67,241.66,356.66,239.52,367.62Zm57.2-1.07c-.83,3.34-.48,3.58,3,1.79,5.12-2.86,9.77,4.53,5.24,8.34-2.74,2.27-2.26,5,1,4.53,1.66-.24,2.62.24,2.62,1.43,0,.95-1.31,1.91-3,2.14a8.73,8.73,0,0,0-4.05,1.55c-1.91,1.79-6.68,1.2-7.51-.83a6.79,6.79,0,0,0-3.46-3,3.89,3.89,0,0,1-2.86-3.57c0-1.79.6-2.27,1.79-1.79s1.79-.12,1.79-2.15a24.76,24.76,0,0,1,1.79-7.15C295.05,363,297.91,361.9,296.72,366.55Zm140,29.44c6.32,6.67,9.65,18.82,10.13,37.89.36,14.9-1.07,22.17-6.31,32.65-2.63,5.13-12,15.61-13.11,14.66a34.06,34.06,0,0,1,2-6.79c2.62-7,2.15-9.18-1.07-5.13-2.14,2.51-2.14,2.39-3.57-7.26-2.63-17.17-10-31.7-22.77-44.45A122.21,122.21,0,0,0,391.7,408c-1.55-1.07-2.74-2.14-2.74-2.62s3.33-1.79,7.5-3,11.92-3.69,17.52-5.48C426.85,392.65,433.17,392.41,436.74,396ZM217,410.17c3.33,5.24,9.41,11.08,8.22,7.74-.72-2.14-.72-2.14,2.5,0,6.44,4.17,18.83,15.26,20.38,18.24a14.27,14.27,0,0,0,3.81,4.52,37.89,37.89,0,0,1,3.82,3.1,51.28,51.28,0,0,0,5.24,4.17c3.22,2.15,3.93,3.58,4.65,9.42a70.66,70.66,0,0,0,1.78,9.41c1,2.27.36,3.22-3.33,6a84.12,84.12,0,0,0-7.27,6.08c-4.17,4.05-7.39,4.05-16-.36-4.89-2.5-5.6-2.62-4.53-.83,3.1,5.95,14.66,11.79,31.22,16,17.16,4.18,31,9.18,44.45,16,7.15,3.58,13.83,6.56,14.66,6.56,3.22,0,12.28,7.27,18.47,14.65,6.91,8.23,18.83,26.1,18.83,28.13s2.5,1.67,18.71-1.79c2.14-.36,2.62-1.19,2.14-3.81-.35-1.79-1.43-9.18-2.38-16.57-1.91-13.34-5.6-26.69-10.37-37.06l-2.5-5.6L373,483.93c1.9-5.6,4.05-11,4.88-12a6.28,6.28,0,0,0,1.55-3.1c0-1.79-4.88-12-7.62-16.21-1.2-1.79-2-3.46-1.79-3.81s4.53,1.31,9.41,3.57c10.49,4.77,15.14,10,27.89,30.75,8.93,14.54,8.93,14.18-.12,21.92-7.27,6.08-7,5.37-13.11,47.67-.36,2.86-1.31,5.6-2,6.08s-6.07,2-12,3.1-14.9,3.21-19.9,4.53l-9.18,2.5-15.85-15.14c-8.7-8.22-16.44-15.85-17.28-16.68-2.5-3-13.58-4.41-36.46-4.65-17.64-.24-22.64-.59-23.36-1.9a2.49,2.49,0,0,0-2.86-1c-1.31.48-1.91-1-2.5-6.67-.36-4-1.19-7.75-1.79-8.34a2.5,2.5,0,0,1-.6-2.5c.24-.72-1.66-4.06-4.17-7.51-8.46-11.08-21.33-30.63-25.74-39.09a108.26,108.26,0,0,0-5.72-9.89c-1.9-2.38-5.84-13.47-6.07-16.92-.12-2,.59-3,2.26-3.34,8.46-1.43,13-7,10.25-12.87-2.15-4.77-4.89-5-8.7-.48-1.79,2.27-3.34,5-3.34,6.2,0,4.41-1.9,1.91-5.12-6.79s-3.34-11.32-.24-11.32c.95,0,1.31-.84.95-2.15-.23-1.07,1-4.64,2.74-7.86l3.34-5.84,1.91,5.84A63.16,63.16,0,0,0,217,410.17Zm117.38,4.05c-.48,12-.36,13.7,1.43,14.42,1.07.47,3.57,3.1,5.6,6l3.57,5.12-4.41,8.7c-2.38,4.77-6.43,10.73-8.93,13.23-4.53,4.41-6,8-3.34,8,3.46,0,10.37-9.41,14.78-20,2.5-6,4.88-11,5.24-11,1.55,0,10.84,17.16,10.84,19.9,0,2.5-4.76,10.37-8.1,13.47-7.27,6.67-7.75,7.86-5.6,11.2,2.5,3.69,1.55,5.48-3,5.48a5.9,5.9,0,0,1-5.36-2.86c-1.67-2.62-3.1-3-12.28-3.7-12.15-.95-27.29-4.17-34.67-7.5a18,18,0,0,1-8.11-7.39c-1.67-2.74-2.74-5.13-2.5-5.36s3.34.47,6.67,1.78,6.2,1.91,6.2,1.2c0-1.67-8.94-6-12.27-6-2.86,0-6.32-5-5-7.15.24-.48,7.39-.72,15.61-.48,14.06.36,15.26.24,16.8-1.91,1-1.31,2.27-2.38,2.86-2.38s2.75-1.19,4.53-2.5,4.05-2.15,4.65-1.79,1.79-.24,2.5-1.31c1.08-1.79,1.19-1.55,1.31,1.67,0,3.93,1.67,6.19,2.74,3.57.24-.83,1.2-9.17,1.91-18.71,1.67-19.66,3.7-29.43,6-28C334.62,400.16,334.73,406.59,334.38,414.22Zm59.7,0c16,13.7,24.67,29.31,27.05,49,1.43,11.32.95,23.12-.95,23.12-.48,0-1.91-1.79-3.22-3.94-3.81-6.55-17.88-24.67-18.23-23.47-.24.59.95,3.1,2.5,5.6,4.29,6.91,4.65,7.51,4,7.51-.36,0-4.29-5-8.7-11s-11.8-14.78-16.09-19.42-9.89-10.49-12.15-13.11c-7.63-8.34-6.08-3.34,1.67,6,7.62,8.93,10.6,13.7,6.31,9.89-1.19-1.07-5.84-3.1-10.24-4.65-9.06-2.86-9.06-2.86-6.08-13.35,2-7.15,1.9-7.27-1.67-17.28-.48-1.07,2.74-1.43,13.7-1.43h14.3Zm-27.65,34.32a79.55,79.55,0,0,0,4.65,10.25l4.77,9.53L373,477c-1.67,4.77-3.58,8.82-4.17,9.06-2.27.71-1.43,8.1,1.78,16.56,5,13.47,9.89,32.65,10.25,40.76l.36,7.62-6,1.55c-9.77,2.62-10.13,2.5-17.16-7.86-10.6-15.61-22.52-27.65-31.34-31.58a115.62,115.62,0,0,1-15.25-8.46c-9.06-6.08-19.07-10-36-14.18s-16.09-3.7-12.75-7.27,8.82-6.68,9.77-5.6c1,.83,6.79-.6,6.79-1.79,0-.48-2.5-.95-5.6-1.07-4.17-.12-6.55.47-9.77,2.86s-2.86,1.66,1.43-2.27l5.84-5.24-1.91-6.44c-2.26-7.74-2.5-13.46-.48-12.87,1.43.48,1.91,1.79,4.41,14.07,1,4.76,2.15,6.91,4.06,8,18.11,9.41,25.38,11.68,44.21,13.23l10.6.83,6.08,8c9.65,12.63,22.52,34.08,26.81,44.44,2.15,5.25,4.41,10,4.89,10.49,1.55,1.67,7.15-2.74,7.15-5.6,0-3.69-4.77-17.16-10.61-30-2.62-6.08-4.88-11.44-4.88-11.92,0-1.9-6.2-12.87-9.77-17.39-4.06-5.13-3.7-7.63,1.31-11.09A25.08,25.08,0,0,0,359.4,467c1.55-2.5,3.7-4.53,4.89-4.53,2.38,0,2.62-1.07.47-4.17-2.5-3.57-3.21-8-1.78-9.77S366.55,446.87,366.43,448.54Z" transform="translate(-55.65 -266.67)"/><path class="cls-1" d="M192.93,484.53c1.43,12.39,4.29,28.36,5.6,30.86.71,1.43,3,4.89,5,7.87A103.44,103.44,0,0,1,217.35,549c2.15,5.72,3.46,8.22,3.58,6.43,0-4.53-4.29-14.77-11-26.1-7.63-12.87-7.63-13-12.28-33.24C193.4,477.5,191.61,473.21,192.93,484.53Z" transform="translate(-55.65 -266.67)"/><path class="cls-1" d="M435.43,501.45c0,.6,2.38,4.41,5.36,8.46a112,112,0,0,1,8.82,14.54c3.93,8.1,13.83,22.88,22.76,34.32,3.7,4.53,6,8.82,6.08,10.72a33.89,33.89,0,0,0,1.67,8c1.67,4.76,1.67,4.76,1.07-3.58-.71-9.41-1.55-11-16.32-30.38-5.13-6.8-10.73-15-12.4-18.36C448.3,516.82,435.43,499,435.43,501.45Z" transform="translate(-55.65 -266.67)"/><path class="cls-1" d="M135.25,530.65c-.12,2.38,6.79,19.54,12,29.91l3.46,7-1.43,13.7c-.71,7.51-.95,15.61-.6,18s1.08,6.31,1.43,8.58c.84,6.79,2.75,11.44,5.49,13.82,2.86,2.62,3.09,3.57-1.79-8.46-2.27-5.6-2.27-6.91-1-24.43l1.31-18.47-8.11-17.88c-4.53-9.89-8.82-19.18-9.53-20.85C135.61,529.45,135.25,529.22,135.25,530.65Z" transform="translate(-55.65 -266.67)"/><g id="svgg"><path id="path0" class="cls-2" d="M115.36,671.49C93.49,672.82,98.88,664.09,75,737c-26.46,80.66-26.71,77.09,5.36,76l19.31-.66,5.58-6.69c5.49-6.57,7.31-10.81,11.3-26.3l2-7.77h13.63c7.5,0,13.64.58,13.64,1.29s-1.58,6.38-3.5,12.61c-4.79,15.53-4.44,22.26,1.28,25.14,5.88,2.94,125.16,3.56,140.1.73,7-1.32,11-1.32,12.31,0,2.6,2.6,32,2.52,39.53-.11,7-2.43,9.88-8.42,12.9-26.48L350.52,772l12.62.05c11.12,0,12.56.48,12.15,3.64-4.31,33.08-.35,38.36,27.57,36.8,10.71-.59,21-1,22.87-.9,4.56.24,89.65.56,99.46.37,4.27-.09,30.69-.17,58.71-.2s52.91-.11,55.31-.18,12.22.34,21.83.93c14.25.87,18.61.45,23.69-2.28,5.77-3.09,6.71-3.11,12.82-.21,10.13,4.81,90,3.83,92.77-1.14,1.81-3.21,2.15-3.21,7.06,0s21,4.14,46.09,2.7c3.2-.19,13.92.2,23.82.86,25.73,1.7,35.22-8.8,25.55-28.31-.79-1.6-2.07-7.09-2.83-12.2l-1.39-9.28,20.12.23c26.67.31,27.13.09,27.61-12.72.18-4.78-8.11-30-11.12-33.84-1.79-2.28-1.5-2.53,1.6-1.36a74.64,74.64,0,0,0,12.07,2.56c9.48,1.3,8-2.07,21.08,48.17,11.33,43.54,14.76,47.55,40.69,47.55,29.2,0,29.25-.23,11.81-55.8l-12.34-39.3h5.48c10,0,15.43-3.25,15.45-9.17,0-7.33-10-35.16-13.1-36.34-1.89-.73-75.76-1.34-93.66-.77-1.6.05-22.56.07-46.58,0s-45.41,0-47.55,0-22.66,0-45.61-.21-42.38-.25-43.18-.17c-1.69.18-101.9.21-103.34,0-3.8-.46-92.61-.07-93.71.41-.76.34-22.21.15-47.67-.41s-46.59-.51-47,.1-10.33.73-22.11.24c-22.92-.94-26,0-29.38,8.75-.94,2.49-3.32,4.45-5.38,4.45a8.69,8.69,0,0,0-5.89,2.65c-2.74,3.3-15.75-2.13-14.32-6,.95-2.54-8.83-12.65-11-11.34-.71.44-10,.9-20.62,1-23.45.29-107.07.57-112.49.37-37.05-1.36-44.05-.25-47,7.48-1.49,3.94-3.5,5.77-6.36,5.77a20,20,0,0,0-7.91,2c-4.52,2.42-13.46-2.58-13.5-7.56-.08-8.37-4.41-9.61-28.45-8.14m16.78,9c-2.93,7.7-2.4,8.6,5.11,8.6,5.61,0,6.77.62,5.81,3.09-4.42,11.53-4,12.74,3.93,12.09,6.9-.57,7.67-1.22,9.32-7.9s2.26-7.28,9.16-7.28c6.68,0,7.52-.58,9-6.31l1.64-6.3,17.69-.56,17.7-.56-1.68,6.38c-.93,3.51-2.65,10.09-3.82,14.63-1.94,7.48-2.7,8.25-8.19,8.25-5.73,0-5.88-.18-2.84-3.55,1.77-1.95,3.22-4.64,3.22-6s-2.19.17-4.86,3.34c-6.55,7.78-6.11,10.06,1.94,10.06,8.47,0,8.72-3.35-3.47,46.58L181.6,796.78l-19,.56c-17.5.51-18.95.28-18-2.91.56-1.91,2.36-8.71,4-15.11s4.68-17.54,6.76-24.75l3.78-13.1h-4.5c-3.58,0-4.75,1.35-5.73,6.58-.86,4.58-2.55,6.93-5.56,7.74-6.9,1.85-18.87,1.39-18.87-.73,0-1.07-1.31-1.94-2.91-1.94-3.44,0-3.48-.22-1-6.67,1.69-4.44,1.41-5-2.5-5s-5.08,2.32-10.78,21.83c-3.51,12-7.26,24.68-8.32,28.14L97,797.75H59.19l10.16-31.23c11.7-36,10.48-33.85,18-31.25,4.23,1.48,6,1.41,6.64-.26.53-1.39-1.32-2.35-4.75-2.48-3.09-.12-6.06-.65-6.6-1.19-.81-.81,11.25-41.16,15.68-52.46,1.13-2.88,4-3.39,18.54-3.39H134l-1.9,5m171.93,8.12-2.14,13.1-26.58,1c-25.48.93-26.6.81-27.13-2.91-.44-3.1-2.13-3.93-8.32-4.12l-7.76-.23,7.28.83c5.53.64,7.27,1.71,7.27,4.49,0,2,.85,4.17,1.88,4.81s1.36,3.75.73,6.91l-1.15,5.74h25.6c23.47,0,25.52.29,24.61,3.4s-5.09,25.4-5.09,27c0,.34-11.69.61-26,.61h-26L240,756.38c-1,5.5-1.78,6.5-3.27,4.36-1.65-2.36-1.82-2.34-1.15.14.51,1.9,3.76,3.12,9.36,3.52,11,.78,12.92,2.75,8.75,9.11-1.82,2.79-2.9,6.11-2.38,7.38s1,.84,1.09-1,1.92-4.52,4.08-6c2.47-1.73,3.47-3.94,2.71-5.94-1.08-2.79.76-3.18,15.11-3.18h16.33l-2.88,16.5-2.87,16.49H239.57c-24.9,0-45.3-.65-45.33-1.45-.29-8,14.82-62.62,17.38-62.74,1.68-.09,2.09-.56.91-1-2.53-1-2.12-4.1,4.54-34.23l5.05-22.8h84.09l-2.14,13.1m47.06-6.31c-.78,6.64-.65,6.79,6.14,6.79h6.94l-.75,7.89-.75,7.9,7.49-.62c7.13-.58,7.52-1,8.1-7.89.58-7.08.81-7.28,8.24-7.28s7.65-.18,7.65-6.79v-6.79h35.49l-1.28,13.1c-.71,7.2-1.84,20.08-2.52,28.62s-2.19,16.17-3.36,16.95c-1.37.92-1.41,1.44-.11,1.46,5,.07-2.58,36.84-7.59,36.89-.94,0-.62,1.31.7,2.9s3.27,2.36,4.33,1.7,1.38.51.46,3.42a38.75,38.75,0,0,0-1.24,10.91l.23,6.31H380.85l.9-6.31c.5-3.46,2-16.13,3.43-28.14l2.53-21.83h-4.52c-4,0-4.52.93-4.52,7.76V757H348.13l1.42-7.77c1.31-7.12,1.07-7.76-2.83-7.76s-4.46,1.49-6.64,17.95c-1.32,9.88-3,20.72-3.73,24.09L335,789.65l-7.28-2.51c-4-1.38-7.28-1.72-7.28-.74,0,1.87,1.56,2.55,10.12,4.42,3.64.79,4.93,2,4.16,4-1.2,3.13-37.57,4.46-37.57,1.38,0-7.79,12.07-67.53,13.76-68.09,1.35-.45,1.47-1.21.32-1.95s-.43-10.42,2-26l3.9-24.74h34.77l-.79,6.79m173.09,6.79v13.59H473.76v15.52H499c23.94,0,25.23.2,25.23,3.89,0,3-1.4,3.94-6.31,4.19l-6.3.31,6.3.78c6.26.78,6.31.87,6.31,11.41V749.4l-28-.27c-15.41-.15-28.95.3-30.08,1C463,752,463.64,757,467,757c1.62,0,2.91,1.72,2.91,3.88,0,4.22,2.67,4.5,37.36,3.89l15-.26v33.24H448l1.28-8c1-6.38.59-8.52-2.17-10.61-4.76-3.61-7.4-3.41-4.3.33,2.25,2.7,1.87,3-3.15,2.43-5.56-.64-5.71-.94-5.66-11.33s2.71-47.18,3.45-47.7c3.3-2.34,18.81-2.18,18.81.19,0,1.58.8,2.87,1.76,2.87s1.32-1.68.78-3.74c-1.11-4.24-7-7.26-8-4.13-.37,1.13-3.63,2-7.24,2H437l1.06-13.1c.59-7.2,1.36-15.28,1.71-17.95s.72-6.82.81-9.22l.16-4.36h83.45v13.58M627.08,683a85.06,85.06,0,0,0,1.21,13.58c1.5,7.5-9.54,9.6-11.48,2.19-.74-2.83-2.64-3.89-7-3.89-4.56,0-6-.86-6-3.61,0-2.92-1-3.4-5.34-2.48-4.87,1-5,1.18-1,1.81,2.4.37,4.37,1.92,4.37,3.45,0,1.88,2.2,2.77,6.79,2.77,4.75,0,6.79.88,6.79,2.92,0,2.34-3,2.91-15.52,2.91-11.11,0-15.54-.69-15.56-2.43s-.46-1.78-1.45-.27c-1.74,2.63-19.87,5.55-19.87,3.2,0-.92,1.05-2.72,2.33-4s1.49-2.33.47-2.33c-2.66,0-7,7.57-5.66,9.79.63,1,3.28,1.86,5.89,1.86h4.74v56.28h62.1v33H533.8l.25-23.29c.23-20.18.69-23.31,3.46-23.44,2-.1,2.31-.51.78-1.13-1.82-.74-2.43-10.14-2.43-37.69V675.49h91.22V683m95.95.72c2.36,17.74,6.91,54.75,6.91,56.2,0,.85-2.54,1.54-5.64,1.54-4.69,0-5.47.66-4.63,3.88.7,2.68,2.65,3.88,6.27,3.88h5.25l2.44,21.84c1.34,12,2.78,22.92,3.19,24.26.57,1.83-4,2.42-18.59,2.42-19.14,0-19.34,0-19.34-4.67,0-3.71.79-4.46,3.88-3.65,5.42,1.42,4.86-1.1-.71-3.22-4.2-1.6-4.71-3.23-6-19.36l-1.38-17.62H678.94l1.3,15c.72,8.27,1.82,19.18,2.46,24.25l1.16,9.22H644.55v-12.5c0-6.87.92-13.07,2.06-13.77,1.4-.87,1.18-2.32-.65-4.49-2.32-2.72-7.46-64.37-7.27-87.14l0-4.36h83.22l1.09,8.24m96,1.95c8.58,42.3,17.59,93.09,16.75,94.44-1.91,3.08-8.84,3.83-8.84,1a2.5,2.5,0,0,0-2.14-2.74c-1.19,0-1.62,1.39-1,3.08A17.51,17.51,0,0,1,825,786c0,.83,2.28,1.07,5.06.54,5.35-1,8.45,1.83,8.5,7.82,0,3-2.12,3.39-18.07,3.39h-18.1l-2.76-18-2.77-17.95-7.93-.58-7.93-.58L783,772.61c1.22,7.53,1.24,12.4.08,13.2s-2,3.34-2.14,5.86c-.27,4.37-.15,4.42,2.46,1s2.75-3.45,2.81.74-.75,4.36-12.56,4.36H761v-6c0-5.61.42-6,5.82-5.19,4.62.68,5.82.14,5.82-2.63,0-2.4-1-3.11-3.1-2.29a4.22,4.22,0,0,1-4.86-1.52c-1.36-2.11-2-1.73-3,1.77-.75,2.74-2.26,4.08-3.88,3.46-1.46-.56-2.65-.82-2.65-.58s.81,3.27,1.8,6.73c1.67,5.82,1.47,6.29-2.76,6.29-5.31,0-5.4-.29-9.67-33.88-4.22-33.1-4.8-30.71,7.23-29.53l10.19,1-10.87-2.05-10.88-2L737,704.81c-1.77-14.53-3.21-27.07-3.2-27.87s18.74-1.45,41.62-1.45H817l2.06,10.19m95.27-1.95c1.16,4.54,2.89,10.65,3.85,13.59l1.75,5.34h-9.67c-6.8,0-10-.86-10.78-2.91-.61-1.61-1.87-2.92-2.79-2.92s-1.17,1.31-.55,2.92c.93,2.41-1.21,2.91-12.68,2.91-14.85,0-15.21.34-12.12,11.37,1.28,4.54,1.53,4.58,26.72,4.28l25.42-.31,3.93,15.62,3.92,15.61h-26c-26,0-26,0-25,4.37.55,2.4,3.06,13.32,5.59,24.26l4.59,19.89H871.34c-10.53,0-19.14-.21-19.15-.48s-2.63-13.95-5.82-30.4c-7-35.87-6.87-32.83-1-31.7,2.67.52,4.85,0,4.85-1s-1.53-1.62-3.39-1.18a7.87,7.87,0,0,1-5.5-.66c-1.64-1.17-12.46-49.21-12.46-55.34,0-.8,18.75-1.45,41.66-1.45h41.65l2.11,8.24m96.83,3.78c5.37,15.87,5.72,15.15-7.58,15.15-6.4,0-11.64.54-11.64,1.22s3.5,12.6,7.79,26.51c4.34,14.11,7.29,27.1,6.67,29.35q-1.12,4,.59,1.58c1.15-1.65,3.67,3.94,7.66,17l5.94,19.44H982.87L975.77,773c-3.91-13.61-8.1-29.11-9.31-34.45A128.66,128.66,0,0,0,962.7,725c-.85-2.14-2.6-7.38-3.9-11.65-2.53-8.36-7.62-17-7.62-12.94,0,1.76-2.88,2.3-10,1.88-10.81-.63-12.09-2.26-16.11-20.55l-1.37-6.23h83.4l4.06,12M235.05,687c0,1-2,2.18-4.37,2.64-3.74.72-3.6.88,1,1.11,3.57.18,5.34-.7,5.34-2.65,0-1.6-.44-2.91-1-2.91s-1,.81-1,1.81m731.86-.5c-.11,1.26-1.73,2.69-3.6,3.17-2.68.7-2.52.94.76,1.12,2.29.12,4.66,1.53,5.28,3.13.72,1.87,3.39,2.8,7.48,2.6l6.37-.31-6-.75c-4.3-.55-6.54-2.22-8-6-1.14-2.88-2.16-4.21-2.28-3m-675.58,4.83c0,2.32.61,3.6,1.35,2.86,2.1-2.1,2.39-7.06.42-7.06-1,0-1.77,1.89-1.77,4.2m31.57-2.81a34.53,34.53,0,0,0,9.7,0c2.39-.46,0-.83-5.36-.81s-7.29.39-4.34.83m122.23,0a15.91,15.91,0,0,0,6.8,0c1.87-.49.34-.89-3.4-.89s-5.26.4-3.4.89m55.34,0a21,21,0,0,0,7.76,0c1.86-.48-.12-.86-4.39-.84s-5.79.42-3.37.88m157.69,2c0,2.4.84,4.36,1.91,4.36,2.43,0,2.43-2.06,0-5.82-1.52-2.35-1.89-2.07-1.91,1.46m29.59-2a34.6,34.6,0,0,0,9.71,0c2.38-.46,0-.83-5.37-.81s-7.29.39-4.34.83m119.35,0a21,21,0,0,0,7.77,0c1.85-.48-.12-.86-4.39-.84s-5.79.42-3.38.88m59.17,0a15.91,15.91,0,0,0,6.8,0c1.86-.49.34-.89-3.4-.89s-5.27.4-3.4.89m-747.18,5.82a15.87,15.87,0,0,0,6.79,0c1.87-.49.34-.89-3.39-.89s-5.27.4-3.4.89m39.59,4c-.86,3.47-2.37,6.31-3.35,6.31a1.87,1.87,0,0,0-1.79,1.94c0,1.07,2.62,1.94,5.82,1.94s5.82-.87,5.82-1.94a1.88,1.88,0,0,0-1.81-1.94c-1,0-2.11-2.84-2.47-6.31l-.65-6.31-1.57,6.31m182.43-3.95c5.21.66,6.29,1.75,7.36,7.46.69,3.67,2.09,6.68,3.11,6.68,2.32,0,2.33-1.1.06-5.36a46.06,46.06,0,0,1-2.85-6.77c-.75-2.43-2.88-3.31-7.42-3.09l-6.37.32,6.11.76m63.14-.07c1.8.47,3.83,3.42,4.52,6.54,1.27,5.79,4.16,9,6.24,6.91.63-.64-.17-2.69-1.78-4.57a26.36,26.36,0,0,1-4.13-6.8,5,5,0,0,0-4.66-3.17c-3.07.2-3.09.32-.19,1.09M482.19,696c-.63,1.65-.6,3.54.06,4.2s1.21-.19,1.21-1.9c0-2,2.14-3.38,6.31-3.89l6.31-.78-6.37-.32c-4.16-.2-6.76.73-7.52,2.69m223-1.66a15.91,15.91,0,0,0,6.8,0c1.86-.49.34-.89-3.4-.89s-5.27.4-3.4.89m51.92,3.36a26.05,26.05,0,0,1-1,7.38c-.77,2,1.11,2.81,7.22,3.17,8.77.52,14.06,4.66,7.34,5.75-2.1.34-3.83,1.82-3.83,3.29,0,1.72-2.91,2.92-8.25,3.4l-8.25.75,9.22.33,9.22.35v7.64c0,8.95.69,9.5,9.7,7.76,4.36-.84,5.23-1.4,2.43-1.57-2.47-.14-4.37-1.51-4.37-3.16,0-3.53,3.18-3.86,4.54-.49.78,1.94,1,1.94,1.13,0,.28-4.34,9.86-2.92,9.86,1.46q0,3.88,3.88,3.88c3.13,0,3.88-1.29,3.88-6.67,0-9.87-3.13-16.62-7.71-16.62-2.32,0-3.93-1.28-3.93-3.11,0-2.45,1.61-3,7.45-2.41l7.46.71-1.53-6.76c-1-4.62-.79-7.24.8-8.24,1.27-.81-2.09-1.49-7.48-1.51l-9.8,0,.84,7.19c.91,7.84-2.13,6.63-7.21-2.86-3.61-6.75-21.58-6.45-21.58.37m93.82-1.7c-.63,1.65-.6,3.54.06,4.2s1.21-.19,1.21-1.9c0-2,2.14-3.38,6.31-3.89l6.31-.78-6.37-.32c-4.17-.2-6.77.73-7.52,2.69m-134.46.31c-.18,3.45,4.13,12.22,6,12.22,2.32,0,2-3.41-.45-4.94-1.14-.7-2.84-3.16-3.76-5.45s-1.74-3.11-1.81-1.83m60,.91c0,1.25,1.45,3.87,3.22,5.82,3,3.35,2.93,3.55-1.72,3.55-4,0-5.1-1.11-5.79-5.82-.58-4,0-5.83,1.72-5.83a2.44,2.44,0,0,1,2.57,2.28m177.1-.94a15.87,15.87,0,0,0,6.79,0c1.87-.49.34-.89-3.4-.89s-5.26.4-3.39.89m-278,14.19v7.76h7.76c8.07,0,10-3.61,6.58-12.45-2.89-7.54-14.34-3.79-14.34,4.69m-303.24-2.6c3.88,1.57,2.81,6.65-2.43,11.5-2.67,2.48-4.79,6.07-4.72,8,.11,2.93,2.5-.45,4.62-6.51.05-.17,6,.31,13.14,1.06,9.82,1,13.28.75,14-1.12s-1.64-2.21-10.56-1.28l-11.51,1.21,1.7-5.95c1.87-6.51,1.08-8.26-3.6-8-2,.1-2.22.5-.64,1.13m373,1.37c3,2.95,2.44,8.41-.91,9.7-1.7.65-2.82,3.35-2.7,6.51l.2,5.4,2.11-5.34c1.16-2.93,2.82-5.34,3.68-5.34s1.56-2.91,1.56-6.46c0-4.52-.89-6.47-3-6.47s-2.35.62-1,2m-418.1,9.38a44,44,0,0,1-9.7,3.63c-5.6,1.34-5.64,1.42-.84,1.61C323,724.05,334,720.35,334,718s-2.06-2.13-6.73.58m304.64,19.12c1.67,25.57,5.23,22.57-25.72,21.63l-25.72-.77V718.31l20.86-.62c11.48-.34,22.74-.81,25-1,4-.39,4.22.67,5.56,21m72.26-20.3c-.63.63-4.48,2.34-8.57,3.8-4.78,1.71-6,2.67-3.34,2.73,5.58.12,16.3-3.78,16.3-5.93,0-2-2.65-2.34-4.39-.6m99.49,2.77c0,1.05,4.51,1.91,10,1.91,12,0,11.73-1-.81-2.61-5.55-.72-9.21-.45-9.21.7m-654.54,2.36c-.67,1.77-4,3.51-7.63,4l-6.42.8,6.13.31c5.1.25,6,.95,5.11,4.19-.59,2.25-.06,3.88,1.27,3.88s1.75-.86,1.1-1.9-.2-3.71,1-5.93,1.83-5,1.42-6.25-1.24-.92-2,.95m106.63.29a23.49,23.49,0,0,0-1.32,7,4.86,4.86,0,0,1-3.4,4.47c-2.55.67-2.31.94,1,1.11s4.37-.85,4.37-3.65c0-2.39,1.3-3.9,3.39-3.91s2.58-.58,1.27-1.46a9.17,9.17,0,0,1-3-4.24c-.72-2.22-1.19-2.09-2.24.65m643.58-.09c1,2.57,0,3.29-5,3.52l-6.24.29,5.81.85c3.2.47,6.46,1.87,7.25,3.11s1.45,0,1.46-3-1-5.85-2.24-6.62c-1.53-.94-1.86-.35-1,1.83m-478,1.28c0,1.07-2.4,2.07-5.34,2.21-5.24.26-5.25.28-.48,1.17,2.67.49,5.49,1.9,6.28,3.13s1.43-.1,1.45-3.11-.4-5.33-.94-5.33-1,.87-1,1.93m-69.87,10.54c0,1.22,1.75,2.22,3.89,2.22s3.88-.8,3.88-1.78,5.08-1.2,12.11-.4c6.67.75,11.48.73,10.69-.06-2.48-2.48-30.57-2.46-30.57,0m107.13-.84c5,.88,10,2.17,11.16,2.86s2,.12,2-1.28c0-1.76-3.43-2.64-11.16-2.86l-11.15-.32,9.12,1.6m-66.75,2.19c-4.06,2.5-1,3.3,7.17,1.87l7.76-1.37-6.26-1c-3.44-.55-7.35-.32-8.67.5m422.94,7.52a28.32,28.32,0,0,0,3.68,3.88c.2,0-.1-1.74-.66-3.88s-2.21-3.88-3.68-3.88c-2,0-1.89.91.66,3.88M83.4,751l-4.58,3.72,4.92,1.89c9.45,3.62,19.85.93,23.45-6.06l2.19-4.26-4.19,4.37c-6,6.21-24.22,6.69-18.61.49,4.46-4.93,2.78-5-3.18-.15m765.34.19c-3,4.89.3,6.58,12.83,6.47,8.88-.09,12.52-3,10.36-8.28-1-2.42-1.39-2.14-1.89,1.28-.56,3.79-1.8,4.37-9.47,4.37-7.86,0-8.71-.42-7.8-3.88,1.3-5-.88-5-4,0m-304.63-.65a15.91,15.91,0,0,0,6.8,0c1.86-.49.33-.89-3.4-.89s-5.27.4-3.4.89m106.26-.24c6.92,1.53,19.4,1.79,19.4.41,0-.83-5-1.41-11.16-1.28s-9.84.51-8.24.87m-245.8,18a105.06,105.06,0,0,1-1.42,11c-.84,4.34-.75,4.63.34,1.15.81-2.57,3.19-5.35,5.3-6.17s2.77-1.57,1.47-1.64-1.91-1.31-1.36-2.74a4.56,4.56,0,0,0-1.52-4.68c-1.95-1.62-2.58-.92-2.81,3.08m401.06.21c0,2.2-1.1,4-2.43,4.05s-.86,1.26,1.25,2.85c4.79,3.62,6.71,2.28,5.54-3.86s-4.36-8.4-4.36-3m-313.25,6.22c.56.91,2.64,1.65,4.62,1.65s4.1,1.1,4.7,2.43.89.68.63-1.45c-.34-2.75-2-3.94-5.73-4.08-2.88-.11-4.78.55-4.22,1.45m-277.66,11c-.56.56-1,2.4-1,4.09q0,3.06,1.46.84c.78-1.23,3.61-2.56,6.27-3l4.86-.74L221,785.84c-2.92-.61-5.75-.66-6.31-.1m224.15.78c5.35-.79,5.78-.41,5.78,5.19s-.48,6-6.79,6c-6.59,0-6.79-.22-6.64-7.27.08-4,.54-6.35,1-5.2s3.46,1.7,6.63,1.24m558.92-.79c.05,2.64,3.79,7.27,3.82,4.75,0-1.34,1.48-2.43,3.26-2.43s2.77-.47,2.21-1c-1.69-1.69-9.32-2.74-9.29-1.29m-609.42,3.11c0,1.77,1.36,2.37,3.88,1.71,2.14-.56,3.88-1.78,3.88-2.73s-1.74-1.71-3.88-1.71-3.88,1.23-3.88,2.73m217.36.18c0,1.6.93,2.91,2.06,2.91s1.55-.81.93-1.81S610,788,613,787.5c5-.76,5-.83-.93-1.1-4.45-.21-6.31.57-6.31,2.62m111.59.05c4.27,1.41,9.51,2.54,11.65,2.51s.38-1.21-3.88-2.61-9.51-2.54-11.65-2.51-.39,1.21,3.88,2.61m92.19-1c0,1.07,1.26,1.94,2.81,1.94s3.8,1.53,5,3.4c2,3.17,2.11,3.16,1.07-.16a24,24,0,0,1-1.12-5.34c0-1-1.75-1.78-3.88-1.78s-3.88.87-3.88,1.94" transform="translate(-55.65 -266.67)"/></g><polyline class="cls-1" points="292.62 398.97 312.21 427.54 324.64 419.69 334.28 417.59 336.62 407.11 350.69 398.97 294.6 398.97"/></svg>