<?xml version="1.0" standalone="no"?>
<!DOCTYPE svg PUBLIC "-//W3C//DTD SVG 20010904//EN"
 "http://www.w3.org/TR/2001/REC-SVG-20010904/DTD/svg10.dtd">
<svg version="1.0" xmlns="http://www.w3.org/2000/svg"
 width="1919.000000pt" height="607.000000pt" viewBox="0 0 1919.000000 607.000000"
 preserveAspectRatio="xMidYMid meet">
<metadata>
Created by potrace 1.16, written by Peter Selinger 2001-2019
</metadata>
<g transform="translate(0.000000,607.000000) scale(0.100000,-0.100000)"
fill="#000000" stroke="none">
<path d="M0 3035 l0 -3035 9595 0 9595 0 0 88 c-1 86 -1 87 -15 48 -17 -47
-59 -94 -102 -112 -26 -11 -113 -14 -418 -14 l-386 0 -24 24 c-30 30 -39 64
-26 97 5 15 140 136 323 289 172 146 325 277 340 293 34 36 38 93 9 128 -18
22 -28 24 -145 29 l-126 5 30 64 c39 81 81 135 120 151 75 31 213 -12 289 -90
59 -61 83 -121 89 -217 4 -75 2 -88 -22 -137 -29 -59 -43 -72 -294 -280 l-153
-126 255 0 256 0 0 2915 0 2915 -9595 0 -9595 0 0 -3035z m9482 2993 c73 -34
152 -112 186 -186 24 -50 27 -69 27 -162 0 -93 -3 -112 -27 -162 -54 -115
-161 -196 -290 -218 -251 -44 -483 190 -438 442 26 140 106 239 239 295 48 20
69 23 151 20 77 -2 106 -8 152 -29z m1588 -669 c357 -57 637 -343 716 -730 22
-110 15 -373 -14 -504 -39 -172 -125 -412 -208 -577 -19 -37 -35 -68 -37 -68
-1 0 -1 84 1 187 2 104 -2 225 -8 270 -33 252 -128 459 -277 605 -149 145
-335 230 -588 269 -105 16 -385 13 -505 -4 -52 -8 -96 -13 -98 -12 -8 7 42 89
98 163 224 298 585 455 920 401z m-3443 -53 c-12 -31 -36 -166 -48 -266 -27
-236 6 -749 62 -980 27 -108 87 -262 144 -365 235 -429 728 -883 1119 -1030
l59 -22 -69 -21 c-209 -63 -384 -92 -595 -99 -348 -12 -646 49 -956 197 l-121
58 -47 78 c-118 202 -254 518 -319 744 -77 272 -101 456 -93 725 6 203 18 279
68 430 112 337 375 525 788 564 8 0 11 -5 8 -13z m293 -11 c316 -52 653 -222
903 -455 77 -72 185 -199 221 -261 l19 -32 -44 27 c-148 91 -353 177 -524 220
-397 99 -682 39 -827 -174 -16 -24 -17 -18 -17 140 -1 179 10 310 35 435 27
130 24 128 92 120 31 -3 95 -13 142 -20z m2759 -572 c395 -64 643 -288 738
-668 27 -106 28 -120 28 -360 -1 -340 -10 -395 -95 -530 -144 -228 -339 -485
-539 -709 -132 -148 -449 -460 -585 -576 -157 -133 -400 -313 -384 -283 3 4
27 44 53 88 115 190 223 467 271 691 104 493 62 1004 -135 1626 -66 211 -75
254 -75 388 -1 126 26 272 54 300 17 17 129 37 280 51 109 9 269 2 389 -18z
m7190 -850 c29 -29 166 -281 565 -1035 289 -549 526 -1000 526 -1003 0 -12
-278 -4 -330 10 -92 24 -171 70 -237 137 -50 50 -83 101 -167 253 l-104 190
-318 5 -319 5 -5 76 c-9 125 -26 142 -244 248 -302 147 -382 227 -362 367 7
52 13 66 213 436 106 197 166 297 189 318 l35 30 260 0 260 0 38 -37z m-16634
-28 c203 -51 376 -213 458 -427 30 -79 31 -90 32 -228 0 -142 -1 -147 -35
-235 -45 -116 -93 -186 -183 -272 -83 -78 -185 -136 -278 -157 -41 -9 -160
-16 -326 -20 l-263 -7 0 236 0 235 238 0 c227 0 240 1 282 23 143 72 141 312
-4 378 -38 17 -72 19 -457 19 l-415 0 -60 36 c-68 40 -148 115 -172 159 -48
90 -27 187 50 226 86 45 118 47 608 48 384 1 476 -2 525 -14z m2319 -49 c149
-42 314 -172 394 -308 83 -142 113 -332 77 -493 -50 -228 -235 -437 -444 -505
-39 -12 -71 -24 -71 -26 0 -2 124 -160 276 -351 l276 -348 -187 -3 c-218 -3
-274 5 -372 53 -96 47 -171 122 -371 372 l-162 202 0 265 0 266 218 0 c120 0
234 5 255 11 84 23 146 111 147 207 0 100 -67 179 -171 201 -31 7 -200 11
-438 11 l-388 0 -61 39 c-266 173 -236 391 59 421 46 4 269 7 494 6 351 -2
419 -5 469 -20z m2177 14 c19 -5 47 -22 61 -37 20 -21 1088 -2023 1088 -2039
0 -9 -265 -3 -312 7 -117 25 -229 95 -302 189 -19 25 -78 125 -131 222 l-97
178 -316 2 -317 3 -6 71 c-4 52 -12 83 -33 118 -26 45 -35 50 -204 132 -250
121 -334 186 -368 283 -14 42 -5 108 24 174 35 78 343 642 361 660 38 39 87
46 306 47 116 0 226 -5 246 -10z m8027 -97 c-4 -77 -11 -111 -31 -156 -35 -77
-118 -158 -194 -189 l-58 -23 -578 -3 -579 -3 -46 23 c-62 31 -171 134 -193
183 -55 121 18 228 173 254 29 5 381 9 782 10 l729 1 -5 -97z m2310 -5 c-4
-76 -10 -116 -26 -151 -32 -71 -111 -149 -185 -183 -62 -28 -64 -29 -317 -35
-297 -7 -338 -16 -465 -101 -115 -76 -196 -189 -230 -319 -19 -71 -19 -220 0
-293 39 -148 150 -289 282 -359 116 -61 156 -67 432 -67 l246 0 53 -27 c72
-36 165 -123 191 -178 41 -87 19 -174 -56 -217 -69 -41 -160 -50 -463 -45
-271 4 -290 5 -385 31 -372 100 -653 381 -752 754 -23 84 -26 118 -27 252 0
130 3 169 22 242 50 191 125 328 256 465 138 145 285 234 474 288 128 37 200
42 596 44 l358 1 -4 -102z m-5974 -299 c79 -462 52 -891 -81 -1274 -72 -207
-261 -551 -354 -644 -32 -33 -169 -93 -279 -123 -103 -29 -277 -28 -416 1
-481 100 -1013 459 -1425 961 -91 110 -231 301 -225 307 1 2 32 -10 67 -26
161 -73 363 -129 564 -157 167 -23 490 -15 664 16 299 53 612 165 783 281 170
116 334 322 464 584 62 124 124 295 139 380 4 22 10 44 13 50 9 14 58 -190 86
-356z m-9921 -3 c32 -21 122 -67 200 -103 157 -72 181 -89 208 -148 18 -38 19
-83 19 -802 0 -420 -3 -763 -6 -763 -21 0 -465 238 -492 264 -19 17 -43 49
-55 71 -22 40 -22 42 -25 829 l-3 790 48 -50 c26 -27 74 -67 106 -88z m2311
-36 c26 -18 122 -68 211 -111 173 -84 206 -110 225 -177 10 -36 15 -1542 5
-1542 -2 0 -110 55 -240 121 -152 78 -248 134 -270 156 -67 69 -65 43 -65 901
l0 775 43 -45 c23 -25 64 -60 91 -78z m9710 -9 c26 -18 120 -68 209 -111 164
-78 197 -102 216 -153 11 -29 16 -1557 6 -1557 -23 0 -455 229 -488 259 -81
73 -77 17 -77 900 l0 785 43 -45 c24 -25 65 -60 91 -78z m3471 -460 c326 -154
371 -184 394 -267 7 -24 11 -146 11 -309 l0 -270 -64 60 c-76 74 -144 110
-450 240 -125 54 -242 110 -259 124 -54 45 -57 65 -57 355 l0 265 63 -28 c34
-16 197 -92 362 -170z m-1908 12 c-8 -127 -36 -193 -111 -269 -43 -43 -79 -68
-121 -85 -60 -24 -61 -24 -455 -24 l-395 0 -3 233 -2 232 546 0 547 0 -6 -87z
m3218 -59 c35 -24 137 -80 227 -124 155 -75 201 -107 227 -157 8 -15 11 -160
11 -478 l0 -456 -232 117 c-127 65 -245 129 -261 143 -16 14 -40 48 -53 76
l-24 50 0 465 1 465 20 -28 c12 -15 49 -48 84 -73z m-12080 -100 c35 -25 137
-80 227 -124 163 -78 207 -110 227 -163 7 -19 11 -185 11 -478 l0 -451 -237
122 c-131 67 -250 133 -265 147 -15 14 -36 46 -48 69 -19 42 -20 61 -20 511
l1 468 20 -28 c12 -15 49 -48 84 -73z m8863 -656 c-5 -121 -37 -196 -114 -268
-102 -97 -89 -95 -561 -98 l-413 -3 0 231 0 230 546 0 546 0 -4 -92z m1507
-1029 c-14 -18 -46 -74 -71 -125 -65 -135 -63 -134 -260 -134 -90 0 -164 2
-164 5 0 22 125 247 146 264 25 20 39 21 201 21 l175 0 -27 -31z m290 -2 c64
-33 128 -99 157 -162 18 -40 23 -68 23 -135 0 -136 -21 -162 -317 -405 l-147
-120 251 -3 250 -2 -4 -60 c-3 -47 -10 -67 -34 -96 -61 -75 -52 -74 -487 -74
l-389 0 -29 29 c-36 37 -38 79 -5 118 13 15 164 145 334 288 170 143 317 272
326 287 24 39 20 85 -9 113 -23 24 -30 25 -145 25 -66 0 -120 3 -120 6 0 23
89 170 118 195 34 30 38 31 106 27 50 -3 86 -13 121 -31z m890 -16 c-19 -27
-53 -87 -75 -134 -22 -47 -48 -91 -59 -96 -12 -7 -98 -11 -216 -11 l-196 0 63
123 c88 172 79 167 324 167 l194 0 -35 -49z m224 22 c51 -22 126 -98 152 -156
24 -51 24 -58 24 -357 0 -276 -2 -310 -19 -354 -24 -63 -86 -130 -151 -164
-49 -26 -54 -27 -235 -27 -214 0 -245 9 -324 89 -76 79 -81 102 -81 401 l0
260 115 0 115 0 3 -235 c3 -298 -8 -280 173 -280 180 0 169 -20 169 305 0 240
-1 254 -21 279 -19 24 -26 26 -105 26 -51 0 -84 4 -84 10 0 6 14 39 31 73 75
149 125 176 238 130z m837 -8 c-15 -19 -47 -78 -73 -130 -33 -69 -54 -100 -74
-111 -21 -10 -68 -14 -189 -14 l-160 0 65 130 c47 94 72 133 92 144 22 12 66
15 197 16 l168 0 -26 -35z m292 1 c113 -57 172 -150 180 -283 4 -75 2 -88 -23
-139 -24 -49 -51 -76 -236 -230 l-209 -174 255 0 255 0 0 -27 c0 -78 -53 -163
-117 -189 -25 -11 -117 -14 -418 -14 l-386 0 -24 24 c-30 30 -39 64 -26 97 5
15 140 136 323 289 172 146 325 277 341 293 33 36 37 93 8 128 -18 22 -28 24
-145 29 l-126 5 30 63 c36 76 74 128 109 148 40 23 144 13 209 -20z m878 -1
c-15 -19 -47 -78 -73 -130 -33 -69 -54 -100 -74 -111 -21 -10 -68 -14 -189
-14 l-160 0 65 130 c47 94 72 133 92 144 22 12 66 15 197 16 l168 0 -26 -35z"/>
<path d="M17417 3167 l-147 -262 291 -3 c161 -1 294 0 296 2 5 5 -279 526
-286 526 -3 0 -72 -119 -154 -263z"/>
<path d="M5337 3071 c-81 -142 -147 -261 -147 -265 0 -3 133 -6 296 -6 163 0
294 4 292 8 -13 33 -284 522 -288 522 -4 0 -72 -116 -153 -259z"/>
</g>
</svg>
