<svg xmlns="http://www.w3.org/2000/svg" viewBox="0 0 440.5 440.5"><defs><style>.cls-1,.cls-3{fill:none;}.cls-1,.cls-4{stroke:#fff;stroke-width:4px;}.cls-1,.cls-2,.cls-3,.cls-4{stroke-miterlimit:10;}.cls-2,.cls-5{fill:#fff;}.cls-2{stroke:#231f20;}.cls-3{stroke:#000;}.cls-5{font-size:110px;font-family:Impact;letter-spacing:0.04em;}</style></defs><g id="Layer_2" data-name="Layer 2"><g id="Layer_1-2" data-name="Layer 1"><rect class="cls-1" x="2" y="2" width="436.5" height="436.5"/><path class="cls-2" d="M74.22,150.62c6.75-6.52,10.08-14.05,8.63-23.23-1.63-10.32-7.49-17.41-17.37-20.61s-18.91-1-26.2,6.4c-7.49,7.67-9.37,17-5.62,26.95,3.65,9.71,11,15.19,21.44,16.32,1.61.18,2.4.53,2.76,2.36,5.55,28.06,11.23,56.1,16.83,84.16,1.43,7.17,3,14.34,3.91,21.59.86,6.59,2.86,12.53,7.39,17.42,3.15,3.41,6.87,6.34,9.65,10,4.73,6.23,9,12.86,13.29,19.39a4.67,4.67,0,0,1,.49,3c-.54,3.61-1.16,7.23-2,10.79a6.3,6.3,0,0,1-1.8,3.13A38.08,38.08,0,0,0,93,350a8.72,8.72,0,0,1-1.54,3.15c-4.23,5.9-5.69,12.21-2.45,19,3.13,6.52,8.36,10.76,15.2,13.09a332.91,332.91,0,0,0,88,17.15,329.13,329.13,0,0,0,60-2,332,332,0,0,0,67.12-15.47,15.72,15.72,0,0,0,5.18-3c8.39-7.39,9.55-18.15,3-27.42a6.5,6.5,0,0,1-1.34-4.31c.41-8.88-3-16.14-9.55-22.05a4.43,4.43,0,0,1-1.3-2.21c-.77-3.57-1.56-7.16-2-10.79a7.6,7.6,0,0,1,.89-4.44,131.15,131.15,0,0,1,9-13.91c3.69-4.68,8-8.85,12.13-13.19s7.1-9.26,8.17-15.18c.44-2.42.4-4.93.88-7.34q10.13-50.76,20.26-101.52c.44-2.2,1.25-2.89,3.37-3.09,14.47-1.33,24.59-14.85,22.37-29.72-2-13.67-16.12-23.61-29.74-20.87-10,2-16.95,7.91-19.95,17.64S340,141.82,347,149.12c1.08,1.11,1.29,1.79.39,3.16Q322.92,189.63,298.54,227c-.32.5-.75.94-1.41,1.76-.05-1-.09-1.55-.1-2.06q-.37-16.6-.73-33.21c-.43-20.65-.8-41.3-1.34-62-.06-2.31.34-3.29,2.72-3.95a25.37,25.37,0,0,0,17.92-30A25.69,25.69,0,0,0,286,77.9c-10.51,1.89-18.45,9.85-20.68,20.72-2,9.67,2.52,20.17,11.16,25.85,1.26.82,1.91,1.41,1.24,3.14Q260,173.72,242.34,219.88c-.24.62-.56,1.21-1,2.22-.25-.89-.36-1.23-.44-1.59q-10.32-49.8-20.68-99.59c-.44-2.12-.14-3,1.94-4a25.55,25.55,0,0,0-15.89-48.22C195,71,187.14,79.81,185.77,91.65c-1.2,10.3,5.1,21.07,15.14,25.47,1.86.81,2,1.7,1.65,3.35-.84,3.72-1.58,7.46-2.35,11.19q-7.76,37.51-15.53,75-1.58,7.59-3.18,15.15l-.42,0-36.77-96.09,1.76-1.16a25.63,25.63,0,0,0-18.39-46.74C116.32,79.8,107.17,89.81,106.59,101c-.67,13,6.84,23.68,19.07,26.92,1.67.44,2.11,1.07,2.07,2.69-.33,12-.59,24.08-.85,36.13q-.61,29.73-1.22,59.47c0,.75-.13,1.5-.25,2.87Z"/><path class="cls-3" d="M74.22,150.62,125.41,229c.12-1.37.23-2.12.25-2.87q.61-29.73,1.22-59.47c.26-12.05.52-24.09.85-36.13,0-1.62-.4-2.25-2.07-2.69-12.23-3.24-19.74-13.94-19.07-26.92.58-11.14,9.73-21.15,21.09-23.08a25.63,25.63,0,0,1,18.39,46.74l-1.76,1.16,36.77,96.09.42,0q1.59-7.58,3.18-15.15,7.77-37.51,15.53-75c.77-3.73,1.51-7.47,2.35-11.19.37-1.65.21-2.54-1.65-3.35-10-4.4-16.34-15.17-15.14-25.47C187.14,79.81,195,71,206.24,68.75A25.55,25.55,0,0,1,222.13,117c-2.08.94-2.38,1.83-1.94,4q10.42,49.77,20.68,99.59c.08.36.19.7.44,1.59.47-1,.79-1.6,1-2.22q17.68-46.14,35.39-92.27c.67-1.73,0-2.32-1.24-3.14-8.64-5.68-13.15-16.18-11.16-25.85C267.56,87.75,275.5,79.79,286,77.9A25.69,25.69,0,0,1,315.6,97.6a25.37,25.37,0,0,1-17.92,30c-2.38.66-2.78,1.64-2.72,3.95.54,20.65.91,41.3,1.34,62q.34,16.6.73,33.21c0,.51.05,1,.1,2.06.66-.82,1.09-1.26,1.41-1.76Q323,189.65,347.4,152.28c.9-1.37.69-2.05-.39-3.16-7.06-7.3-9.27-16-6.31-25.65s9.94-15.62,19.95-17.64c13.62-2.74,27.7,7.2,29.74,20.87,2.22,14.87-7.9,28.39-22.37,29.72-2.12.2-2.93.89-3.37,3.09q-10,50.78-20.26,101.52c-.48,2.41-.44,4.92-.88,7.34-1.07,5.92-4.08,10.84-8.17,15.18s-8.44,8.51-12.13,13.19a131.15,131.15,0,0,0-9,13.91,7.6,7.6,0,0,0-.89,4.44c.44,3.63,1.23,7.22,2,10.79a4.43,4.43,0,0,0,1.3,2.21c6.53,5.91,10,13.17,9.55,22.05a6.5,6.5,0,0,0,1.34,4.31c6.53,9.27,5.37,20-3,27.42a15.72,15.72,0,0,1-5.18,3,332,332,0,0,1-67.12,15.47,329.13,329.13,0,0,1-60,2,332.91,332.91,0,0,1-87.95-17.15c-6.84-2.33-12.07-6.57-15.2-13.09-3.24-6.77-1.78-13.08,2.45-19A8.72,8.72,0,0,0,93,350a38.08,38.08,0,0,1,12.67-21.67,6.3,6.3,0,0,0,1.8-3.13c.79-3.56,1.41-7.18,2-10.79a4.67,4.67,0,0,0-.49-3c-4.33-6.53-8.56-13.16-13.29-19.39-2.78-3.67-6.5-6.6-9.65-10-4.53-4.89-6.53-10.83-7.39-17.42-.94-7.25-2.48-14.42-3.91-21.59-5.6-28.06-11.28-56.1-16.83-84.16-.36-1.83-1.15-2.18-2.76-2.36-10.4-1.13-17.79-6.61-21.44-16.32-3.75-9.95-1.87-19.28,5.62-26.95,7.29-7.44,16.34-9.6,26.2-6.4s15.74,10.29,17.37,20.61C84.3,136.57,81,144.1,74.22,150.62Zm138.2,244.63A346.38,346.38,0,0,0,259,391.76a334.5,334.5,0,0,0,65.75-16.43c4.44-1.59,6.4-5.41,4.93-9.32s-5.39-5.37-9.69-3.83a317.87,317.87,0,0,1-129.38,18.37,303.58,303.58,0,0,1-60.51-9.87c-9.43-2.58-18.7-5.74-28-8.68-5.53-1.74-10.45,2.33-9.4,7.9.6,3.17,2.91,4.63,5.75,5.65A337.39,337.39,0,0,0,212.42,395.25Zm113-105.62c.15-3.59-1.81-5.94-6.18-7.43A333.06,333.06,0,0,0,217,264.3a328.73,328.73,0,0,0-93.55,11.79c-7.13,2-14.17,4.23-21.19,6.54-4.73,1.56-6.51,6.51-4,10.46,1.92,3,5.18,3.89,9.33,2.46a319.23,319.23,0,0,1,191.5-5c5.66,1.64,11.25,3.54,16.88,5.29C320.81,297.35,325.26,294.41,325.45,289.63ZM214.81,364c14.55.15,32.41-1.41,50.16-4.28a320.58,320.58,0,0,0,50.63-12.42c4.2-1.41,6.16-5.16,4.85-9s-5.08-5.61-9.29-4.24a319.32,319.32,0,0,1-83,15.5c-26,1.33-51.77-.1-77.22-5.4-13.28-2.77-26.32-6.65-39.45-10.14-4.64-1.23-8.58.8-9.47,5.2-.78,3.85,1.38,6.89,6,8.37C141.57,358.5,176,364.06,214.81,364Zm-3.54-44.4h91.14a23.56,23.56,0,0,0,3.36-.16,6.7,6.7,0,0,0,5.67-6.3c.24-4.71-2.92-7.53-8.47-7.53q-91.58,0-183.17,0a14.55,14.55,0,0,0-3.55.35,6.83,6.83,0,0,0-4.79,8.58c1,3.46,3.54,5.06,8,5.06Z"/><path d="M212.42,395.25a337.39,337.39,0,0,1-114-19.7c-2.84-1-5.15-2.48-5.75-5.65-1-5.57,3.87-9.64,9.4-7.9,9.33,2.94,18.6,6.1,28,8.68a303.58,303.58,0,0,0,60.51,9.87A317.87,317.87,0,0,0,320,362.18c4.3-1.54,8.25,0,9.69,3.83s-.49,7.73-4.93,9.32A334.5,334.5,0,0,1,259,391.76,346.38,346.38,0,0,1,212.42,395.25Z"/><path d="M325.45,289.63c-.19,4.78-4.64,7.72-9.47,6.22-5.63-1.75-11.22-3.65-16.88-5.29a318.66,318.66,0,0,0-191.5,5c-4.15,1.43-7.41.56-9.33-2.46-2.5-3.95-.72-8.9,4-10.46,7-2.31,14.06-4.58,21.19-6.54A328.73,328.73,0,0,1,217,264.3a333.06,333.06,0,0,1,102.25,17.9C323.64,283.69,325.6,286,325.45,289.63Z"/><path d="M214.81,364c-38.79.07-73.24-5.49-106.85-16.36-4.58-1.48-6.74-4.52-6-8.37.89-4.4,4.83-6.43,9.47-5.2,13.13,3.49,26.17,7.37,39.45,10.14,25.45,5.3,51.25,6.73,77.22,5.4a319.32,319.32,0,0,0,83-15.5c4.21-1.37,8,.39,9.29,4.24s-.65,7.54-4.85,9A320.58,320.58,0,0,1,265,359.71C247.22,362.58,229.36,364.14,214.81,364Z"/><path d="M211.27,319.59h-91.8c-4.47,0-7-1.6-8-5.06a6.83,6.83,0,0,1,4.79-8.58,14.55,14.55,0,0,1,3.55-.35q91.59,0,183.17,0c5.55,0,8.71,2.82,8.47,7.53a6.7,6.7,0,0,1-5.67,6.3,23.56,23.56,0,0,1-3.36.16Z"/><circle class="cls-4" cx="340.43" cy="100.19" r="73.53"/><text class="cls-5" transform="translate(306.33 141.95)">!!</text></g></g></svg>