<?xml version="1.0" standalone="no"?>
<!DOCTYPE svg PUBLIC "-//W3C//DTD SVG 20010904//EN"
 "http://www.w3.org/TR/2001/REC-SVG-20010904/DTD/svg10.dtd">
<svg version="1.0" xmlns="http://www.w3.org/2000/svg"
 width="532.000000pt" height="411.000000pt" viewBox="0 0 532.000000 411.000000"
 preserveAspectRatio="xMidYMid meet">
<metadata>
Created by potrace 1.16, written by Peter Selinger 2001-2019
</metadata>
<g transform="translate(0.000000,411.000000) scale(0.100000,-0.100000)"
fill="#000000" stroke="none">
<path d="M3030 3176 l0 -313 90 -12 c285 -36 567 -204 720 -426 174 -253 201
-589 70 -861 -100 -207 -304 -392 -530 -482 -67 -27 -212 -63 -312 -77 l-38
-6 0 -294 c0 -173 4 -296 9 -300 20 -12 236 16 276 36 69 34 80 58 83 190 l4
117 81 32 c45 17 119 52 164 76 46 24 87 44 93 44 5 0 55 -29 111 -65 116 -74
152 -84 199 -60 40 21 259 219 283 256 21 33 25 106 7 141 -7 12 -46 65 -87
115 l-75 93 35 82 c19 46 38 93 42 105 4 14 17 25 33 29 15 3 56 14 92 24 36
10 87 23 114 29 75 18 143 57 163 94 15 27 18 57 18 184 0 138 -2 154 -21 180
-35 47 -90 70 -224 93 -69 11 -132 23 -140 25 -9 3 -22 26 -29 53 -6 26 -30
89 -53 139 l-40 93 72 77 c89 95 110 128 110 173 0 57 -28 94 -163 215 -173
154 -189 157 -334 48 -108 -81 -99 -78 -142 -50 -50 34 -213 110 -278 132
l-53 17 0 139 c0 216 -12 229 -220 229 l-130 0 0 -314z"/>
<path d="M1380 3434 c-14 -3 -56 -12 -95 -21 -208 -48 -361 -176 -466 -388
-51 -104 -57 -125 -36 -125 6 0 36 49 65 109 86 178 203 288 375 354 81 31 85
31 257 32 167 0 178 -2 250 -28 85 -32 108 -36 111 -22 9 45 -337 112 -461 89z"/>
<path d="M1375 3146 c-163 -37 -296 -137 -367 -273 -25 -47 -30 -65 -21 -74 9
-9 19 3 41 48 93 183 278 283 521 283 58 0 124 -5 146 -10 43 -10 68 6 37 25
-28 16 -288 16 -357 1z"/>
<path d="M2910 1909 c0 -797 3 -1198 10 -1194 7 4 10 415 10 1201 0 789 -3
1194 -10 1194 -7 0 -10 -407 -10 -1201z"/>
<path d="M1535 2890 c-115 -23 -234 -92 -326 -187 -117 -122 -165 -260 -156
-454 4 -87 9 -117 31 -164 49 -107 36 -147 -109 -340 -261 -346 -354 -534
-362 -735 -5 -118 10 -175 69 -264 93 -141 372 -276 568 -276 96 1 214 25 264
54 92 54 177 179 231 341 50 148 116 275 184 348 14 16 49 41 76 55 l50 27
378 3 c378 3 378 3 375 24 -3 21 -4 21 -362 19 -371 -2 -395 -5 -477 -47 -80
-40 -188 -213 -255 -405 -100 -289 -206 -377 -454 -380 -160 -3 -363 79 -486
194 -167 156 -172 355 -18 646 53 99 111 187 247 370 154 208 170 258 120 367
-23 50 -28 75 -31 169 -7 194 36 314 152 431 142 142 338 203 528 163 110 -23
248 -118 311 -212 l19 -28 291 2 c365 3 417 6 417 25 0 12 -55 14 -350 14
l-349 0 -15 29 c-41 79 -211 189 -326 211 -61 12 -177 11 -235 0z"/>
<path d="M1567 2689 c-105 -25 -214 -104 -256 -188 -30 -57 -51 -146 -51 -211
0 -83 34 -228 68 -295 78 -153 264 -311 572 -488 165 -95 178 -97 573 -97 211
0 327 4 327 10 0 6 -114 10 -323 10 -191 0 -348 4 -383 11 -62 11 -183 74
-343 177 -293 188 -419 337 -457 542 -35 185 1 329 107 424 68 61 141 88 255
94 149 7 246 -29 354 -134 36 -34 78 -67 93 -73 38 -14 697 -15 697 -1 0 6
-121 10 -342 10 -387 0 -350 -7 -444 87 -108 107 -294 158 -447 122z"/>
<path d="M3036 2479 l-26 -20 0 -509 0 -509 24 -28 c20 -24 31 -28 69 -26 51
2 170 49 237 93 349 232 349 694 -2 920 -70 46 -204 100 -246 100 -16 0 -41
-9 -56 -21z"/>
<path d="M1687 2484 c-4 -4 -7 -46 -7 -94 l0 -86 48 -47 c26 -26 53 -47 58
-47 6 0 32 22 58 50 l47 50 -3 87 -3 88 -95 3 c-53 1 -99 0 -103 -4z m173 -96
c0 -79 -1 -83 -32 -115 -18 -18 -36 -33 -42 -33 -6 0 -27 17 -48 37 -37 36
-38 39 -38 108 0 40 3 75 7 78 3 4 39 7 80 7 l73 0 0 -82z"/>
<path d="M1472 2272 c-9 -6 -12 -34 -10 -103 l3 -94 92 -3 93 -3 45 42 c25 23
45 49 45 59 0 9 -22 38 -50 64 l-49 46 -78 0 c-43 0 -84 -4 -91 -8z m213 -62
l38 -39 -40 -41 c-40 -40 -41 -40 -117 -40 l-76 0 0 80 0 80 78 0 c78 0 78 0
117 -40z"/>
<path d="M1870 2234 c-28 -26 -50 -52 -50 -58 0 -7 22 -33 48 -59 l49 -48 89
3 89 3 3 94 c2 69 -1 97 -10 103 -7 4 -48 8 -91 8 l-78 0 -49 -46z m210 -64
l0 -80 -77 0 c-75 0 -78 1 -115 37 -21 20 -38 42 -38 47 0 6 14 25 32 43 31
32 34 33 115 33 l83 0 0 -80z"/>
<path d="M1721 2085 l-42 -45 3 -93 3 -92 94 -3 c69 -2 97 1 103 10 4 7 8 49
8 93 l0 80 -45 48 c-24 26 -53 47 -63 47 -11 0 -38 -20 -61 -45z m149 -134 l0
-71 -85 0 -85 0 0 74 c0 73 0 75 41 117 l41 43 44 -46 c43 -46 44 -48 44 -117z"/>
<path d="M2125 1826 c-97 -44 -120 -176 -43 -247 94 -89 252 -18 250 112 -2
104 -115 178 -207 135z m133 -34 c53 -34 69 -127 31 -176 -50 -63 -128 -74
-184 -25 -122 108 16 291 153 201z"/>
</g>
</svg>
