<?xml version="1.0" standalone="no"?>
<!DOCTYPE svg PUBLIC "-//W3C//DTD SVG 20010904//EN"
 "http://www.w3.org/TR/2001/REC-SVG-20010904/DTD/svg10.dtd">
<svg version="1.0" xmlns="http://www.w3.org/2000/svg"
 width="489.000000pt" height="489.000000pt" viewBox="0 0 489.000000 489.000000"
 preserveAspectRatio="xMidYMid meet">
<metadata>
Created by potrace 1.16, written by Peter Selinger 2001-2019
</metadata>
<g transform="translate(0.000000,489.000000) scale(0.095508,-0.095508)"
fill="#000000" stroke="none">
<path d="M3515 4994 c-38 -8 -113 -36 -165 -61 -79 -38 -108 -59 -180 -132
-69 -69 -94 -102 -127 -171 -22 -47 -44 -93 -47 -104 -6 -16 -13 -18 -54 -12
-235 33 -460 32 -667 -4 -89 -15 -125 -26 -142 -42 -25 -23 -29 -57 -13 -88
21 -39 43 -42 167 -20 230 40 486 36 711 -10 108 -22 242 -60 242 -69 -1 -3
-62 -26 -136 -50 -180 -59 -441 -191 -521 -264 -29 -26 -31 -86 -5 -110 31
-28 78 -21 141 22 196 133 542 267 741 287 53 6 59 4 137 -44 100 -60 189
-124 271 -192 63 -52 74 -70 47 -70 -39 0 -275 -89 -410 -154 -278 -134 -540
-313 -805 -550 -86 -76 -98 -109 -55 -151 40 -41 73 -33 151 36 380 337 795
580 1141 668 121 31 130 29 183 -35 85 -104 86 -87 -12 -216 -217 -285 -569
-692 -869 -1004 l-87 -91 -101 -7 c-234 -16 -488 -67 -696 -140 l-99 -34 -151
156 c-384 398 -707 767 -982 1124 -46 58 -83 110 -83 114 0 16 153 194 228
266 164 156 329 270 522 360 140 65 133 61 150 91 19 34 4 77 -34 96 -24 11
-36 12 -65 1 -38 -13 -236 -111 -307 -151 l-42 -23 -73 52 c-429 303 -756 438
-901 374 -25 -11 -58 -36 -74 -57 -24 -32 -29 -49 -32 -109 -9 -164 97 -400
340 -758 l99 -147 -60 -108 c-138 -247 -222 -517 -256 -825 l-6 -58 -59 -31
c-75 -40 -153 -122 -188 -196 -24 -52 -27 -69 -27 -173 0 -104 3 -120 27 -173
35 -74 123 -166 192 -201 30 -15 81 -33 115 -39 34 -6 61 -16 61 -20 0 -22 95
-231 145 -321 l56 -98 -99 -147 c-247 -365 -349 -591 -340 -756 3 -61 8 -78
32 -110 117 -153 399 -70 901 267 l149 101 41 -23 c347 -194 646 -282 1010
-297 223 -8 520 28 565 69 30 28 24 84 -11 110 -26 19 -27 19 -155 -3 -103
-18 -167 -23 -319 -23 -166 -1 -350 15 -378 31 -5 3 22 26 60 51 98 65 267
240 333 345 92 146 166 249 233 321 l63 70 145 -125 c143 -124 334 -279 457
-373 34 -26 59 -52 56 -58 -4 -6 -64 -38 -135 -73 -71 -34 -136 -68 -144 -75
-21 -18 -19 -83 3 -103 32 -29 78 -20 206 42 66 33 142 72 167 87 l47 28 158
-106 c327 -219 540 -321 695 -335 102 -9 177 25 214 97 70 139 -36 418 -321
837 l-103 153 50 85 c197 334 300 786 270 1178 -18 222 -73 460 -148 642 -32
77 -116 244 -148 295 l-25 39 104 153 c219 324 345 593 346 738 0 80 -59 168
-128 188 -22 7 -60 12 -85 12 -51 0 -199 -40 -257 -70 -51 -26 -56 -25 -69 11
-6 17 -31 62 -56 99 -155 234 -445 352 -720 294z m325 -166 c129 -47 236 -139
300 -259 16 -31 30 -61 30 -66 0 -6 -23 -23 -52 -38 -29 -16 -127 -79 -218
-140 l-165 -111 -90 53 c-105 62 -287 141 -412 179 -48 15 -90 28 -92 30 -2 2
12 36 31 76 72 151 215 262 383 299 70 15 213 3 285 -23z m-3112 -344 c110
-36 302 -139 481 -257 l154 -101 -54 -45 c-92 -78 -238 -223 -301 -299 -33
-40 -64 -70 -69 -66 -5 3 -36 45 -69 94 -138 205 -243 398 -286 524 -23 66
-32 155 -17 169 14 15 88 6 161 -19z m3943 2 c23 -49 -32 -211 -132 -391 -70
-126 -238 -385 -249 -385 -4 0 -32 30 -62 68 l-54 67 38 50 c92 121 138 262
138 422 l0 103 39 20 c67 33 184 69 229 70 35 0 44 -4 53 -24z m-473 -223 c-3
-52 -13 -99 -31 -142 -29 -71 -86 -161 -103 -161 -5 0 -23 14 -40 31 -16 17
-57 53 -92 81 l-62 50 57 41 c61 43 265 176 272 177 2 0 1 -35 -1 -77z m174
-990 c72 -153 148 -393 135 -428 -7 -17 -167 -136 -252 -187 -173 -104 -395
-194 -585 -237 -100 -23 -283 -52 -289 -46 -2 2 66 80 150 172 287 314 478
537 661 774 l92 119 24 -43 c14 -23 42 -79 64 -124z m-3275 -20 c237 -300 499
-597 888 -1009 66 -70 115 -129 109 -131 -71 -24 -418 -243 -434 -274 -16 -29
-11 -68 10 -89 35 -35 70 -25 183 50 109 73 351 204 366 198 4 -2 70 -63 147
-135 l138 -133 -29 -31 c-120 -127 -690 -610 -948 -803 l-37 -28 -93 75 c-50
42 -122 106 -159 144 l-67 68 70 85 c38 47 119 135 179 197 87 89 110 118 110
140 0 61 -55 96 -108 69 -32 -16 -157 -145 -270 -279 -58 -67 -78 -85 -88 -76
-29 24 -139 206 -194 322 -82 171 -81 159 -15 192 80 39 151 114 192 202 33
73 34 73 73 73 104 0 457 63 511 91 9 4 22 21 28 38 10 24 10 34 -3 60 -22 42
-50 46 -148 22 -111 -28 -235 -48 -339 -57 l-86 -7 -6 39 c-26 152 -189 307
-347 329 -44 6 -49 9 -45 28 2 12 7 48 10 81 l7 58 31 -6 c153 -31 361 -57
386 -49 33 12 51 37 51 70 0 45 -28 70 -87 78 -108 13 -251 35 -300 45 l-52
11 16 52 c36 126 69 211 129 335 35 72 68 132 72 132 4 0 71 -80 149 -177z
m3456 -797 c-1 -171 -16 -326 -43 -425 l-10 -38 -182 -6 c-535 -18 -976 -154
-1311 -404 -31 -24 -62 -43 -68 -43 -6 0 -55 41 -110 92 l-100 92 242 242 242
243 76 6 c342 27 598 91 856 214 119 57 259 140 345 204 38 29 46 32 54 19 5
-9 9 -97 9 -196z m-3800 -22 c60 -20 129 -82 157 -141 28 -58 32 -159 8 -214
-22 -50 -83 -116 -132 -142 -58 -31 -184 -31 -241 0 -92 49 -144 137 -145 243
0 187 177 314 353 254z m2127 -350 c-63 -63 -149 -146 -190 -184 l-75 -68
-119 115 c-85 82 -115 117 -106 123 40 24 320 93 470 115 149 22 148 28 20
-101z m1555 -311 c-14 -37 -27 -68 -28 -70 -2 -1 -67 -9 -145 -17 -294 -31
-498 -81 -534 -131 -15 -20 -8 -75 12 -95 26 -26 43 -25 134 4 75 25 263 59
390 72 l69 7 -28 -49 c-121 -209 -332 -451 -507 -583 l-56 -42 -114 87 c-198
152 -568 462 -568 475 0 14 181 129 280 179 289 144 640 224 1007 229 l113 1
-25 -67z m-1710 -247 l99 -94 -59 -64 c-77 -82 -141 -167 -211 -282 -73 -117
-140 -201 -217 -272 -69 -63 -209 -158 -275 -188 l-44 -20 -70 24 c-73 25
-270 117 -301 141 -16 13 -14 17 35 54 204 155 529 429 788 663 80 73 147 132
150 132 3 -1 50 -43 105 -94z m-1581 -551 c67 -66 143 -139 170 -160 l49 -40
-129 -86 c-291 -194 -525 -304 -627 -297 l-42 3 -3 48 c-4 64 25 152 99 297
55 108 199 343 257 419 l25 34 41 -49 c22 -27 94 -103 160 -169z m3243 78
c159 -241 255 -430 283 -556 24 -105 -6 -125 -133 -92 -119 31 -365 163 -574
308 l-93 64 62 49 c82 64 241 223 302 302 27 34 52 62 56 62 3 0 47 -62 97
-137z"/>
<path d="M1640 4950 c-14 -14 -20 -33 -20 -65 0 -76 65 -112 121 -66 31 25 34
98 5 130 -25 27 -79 28 -106 1z"/>
<path d="M4540 4950 c-36 -36 -21 -102 27 -121 35 -13 77 4 92 37 16 35 14 48
-10 78 -26 33 -79 36 -109 6z"/>
<path d="M4732 4843 c-12 -10 -24 -30 -28 -45 -5 -22 0 -33 24 -58 36 -35 60
-38 96 -9 52 41 23 129 -43 129 -16 0 -38 -8 -49 -17z"/>
<path d="M1513 4820 c-45 -18 -55 -72 -22 -114 16 -21 29 -26 64 -26 49 0 81
22 91 62 5 22 0 33 -24 58 -31 31 -66 37 -109 20z"/>
<path d="M1768 4810 c-21 -16 -28 -30 -28 -56 0 -49 29 -74 85 -74 54 0 85 25
85 69 0 67 -87 105 -142 61z"/>
<path d="M2760 4813 c-51 -19 -68 -85 -30 -123 30 -30 83 -27 109 6 27 34 26
57 -1 88 -25 26 -54 37 -78 29z"/>
<path d="M1646 4689 c-22 -17 -26 -28 -26 -69 0 -41 4 -52 26 -69 31 -24 43
-26 78 -10 30 14 50 65 40 103 -7 30 -48 66 -74 66 -10 0 -29 -9 -44 -21z"/>
<path d="M1950 3879 c-98 -9 -151 -23 -231 -65 -322 -169 -240 -519 144 -609
80 -19 244 -19 326 0 156 37 290 138 326 244 82 249 -196 461 -565 430z m215
-163 c227 -60 284 -212 117 -312 -137 -82 -360 -86 -503 -7 -73 39 -101 74
-107 131 -4 46 -2 52 32 90 40 44 98 76 174 97 62 17 225 18 287 1z"/>
<path d="M2373 2834 c-50 -53 -93 -107 -96 -120 -10 -53 47 -103 96 -85 13 5
63 52 110 105 96 105 104 130 62 171 -45 46 -70 36 -172 -71z"/>
<path d="M359 2839 c-25 -9 -49 -45 -49 -73 0 -7 9 -25 21 -40 41 -52 129 -23
129 43 0 54 -50 88 -101 70z"/>
<path d="M170 1740 c-14 -14 -20 -33 -20 -65 0 -56 25 -85 73 -85 47 0 72 30
72 87 0 35 -5 49 -24 64 -30 25 -76 24 -101 -1z"/>
<path d="M45 1609 c-50 -29 -60 -82 -22 -117 32 -30 106 -31 132 -2 24 27 23
76 -1 101 -25 24 -82 34 -109 18z"/>
<path d="M320 1613 c-49 -18 -66 -76 -34 -121 21 -30 104 -32 134 -2 38 38 22
100 -31 119 -34 12 -46 12 -69 4z"/>
<path d="M4870 1607 c-39 -20 -55 -62 -41 -108 29 -97 141 -71 141 33 0 65
-48 101 -100 75z"/>
<path d="M200 1493 c-36 -13 -50 -36 -50 -84 0 -70 45 -106 105 -83 26 10 48
62 41 99 -9 48 -57 82 -96 68z"/>
<path d="M4706 1449 c-58 -46 -17 -129 64 -129 71 0 107 81 57 128 -30 28 -85
29 -121 1z"/>
<path d="M4979 1457 c-31 -24 -42 -56 -28 -88 14 -36 36 -49 84 -49 44 0 85
37 85 75 0 39 -41 75 -87 75 -21 0 -45 -6 -54 -13z"/>
<path d="M4862 1343 c-18 -7 -42 -57 -42 -88 0 -16 12 -38 30 -57 25 -24 36
-29 58 -23 46 11 62 33 62 86 0 39 -4 51 -26 68 -26 20 -55 25 -82 14z"/>
<path d="M1381 373 c-11 -10 -24 -32 -27 -50 -13 -67 77 -110 124 -60 31 33
29 80 -4 106 -33 26 -65 27 -93 4z"/>
<path d="M1736 229 c-34 -27 -35 -71 -1 -104 13 -14 36 -25 50 -25 33 0 75 42
75 75 0 33 -41 75 -73 75 -13 0 -36 -9 -51 -21z"/>
</g>
</svg>
