<svg xmlns="http://www.w3.org/2000/svg" viewBox="0 0 343.01 324.96"><title>Layer 2</title><g id="a5988b6e-c694-4aa5-97fd-950ee2226712" data-name="Layer 2"><g id="e3cc6635-0e4d-4689-b25e-e1212b51ea15" data-name="Layer 2"><path d="M184.46,50.2c-6.32-1.52-11.77-2.86-17.23-4.13-3.72-.87-6.66.56-7.42,3.51-.87,3.39.81,6,4.79,7.07,5.81,1.6,11.67,3,17.48,4.65,5.53,1.52,6.31,2.88,5.55,9.87-3.09-.8-6.1-1.64-9.14-2.35s-6-1.44-9.05-1.88-5.71.27-6.51,3.8.83,5.69,4.63,6.7c6.22,1.65,12.46,3.23,18.67,4.92,5.23,1.43,6.13,3.08,5.12,9.4-5.85-1.37-11.67-2.8-17.52-4.07-4.59-1-7.21.33-8,3.76s1.35,5.76,6,6.88c6.77,1.64,13.47,3.58,20.24,5.24,3.49.86,2.59,3.38,2.82,6.18-5.08-1.13-9.73-2.19-14.4-3.18a47.42,47.42,0,0,0-6.34-1.07,5.31,5.31,0,0,0-2.35,10.24,70.43,70.43,0,0,0,7.4,1.74c5.47,1.34,11,2.39,16.35,4.2,4.14,1.41,2.4,5.48,3.26,9.12-5.86-1.24-11.05-2.35-16.24-3.43-1.32-.27-2.64-.51-4-.68-4-.48-6.49,1-7.12,4.17s1.6,5.78,5.5,6.64c6.54,1.45,13.1,2.83,19.61,4.38,5.08,1.22,6.23,3.35,5.13,9.48-4.92-1.06-9.84-2.15-14.77-3.18-2-.42-3.95-.82-5.95-1.05-3.47-.4-6.09,1.46-6.55,4.48s1.5,5.44,4.94,6.21c6.8,1.53,13.61,3,20.39,4.63,5.69,1.37,6.16,2.17,5.74,9.19-1.28-.21-2.53-.35-3.76-.61-5-1-9.95-2.23-15-3.1-4-.68-6.55,1-7.09,4.15-.6,3.42,1.37,5.75,5.4,6.62,6.16,1.31,12.28,2.81,18.45,4,2.92.58,4,2,3.82,5-1,18.6-8,34.63-20.35,48.39-12.08,13.49-27.17,22.53-43.85,29.18-6.75,2.69-6.3.81-6.32,9,0,12.49.1,25-.07,37.47-.12,8.15-5.82,13.47-13.6,13.17-6.88-.27-12-5.87-12.07-13.52-.1-11,0-22,0-33,0-5.17,0-5.2-5.35-5.06-21.34.57-41.32-3.87-59.15-16.13a60.32,60.32,0,0,1-16.53-16.86,8.17,8.17,0,0,0-4.47-3.17c-5.37-1.36-7.29-6.33-3.89-10.8,2.94-3.87,1.7-8.74-2.65-10.38s-5.53-6.8-2.28-10.56c3.54-4.1,2.9-7.87-1.75-10.29-4.26-2.23-5-6.7-1.79-10.42,3.79-4.35,3.09-9.89-1.62-12.86-3.73-2.35-4.57-6.76-1.18-9.9,3.63-3.36,1.71-6.93,1.39-10.48,0-.55-1.34-1.08-2.13-1.47-4.89-2.4-5.81-6.84-2.21-10.78,4.12-4.5,3.59-8.21-1.66-11.58-3.48-2.24-3.85-6.87-.82-10.11,4.15-4.43,3.47-9.8-1.64-12.9C-.1,102.5-1.3,98,1.72,95.43,5.11,92.51,5.33,89,5.88,85.16,9.09,62.53,20.13,44,36.64,28.66,54.67,11.9,76.28,2.9,100.71.57,122.43-1.5,143,1.9,161.65,13.81a49.59,49.59,0,0,1,22,31.1C184,46.42,184.14,48,184.46,50.2ZM130.1,41.72c-31-.19-59.07,9.73-85.68,24.66-5.27,3-6.73,5.7-5,8.94,1.81,3.44,5.13,3.55,10.52.5,30-17,61.88-26.2,96.76-22.09,3.85.46,6.37-1.38,6.84-4.61s-1.64-5.86-5.75-6.23C141.89,42.36,136,42.09,130.1,41.72ZM135,63c-26.65-.1-51.4,7.23-75,19a122.55,122.55,0,0,0-14.41,8c-1.55,1.06-2.55,4-2.43,6.08.08,1.38,2.35,3.31,4,3.75s3.61-.55,5.17-1.41C65.45,91.14,79,84.69,93.44,80.29a140.07,140.07,0,0,1,55.68-5.53c4.73.49,7.57-1.38,7.78-4.88s-2.41-5.73-7-6C144.91,63.57,140,63.3,135,63Zm5.69,31.68c3.75.18,8.3.46,12.86.6,4,.11,6.49-1.78,6.64-4.85s-2.15-5.66-5.95-5.72c-11-.18-22-.8-32.89.2-26,2.4-49.49,12.35-71.82,25.35-3.46,2-4.26,5-2.6,7.78s4.75,3.33,8.43,1.43c7.5-3.87,14.91-8,22.59-11.41A145.64,145.64,0,0,1,140.69,94.69Zm7.48,40.67c3.75,0,7.51,0,11.26,0,4.2,0,6.63-1.83,6.74-5.24s-2.32-5.45-6.39-5.74c-.67,0-1.34,0-2-.07-36.83-2.07-69.64,10-100.6,28.6-3.45,2.07-4.43,5.38-2.7,8.15s4.74,3.2,8.17,1.33,6.94-4.07,10.48-6C96.55,143.73,121.19,135.28,148.17,135.36Zm10.66,30c-24.79,0-48.08,6.22-70.27,16.83-7.86,3.76-15.47,8.06-23,12.51a7.21,7.21,0,0,0-3,5.48c.07,1.61,2.11,3.95,3.74,4.45s4.12-.46,5.83-1.46c16.53-9.62,33.65-17.8,52.3-22.5a131.93,131.93,0,0,1,42.67-3.82c3.88.29,6.73-1.62,7.13-4.85.43-3.38-1.63-5.68-5.83-6.12C165.28,165.54,162.05,165.52,158.83,165.36Zm-15.18-62.07c-33.16-.42-62.65,11.23-90.55,28-3.12,1.87-4,5.25-2.42,7.88s4.75,3.31,8.13,1.41c2.57-1.44,5.08-3,7.66-4.41,27.87-15.41,57.23-24.75,89.58-22,4,.35,6.63-1.74,6.79-5.12s-1.92-5.45-5.92-5.65C152.51,103.12,148.07,103.29,143.65,103.29Zm8.57,41.28c-3.62.25-6.3.45-9,.62C113,147.07,86,158.49,60.36,173.84c-2.94,1.76-3.87,4.45-2.32,7.6,1.4,2.84,4.69,3.49,8,1.67,4-2.18,7.9-4.59,11.93-6.72,16.82-8.85,34.22-16.33,53.25-18.66,10.47-1.29,21.1-1.28,31.66-1.74,3.9-.16,6.32-1.91,6.32-5.2,0-3.57-2-5.41-5.49-5.62C159.59,144.92,155.44,144.74,152.22,144.57ZM19,194.43A19.35,19.35,0,0,0,21.74,193q10.54-8.62,21.05-17.31c3.14-2.61,3.69-5.4,1.74-8-2.09-2.74-5.1-3-8.43-.49-5.82,4.49-11.54,9.11-17.21,13.78a4.19,4.19,0,0,0-1.51,3C17.66,187.23,18.33,190.49,19,194.43Zm9.38,40.73a7.88,7.88,0,0,0,1.77-.63c7.19-5.81,14.4-11.6,21.52-17.5,2.68-2.22,3.17-5.62,1.25-7.84-2.34-2.69-5.21-2.79-7.89-.72-6.15,4.75-12.19,9.65-18.19,14.58a3.48,3.48,0,0,0-1.32,2.65C26.22,228.87,27.33,232,28.33,235.16Zm-5.68-20c1.65-1.07,2.58-1.55,3.38-2.2q10-8.07,19.89-16.21c3.19-2.61,3.91-5.74,1.93-8.33s-5.23-2.88-8.53-.35c-5.73,4.39-11.33,8.94-16.89,13.54a4.24,4.24,0,0,0-1.59,3C21.17,207.89,21.92,211.13,22.65,215.2Zm-6.12-43.69c1.19-.84,2.38-1.59,3.48-2.47,6.15-5,12.24-10,18.42-14.92,3.43-2.73,4.48-5.83,2.64-8.56s-5.66-2.92-9.24-.2c-4.38,3.32-8.66,6.76-12.94,10.21C13.73,159.72,12.87,165,16.53,171.51Zm-3-22.94c.27,0,.62.11.78,0,7.4-5.72,14.84-11.4,22.15-17.24,2.56-2.05,3-4.77.84-7.42s-4.86-2.79-7.5-.92c-4.48,3.16-8.85,6.49-13.2,9.82C11,137.1,10.12,141.81,13.58,148.57Zm-3.25-21.33a8.58,8.58,0,0,0,2-.64c7-5.36,14-10.67,20.91-16.18,2.55-2,2.87-4.82.71-7.43s-4.86-2.88-7.49-1q-7.93,5.76-15.6,11.91a4.69,4.69,0,0,0-1.64,3.33C9.36,120.43,9.9,123.58,10.33,127.24ZM8.19,104.51c7.58-5.73,15-11,21.84-16.81,1.22-1,1.23-4.92.31-6.74-1.36-2.69-4.54-2.75-7-1.19-3.39,2.11-6.58,4.57-9.77,7C5.33,92.94,5.16,93.56,8.19,104.51Z"/><path d="M269.72,209.34c3.48,6.22,2.34,12.06,1.66,18.09,9.21-7.27,8.83-28.73-1.44-32.87a69.48,69.48,0,0,0-7.76-2.16l-1.24,1.41c2.41,4.76,4.82,9.52,7.37,14.58a10.63,10.63,0,0,1-1.95.88c-18.41,4.84-36.45,2.95-54.26-3.05-2-.68-2.83-1.75-2.12-3.92,4.35-13.21,3-26.47.41-39.78-1.33-6.8-2.29-13.67-3.59-21.54l6.9,3.5c5.16-10.11.88-25.84-8.86-31.7a8.33,8.33,0,0,1-4.35-6.63c-1-6.72-2.33-13.39-3.53-20.09l.95-.67c1.44,1.18,3,2.28,4.31,3.54,5.15,4.78,10.9,8.33,18.17,8.43,5.87.08,9.18-3.57,9.09-9.66-4.92,7.6-9.48,8.38-17,2.52-2.6-2-4.68-4.77-7.05-7.14-2.08-2.08-3.9-4.74-6.41-6-3.81-1.93-4.87-4.91-5.48-8.63-1.08-6.62-2.39-13.19-3.58-19.79-.2-1.14-.27-2.29-.46-3.91a12.07,12.07,0,0,1,2.28.82c15.58,10.71,33.38,15.73,51.45,20,16.71,3.91,33.39,8.29,50.64,8.78,9.33.26,18.71-.64,28-1.32,11.87-.87,18,4,20.32,15.66,1.85,9.38-.06,18.17-3.14,26.83-2.84,8-5.66,16-9.38,23.54-4.49,9.13-5.35,18.21-3.32,28.07A178.87,178.87,0,0,1,329.05,189c1.12,13.9-4,25.29-14.84,33.95-22.55,18-41.8,39.31-61.31,60.41-7.51,8.13-15.77,15.93-24.87,22.13-24.92,17-55.45,7.54-67.54-20.18-2.19-5-3.88-10.28-5.85-15.41-.82-2.14-.64-3.53,1.57-5q12.79-8.38,25.23-17.29c2.49-1.77,3.47-.52,4.79,1.24,4.65,6.18,10.55,10.76,18,12.84,10.35,2.87,19.62-.08,28.11-6.06,12.08-8.5,21-19.89,28.8-32.2C264,219.09,266.57,214.57,269.72,209.34Zm-22.51-55.43c20.16-6.4,33.16-4.45,57.73,11.06-1-10.46-9.65-27.25-17.65-33.32a25.08,25.08,0,0,0-9.66-4.53c-14-2.91-31.3,12.2-30.66,26.48C247,153.71,247.13,153.81,247.21,153.91ZM253.1,97c-1.29,9.39,5,15.59,13.42,14a66.06,66.06,0,0,0,10.3-3.32c4-1.5,7.87-3.46,12-4.7,2-.62,4.77-.82,6.57.07,8.55,4.23,15.81,10.08,20.44,18.7.6,1.12,1.24,2.22,2.48,4.42a34.34,34.34,0,0,0,1-4.8c.35-10.27-4.11-18.12-12.45-23.82-8-5.43-16.1-5.06-24.25-.35-4.52,2.62-8.94,5.45-13.57,7.87C260.49,109.52,255.81,107.33,253.1,97ZM180.74,260.36c13,19.39,44.18,23.72,60.06,7.59C218.93,275,198.32,278.54,180.74,260.36Zm13.71,34.33c1.72,1.05,3.18,2.07,4.76,2.86a16.38,16.38,0,0,0,3.18.88c-.07-1.37.34-3-.29-4.06C200.59,291.87,197,292.21,194.45,294.69Z"/></g></g></svg>