<svg xmlns="http://www.w3.org/2000/svg" viewBox="0 0 300 337.42"><title>Layer 1</title><g id="a0c64fc6-99ee-4fbd-b5e3-2fa1dbd9e05d" data-name="Layer 2"><g id="f9dfa75f-38dc-4c16-9569-90a829fd4a96" data-name="Layer 1"><path d="M42.93,169.2c-5.67-6-10.9-11.22-15.78-16.76C16.48,140.34,6.93,127.5,2,111.84-2.5,97.48.66,84.61,10.75,76.5c6.85-5.51,15-7.73,23.56-8.73,16.6-2,32.76.94,48.81,4.71,4.3,1,8.56,2.19,13.15,3.38,1.54-5.32,2.93-10.35,4.44-15.35C105.42,45,111.23,29.86,121.38,17A57.56,57.56,0,0,1,132.62,6c11.17-8.09,23.82-8,34.93.08A58.31,58.31,0,0,1,178,16.18c2.65,3.21,5.14,5.28,9.61,6.08,14,2.49,20.13,18.05,12,29.73a6.38,6.38,0,0,0-1,6.32c1.82,5.62,3.31,11.35,5.06,17.49l9-2.27c17.44-4.37,35-8,53.11-5.66a60.73,60.73,0,0,1,16.3,4.35c14.65,6.37,20.66,20.3,16.56,37-3.26,13.28-10.44,24.52-18.91,34.91-6.21,7.61-13.13,14.64-19.82,21.85-.79.85-2.1,1.22-3.36,1.91,5.88,6.18,10.91,11.22,15.65,16.52,9.48,10.58,18,21.86,23.53,35.09,3,7.16,5,14.59,4,22.43-1.82,13.82-10.52,21.59-23.21,25.65a24.07,24.07,0,0,1-4.7,1.15c-6.49.66-11.63,2.73-16.58,7.9-8.56,8.93-23.67,5.41-29.2-5.91-1.4-2.87-3.1-4.35-6.17-4.93a73.31,73.31,0,0,1-11.72-3c-4-1.46-4.9.32-6,3.67-4.11,12.38-8.12,24.82-13.06,36.88a67.91,67.91,0,0,1-18.69,26.07c-12.55,10.74-28.22,10.8-40.82,0-11.19-9.6-17.81-22.26-23-35.65-3.55-9.14-6.31-18.61-9-28.06-1-3.41-2.21-3.8-5.36-2.95-16.15,4.4-32.47,8.23-49.33,7.48a84.28,84.28,0,0,1-21.8-3.56C3.69,261-3.85,244.72,1.94,226.19c1.71-5.49,4.63-10.59,6.72-16a9,9,0,0,0,.46-5.58c-4.8-14.76,6-28,21.42-26a4.49,4.49,0,0,0,3.16-.85C36.76,175.14,39.63,172.3,42.93,169.2Zm154.75-.06c0-8.21.15-16.42-.13-24.62a6.66,6.66,0,0,0-2.69-4.77q-21.18-12.56-42.65-24.62a5.27,5.27,0,0,0-4.41,0c-14.19,8-28.32,16.07-42.32,24.38a7.18,7.18,0,0,0-3,5.11q-.33,24.21,0,48.45a6.68,6.68,0,0,0,2.8,4.78c14.12,8.36,28.36,16.52,42.65,24.6a4.77,4.77,0,0,0,4,.08q21.76-12.33,43.33-25a5.74,5.74,0,0,0,2.32-4.13C197.78,185.29,197.67,177.21,197.68,169.14ZM92.75,91a7.21,7.21,0,0,0-1.38-.61c-12.64-2.59-25.21-5.71-38-7.54-8.88-1.28-18-1-26.78,2.08-9,3.14-13,9.54-10.84,18.79a63.43,63.43,0,0,0,5.52,14.66c7.7,14.59,18.89,26.46,30.5,38,1.89,1.88,3.12,1.6,5.07.08,9.45-7.36,19.09-14.5,28.52-21.89a7.74,7.74,0,0,0,2.68-4.61C89.75,117.15,91.18,104.31,92.75,91Zm57.46,231.22c7.2-.37,12-5.07,16.15-10.51,11.83-15.57,17.24-33.91,22.13-52.44.61-2.3-.72-3-2.55-3.72-11-4.46-21.84-9.14-32.85-13.46a9.45,9.45,0,0,0-6.34.05c-10.76,4.25-21.33,9-32.1,13.18-3,1.18-3.71,2.57-2.76,5.38,3.65,10.83,6.54,22,11.11,32.39,3.47,7.88,8.71,15.08,13.82,22.11A16.61,16.61,0,0,0,150.21,322.23ZM245.7,158.05a5,5,0,0,0,1.08-.54c12.4-11.68,24-24.07,31.93-39.3a56.27,56.27,0,0,0,5.62-17.87c1.07-7.62-2.32-12.28-9.68-14.79a56.16,56.16,0,0,0-14.14-2.89C243.06,81.5,226.29,85.5,209.62,90c-2.72.73-2.67,2.4-2.36,4.61,1.4,10,3.08,20,3.89,30,.48,6,2.71,9.91,7.79,13.34C228.17,144.17,236.79,151.28,245.7,158.05Zm.91,21.15a7.9,7.9,0,0,0-1.58.48c-10.41,7.9-20.83,15.76-31.14,23.78A6.1,6.1,0,0,0,212,207.2c-1.67,12-3.14,24-4.81,36-.34,2.47.33,3.84,2.74,4.44q6.27,1.56,12.5,3.24c2.73.74,4.7.47,7-1.91,8.07-8.49,21.72-8.17,28.31,1.11,3.28,4.63,6.52,5.16,11.14,3.75,1.67-.51,3.4-.84,5-1.43,7.95-2.87,11.3-7.57,10.51-16-.38-4.08-1.23-8.46-3.2-12a198.28,198.28,0,0,0-15.4-24.08C259.92,192.76,252.88,186,246.61,179.2ZM149.51,14.71c-2.89,1.3-6.09,2.18-8.58,4a38.11,38.11,0,0,0-7.94,8c-11.33,15.37-16.74,33.26-21.43,51.43-.67,2.59,1,3.24,2.83,4,10.94,4.52,21.83,9.14,32.81,13.53a7.8,7.8,0,0,0,5.26.12C163.7,91.27,174.84,86.54,186,82c2-.84,3.06-1.85,2.33-4.25-1.4-4.63-2.64-9.31-3.88-14a5.16,5.16,0,0,0-4.28-4.09c-13.39-3.4-19-15.9-12.9-28.31a4.87,4.87,0,0,0,.6-3.28C165.72,22.19,155.69,15.29,149.51,14.71ZM45.5,255.89c11.63-.79,34-4.64,44.61-8.25,2.3-.79,3-1.73,2.65-4.35C91.1,231.7,89.92,220,88.18,208.47a10.7,10.7,0,0,0-3.76-6.09c-7.25-5.81-14.9-11.12-22.2-16.87-8.69-6.85-8.65-7-16,1.43a5.21,5.21,0,0,0-.93,4.15c3.88,14.19-4.93,25.66-19.79,25.79a5.65,5.65,0,0,0-4.27,2.53,78,78,0,0,0-5.39,14.28c-2.25,9.42,1.74,16.32,11.09,18.9C33,254.27,39.29,254.83,45.5,255.89Zm168.06-70.66,21-16.49-21-16.33ZM107.74,95.62c-1.32,9.24-2.5,17.4-3.81,26.51l28.72-16.57Zm59.58,136.32,25,10.05,3.56-26.5Zm-59.55,10,24.83-10-28.7-16.54C105.24,224.56,106.43,232.76,107.77,242ZM192.29,95.55l-24.92,10L195.93,122C194.66,112.83,193.55,104.71,192.29,95.55ZM86.36,185.17V152.35l-20.9,16.47C72.71,174.48,79.2,179.57,86.36,185.17Z"/><path d="M180.15,168.69a30.12,30.12,0,1,1-60.24,0,30.12,30.12,0,0,1,60.24,0Zm-30,14.87a14.66,14.66,0,0,0,14.72-15,14.9,14.9,0,1,0-29.79.35A14.65,14.65,0,0,0,150.17,183.56Z"/></g></g></svg>