<svg xmlns="http://www.w3.org/2000/svg" viewBox="0 0 321.78 321.86"><title>Layer 4</title><g id="ac3f15a2-fcc8-41eb-980c-12fafa7b1b28" data-name="Layer 2"><g id="e899a540-1987-4fa5-9a10-5769c8137848" data-name="Layer 4"><path d="M160.78,58H256.3c7,0,7.72.72,7.72,8.23q0,90.53,0,181c0,3.87,0,7.73-.09,11.59-.1,3.56-2,5.3-5.59,5.28-8-.05-16,0-24,0H66.1c-7.8,0-8.42-.62-8.43-8.4q0-94.92,0-189.83c0-7.42.48-7.9,8-7.9Zm-.23,176.07c22.65,0,45.3-.08,67.95.08,4,0,5.29-1.07,5.28-5.16q-.19-68,0-135.91c0-4.11-1.36-5.2-5.31-5.19q-68,.18-135.91,0c-3.86,0-5,1.21-5,5q.17,68.16,0,136.31c0,3.92,1.25,4.94,5,4.92C115.24,234,137.89,234.1,160.55,234.1Z"/><path d="M92.08,35.26c0-2.4,0-4.79,0-7.19.08-3.6-.15-6.9-2.4-10.18-2.84-4.16-1.89-9.47,1.4-13.32s8.23-5.49,12.51-4c5.11,1.73,9.09,6.54,9.12,11.47a9.54,9.54,0,0,1-1.35,4.91c-2.47,3.83-2.53,8-2.46,12.27.09,5.86,0,11.71,0,17.56,0,3.14-1.1,4.64-4.43,4.59-14.59-.24-12.21,1.81-12.44-12.09C92.06,37.92,92.08,36.59,92.08,35.26Z"/><path d="M229.73,36c0,3.72,0,7.45,0,11.18.05,2.78-1.06,4.19-4,4.16-15.1-.19-12.63,1.91-12.86-12.06-.06-3.86-.07-7.72,0-11.58.08-3.63-.33-6.93-2.46-10.2-2.86-4.38-1.42-10.25,2.7-14.12s10.07-4.38,15-1A11.93,11.93,0,0,1,233,16c-1.06,3.2-2.56,6.33-3.08,9.61s-.12,6.9-.12,10.36Z"/><path d="M286.77,92c3.06,0,6.14.23,9.17-.07a21.92,21.92,0,0,0,7.16-1.79c6.21-3,11.85-2.14,15.74,2.71,4,5,3.89,10.94-.3,15.62s-10.07,5.28-16,2.1a14.66,14.66,0,0,0-6.33-1.73c-7-.22-14.08-.18-21.12,0-3.21.06-4.59-1.17-4.58-4.4,0-14.74-1-12.09,11.43-12.38C283.58,92,285.18,92,286.77,92Z"/><path d="M229.75,286.92a54.15,54.15,0,0,0,.08,8,34.69,34.69,0,0,0,2.4,9.34,12.28,12.28,0,0,1-2.78,14.52,12.47,12.47,0,0,1-16.13.11c-4.21-3.45-5.18-9.46-3-14.49a29.45,29.45,0,0,0,2.44-9.73c.37-6.36.19-12.75.08-19.13-.05-3.16,1.08-4.63,4.4-4.58,14.66.24,12.24-1.83,12.49,12C229.77,284.26,229.75,285.59,229.75,286.92Z"/><path d="M108.93,286.94a42.28,42.28,0,0,0,.06,6.37c.59,3.84.91,7.9,2.45,11.38,2.29,5.19,1,9.48-2.2,13.27-3.07,3.57-7.46,4.65-12,3.4-4.86-1.34-8.33-4.55-8.7-9.74-.19-2.74.94-5.59,1.6-8.36.55-2.24,1.79-4.42,1.87-6.65.24-7,.17-14.09.06-21.13,0-3.17,1.08-4.61,4.4-4.56,14.57.24,12.25-1.8,12.48,12C109,284.28,108.93,285.61,108.93,286.94Z"/><path d="M35.08,108.77a80.43,80.43,0,0,0-9.19.08,21.26,21.26,0,0,0-7.4,2.1,12.38,12.38,0,0,1-15-2.19c-3.88-4-4.59-10.38-1.64-14.71,3.27-4.8,9.4-7.36,14.22-4.73,7.74,4.22,15.86,2.39,23.82,2.62,13.31.37,10.8-1,11,11.09.1,5.69,0,5.71-5.82,5.73C41.74,108.78,38.41,108.76,35.08,108.77Z"/><path d="M181,51.31c-9,0-8.21.53-8.24-8.17,0-4.79,0-9.58,0-14.37.05-4-.16-7.68-2.59-11.34C167.09,12.8,169,6.14,173.36,2.74a12.2,12.2,0,0,1,15.81.46c4.14,3.68,5.41,10.34,2.32,14.9a14.43,14.43,0,0,0-2.4,9c.13,6.12,0,12.24,0,18.36,0,5.8-.08,5.86-5.74,5.88Z"/><path d="M286.23,213.29a59.87,59.87,0,0,0,8.37-.08,30.66,30.66,0,0,0,8.9-2.37c5.56-2.67,11.27-1.7,15.42,3.21,3.8,4.49,3.81,10.09,0,15-3.47,4.49-9.63,6.21-14.61,3.18-3.81-2.32-7.63-2.58-11.76-2.53-6,.07-12-.08-17.95,0-2.93.06-3.92-1.22-4.09-4-.75-12.4-.8-12.4,11.31-12.4Z"/><path d="M132.66,35.51c0-2.8-.08-5.59,0-8.38a13.14,13.14,0,0,0-2.43-8.9c-3.17-4.28-1.87-11,2.23-14.9,4.33-4.07,10.31-4.37,15.34-.78,4.58,3.27,6.77,9.42,4,14S149,25.79,149,30.71c.06,5.58,0,11.16,0,16.74,0,2.66-1.16,3.91-3.85,3.86-3.05-.06-6.11,0-9.16,0-2.32,0-3.37-1.09-3.33-3.43.06-4.12,0-8.24,0-12.35Z"/><path d="M286.14,173.21c2.53,0,5.05-.07,7.58,0,3.61.12,6.85-.17,10-2.6,4-3,10.66-1.67,14.28,2,3.89,4,4.8,9.42,2.3,13.91-2.81,5-8.75,8.64-13.23,6.3-10-5.22-20.51-2.78-30.81-3.33-5.56-.3-5.71-.23-5.75-5.93-.07-10.38-.07-10.38,10.4-10.38Z"/><path d="M286.2,132.6c2.66,0,5.33-.08,8,0a15.61,15.61,0,0,0,9.42-2.3c5.27-3.27,11.73-1.57,15.66,3.43,3.64,4.64,3.29,10.47-.92,15.32-3.65,4.19-10.13,4.89-15.38,2.09a17.8,17.8,0,0,0-7.37-2.1c-6.91-.29-13.85-.19-20.77-.07-2.87.06-4.23-1-4.21-3.9s0-5.86,0-8.79c0-2.68,1.32-3.78,4-3.71,3.86.11,7.73,0,11.59,0Z"/><path d="M189.13,286.43a69.44,69.44,0,0,0,.08,8.78,25.47,25.47,0,0,0,2.19,8.2c2.94,5.83,2,11.88-2.93,15.77a12.1,12.1,0,0,1-15.72-.61c-4.68-4.42-5.18-10.34-1.63-15.92a10.5,10.5,0,0,0,1.55-5.14c.17-7.45.17-14.91,0-22.36-.06-3.12,1.19-4.35,4.24-4.22s5.86.05,8.79.06c2.3,0,3.38,1.16,3.37,3.47,0,4,0,8,0,12Z"/><path d="M35.49,229.68a63,63,0,0,0-8.36.09,30.84,30.84,0,0,0-8.94,2.32c-5.72,2.72-12,1.63-15.75-3.31a12.15,12.15,0,0,1,.78-15.41c4.2-4.52,10.3-5.19,15.62-2.12a14.79,14.79,0,0,0,6.6,1.95c7,.25,14.08.2,21.12.05,3.24-.06,4.67,1.08,4.38,4.41-.18,2.11,0,4.24,0,6.37,0,5.63,0,5.63-5.85,5.65Z"/><path d="M149,286.76a61.45,61.45,0,0,0,.08,8.37,31.91,31.91,0,0,0,2.35,9c2.49,5.35,1.6,11.11-2.86,14.79a12.06,12.06,0,0,1-15.73,0c-4.53-3.84-5.38-9.93-2.73-15.21a23,23,0,0,0,2.43-8.88c.36-6.63.19-13.3.08-19.95,0-2.72,1-3.93,3.72-3.87,2.93.07,5.86.06,8.78,0,2.66-.06,3.92,1.12,3.88,3.82-.07,4,0,8,0,12Z"/><path d="M35,149a55.85,55.85,0,0,0-8,.08,28.89,28.89,0,0,0-8.51,2.29C13.05,154,6.81,153.14,2.9,148.58a12.16,12.16,0,0,1-.39-15.14c3.47-4.46,10-6.26,15-3.25,3.72,2.22,7.42,2.47,11.42,2.43,6-.06,12,0,18,0,2.83,0,4.09,1,4,4C50.57,151.37,53.24,148.65,39,149,37.67,149,36.34,149,35,149Z"/><path d="M35.15,189.48c-2.26,0-4.53.06-6.79,0a19.19,19.19,0,0,0-10.66,2.33C12,195,5.73,193.09,2,187.68c-3.23-4.63-2.4-11,2-15.28,4.18-4.06,10.6-4.27,15.76-.82a10,10,0,0,0,5.11,1.55q11,.26,22,0c3.07-.06,4.41,1,4.18,4.12a53.14,53.14,0,0,0,0,8c.25,3.24-1.29,4.26-4.22,4.21-3.86-.07-7.72,0-11.58,0Z"/><path d="M161,105.22c17.06,0,34.12.09,51.17-.08,3.68,0,4.89,1.14,4.88,4.77q-.13,51.38,0,102.74c0,3.74-1.52,4.83-5,4.82q-51.17-.1-102.34,0c-3.78,0-5.07-1.35-5.06-5.18q.18-51.18,0-102.34c0-3.59,1-4.86,4.79-4.82C126.64,105.32,143.83,105.22,161,105.22Zm-.22,23A32.72,32.72,0,0,0,128.1,161a33.06,33.06,0,0,0,32.63,33c17.93.21,33-14.93,32.87-33.12A32.7,32.7,0,0,0,160.8,128.2Z"/></g></g></svg>