<svg xmlns="http://www.w3.org/2000/svg" viewBox="0 0 335.65 336.41"><defs><style>.a382e578-29e1-4ae6-8c1d-52efae92c276{fill:#241f20;}.e72cc420-5b40-45b8-a467-a5ec7bed35ab{fill:#2e2322;}</style></defs><title>Layer 5</title><g id="a0610696-03bc-46e9-8ac2-bc9bb9de7391" data-name="Layer 2"><g id="b5fce927-ff5d-4936-9f1b-787f6b22c68c" data-name="Layer 5"><path class="a382e578-29e1-4ae6-8c1d-52efae92c276" d="M70.07,92.66a18.51,18.51,0,0,1-7.9-2.22C44.9,81.15,27,73.18,9.55,64.19c-.74-.38-1.5-.72-2.22-1.13C3.5,60.82,3.28,58.76,6.71,56a67.52,67.52,0,0,1,12.07-7.57C50.46,32.65,82,16.63,114.39,2.19c6.93-3.09,13.38-2.87,20.19.39,15.75,7.55,31.65,14.79,47.48,22.17,6.38,3,6.65,5.38,1.08,9.73a29,29,0,0,1-3.82,2.61C147.87,54.37,116.63,72,84.62,88.28,79.89,90.68,74.76,91.62,70.07,92.66Z"/><path class="a382e578-29e1-4ae6-8c1d-52efae92c276" d="M121.63,120.64c-6.72-.62-12.36-3.24-16.27-8.94-2.42-3.52-4.79-7.09-7-10.74-3.2-5.19-.89-13.64,4.44-16.42,39-20.37,77.45-41.68,116.22-62.46,4.48-2.41,9-3.87,14.49-3.28,8.73.94,17.57.71,26.37,1,4.19.14,4.81.89,4,5a40.36,40.36,0,0,1-4.56,11.57c-2.08,3.74-4.16,7.47-6.18,11.24a20.06,20.06,0,0,1-8.71,8.15q-49.6,26.7-99.18,53.5c-5.54,3-11,6.13-16.49,9.22A13.81,13.81,0,0,1,121.63,120.64Z"/><path class="e72cc420-5b40-45b8-a467-a5ec7bed35ab" d="M294.41,34.72a5.85,5.85,0,0,1,3.37,1c10.53,5.76,21.08,11.48,31.59,17.28,3.51,1.94,3.51,2.38,0,4.46q-49.93,29.37-99.92,58.67c-19.27,11.3-38.6,22.51-57.82,33.89-3.41,2-6.28,1.88-9.59-.11-11.7-7.06-23.5-14-35.24-21-1.16-.69-3.06-1.09-3-2.68.08-1.33,1.9-1.64,3-2.24Q196.33,86.57,265.9,49.2q12.24-6.59,24.51-13.12A7.64,7.64,0,0,1,294.41,34.72ZM244.17,73.51a5.28,5.28,0,0,1-6.46.57c-1.47-.76-2.87-1.68-4.36-2.43-2.3-1.17-4.28.24-5.24,1.77s1.51,1.82,2.38,2.73c.31.34.83.47,1.18.79.79.73,2.66.9,2,2.45-.6,1.32-2.18,1.2-3.52,1.06s-2.38-1-3.54-1.6a30.39,30.39,0,0,0-4.18-1.94,3.35,3.35,0,0,0-4.15,2c-.94,1.86,1.26,1.85,2,2.67a17.15,17.15,0,0,0,1.77,1.2c.69.55,2.07.8,1.7,2s-1.68,1.62-2.92,1.59-2.43-.84-3.58-1.48a32.08,32.08,0,0,0-4.8-2.31,3.62,3.62,0,0,0-4.55,1.9c-1,1.91,1.36,2,2.23,2.92.33.33.86.45,1.2.77.77.72,2.69.9,1.83,2.46a2.8,2.8,0,0,1-3.51,1,39.78,39.78,0,0,1-3.8-1.92A21.17,21.17,0,0,0,202,87.77a4.38,4.38,0,0,0-5,2.54c-.85,1.73,1.54,2,2.56,2.59,3.83,2.41,7.8,4.56,11.64,6.94,1.22.75,3.8,1.3,3.07,2.79-.87,1.78-3.34,1.11-5.16.55a12.59,12.59,0,0,1-2.56-1.24c-3.94-2.22-7.85-4.47-11.78-6.7-1.34-.77-2.67-1.64-4.28-1.62a4.2,4.2,0,0,0-4.06,2.43c-.62,1.63,1.43,1.83,2.32,2.62.44.39,1,.6,1.48,1,.82.72,2.7.91,2.13,2.35-.47,1.17-2.07,1.48-3.43,1.49a7.29,7.29,0,0,1-3.62-1.35,37.14,37.14,0,0,0-4.36-2.4,4.15,4.15,0,0,0-5.23,2c-1.18,2,1.53,2.06,2.46,3,.31.34.83.47,1.19.77.84.72,2.72,1,2.19,2.35-.58,1.56-2.34,2-4,1.57a19.81,19.81,0,0,1-3.53-1.65,42,42,0,0,0-4.45-2.23,4.14,4.14,0,0,0-5.14,2.21c-1.2,2.18,1.51,2.13,2.4,3.12a11.61,11.61,0,0,0,2,1.41c.65.46,1.67.77,1.36,1.81-.26.86-1.16,1.13-2,1.39-1.78.58-3.24-.26-4.69-1.1-2-1.13-3.81-2.47-6.12-2.78a4.27,4.27,0,0,0-4.66,2.59c-.78,1.8,1.47,2.05,2.42,2.92a20.28,20.28,0,0,0,2.66,1.79c1.55,1,1.16,1.8-.24,2.53-2.15,1.12-3.83.15-5.6-1-3-2-6-4.06-9.75-1.36-2.11,1.51-2.18,2.39.12,3.7,4.85,2.76,9.63,5.65,14.4,8.57.91.55,2.71.86,2.11,2.34a3.12,3.12,0,0,1-3.69,1.52,10,10,0,0,1-2.92-1.24c-4.95-2.85-9.86-5.74-14.78-8.62-1.25-.73-2.51-1.47-4-1.17s-3.06.8-3.4,2.24,1.38,1.73,2.35,2.3c9.92,5.88,19.93,11.6,29.75,17.63,3.16,1.94,5.64,1.92,8.82,0,25.94-15.22,52-30.27,78-45.41Q286.94,78.93,324.8,56.8c2.28-1.33,3.23-2.15.12-3.79-8.83-4.65-17.54-9.55-26.31-14.31a10.36,10.36,0,0,0-3-1.11c-1.05-.21-2.42-.17-2.79,1s.95,1.46,1.74,1.92c4.32,2.49,8.67,4.94,13,7.44.67.38,1.71.71,1.24,1.81-.34.79-1.21.59-1.89.59a8.59,8.59,0,0,1-4.08-1.16c-3.76-2-7.51-4.1-11.28-6.12a14.37,14.37,0,0,0-3.52-1.63,3.14,3.14,0,0,0-3.85,1.81c-.51,1.48,1.32,1.67,2.18,2.35.46.36,1.05.56,1.51.93.69.54,2.11.76,1.58,2a2.57,2.57,0,0,1-2.78,1.19c-1.58-.2-2.83-1.2-4.16-2s-2.43-1.55-3.93-1.57a3.33,3.33,0,0,0-3.38,2.17c-.39,1.25,1.27,1.39,2,2s1.44.83,2.12,1.31,1.76.63,1.25,1.76a2.38,2.38,0,0,1-2,1.28c-1.3.15-2.25-.62-3.28-1.2-1.65-.93-3.18-2.13-5.13-2.4a3.54,3.54,0,0,0-3.93,1.85c-.77,1.76,1.29,1.86,2.2,2.6.46.36,1.06.54,1.54.89.69.51,2.1.7,1.43,2a2.2,2.2,0,0,1-2.79,1,29.41,29.41,0,0,1-3.81-1.9c-1.71-.93-3.46-1.65-5.44-1.22-1.18.25-2.5.67-2.74,2-.22,1.11,1.16,1.29,1.88,1.82s1.83,1.11,2.71,1.71c.55.38,1.4.65,1.14,1.56s-1,1-1.68,1.14c-2,.41-3.41-.73-4.92-1.66-2.2-1.36-4.45-2.3-7-1-1.94,1-2.26,2-.13,3.14,4.26,2.38,8.52,4.75,12.69,7.27,1.07.65,3.44.9,2.61,2.64-.67,1.41-2.77.75-4.23.34A12.83,12.83,0,0,1,257.11,74c-3.85-2.12-7.72-4.22-11.52-6.42-2.09-1.21-4.13-1.76-6.4-.57-1.64.85-2.31,1.72-.32,3C240.56,71.05,242.2,72.2,244.17,73.51Z"/><path class="e72cc420-5b40-45b8-a467-a5ec7bed35ab" d="M158.36,202.72c-.07,1.54-.21,3.09-.19,4.63,0,3.49-1.67,5.6-4.68,7.3-22.16,12.48-44.23,25.13-66.37,37.62-3.67,2.07-6.24,4.3-6,9.08.14,3.52-6.22,8.22-9.78,7.95-1-.07-1.14-.74-1.27-1.42-.41-2.16.79-3.32,2.63-4.05,2.42-1,3.66-2.8,3.27-5.31-.67-4.33,1.68-6.54,5.07-8.42q28.22-15.65,56.35-31.44c4.05-2.26,8-4.67,12-7a6.1,6.1,0,0,0,3.27-5.49c.53-11.85-1.41-14.94-12.4-19.55a6.79,6.79,0,0,0-6.16.42,39,39,0,0,0-3.83,2.59c-5.91,4.12-11,4.44-16.85.39-2.82-2-5-1.77-7.78-.17-16.08,9.24-32.22,18.35-48.35,27.49-.93.53-1.9,1-2.84,1.49a2.7,2.7,0,0,1-4-1.16c-1.09-1.86.83-2.2,1.79-2.75,11.42-6.59,22.91-13.07,34.34-19.66q9.72-5.62,19.26-11.53c2.37-1.47,4.43-1.9,6.88-.2,5.8,4,11.64,4.29,17.4-.22,4.71-3.69,9.48-3.8,14.37-.27a18.63,18.63,0,0,0,3.74,2.06C156.16,188.43,159.6,194.22,158.36,202.72Z"/><path class="e72cc420-5b40-45b8-a467-a5ec7bed35ab" d="M15.66,126.29c0-7.13.06-14.26,0-21.39a6.7,6.7,0,0,1,3.62-6.44C23.16,96.21,27.09,94,31,91.66a6.26,6.26,0,0,1,6.72-.13C42.27,94,47,96.37,51.53,98.89a25.15,25.15,0,0,1,9.58,9.35c4.19,7.05,8.33,14.13,12.57,21.14a16,16,0,0,1,2.43,7.37,196.75,196.75,0,0,1,0,20.32,6.6,6.6,0,0,1-3.67,5.72q-16.87,9.6-33.73,19.27c-2.41,1.38-4.16,1.18-5.62-1.35-1.79-3.08-3.78-6-5.6-9.11-.6-1-1.16-2.48.12-3.15s1.67,1,2.24,1.76a32.67,32.67,0,0,1,2.86,4.51c1.39,2.81,3.27,3,5.81,1.58q14.11-8,28.29-15.87c3.28-1.83,4.79-4.45,4.17-8.25a19.56,19.56,0,0,1,0-6.74c1.49-8.13-.31-15.6-4.53-22.54-2.71-4.47-5.56-8.85-8.43-13.22a7.77,7.77,0,0,0-2.45-2.52c-6.13-3.41-12.32-6.69-18.49-10a4.11,4.11,0,0,0-.66-.26c-5.53-1.65-15.75,5.72-15.78,11.45-.05,13.79,0,27.57-.11,41.36,0,1.4,1.08,3.81-1.6,3.91-2.52.09-3.42-1.92-3.43-4.14-.06-7.73,0-15.45,0-23.18Z"/><path class="e72cc420-5b40-45b8-a467-a5ec7bed35ab" d="M91.17,154.46c1.34-8.61-1.38-16.44-6.36-23.83-4.37-6.51-8.25-13.35-12.3-20.07-.5-.83-1.71-1.9-.66-2.77s2.07.25,2.76,1a16.77,16.77,0,0,1,2.5,3.42c4.12,7.51,8.51,14.86,13.3,22s7.88,14.65,6.51,23.45a8.52,8.52,0,0,0,0,1.43c.33,14.53.07,12.28-11,18.71-15.4,9-31,17.67-46.47,26.46-3.65,2.07-5.07,1.71-7.29-1.9-2.92-4.77-5.68-9.63-8.65-14.36Q12.92,171.11,2.2,154.36a10.31,10.31,0,0,1-2-5.26c0-.69-.28-1.52.52-1.91s1.3.37,1.71.89a60.61,60.61,0,0,1,4,5.46c8.76,14.56,18,28.85,26,43.87,1.65,3.12,3.3,3.66,6.39,1.85C55.22,189.67,71.59,180,88,170.37a6,6,0,0,0,3.18-5.56C91.16,161.48,91.17,158.15,91.17,154.46Z"/><path class="e72cc420-5b40-45b8-a467-a5ec7bed35ab" d="M66.18,137.34a36.89,36.89,0,0,0,.26,8.4c.82,5.64-1.12,10.26-6.08,13-7.49,4.12-15,8.13-22.35,12.53-2.28,1.36-3.71.19-5-1.7-5.21-7.6-8.51-15.39-7.59-25.21,1-10.82.16-21.82.18-32.74,0-7.75,6.08-11.58,12.94-8.18,3.4,1.68,6.66,3.67,10.13,5.19,7.43,3.26,11.72,9.41,15.4,16.17A20.11,20.11,0,0,1,66.18,137.34Zm-5.44,1.06c0-3-.14-6,0-8.91.32-5.76-2.16-9.84-7.15-12.49-5.25-2.79-10.49-5.59-15.8-8.25-4.82-2.42-6.54-1.35-6.55,4q-.06,22.47,0,44.94a14.15,14.15,0,0,0,.54,4.21c1.2,3.69,3.79,4.71,7.12,2.86,6.13-3.41,12.2-6.91,18.32-10.34a6.13,6.13,0,0,0,3.5-6.07C60.63,145.06,60.74,141.73,60.74,138.4Z"/><path class="e72cc420-5b40-45b8-a467-a5ec7bed35ab" d="M106.84,162.58c-.15,16.85,2.44,13.3-11.28,21.14C77,194.32,58.33,204.81,39.71,215.36c-3.86,2.19-5.32,1.91-7.55-1.84-9.8-16.44-19.32-33.05-30.45-48.66a4.67,4.67,0,0,1-.38-.6c-.94-1.82-2.17-4.39-.51-5.48s2.73,1.76,3.55,3.1c6.35,10.42,12.53,21,18.78,31.42,3.17,5.31,6.5,10.52,9.56,15.89,1.57,2.74,3.36,2.87,5.88,1.48,20.08-11.1,39.86-22.73,59.46-34.66a6.09,6.09,0,0,0,3.17-5.58c0-6.42.09-12.84,0-19.26-.1-6.16-4.07-10.78-6.63-16-.61-1.24-2.74-2.74-1.16-3.85,1.19-.84,2.62,1.29,3.43,2.47C103.19,143,109.53,152.25,106.84,162.58Z"/><path class="e72cc420-5b40-45b8-a467-a5ec7bed35ab" d="M173.09,178.71c-.47-13.25,5.21-23.44,15.49-31.3,3.6-2.76,7.67-4.12,12.35-3.07a7.29,7.29,0,0,1,5.8,5.6c4.9,16.92-5,37.12-21.29,43.53-6.61,2.6-11.06,0-11.88-6.94C173.26,183.94,173.24,181.32,173.09,178.71Zm8.4-3.5a40.69,40.69,0,0,0,0,5.26c.6,5.27,3.95,6.9,8.5,4.23a15,15,0,0,0,6.74-8.42A41.83,41.83,0,0,0,198.22,157a5.71,5.71,0,0,0-4.06-4.94c-2.31-.73-4.07.31-5.67,2C183,159.75,180.52,166.51,181.49,175.21Z"/><path class="e72cc420-5b40-45b8-a467-a5ec7bed35ab" d="M292.67,109c-.79,10-4.62,20.2-14.12,27.6a22.44,22.44,0,0,1-12.38,4.93c-4.58.34-7.64-1.74-8.55-5.76-3-13.07,3.76-31.25,14.41-38.85a31.59,31.59,0,0,1,9.49-4.81c5-1.45,8,.19,9.48,5.19A34,34,0,0,1,292.67,109Zm-8.55,2.71c0-1.66-.06-3.33,0-5,.11-2.6,0-5.17-2.74-6.43s-5.38-.44-7.65,1.37a20.22,20.22,0,0,0-6.9,11c-1.46,5.55-.72,11.09,0,16.64.56,4.62,3.2,6.13,7.46,4.18a14.63,14.63,0,0,0,4.9-4.05C283.55,124.26,284.77,118.26,284.12,111.72Z"/><path class="e72cc420-5b40-45b8-a467-a5ec7bed35ab" d="M249.53,132.7c-.77,8.2-2.17,15.88-6.48,22.71a27,27,0,0,1-17.53,12.45c-5.1,1.15-8.27-.74-9.72-5.76-4.09-14.23,3-32.39,15.75-40a65.12,65.12,0,0,1,6.3-3.31c5-2.3,8.77-.51,10.46,4.76C249.31,126.6,248.93,129.87,249.53,132.7Zm-9,5.09a28.11,28.11,0,0,0-.71-8.59c-.66-2.53-2.35-3.49-4.81-2.95a8.86,8.86,0,0,0-5.29,2.71c-6.84,8.33-8.57,17.78-5.65,28,1,3.62,4,4.56,7.35,2.77a15.84,15.84,0,0,0,7.62-9.44C240.27,146.45,240.47,142.42,240.5,137.79Z"/><path class="e72cc420-5b40-45b8-a467-a5ec7bed35ab" d="M258.21,198c1.15-14,6.37-25.7,18.85-33.24,9.09-5.49,15.57-2.67,16.34,7.9,1,14-3.43,26.21-14.4,35.54a19.47,19.47,0,0,1-7.91,3.91c-5.51,1.42-9.53-.71-11.55-6A22.53,22.53,0,0,1,258.21,198Zm8.45-5.12c.25,2.83.31,5.69.79,8.48.57,3.32,2.77,4.57,6,3.66a11.9,11.9,0,0,0,4.31-2.39c7-5.85,10.3-21.33,5.92-29.44-1.56-2.89-3.32-4.27-6.79-2C268.88,176.45,266.34,183.91,266.66,192.92Z"/><path class="e72cc420-5b40-45b8-a467-a5ec7bed35ab" d="M293.27,250.07c-.61,14.36-6.49,25.21-19.07,31.93-7.88,4.21-12.9,2.32-15-6.3-3.32-13.79,2.13-25,11.57-34.71a22.12,22.12,0,0,1,11-6.3c5.06-1.17,8.57.83,10,5.88a33,33,0,0,1,.86,4.18C292.92,246.62,293.09,248.51,293.27,250.07Zm-8.49,3.68c0-2,0-3.74,0-5.52.07-2.67-.57-5.06-3.18-6.24s-5.15-.25-7.25,1.5a14.69,14.69,0,0,0-3,3.47,34.83,34.83,0,0,0-5,20.76,15.17,15.17,0,0,0,2.49,8.06c1.15,1.64,2.57,2.42,4.55,1.34,6.18-3.36,10.35-8.19,11.35-15.39A36.77,36.77,0,0,0,284.78,253.75Z"/><path class="e72cc420-5b40-45b8-a467-a5ec7bed35ab" d="M216,222.67c-.15-14.15,9.32-28.4,22.37-33.66,4.83-1.95,9.18.2,10.54,5.19a36.79,36.79,0,0,1-16.65,41.59,18.58,18.58,0,0,1-4.55,2c-4.56,1.27-8.28-.58-10.11-5A26.31,26.31,0,0,1,216,222.67Zm26.54-12.55a27.74,27.74,0,0,0-2.11-10.35c-1.2-3.33-3.57-4.17-6.75-2.44-4.49,2.43-7.6,5.93-8.54,11.14-1.14,6.35-1.69,12.63.24,19,1.29,4.23,3.66,5.3,7.32,2.84C239.87,225.47,242.67,218.52,242.56,210.12Z"/><path class="e72cc420-5b40-45b8-a467-a5ec7bed35ab" d="M208,227.94c-.19,12.31-4.53,22.1-13.34,29.83a24.24,24.24,0,0,1-3.42,2.54c-9,5.43-16.24,2-17-8.42-1-13.44,4.07-24.57,14.36-33.28a17.2,17.2,0,0,1,2.68-1.76c9.67-5.41,15.74-2.15,16.53,8.89C207.9,226.68,208,227.63,208,227.94Zm-8.1,5.89a19.89,19.89,0,0,0-1.5-9.57c-1.23-2.88-3.33-3.68-6-2.47-3.71,1.64-6.8,4.16-8,8.17-1.75,6.06-3,12.25-1.86,18.62.52,3,.56,6.65,4.2,7.56s5.95-1.91,8-4.38C198.83,246.72,199.86,240.67,199.9,233.83Z"/><path class="e72cc420-5b40-45b8-a467-a5ec7bed35ab" d="M147.85,202.27c-.41,2.54-1.33,5.08-4.16,6.67-8.9,5-17.75,10.12-26.62,15.19a12.06,12.06,0,0,1-1.92.92c-1,.33-2,1.09-2.81-.28s-.8-2.61.47-3.49c1.65-1.14,3.45-2.08,5.21-3.06,7.06-3.92,14.15-7.81,21.2-11.74,2.3-1.29,4.34-2.78,2.74-5.92a5,5,0,0,0-7.19-2.34c-2.77,1.35-5.47,2.87-8.13,4.43-3.54,2.06-7.14,2.2-10.41-.17-4.53-3.27-8.44-2.59-13.08.15-13.3,7.85-26.86,15.25-40.34,22.81A16.81,16.81,0,0,1,59.25,227c-1.23.35-2.78.7-3.47-.81s.53-2.39,1.67-3.12c.59-.38,1.22-.72,1.84-1.07,15.42-8.71,30.85-17.38,46.23-26.16,2.67-1.53,5-1.7,7.63,0a59.53,59.53,0,0,0,5.47,2.58,7,7,0,0,0,7.11-.43,89.74,89.74,0,0,1,8.46-4.58C140.28,190.74,148.26,195.79,147.85,202.27Z"/><path class="e72cc420-5b40-45b8-a467-a5ec7bed35ab" d="M86.38,151.53c-.15,16.89,1.39,13.48-11.79,21.29C62.93,179.72,51,186.2,39.35,193c-3,1.75-4.94,1.56-6.71-1.48-3.47-5.95-7.07-11.83-10.6-17.75-.4-.68-1.2-1.49-.38-2.21s1.54.21,2.12.69c3.27,2.75,4.89,6.68,7,10.21,4.32,7.06,4.24,7.06,11.55,2.91,11.06-6.28,22.11-12.57,33.24-18.71,4.17-2.3,6.54-5.19,5.74-10.29a37.9,37.9,0,0,1,0-8.18c.57-8.55-1.93-16.1-6.63-23.18-4.41-6.63-8.39-13.54-12.52-20.34-.47-.77-1.53-1.72-.76-2.5,1-1,1.88.35,2.72.83a8.85,8.85,0,0,1,3,3.48c5.58,9.4,11.07,18.85,16.77,28.18C87.34,140.32,86,146.47,86.38,151.53Z"/><path class="e72cc420-5b40-45b8-a467-a5ec7bed35ab" d="M137.84,143.47a5.24,5.24,0,0,1,4.85,2.7c3.64,5.84,7.38,11.63,10.85,17.58,3.11,5.33,2.42,11.25,2,17.06-.17,2.4-1.65,1.42-2.76.82-3.76-2-7.53-4-11.22-6.2a6.79,6.79,0,0,0-8,.14,68.6,68.6,0,0,1-7.44,4.19c-6.87,3.49-13.83-.62-13.94-8.34-.29-21.26,1.36-15.92-10.68-36.22-3-5-3-5.06-3-8.14,1.71-.14,2.14,1.38,2.76,2.35,5.07,7.89,10.06,15.84,15.06,23.78,1.39,2.21,1.52,4.69,1.53,7.21,0,3.56-.13,7.14.15,10.68.32,4.06,2.75,5.42,6.43,3.68a55.38,55.38,0,0,0,8.08-4.5c3.38-2.33,6.54-2.36,9.91-.15,1.48,1,3.14,1.68,4.64,2.65,2.58,1.67,3.24.33,3.45-2a18,18,0,0,0-2.73-10.88C144.52,154.36,141.15,148.93,137.84,143.47Z"/><path class="e72cc420-5b40-45b8-a467-a5ec7bed35ab" d="M323.55,86.22c0,4.16,0,8.31,0,12.47,0,2.55.68,3.68,3.31,2.13a44.09,44.09,0,0,1,4.46-2.22c.8-.37,1.7-1.17,2.55-.15a2.34,2.34,0,0,1,.17,3,7.92,7.92,0,0,1-2.17,2.29q-11.78,7.36-23.65,14.56c-.88.53-2.05,1.81-3.09.62-.81-.93-.23-2.29.27-3.38,1-2.31,3.08-3.58,5.23-4.62,3.52-1.7,5-4.44,4.9-8.31-.15-6.88-.13-13.77-.2-20.65,0-1.06.18-2.29-.88-2.93-1.23-.74-2.26.17-3.21.85-1.44,1-2.82,2.18-4.25,3.23-.45.34-.94.88-1.58.5s-.55-1.22-.31-1.89a11.08,11.08,0,0,1,2.21-4,67.6,67.6,0,0,1,9.34-8.23c4-2.83,6.48-1.71,6.83,3.27.31,4.48.06,9,.06,13.52Z"/><path class="e72cc420-5b40-45b8-a467-a5ec7bed35ab" d="M156.75,333.66c-2.57-.83-3.93-2.58-5.12-4.54-4.21-6.9-8.49-13.76-12.61-20.71a25.67,25.67,0,0,0-10.09-9.79c-13.48-7.3-26.91-14.69-40.41-22a9.44,9.44,0,0,0-13.83,9c0,1.13.71,2.67-.58,3.26-1.5.69-2.24-1-3.06-1.86A7.36,7.36,0,0,1,73,275.26c13-6.78,8-7.29,21.78-.21,11.73,6,23.27,12.43,34.95,18.54a22.44,22.44,0,0,1,9.25,9c5.3,9.16,10.92,18.13,16.36,27.2C156,330.89,157.05,331.81,156.75,333.66Z"/><path class="e72cc420-5b40-45b8-a467-a5ec7bed35ab" d="M306.19,226.71c1.65-6.47,6.33-9.86,11.35-12.84,2.17-1.29,4.73-3.78,7-2.48s1,4.6,1,7c0,7.6-.2,15.2-.19,22.8,0,3.95.88,4.45,4.49,2.9,1.93-.84,4.42-2.52,5.7-.22.94,1.7-1.87,2.87-3.23,4-7.17,5.82-15.72,9.28-23.71,13.68-1.46.8-1.91.09-1.83-1.32a5.36,5.36,0,0,1,3.62-4.87c5.81-2.35,7.28-6.7,6.82-12.6-.48-6.14-.21-12.34-.27-18.51,0-3.72-.16-3.79-3.47-1.85C311,223.82,308.59,225.27,306.19,226.71Z"/><path class="e72cc420-5b40-45b8-a467-a5ec7bed35ab" d="M335,170.21c-7.13,9-16.48,14.64-28.35,18.08a8.84,8.84,0,0,1,4.7-5.09,9.47,9.47,0,0,0,5.61-9.14c0-7.6-.11-15.19-.1-22.78,0-2.35-.75-2.78-2.66-1.41-2.22,1.6-4.49,3.11-6.75,4.64-.67.45-1.41,1.19-2.22.52s-.33-1.54-.21-2.35a5.35,5.35,0,0,1,2.31-3.46c4.29-3.37,8.57-6.76,12.9-10.07,1.09-.82,2.27-2.18,3.78-1.28,1.22.74,1,2.33,1,3.61,0,9.49,0,19,.08,28.48,0,4.22.05,4.2,3.8,2.43C330.85,171.5,332.57,170.18,335,170.21Z"/><path class="e72cc420-5b40-45b8-a467-a5ec7bed35ab" d="M165.79,317.81a58.16,58.16,0,0,1-.07,10.71c-1.15,0-1.28-.86-1.62-1.42-7.26-12-14.49-24-21.79-36a13.41,13.41,0,0,1-2.06-7.06c-.08-13.07-.16-26.13-.33-39.2,0-3,1-5.24,3.72-6.7,4.93-2.61,9.8-5.33,14.68-8,1.94-1.07,3.82-1.72,5.14.76.6,1.11,1.56,2.43.8,3.62s-1.95,0-2.95-.1c-6.58-.56-15.7,7.13-16.47,14.16a43.73,43.73,0,0,0,0,8.17,193.79,193.79,0,0,1,0,24.22,25.62,25.62,0,0,0,4,15.22c4.42,7,8.55,14.26,12.88,21.36C162.53,318.87,163.31,321.31,165.79,317.81Z"/><path class="e72cc420-5b40-45b8-a467-a5ec7bed35ab" d="M92.21,262c11.12,5.84,21.52,11.57,32.15,16.81,7.35,3.62,13.13,8.31,17.17,15.74,6.47,11.88,13.82,23.28,20.83,34.87a10.21,10.21,0,0,1,1.79,7c-1.9-.11-2.13-1.65-2.75-2.65-7.37-12.06-14.8-24.08-22-36.27A29.82,29.82,0,0,0,127,285.73c-11.38-5.89-22.61-12.1-33.88-18.21A17.61,17.61,0,0,1,89.27,265c-2.94-2.8-2.79-5.3.48-7.65a48.84,48.84,0,0,1,5.58-3.11c.93-.5,2-1.24,2.69.25.54,1.13.76,2.26-.43,3.2C96,258.91,94.46,260.17,92.21,262Z"/><path class="e72cc420-5b40-45b8-a467-a5ec7bed35ab" d="M.56,246.38c6.18,3.26,11.93,6.32,17.71,9.32,6,3.09,8.71,1.46,8.75-5.21.07-9.15,0-18.3.12-27.46a21.21,21.21,0,0,0-3.49-12.12C16,199.16,9.38,186.77,1.29,175.29a6.84,6.84,0,0,1-1-2.27,2.07,2.07,0,0,1,.81-2.52c.87-.4,1.43.64,1.91,1.28,1.33,1.82,2.75,3.59,3.89,5.53,7.24,12.28,14,24.87,21.73,36.85a27,27,0,0,1,4.19,14.9c0,7.73,0,15.45,0,23.18-.07,7-6.83,11-13,7.75-5.46-2.9-10.83-6-16.24-8.94C2,250.19.48,249.3.56,246.38Z"/><path class="e72cc420-5b40-45b8-a467-a5ec7bed35ab" d="M195.79,303.08c0,4.28,0,8.55,0,12.83s.38,4.61,4.43,3.24c1.24-.42,2.48-.82,3.74-1.15.67-.17,1.51-.32,1.93.4s-.2,1.34-.7,1.83a47.1,47.1,0,0,1-7.26,5.72,141.2,141.2,0,0,1-17,8.95c-.7.33-1.5,1.11-2.26.36-.94-.91,0-1.74.4-2.53.82-1.55,2.3-2.35,3.7-3.25,3.48-2.23,5.39-5.48,5.11-9.58-.46-6.88-.36-13.76-.23-20.65.05-2.48-.7-3-2.82-1.69-1.71,1.07-3.47,2.07-5.24,3-.59.32-1.41.76-1.87,0a2.09,2.09,0,0,1,.17-1.67,13.68,13.68,0,0,1,5-5.46c3.4-2.17,6.92-4.15,10.35-6.26,2.14-1.32,2.46-.07,2.46,1.65,0,4.75,0,9.5,0,14.25Z"/><path class="e72cc420-5b40-45b8-a467-a5ec7bed35ab" d="M237.66,279.21c0,4.75,0,9.5,0,14.25,0,2.29.64,3.14,2.9,1.91,1.78-1,3.62-1.78,5.45-2.64.62-.29,1.33-.75,2-.13s.29,1.56,0,2.33a5.33,5.33,0,0,1-2.11,2.35,93.55,93.55,0,0,1-23,13.29c-.85.34-2,1.44-2.86.18-.7-1,.19-2.05.78-2.91a11.93,11.93,0,0,1,5.4-3.95c3.27-1.42,4.51-3.82,4.43-7.33-.15-7-.06-14-.11-21,0-1.16.31-2.6-.91-3.24-1.37-.72-2.45.4-3.5,1.13-.58.41-1.07,1-1.66,1.34-1.53,1-3.27,3.27-4.81,1.75-1.16-1.16.85-3.16,1.95-4.49,3.81-4.63,9.45-6.68,14.32-9.79,1.73-1.1,1.74.93,1.75,2,.06,5,0,10,0,15Z"/><path class="e72cc420-5b40-45b8-a467-a5ec7bed35ab" d="M22.71,235.09c0,4.28-.07,8.56,0,12.83.06,2.61-.67,3.66-3.27,2.25C13.73,247.07,8,244,2.23,240.88A3.18,3.18,0,0,1,.38,238c0-1.82.43-2.82,2.51-1.69,3.75,2,7.58,4,11.34,6,1.91,1,2.85.74,2.84-1.6,0-8.79.08-17.58-.07-26.37-.06-3.28-1.72-6.1-3.57-8.79C9.61,200,5.91,194.31,2.16,188.67a11.51,11.51,0,0,1-.74-1.21C.5,185.54-1,183,1,181.71c1.57-1,2.53,1.93,3.36,3.3q8,13.26,15.75,26.69a22.34,22.34,0,0,1,2.79,12c-.11,3.8,0,7.6,0,11.4Z"/><path class="e72cc420-5b40-45b8-a467-a5ec7bed35ab" d="M5.37,121.06c0-7,0-14,0-21,0-4.67,6.07-10.57,10.65-10.44a3.13,3.13,0,0,1,2.83,1.86c.69,1.41-.61,2.09-1.45,2.4-6.95,2.51-7.18,8-6.94,14.16.35,9.25.21,18.52.09,27.78-.08,6.1.22,12.09,2.38,17.87.35.93,1.24,2.34.14,2.9-1.43.72-1.83-1.08-2.52-1.92a21.86,21.86,0,0,1-5.23-15.79c.33-5.92.07-11.87.07-17.81Z"/><path class="e72cc420-5b40-45b8-a467-a5ec7bed35ab" d="M147.06,327.49c-2.7.07-4.16-1.06-4.91-2.91-3.07-7.58-8.92-12.49-15.83-16.26-12.3-6.7-24.66-13.28-37-19.85-3.77-2-4.14-1.72-4.46,2.65-.06.87.45,2.17-.73,2.49s-1.81-.94-2.34-1.81c-1.41-2.31-2.46-4.9-.64-7.31,1.69-2.25,4.27-1.91,6.5-.8,14.34,7.13,29,13.62,42.88,21.68a20.59,20.59,0,0,1,7.74,7.65C141.07,317.9,144.11,322.67,147.06,327.49Z"/><path class="e72cc420-5b40-45b8-a467-a5ec7bed35ab" d="M154.63,297.45a9.19,9.19,0,0,1-4.42-8.24c-.05-13.07,0-26.15-.07-39.22,0-3.06,1.21-5.19,4.16-6.36a29.8,29.8,0,0,0,4-2.34c1.23-.73,2.45-1.59,3.92-.51a6.26,6.26,0,0,1,2.21,4.34c.24,1.38-.86,1-1.66,1-6.17,0-7.67,1.57-7.65,7.82q.08,19.62.11,39.22C155.21,294.48,155.52,295.81,154.63,297.45Z"/><path class="e72cc420-5b40-45b8-a467-a5ec7bed35ab" d="M129.56,139.72a9.36,9.36,0,0,1,4.17,3.53A70.58,70.58,0,0,1,144,161.14c.45,1.17,1.38,2.59.37,3.68s-2.13-.35-3.22-.58c-2.44-.52-4.86-1.12-7.3-1.63-5.7-1.19-10.51-3.85-13.7-8.83-5.64-8.81-11.13-17.72-16.66-26.59a10.05,10.05,0,0,1-1.08-2.24,1.51,1.51,0,0,1,.3-1.25c.41-.4.89,0,1.22.32a28.67,28.67,0,0,1,4.24,5.26c3.24,5.4,6.64,10.71,9.78,16.17,3.44,6,9.15,8.78,15.1,11.33a2.15,2.15,0,0,0,2.64-.23,3.44,3.44,0,0,0,.57-3.69c-1.16-3.4-3.17-6.37-5.05-9.4C130.53,142.44,129.59,141.52,129.56,139.72Z"/><path class="e72cc420-5b40-45b8-a467-a5ec7bed35ab" d="M161.66,223.42c-2.88-.18-5.28,1.1-7.67,2.47q-20.4,11.7-40.8,23.35a5.47,5.47,0,0,1-3.37.92,2.77,2.77,0,0,1-2.45-1.82c-.46-1.29.77-1.57,1.54-2,16.57-8.79,32.92-18,49.21-27.3,2.16-1.24,4.28-1.69,5.69,1.13C165.09,222.75,164.58,223.51,161.66,223.42Z"/><path class="e72cc420-5b40-45b8-a467-a5ec7bed35ab" d="M37.91,239.63c0-3.92,0-7.83,0-11.75a12.1,12.1,0,0,1,.53-3.49c.34-1,.56-2.64,2-2.53s1.31,1.73,1.61,2.82c2,7.45,1.8,15.11,1.31,22.65-.42,6.39,2.55,9.74,7.85,12,2,.83,4,1.7,4.86,3.88.38,1,1.18,2.18.44,3-.94,1-1.93-.21-2.77-.68-4.13-2.33-8.15-4.87-12.36-7.07-2.71-1.41-3.62-3.48-3.57-6.34.06-4.15,0-8.3,0-12.46Z"/><path class="e72cc420-5b40-45b8-a467-a5ec7bed35ab" d="M68.44,259.7a3.82,3.82,0,0,1-3-5.07,3.39,3.39,0,0,0,.4-1.69c-.81-4.87,2.27-7,6-8.94,7.72-4.17,15.32-8.56,23-12.86,1.13-.64,2.29-1.25,3.44-1.87,1.75-.93,3.06-.14,3.91,1.29,1.1,1.86-.82,2.12-1.8,2.69-8,4.64-16,9.33-24.09,13.77-3.61,2-5.56,4.57-5.34,8.79C71,257.63,70.58,259.4,68.44,259.7Z"/><path class="e72cc420-5b40-45b8-a467-a5ec7bed35ab" d="M12.51,223.35c0,2.89,0,5.86,0,8.82,0,2.07-.59,3-2.7,1.77-2.27-1.28-4.59-2.48-6.9-3.69a5.17,5.17,0,0,1-2.61-3.61c-.46-1.85.21-2,1.81-1.6,4.91,1.32,4.93,1.28,5-3.77,0-2-.06-4,.06-6.05.36-6-.29-11.5-4.67-16.2-1.2-1.3-3.62-4-1.61-5.33s2.64,2.23,3.85,3.6C11.31,204.71,14.19,213.34,12.51,223.35Z"/><path class="e72cc420-5b40-45b8-a467-a5ec7bed35ab" d="M34.9,263a8.21,8.21,0,0,1,4.45,1.19l20.57,11.27a7.46,7.46,0,0,1,3,2.45c.93,1.51,1.39,3.43.34,4.68s-2.36-.41-3.42-1q-13-6.94-25.94-14.06c-1-.57-3-.83-2.67-2.28C31.66,263.55,33.6,263.14,34.9,263Z"/><path class="a382e578-29e1-4ae6-8c1d-52efae92c276" d="M164.23,274.19c0,5.82,0,11.64,0,17.45,0,.88.46,2.19-.65,2.53-1.28.39-1.62-1.08-2.25-1.85-.89-1.09-.84-2.43-.84-3.74,0-11,0-22.09,0-33.13,0-1.15-.62-3.13,1.19-3.15s2.48,1.72,2.5,3.37c0,6.17,0,12.35,0,18.52Z"/><path class="e72cc420-5b40-45b8-a467-a5ec7bed35ab" d="M62.94,255.19c-3.37.48-6.66.53-9.71-.95s-5-3.52-4.8-7.19c.15-3.42,0-6.87,0-10.3,0-1.07-.47-2.6,1.28-2.86a3,3,0,0,1,3.54,2.27,8.38,8.38,0,0,1,.32,3.51c-1.06,7,2,11.64,8.24,14.45a6.37,6.37,0,0,1,.9.55C62.79,254.72,62.8,254.85,62.94,255.19Z"/><path class="e72cc420-5b40-45b8-a467-a5ec7bed35ab" d="M93.22,298.42c14.22,5.22,27.18,12.76,39.69,21.12l-.67,1.25L92.72,299.34Z"/><path class="e72cc420-5b40-45b8-a467-a5ec7bed35ab" d="M.69,89.64a7.44,7.44,0,0,1,3-5.12,21.5,21.5,0,0,1,6.25-3.33c1.19-.44,2.52-1.26,3.32.53.65,1.44.55,3-.84,3.81-3.33,2-6.71,4-10.19,5.78C.33,92.26.87,90.48.69,89.64Z"/><path class="e72cc420-5b40-45b8-a467-a5ec7bed35ab" d="M149.18,148.27a13.45,13.45,0,0,1,4.56,4.75c2.18,3.72,4.61,7.21,8.38,9.55a2.7,2.7,0,0,1,1,1c.64,1.26,1.61,2.87.52,3.94-.91.89-2.12-.51-3-1.15A19.59,19.59,0,0,1,155,160c-2.11-3.57-4.17-7.17-6.22-10.77C148.7,149.09,148.94,148.8,149.18,148.27Z"/><path class="e72cc420-5b40-45b8-a467-a5ec7bed35ab" d="M166.48,183.47a26.24,26.24,0,0,1-.41,2.93c-.26,1.11-.15,2.74-1.51,2.95-1.64.25-2.42-1.3-3-2.59-1.48-3.41-1.08-6.94-.29-10.44.44-2,1.62-1.37,2.59-.53C166.16,177.76,166.44,180.47,166.48,183.47Z"/><path class="e72cc420-5b40-45b8-a467-a5ec7bed35ab" d="M87.42,122.15c-.06-1.74.76-3.06,2.49-3.25,2.33-.26,3.54,1.62,4.69,3.22s2.13,3.19,1,5.2c-1.35,2.28-3.3,2.63-5.22.79A10.39,10.39,0,0,1,87.42,122.15Z"/><path class="e72cc420-5b40-45b8-a467-a5ec7bed35ab" d="M15.72,159.87c0-1.64.26-2.74,1.53-3.29a2.58,2.58,0,0,1,3.43.94c1.21,1.74,2.39,3.5,3.56,5.27a2.47,2.47,0,0,1-.42,3.22,2.22,2.22,0,0,1-2.88.57A9.13,9.13,0,0,1,15.72,159.87Z"/><path class="e72cc420-5b40-45b8-a467-a5ec7bed35ab" d="M52.39,228a2.56,2.56,0,0,1-2.84,2.25c-2.22,0-5.7-4.14-5.54-6.62.12-1.78.91-3.24,3-3.31C49.4,220.21,52.41,224.19,52.39,228Z"/><path class="e72cc420-5b40-45b8-a467-a5ec7bed35ab" d="M111.18,228.15c0,1.62-1.19,2.47-2.93,2.6a3.53,3.53,0,0,1-1.68-.49C104,229,101.73,225,102.49,223c.45-1.21,1.05-2.47,2.77-2.2C107.38,221.1,111.11,225.55,111.18,228.15Z"/><path class="e72cc420-5b40-45b8-a467-a5ec7bed35ab" d="M22.83,90.24c-3.06,0-7.09-6.74-5.77-9.1.84-1.5,2.14-2,3.55-1a12.8,12.8,0,0,1,4.68,6.09A3.06,3.06,0,0,1,22.83,90.24Z"/><path class="e72cc420-5b40-45b8-a467-a5ec7bed35ab" d="M101.16,253.1c0-1,1.06-2,2.81-2,2.13-.09,5.83,4.08,5.79,6.47,0,1.87-.92,3.2-2.92,3.33C104.46,261,101.26,257.07,101.16,253.1Z"/><path class="e72cc420-5b40-45b8-a467-a5ec7bed35ab" d="M61.53,260.24c2.46-.12,6.14,3.61,6.15,6.17a3,3,0,0,1-2.89,3.35c-2.43.21-5.62-3.69-5.67-6.76C59.09,261.2,60.19,260.54,61.53,260.24Z"/><path class="e72cc420-5b40-45b8-a467-a5ec7bed35ab" d="M7.12,72.38c1.31.09,3,.62,3.52,2S9.23,76,8.3,76.63C6.43,77.84,4.47,78.91,2.53,80c-.62.35-1.34.71-2,.28-.9-.6-.4-1.46-.19-2.23C1.12,75.19,4.24,72.44,7.12,72.38Z"/><path class="e72cc420-5b40-45b8-a467-a5ec7bed35ab" d="M164.32,307.22c0,1.78,0,3.56,0,5.34,0,.57-.13,1.24-.93,1.26a.8.8,0,0,1-.82-.94c.24-3.66-2-6.8-2.16-10.38-.08-1.48,0-2.73,1.75-2.89s2,1.29,2.09,2.63c.07,1.66,0,3.32,0,5Z"/></g></g></svg>