<svg xmlns="http://www.w3.org/2000/svg" viewBox="0 0 355.04 329.11"><defs><style>.cls-1,.cls-3{fill:none;}.cls-1,.cls-3,.cls-4{stroke:#231f20;stroke-miterlimit:10;}.cls-1{stroke-width:10px;}.cls-2{fill:#231f20;}.cls-3{stroke-width:7px;}.cls-4,.cls-5{fill:#fff;}.cls-4{stroke-width:3px;}</style></defs><g id="Layer_2" data-name="Layer 2"><g id="Layer_1-2" data-name="Layer 1"><path class="cls-1" d="M144.89,197.88C73.36,179.27,28.07,135.55,11.21,63.65A237.16,237.16,0,0,1,5,5.32c8,.5,15.72.53,23.34,1.56C49.84,9.8,70.63,15.33,90.24,24.74c31.29,15,55.48,37.4,71.38,68.5,1.7,3.31,1.66,5.88.12,9.24a192.45,192.45,0,0,0-11.28,31.41c-1,3.85-1.65,6.46-2.7,11.74-4.37,22-3.83,38-3.66,41.93C144.29,192,144.63,195.58,144.89,197.88Z"/><path class="cls-2" d="M354.06,12.25c4,48.06-3.81,92.52-32.06,131.85-21.68,30.18-51.77,48.19-87.14,57.89-22.08,6.06-44.68,8.45-67.55,8.31-.64,0-1.28-.17-3.12-.43,0-8.91-.49-17.87.1-26.76,1.54-23.18,6.58-45.62,16.19-66.86,20-44.2,53.6-73.57,98.93-90,22-8,44.83-11.85,68-14C349.38,12.09,351.35,12.25,354.06,12.25ZM186.8,168.79c.63-.7,1.3-1.37,1.9-2.11,19.24-23.7,39.69-46.26,63.26-65.79,14-11.6,28.66-22.21,46.17-28,3.85-1.28,7.89-2,11.84-3-48.79,29.77-87.26,68.83-115.32,119.45,43.62-5.09,81.86-18.73,109.09-53.86,23.13-29.83,31.38-64.5,31.58-102-37.52,4.8-71.78,15.71-100.21,40.63S191.83,131.46,186.8,168.79Z"/><path class="cls-3" d="M155.1,148.66a433.05,433.05,0,0,1-64.69-46,435.6,435.6,0,0,1-81-92.59"/><path class="cls-4" d="M238.19,298.66c-3.41,0-6.52.11-9.62-.09-.57,0-1.48-1.32-1.53-2.07a86.33,86.33,0,0,1,0-9.38,4.41,4.41,0,0,0-2.4-4.58c-1.79-1-3.45-2.27-5.17-3.39a52.27,52.27,0,0,0-5.71-3.63c-2.25-1.09-2.71-2.87-2.78-5-.2-6.68-.47-13.35-.55-20,0-2-.6-2.69-2.68-2.65-7.81.12-15.64.09-23.46,0-1.84,0-2.7.56-2.67,2.54.09,7.47,0,15,.12,22.42q.17,11.57.6,23.14c.08,2.21-.68,2.91-2.88,2.72-2.44-.21-4.91,0-7.67,0,0-.44-.15-1.52-.15-2.61,0-15-.09-30.07,0-45.1,0-2.42-.73-3.13-3.08-3.08q-11.47.19-22.94.07c-2.18,0-2.86.71-2.82,2.87.13,6.16-.11,12.34.13,18.5.15,3.84-2,5.88-4.78,7.71-3.53,2.31-7.13,4.54-10.56,7a4.06,4.06,0,0,0-1.26,2.84c-.14,3.81-.06,7.63-.06,11.68H113.82c0-6.18-.19-12.16.13-18.11.08-1.37,1.68-2.88,2.91-3.92a58.74,58.74,0,0,1,5.89-4c2-1.32,4.15-2.5,6-4a4.3,4.3,0,0,0,1.52-2.85c.15-5,0-10.07.1-15.11,0-2-.74-2.58-2.61-2.57-9,.07-17.9.06-26.85.07-3.39,0-3.5-.09-3.5-3.52,0-9-.07-17.9,0-26.84,0-2.37-.69-3.23-3.12-3.14-4.6.18-9.21.08-13.82.05a2.69,2.69,0,0,0-2.76,1.56c-2.07,3.49-4.67,6.66-6.75,10.14-1.31,2.2-2.27,4.52-5.15,5a12.59,12.59,0,0,1-2,.42c-5.21,0-10.43,0-15.64,0-1.77,0-3-.48-2.88-2.69.12-2.43,0-4.88,0-7.32a11.39,11.39,0,0,1,.18-1.51,102.11,102.11,0,0,1,10.52.07c4,.43,5.69-2.08,7.46-4.87,2.21-3.49,4.45-7,7-10.27a5.14,5.14,0,0,1,3.59-1.42c6.6-.14,13.21-.08,19.81-.1,3.07,0,3.53-.45,3.54-3.39q0-10.56,0-21.12c0-3.37-.61-4-3.88-4l-42,.12a43.15,43.15,0,0,1-5.09-.19,1.83,1.83,0,0,1-1.07-1.4c0-3,.24-6.08.41-9.51h48.1c3.36,0,3.5-.14,3.5-3.51,0-7.3,0-14.6,0-21.9,0-2.22-.68-3.41-3.13-3.34-3.82.12-7.65-.07-11.47.08s-7.66.58-11.49.9-6-1.95-7.77-5c-2.14-3.59-4.49-7.07-6.93-10.47a4,4,0,0,0-2.68-1.1c-2.16-.16-4.34-.09-6.51-.06-1.56,0-2.21-.72-2.12-2.24.17-3,.33-5.9.51-9.27h8.66c2.52,0,5,.1,7.56,0,3-.15,4.94,1.29,6.53,3.77,2.61,4.08,5.41,8,8.27,11.95a3.8,3.8,0,0,0,2.59,1.38c4.77.14,9.56.09,14.33.08,2.84,0,3.61-.74,3.63-3.71,0-6.43,0-12.86,0-19.29,0-2.87.06-5.73,0-8.6,0-1.88.68-2.58,2.62-2.56,9.12.08,18.25,0,27.37.09,2.43,0,3.12-.75,3-3.12a105.45,105.45,0,0,1,0-13.54c.32-3.5-2-4.57-4.15-6-3.49-2.29-7.07-4.45-10.41-6.93a5.47,5.47,0,0,1-2-3.64c-.22-5.79-.1-11.59-.1-17.7,3.3,0,6.32-.09,9.32.1.49,0,1.28,1.25,1.31,1.95.13,3.38.11,6.77,0,10.16a3,3,0,0,0,1.63,3.06c4.44,2.73,8.83,5.53,13.07,8.54a4.92,4.92,0,0,1,1.67,3.46c.2,6.34.15,12.68.17,19,0,4.6,0,4.57,4.68,4.55,6.95,0,13.9-.07,20.85.07,2.49,0,3.35-.7,3.33-3.26-.1-14.86,0-29.72-.1-44.58,0-2.53.63-3.39,3.23-3a60.59,60.59,0,0,0,7.29.06c0,.49.13,1.6.13,2.71,0,15,.09,29.89-.06,44.84,0,2.77.87,3.34,3.4,3.28,7.47-.16,14.94-.15,22.41-.07,1.93,0,2.57-.55,2.54-2.51-.11-6.16.1-12.34-.11-18.5a6.93,6.93,0,0,1,3.11-6.17c4-2.86,8.26-5.3,12.26-8.13a4.86,4.86,0,0,0,1.76-3.3c.22-4,.09-7.95.09-12.32,3.45,0,6.63-.09,9.8.08a2.39,2.39,0,0,1,1.58,1.73c.1,5.64.05,11.29,0,16.94,0,2.88-2.73,3.43-4.42,4.66-3.61,2.61-7.54,4.76-11.22,7.27a3.68,3.68,0,0,0-1.28,2.63c-.06,5,.11,10.08.11,15.11,0,1.94.88,2.51,2.7,2.5,9.21-.06,18.42,0,27.63-.09,2.45,0,3.17.81,3.14,3.15-.09,8.94-.05,17.89,0,26.84,0,3.22.59,3.41,3.84,3.13,3.54-.31,7.12-.11,10.68-.11,5.41,0,7.18-1.42,9.55-6.28a58,58,0,0,1,5.48-8.26,3.22,3.22,0,0,1,2.15-1.27c6.32-.1,12.63-.06,18.43-.06.31,3.36.69,6.45.77,9.55,0,.57-1.14,1.63-1.81,1.67-3.29.17-6.6.17-9.9,0a3.73,3.73,0,0,0-3.75,2c-2.16,3.52-4.56,6.89-6.68,10.43-1.89,3.15-4.83,4.13-8.15,4.21-5.65.12-11.3,0-16.95.06-1.1,0-2.21.13-3.69.22v7.64c0,5.65.09,11.3,0,16.94-.06,2.37.77,3.13,3.13,3.12,14.94-.09,29.89-.07,44.83-.07,1,0,2,.12,2.72.16v10.52c-.63.05-1.61.19-2.59.2l-44.57,0c-3.44,0-3.42,0-3.42,3.45q0,10.95,0,21.89c0,3.18.14,3.39,3.41,3.32,4.92-.12,9.84-.49,14.76-.51a86.05,86.05,0,0,1,10.89.67,5.08,5.08,0,0,1,2.94,2.17c2.45,3.5,4.65,7.16,7,10.7,1.16,1.74,2.62,3,5,2.81,2.23-.17,4.48,0,6.59,0v11.2a21,21,0,0,1-2.24.22c-4.69,0-9.39.07-14.06-.19a5.74,5.74,0,0,1-3.89-1.9c-3-4.14-5.74-8.53-8.6-12.8-.35-.54-.85-1.36-1.31-1.38-6-.37-12.06-.71-18.1-.82-1.78,0-2.48,1.28-2.45,3.2.1,9.21,0,18.42.13,27.63,0,2.48-.67,3.3-3.23,3.26-9-.14-18.07,0-27.11-.07-2.07,0-2.68.65-2.62,2.68.13,4.86.08,9.73,0,14.6a3.48,3.48,0,0,0,2.2,3.74c3.71,2,6.81,5.06,10.51,7.07,3.87,2.09,4.79,5,4.54,9.06C238,289.44,238.19,293.94,238.19,298.66ZM232,225.05c-.19-1.35-.4-2.19-.42-3-.35-13.15-.28-26.28-.84-39.44-.93-21.68-.29-43.43-.2-65.15,0-2.62-.74-3.41-3.39-3.4q-52.24.12-104.51,0c-2.32,0-3.17.61-3.16,3.07q.11,52.26,0,104.51c0,3.41,0,3.41,3.54,3.41l105.81,0Z"/><path class="cls-2" d="M232,225.05h-3.12l-105.81,0c-3.53,0-3.54,0-3.54-3.41q0-52.24,0-104.51c0-2.46.84-3.07,3.16-3.07q52.26.09,104.51,0c2.65,0,3.4.78,3.39,3.4-.09,21.72-.73,43.47.2,65.15.56,13.16.49,26.29.84,39.44C231.59,222.86,231.8,223.7,232,225.05Z"/><circle class="cls-4" cx="32.47" cy="114.02" r="17.06"/><circle class="cls-4" cx="32.47" cy="169.56" r="17.06"/><circle class="cls-4" cx="32.47" cy="225.1" r="17.06"/><circle class="cls-4" cx="119.47" cy="310.55" r="17.06"/><circle class="cls-4" cx="176.74" cy="310.55" r="17.06"/><circle class="cls-4" cx="231.99" cy="310.55" r="17.06"/><circle class="cls-4" cx="317.77" cy="225.1" r="17.06"/><circle class="cls-4" cx="317.77" cy="169.52" r="17.06"/><circle class="cls-4" cx="317.77" cy="114.02" r="17.06"/><circle class="cls-4" cx="231.99" cy="29.26" r="17.06"/><circle class="cls-4" cx="175.73" cy="29.26" r="17.06"/><circle class="cls-4" cx="119.47" cy="29.26" r="17.06"/><path d="M175.13,269.39H135.6c-8.17,0-14.72-3.22-19.14-10.19a16.78,16.78,0,0,1-2.08-5.54c-1.38-6.7,1.07-12.74,3.61-18.73s5.08-12,7.63-18c3.33-7.81,6.72-15.6,10-23.43,2-4.84,3.78-9.79,5.87-14.59,2.2-5.08,5-9.91,6.87-15.1s3.46-10.43,3.71-15.74c.57-12,.31-24.08.2-36.13a21.86,21.86,0,0,0-1.46-6.38,4.75,4.75,0,0,1,3.47-6.38c8.38-1.64,16.82-2.73,25.34-2.09,5.46.42,10.9,1.3,16.31,2.17,2.63.42,4,4.77,3,7.59a24.14,24.14,0,0,0-1.84,7.61c-.22,9.6-.19,19.21,0,28.8a42.47,42.47,0,0,0,1.17,10.83A164.76,164.76,0,0,0,204,170c2.4,6,5,11.86,7.46,17.81,2.78,6.67,5.48,13.38,8.26,20.05q4.86,11.66,9.82,23.27c1.79,4.18,4,8.19,5.52,12.47,1.61,4.59,1.68,13.59-3.18,17.35-2.19,1.7-4.07,3.82-6.29,5.47a16.33,16.33,0,0,1-10.12,3C202.05,269.36,188.59,269.39,175.13,269.39ZM157.65,104.73c.5,2.28,1.26,4,1.24,5.81-.23,13.79-.45,27.58-1.06,41.36a35.48,35.48,0,0,1-2.54,11.58c-4.34,10.64-9.16,21.08-13.73,31.63Q136.4,207,131.4,219c-3.31,7.9-6.56,15.82-9.82,23.74-1.81,4.42-2.56,8.81.19,13.22,3.36,5.36,8.55,7.54,14.45,7.57q38.26.24,76.53,0a20,20,0,0,0,9.23-2.3c5-2.74,9.32-8.32,6.66-15.11-1.12-2.89-2.3-5.75-3.46-8.63-3.17-7.87-6.27-15.77-9.53-23.61-3.55-8.5-7.3-16.92-10.86-25.43-2.81-6.73-5.23-13.64-8.25-20.28-3.39-7.43-5.48-15-5.41-23.25.09-10.26,0-20.52.05-30.78,0-2.94.3-5.87.48-9.15C180.87,102.94,169.55,103.24,157.65,104.73Z"/><path class="cls-5" d="M157.65,104.73c11.9-1.49,23.22-1.79,34,.22-.18,3.28-.47,6.21-.48,9.15-.06,10.26,0,20.52-.05,30.78-.07,8.21,2,15.82,5.41,23.25,3,6.64,5.44,13.55,8.25,20.28,3.56,8.51,7.31,16.93,10.86,25.43,3.26,7.84,6.36,15.74,9.53,23.61,1.16,2.88,2.34,5.74,3.46,8.63,2.66,6.79-1.68,12.37-6.66,15.11a20,20,0,0,1-9.23,2.3q-38.26.27-76.53,0c-5.9,0-11.09-2.21-14.45-7.57-2.75-4.41-2-8.8-.19-13.22,3.26-7.92,6.51-15.84,9.82-23.74s6.72-15.95,10.16-23.89c4.57-10.55,9.39-21,13.73-31.63a35.48,35.48,0,0,0,2.54-11.58c.61-13.78.83-27.57,1.06-41.36C158.91,108.78,158.15,107,157.65,104.73Zm19.71,154.35v.22h7.35c10.45-.05,20.91.06,31.35-.2,6.59-.17,11.2-7.47,8.71-13.27-4.83-11.3-9.71-22.57-14.49-33.89-4.91-11.63-9.81-23.26-14.56-35-3.3-8.16-7.67-16-8.27-25.07-.08-1.29-1.36-2.62-2.37-3.66a2.91,2.91,0,0,0-2.47-.6c-.52.15-1,1.3-1,2a17.27,17.27,0,0,0,.34,3.92c1,5.59,2.32,11.15,3,16.78a86.29,86.29,0,0,1,.15,13.55c-.45,9.63-3.18,18.1-11.79,23.89-7.34,4.94-14.9,9.39-23.2,12.46a10.1,10.1,0,0,0-6.47,6.09c-1.78,4.57-3.85,9-5.84,13.52-1.91,4.3-3.58,8.58-3,13.49.54,4.66,1.4,5.71,6,5.71Z"/><path d="M177.36,259.08H140.65c-4.55,0-5.41-1.05-6-5.71-.57-4.91,1.1-9.19,3-13.49,2-4.49,4.06-8.95,5.84-13.52a10.1,10.1,0,0,1,6.47-6.09c8.3-3.07,15.86-7.52,23.2-12.46,8.61-5.79,11.34-14.26,11.79-23.89a86.29,86.29,0,0,0-.15-13.55c-.63-5.63-2-11.19-3-16.78a17.27,17.27,0,0,1-.34-3.92c0-.72.52-1.87,1-2a2.91,2.91,0,0,1,2.47.6c1,1,2.29,2.37,2.37,3.66.6,9.1,5,16.91,8.27,25.07,4.75,11.7,9.65,23.33,14.56,35,4.78,11.32,9.66,22.59,14.49,33.89,2.49,5.8-2.12,13.1-8.71,13.27-10.44.26-20.9.15-31.35.2h-7.35ZM203.09,215l1-.38q-6.47-15.08-12.94-30.15l-.91.38C190,196.77,195.38,206.37,203.09,215Z"/><path class="cls-5" d="M203.09,215c-7.71-8.6-13.06-18.2-12.86-30.15l.91-.38q6.48,15.08,12.94,30.15Z"/></g></g></svg>