<svg xmlns="http://www.w3.org/2000/svg" viewBox="0 0 272.84 287.75"><defs><style>.cls-1{fill:#fff;}</style></defs><title>ideathon svg</title><g id="Layer_2" data-name="Layer 2"><g id="Layer_1-2" data-name="Layer 1"><g id="ba29ec12-6e57-4da7-9bc3-ebc8ab83c59c"><path class="cls-1" d="M221.06,211.61l14.35,34.64-25.15,21-28.88-22.72s-11.92,6.72-18.8,6.9l-10.8,36.32H119l-7.26-36.14S100,248.82,92,245.1L60.34,266l-25-21.23L52.46,212.5s-8.74-12.1-10-17.32l-37-4.47L0,159.24l32.6-13.38H78.74c0,32,25.71,54.5,57.67,54.5s58.13-22.69,58.13-54.64l45.88-.07L272.84,162l-5.22,32.21-37.25.93S225.71,207.34,221.06,211.61Z"/><path class="cls-1" d="M201.22,83l-.14.43-14.84,39.63A9.63,9.63,0,0,1,182.7,128L170,139.15a5.48,5.48,0,0,1-7.22-8.24L176,119.38,190.7,80a.48.48,0,0,0-.08-.31l-.2-.34-28.76-52c-8.2-11.14-16.52-16.66-24.72-16.37-13,.44-22.82,15.07-23.59,16.25L83.44,79.68a1.1,1.1,0,0,0-.07,1l14.26,35.2a1.22,1.22,0,0,0,.26.38l13.63,13.52a5.47,5.47,0,1,1-7.71,7.77L90.18,124a12.08,12.08,0,0,1-2.7-4L73.22,84.79a12,12,0,0,1,.7-10.49L104,21.5C104.54,20.65,117.2.74,136.51,0c12.13-.43,23.64,6.67,34.2,21.13l.37.58,28.84,52.2A11.47,11.47,0,0,1,201.22,83Z"/><path class="cls-1" d="M128.09,47.31v4.58c-.18.14-.29.31-.41.32-5.56.54-6.14,1.16-6.23,6.72,0,3,0,6-.17,9-.23,4.62-1.74,8.56-6.73,10.75,5.81,2.61,6.64,7.56,6.87,12.75.12,2.78,0,5.56.07,8.33.06,4.56,1,5.55,5.53,5.86a7.42,7.42,0,0,1,1,.14,8.31,8.31,0,0,1,.15,1v3.75c-6.91,1.8-11.88-1.64-12.31-8.52-.25-3.95-.31-7.92-.46-11.88-.22-5.78-1.22-7.16-6.62-9V76.18c5.6-.51,6.59-4.47,6.65-9.14,0-3.33.13-6.66.3-10,.42-7.87,4.3-11,12.39-9.75"/><path class="cls-1" d="M164.09,81.29c-5.23.47-6.54,4.08-6.69,8.52-.13,3.65-.11,7.3-.24,11-.2,5.46-2.37,8.84-6.58,9.83a35.44,35.44,0,0,1-5.82.4V105.9c6.31-1.08,6.6-1.44,6.65-8,0-2.69,0-5.39.12-8.09.16-4.73,1.72-8.7,6.57-11.1-6.08-2.92-6.7-8.25-6.71-13.87,0-2.54,0-5.08-.17-7.61-.18-3.79-1.08-4.67-4.88-5a10.35,10.35,0,0,1-1.58-.09V47.32c7.67-1.37,11.81,1.76,12.33,9.42.24,3.56.07,7.14.31,10.7.41,6.08,1.11,6.92,6.69,9Z"/></g></g></g></svg>