<svg xmlns="http://www.w3.org/2000/svg" viewBox="0 0 407.55 455.79"><defs><style>.cls-1{fill:#fff;}</style></defs><g id="Layer_2" data-name="Layer 2"><g id="Layer_1-2" data-name="Layer 1"><path class="cls-1" d="M208.55,128.06H320v-5.59c0-14.17,0-28.34,0-42.51,0-1.82-.36-4.08.55-5.35,1.28-1.77,3.66-3.92,5.42-3.8s4.06,2.89,4.33,4.75c.65,4.41.35,9,.19,13.47-.18,5,2.26,7.68,6.91,8.94,8.86,2.4,12,6.5,12.1,15.68,0,2.33-.13,4.66-.16,7-.12,8.38,2.57,12.1,10.66,14.59,7.73,2.37,15.06,5.36,20.23,12,7.1,9.17,6.32,19.67,4.82,30.13-1.64,11.44-.85,21.73,8.73,30,5.37,4.66,4.43,13.41-2.05,18.32-6.33,4.8-8.2,10.41-6.62,17.87a20.07,20.07,0,0,1-.23,6.94c-1.18,7.78,1.06,12.34,8.05,15.92,12.68,6.49,17.63,19.47,12.67,32.84-1.45,3.93-3.66,6.65-8.1,5.19s-3.17-5.19-2.3-8.4c3.11-11.56-2.46-21.35-12.92-22.59-12.55-1.5-21.54,8.69-18.56,21a20.16,20.16,0,0,0,.89,2.86c1.41,3.58.61,6.26-3.18,7.56s-5.54-1.07-6.93-4a26.22,26.22,0,0,1,10.26-33.9c1.58-.93,3.64-1.48,4.64-2.83,1.88-2.52,4.1-5.39,4.46-8.32a97.13,97.13,0,0,0,.06-17,21.56,21.56,0,0,0-6.79-15.08c-6.38-6-5.8-12.92.22-18.95,3-3,6-7.41,6.25-11.35.67-10.93,0-22-.36-32.93-.2-6.42-4-10.45-9.76-12.61-4.32-1.63-8.8-2.81-14-4.43,0,3.25.05,5.69,0,8.12-.27,10-4.71,16.08-14.35,18.32-3.72.86-4.74,2.23-4.71,5.9.16,20.67.12,41.34.05,62-.06,18.64-9.54,28.27-28.32,28.6-10.83.19-21.66,0-32.5,0-6.83,0-9.09,1.74-11.33,8.24-2.8,8.09-5.92,10.45-14.65,10.72-5,.16-10,0-15,.1-6.58.13-8.19,1.7-8.21,8.42-.06,20.5,0,41,0,61.51,0,2.33.08,4.68-.14,7-.36,3.89,1.55,5,5.07,4.74,2.49-.17,3.05-.75,2.88-3.63-.68-11.58-1.06-23.2-.89-34.79.06-4.59,3.83-7.16,8.95-6.53,7.12.87,11.8-1.9,16.33-7.23,2.69-3.15,7.29-5.36,11.44-6.45a78.76,78.76,0,0,1,44.79.86c4.15,1.33,8,4.56,11.13,7.79,3.44,3.57,7,5.2,11.87,5,9.48-.33,11.82,2.13,11.73,11.54-.08,8.84.13,17.68-.21,26.5a13,13,0,0,1-2.67,7.14c-4.75,6-4.73,8.83,1.27,13.73,7.75,6.34,12.38,14.15,12.64,24.4a28,28,0,0,1-11.28,23.88,14.06,14.06,0,0,0-5.7,10.46c-1.17,10.69-6.64,15.63-17.45,15.67q-35,.13-70,0c-10.74,0-17-6.44-17.24-17.1-.09-5,.25-10-.13-15-.18-2.32-1.15-6.13-2.52-6.5-3.46-.94-7.66-1.79-10.56,2-.5.66-1,1.34-1.53,2-8.87,10.24-20.32,10.36-29-.08-2.75-3.31-5.56-4.65-9.8-4.46-3.75.16-4.79,1.75-5,5.18-.42,6.46-1,12.94-2,19.34-1.56,10.21-5.44,14.24-15.79,14.43-23.83.42-47.67.38-71.5.06-8.94-.12-13.35-4.75-14.91-14.5a17.69,17.69,0,0,0-6.51-11.72c-15.27-12.75-14.84-34.16.6-46.79,6.77-5.53,7.26-8.62,2.53-16-4.1-6.4-4.21-13.5-3.69-20.73.36-5.14.75-10.29.84-15.44.1-5.77,1.82-7.78,7.64-8.05,2.16-.1,4.5.51,6.46-.13,3-1,6.7-2.07,8.46-4.36a24.17,24.17,0,0,1,13.86-9.13c14.82-3.75,29.73-3.95,44.33.66,4.32,1.37,8.4,4.56,11.7,7.82,3.43,3.41,6.68,5.51,11.71,5.21,9.44-.57,12.32,2.42,12.3,11.77,0,10.81,0,21.61,0,32.6,5.73,1.35,6.53.83,6.54-5.16,0-23.34-.12-46.68.12-70,0-5-1.78-6.17-6.39-6.09a173.81,173.81,0,0,1-21.41-.83c-5.82-.61-9.41-4.32-10.92-10.16-1.74-6.76-3.43-7.87-10.55-7.89-2.66,0-5.33,0-8,.08-3.81.11-6-1.43-6-5.52-.06-4.32,2.63-5.36,6.16-5.44,6.49-.14,13,0,19.47-.4a14.46,14.46,0,0,0,13.24-17.55c-.55-2.83-1.75-4.29-5-4.28q-32.74.13-65.51,0c-3.39,0-4.69,1.49-4.83,4.82-.4,9.67,4.61,15.91,14.26,17.1,3.63.44,7.3.52,11,.63,3.21.1,5.54,1.21,6,4.7s-2.05,4.92-4.89,5.88c-17.24,5.81-36.55-7.62-36.74-25.84-.22-20.84-.13-41.68,0-62.52,0-5-1.71-8-6.86-9.31-8.32-2.16-11.45-6.32-12-15-.2-2.95,0-5.93,0-8.84-12.45-1.25-22.61,5.84-23.67,17.25a269.91,269.91,0,0,0-.67,31.93c.07,2.74,2.29,5.88,4.35,8,8.76,9.12,8.59,16.19-.2,25.4-2.38,2.5-3.72,6.55-4.3,10.08-.72,4.38.22,9-.23,13.47-.79,7.69,2.36,12.53,9.15,16,12.16,6.17,16.81,22.62,10.17,34.49-1.56,2.8-3.57,4.33-6.9,3.07s-4.12-3.56-2.93-6.78a19.4,19.4,0,0,0,1-3.35c1-5.39,1.06-10.61-2.88-15.1-5.33-6.1-13.63-8.07-20.3-4.74-7.49,3.73-10.88,11.29-8.84,19.71a32.14,32.14,0,0,0,.94,3.36c1.07,2.95.54,5.53-2.54,6.54s-5.74.23-7.47-3.11c-6-11.63-1.86-28.08,10-33.91,8.87-4.35,11.13-10.52,9.92-19.35-.43-3.12-.38-6.32-.53-9.48a20.47,20.47,0,0,0-6.76-14.52c-6.49-6.06-6.82-13.77,0-19.35,6-4.91,7.63-10.84,7.44-18-.26-10-.21-20-.41-30-.13-6.24,1.78-10.83,8.18-13.27a154.63,154.63,0,0,0,17.14-8.07c9.42-5,12.71-12,11-22.29-1.27-7.49,2.29-13,9.63-15C76.61,95.93,77,95.48,77,86.85c0-13.33,0-26.67,0-40,.07-18.67,14-30.1,32.49-28.27,11.89,1.18,24,.35,36,.39,5.17,0,10.34-.13,15.5,0,3.95.09,6.09-1.56,7-5.48,2.08-9,6.9-13.15,16-13.3q20-.34,40,0c8.33.16,13.73,4.18,15.31,11.66,1.18,5.62,4.34,7.21,9.52,7.18,18.14-.09,36.3-.23,54.44.08,21,.36,35.16,22.21,27,41.62-.72,1.7-3.35,3.65-5,3.57s-4-2.48-4.29-4.18c-1-5.54-1.09-11.24-1.74-16.85-1.38-11.91-16-18.05-25.73-10.91Q252.94,62,212.36,91.6c-2.66,1.93-4,3.83-3.9,7.32C208.74,108.41,208.55,117.9,208.55,128.06ZM199,128c0-10.36.2-20-.16-29.67a9.46,9.46,0,0,0-3.3-6.44c-26.36-19.52-52.92-38.74-79.28-58.24-3.84-2.84-7.22-4.07-12.17-3.26-13.59,2.2-16.43,5-16.56,18.73,0,.5,0,1,0,1.5q0,36,0,72V128Zm121,62.82c-3.45,1.26-6.62,1.93-9.28,3.48-11.3,6.62-22,6.14-32.51-1.78-4.24-3.2-8.44-3.21-13.31-.54-5.94,3.27-12.44,7.78-18.63,7.68-5.95-.1-11.81-5.41-17.71-8.43-.15-.07-.28-.23-.43-.24-2.5-.19-5.22-1.1-7.46-.42-7.93,2.44-15.78,5.2-23.48,8.29-3.44,1.38-6.42,1.54-9.26-.7-11.55-9.11-23.62-9.74-36.19-2.35-8.58,5-16.79,4.19-25.16-.73s-16.94-6.75-26.91-3.31c-12,4.14-12.22,3.4-12.25,16.12,0,14.58.1,14.67,14.71,14.67L307,222.54c2.33,0,4.66-.09,7-.23,3.75-.22,5.93-2.3,6-6C320.14,208,320,199.74,320,190.86ZM87.78,163.42c5.29-1.31,10.31-2.3,15.15-3.83,6.74-2.12,13.16-2.73,19.39,1.47,11.58,7.81,23.41,7.61,35.3.74,8.91-5.14,17.41-4.93,25.71,1.41a18.56,18.56,0,0,0,6.19,3.17c2.35.64,5.15,1.22,7.36.54a230.87,230.87,0,0,0,22-7.86c4.62-1.95,8.38-1.7,12.52,1.06a85.46,85.46,0,0,0,12.31,6.58,7.63,7.63,0,0,0,5.4.24c6.32-2.54,12.56-5.31,18.64-8.35,3.06-1.54,5.5-1.27,8.36.34,5.07,2.86,10.27,5.49,15.54,7.94a7.51,7.51,0,0,0,5.08.55c6.92-2.34,13.75-4.95,20.53-7.67,1.12-.44,2.55-1.91,2.59-2.95.25-5.94.12-11.9.12-18.2H87.78ZM127,29.75,203.9,86l76.89-56.28ZM284.77,333.41c-13.66,0-27.32.17-41-.11-3.91-.08-5.58.88-5.46,4.86.17,5.29.07,10.6.2,15.89.08,3.12,1.87,4.32,4.94,4.17,3.28-.16,6.75-.66,9.79.19,1.76.49,3.82,3.3,3.95,5.19.11,1.5-2.23,3.72-4,4.63-1.61.83-3.91.46-5.9.39-3.33-.12-4,1.83-3.56,4.5.84,5.28,5,5.73,9.09,5.75,22,.1,44,.09,66,.1.82,0,1.64-.28,2.47-.36,3.72-.39,6-2.34,5.62-6.18s-3.55-3.77-6.45-3.77q-24,0-48,0c-1.65,0-3.73.32-4.85-.52-1.77-1.31-3.86-3.43-4-5.31-.08-1.47,2.36-3.7,4.17-4.51,2-.89,4.56-.69,6.88-.71,16.83-.1,33.66-.07,50.49-.23,6.14-.05,7.7-1.73,7.86-7.73.09-3.33,0-6.66,0-10,.08-4.08-1.74-6.24-5.94-6.23ZM87.55,184.73a6.33,6.33,0,0,0,1.54.19c8.06-1.91,16.3-5.88,24.13-5.19,8,.72,15.6,6.14,23.5,9.19a9.56,9.56,0,0,0,6.05,0q11.8-4,23.39-8.63a9.87,9.87,0,0,1,9.44.56c4.43,2.62,9.12,4.82,13.63,7.33a8.34,8.34,0,0,0,7.89.61c7.7-3.09,15.64-5.59,23.38-8.57a9.8,9.8,0,0,1,9.41.8,105.16,105.16,0,0,0,13.22,7,9.89,9.89,0,0,0,6.74.22c6.21-2.38,12.09-5.58,18.31-7.91a10.91,10.91,0,0,1,7.41.19c5.5,2.32,10.65,5.46,16.08,8a8.19,8.19,0,0,0,5.49.53c6.76-2.29,13.44-4.86,20-7.64a5.74,5.74,0,0,0,2.72-3.83c.44-2.52.12-5.17.12-8.52-6.19,2.33-11.79,3.94-16.94,6.49-6.24,3.09-11.76,3.13-17.57-.94a49.74,49.74,0,0,0-10.66-5.42,9.69,9.69,0,0,0-6.37-.23,110.25,110.25,0,0,0-15.92,7.12c-4.64,2.64-8.7,2.81-12.76-.54-10.17-8.38-20.83-8.49-32-2.18-10.16,5.73-20,5.6-29.37-1.81a15.93,15.93,0,0,0-5.31-2.72,10.19,10.19,0,0,0-5.56-.3c-7.25,2.4-14.48,4.91-21.54,7.84-4.77,2-9,2-13.62-.47a142.93,142.93,0,0,0-16.46-7.13,12.8,12.8,0,0,0-6.72-.83c-6.33,1.3-12.58,3-18.79,4.84-1.12.33-2.62,1.69-2.75,2.72A78.92,78.92,0,0,0,87.55,184.73ZM99.26,320.85c1.88.89,2.44,1.17,3,1.42,2.87,1.23,5.57,2.61,4.71,6.5-.9,4.11-3.84,5-7.56,4.76C94,333.2,88.5,333,83,332.75s-8.41,2.37-8.59,7.92c-.07,2.33,0,4.66.09,7,.15,8.65,2,10.59,10.65,10.5,18.15-.2,36.29-.5,54.44-.71,7.82-.1,15.67.19,23.47-.3,2.06-.14,5.38-2.29,5.68-4,.88-4.83.63-9.89.59-14.86,0-3.52-2.31-4.94-5.6-4.94-6.78,0-13.56,0-20.34,0-8.16,0-16.32.15-24.47-.12-5.16-.17-7.89-4.63-4.93-8,1.52-1.71,4.54-2.74,7-2.88,6.81-.39,13.65-.13,20.48-.18,1.5,0,3-.27,4.49-.41l-.08-1.88C130.82,316.74,115.75,317.9,99.26,320.85Zm186.38,68.8v-.08c-12.16,0-24.33.1-36.49-.05-5-.06-6.72,1.64-5.47,6.5,1,4.11,4.12,5.22,8,5.2q17.25-.08,34.5,0c3.62,0,6.5.84,6.66,5.47.17,5.08-3,5.08-6.59,5.06-12.83-.09-25.66-.06-38.48-.25-3-.05-4.18,1-4.25,4-.15,6.24,2.5,8.26,11.24,8.26q30.5,0,61,0a31.56,31.56,0,0,0,6.45-.51c4.63-1,5.2-4.51,5-8.48-.27-4.47-3.57-2.94-6-3-4.82-.17-9.69.18-14.44-.47-1.65-.23-4.09-2.74-4.16-4.29s2.05-3.93,3.77-4.74c2.11-1,4.8-.85,7.26-1,3-.21,6,.07,9-.42,4.64-.76,4.67-4.48,4.55-8.13-.13-4.14-3.26-3-5.52-3C309.63,389.61,297.64,389.65,285.64,389.65ZM81.11,434.57c-1.42,7.63.83,10.61,7.86,10.62q33,.07,66,0a12.8,12.8,0,0,0,5.77-1.19,5.87,5.87,0,0,0,2.73-8.09c-.58-1.18-3.75-1.49-5.74-1.5-15.82,0-31.64.21-47.45.07-3.5,0-5.9-2.18-5.3-6.26.55-3.81,3.31-4.67,6.51-4.66,13.66.06,27.31.23,41,.26a24.1,24.1,0,0,0,7.41-.79c4.12-1.33,4.49-5,4.12-8.62-.39-3.93-3.34-2.79-5.73-2.72-1.66.06-3.33.08-5,.08q-34,0-68,0c-1.52,0-3.68.21-4.42,1.18-2.41,3.15.44,9.68,4.43,10.35,3.27.56,6.69.33,9.92,1,1.54.32,3.65,1.73,4,3,.39,1.6-.27,4.47-1.46,5.21-2.1,1.31-4.91,1.7-7.48,2C87.18,434.8,84.08,434.57,81.11,434.57Zm41.62-65.92c-12.33,0-24.66.06-37,0-3,0-5.45,1.05-4.94,4a8.73,8.73,0,0,0,4.31,5.52c2.23,1.08,5.2.84,7.85.83,11.81-.05,23.63-.24,35.45-.35,5.23,0,8.36,4,5.82,8-1,1.66-4,2.94-6.14,3-14.44.16-28.89,0-43.33-.21-3-.05-4.23.92-4.35,3.93-.24,5.47,2.26,7.86,8.91,7.87q33,.06,66,0c1.63,0,4,.07,4.72-.88,1.72-2.29,3.54-5.11,3.72-7.82.24-3.72-3.28-2.73-5.65-2.76-3.83,0-7.66.05-11.49-.07-3.68-.11-6.77-1.25-6.56-5.7.19-4.26,3.47-4.65,6.77-4.84,4.15-.23,8.32-.31,12.44-.82,3.8-.46,4.56-3.68,4.61-6.71.06-3.56-2.9-2.88-5.14-2.88ZM279.35,232.76v.79c-9.83,0-19.66.24-29.48-.11-3.85-.14-5.34,2.26-5.94,4.75-1.58,6.54,5.89,16.75,13,16.94,16.78.45,33.6.6,50.38,0,8.81-.32,14.59-9.56,12.6-18.11-.62-2.68-2-4.32-5.16-4.29C303,232.83,291.15,232.76,279.35,232.76ZM171.2,254.93h65.38c-.8-6-1.64-11.62-2.23-17.22-.33-3.18-2-4.2-5-4.19-17.47.06-34.95,0-52.42.14-1.19,0-3.26,1.4-3.42,2.39C172.54,242.21,172,248.44,171.2,254.93Zm38.74,71.58h0c0-11.16,0-22.33,0-33.49,0-6.12-1.17-7.51-6-7.57s-6.19,1.26-6.26,7.28c-.07,7,.05,14,.05,21,0,15.5-.07,31,0,46.5,0,6.14,1.49,7.43,6.7,7.38,5.05-.05,5.48-3.46,5.51-7.1C210,349.18,209.94,337.85,209.94,326.51ZM283.4,433.85v.63c-11.5,0-23,.07-34.49,0-4.95,0-7.1,2.62-4.34,6.65A10.26,10.26,0,0,0,251.8,445c22.49.3,45,.27,67.49,0a10,10,0,0,0,6.73-3.22c1.18-1.42.75-4.34.59-6.56,0-.55-1.82-1.37-2.81-1.38C310.33,433.82,296.87,433.85,283.4,433.85Zm-34.58-166.6c-.29-.16-.58-.46-.86-.46q-43.47-.1-87-.1c-.88,0-2.43,1-2.5,1.59-.14,1.36,0,3.31.91,4.09a8,8,0,0,0,4.89,1.91q39.48.18,79,0C248.18,274.29,249.41,272.38,248.82,267.25ZM77,133.56c0-7,.18-14-.13-21-.08-1.67-1.61-4.47-2.8-4.66-2.66-.42-4.57,1.29-4.56,4.49,0,14-.14,27.89.15,41.83,0,1.56,2.34,4.08,3.93,4.39,3.14.61,3.44-2.12,3.42-4.65C77,147.19,77,140.38,77,133.56Zm127.22,245v-.18c-7.81,0-15.62.23-23.42-.1-3.47-.15-5.85,0-6.31,4.14-.43,3.82-.26,7,4.5,7.77,3.88.63,7,.25,9.41-3.57,3.59-5.7,9.13-8.11,15.81-7.35,6.19.7,12.33,1.14,15.27,8.53,1.95,4.91,10.14,4.45,12.7-.25,2.68-4.94.42-9-5-9ZM330.57,133.05c0,7.16-.16,14.33.14,21.49.06,1.5,1.85,2.92,2.85,4.39,1.55-1.37,4.41-2.7,4.44-4.1q.48-21.48-.05-43c0-1.43-2.91-2.78-4.47-4.16-1,1.45-2.71,2.87-2.77,4.36C330.41,119,330.57,126.05,330.57,133.05Zm-127-114v0c7,0,14,0,20.95,0,2.23,0,4.54.25,4.57-3,0-3.1-1.54-4.54-4.62-4.53-14,.05-27.94-.05-41.9.3-1.4,0-2.73,2.77-4.1,4.25,1.38,1,2.73,2.76,4.15,2.82C189.6,19.17,196.59,19,203.58,19Zm-5.86,385h.06c0,2.82-.08,5.64,0,8.46s.81,4.92,4.3,4.76c3.15-.14,7.13,1.23,7.4-3.94.29-5.62.35-11.25.38-16.87,0-3.86-1.52-6.12-5.91-6.16-4.56-.05-6.28,2.1-6.26,6.29C197.73,399,197.72,401.5,197.72,404Zm108.76-82.29c-13.64-4.83-27.28-5.2-40.92,0Zm73.89-101.45c3-.25,5-1.85,4.81-5.62-.17-3.5-2.15-5-5.43-5-3.77,0-5.29,2.07-5.25,5.64S376.6,220.17,380.37,220.24Zm-352.51,0c3.49,0,5.27-1.82,5.22-5.52,0-3.52-1.95-5-5.28-5.07-3.71,0-5.39,1.9-5.39,5.5S24.39,220.15,27.86,220.25ZM68.61,418.62v-24.9C63.2,402.44,63.45,410.07,68.61,418.62Zm270-.07c5.91-8.67,5.71-19.5,0-23.25ZM220,403.68l.8,1.39c2.76.32,5.56,1,8.27.79,1.33-.12,2.5-2,3.74-3.13-1.14-.7-2.2-1.76-3.42-2a11.42,11.42,0,0,0-5.42,0C222.51,401.15,221.34,402.64,220,403.68Zm-37.89,3.21L187,403.3c-1.58-.91-3.23-2.66-4.73-2.54-2.52.2-6.68-2.3-7.09,2.41C175.09,404.12,179.35,405.46,182.14,406.89Z"/><path class="cls-1" d="M287.06,63.77c-.59,11.21-1.1,21.08-1.64,31.4H234.75l-.52-.87Z"/><path class="cls-1" d="M120.62,63.76l52.72,30.46-.42,1.08H122.3C121.76,85.18,121.23,75.16,120.62,63.76Z"/><path class="cls-1" d="M204.27,239.09c2,0,4,0,6,0,3.64-.06,5.57,1.57,5.54,5.35s-1.54,5.5-5.41,5.39c-4.29-.11-8.58.23-12.87.11-3.27-.09-5.8-1.25-5.64-5.29s2.06-5.72,6-5.56C200,239.17,202.12,239.1,204.27,239.09Z"/></g></g></svg>