<svg xmlns="http://www.w3.org/2000/svg" viewBox="0 0 201.83 201.87"><defs><style>.cls-1{fill:#fff;}</style></defs><g id="Layer_2" data-name="Layer 2"><g id="Layer_1-2" data-name="Layer 1"><path class="cls-1" d="M150.65,64.77C149,72,145.51,76.65,137.87,77.89c-15.46,2.5-23.37,10.45-23.46,22.81s7.76,20.79,23.1,23.26c8.23,1.33,12.75,6,12.77,13.64,0,7.34-5.08,12.44-12.32,12.69-7.67.26-12.51-4.16-14-12.36-2.79-15.75-10.67-23.53-22.92-23.57-12.48,0-20.68,8-23.07,23.18-1.27,8.1-6,12.8-13.68,12.76-7.28,0-12.29-5-12.69-12.31-.43-8,4.24-12.49,12.26-13.93,14.75-2.64,23.59-11.47,23.75-23.14.17-12-8.42-20.6-23.38-23.06-7.91-1.3-12.91-5.54-12.65-13.61.23-7.35,5-12.37,12.35-12.66,7.84-.31,12.59,4.32,14,12.35,2.68,15.43,10.62,23.54,22.73,23.62,11.86.08,20.75-8.61,23.34-23.38,1.5-8.54,6.16-13.51,14.79-12.55C146.1,52.43,149.76,57.84,150.65,64.77Z"/><path class="cls-1" d="M101.39,124.18c10.4.34,16.8,11.74,10.22,20.15-10.21,13-9.66,24.66.29,37.26,4.88,6.18,2.44,12.44-3.12,17.16-5,4.23-10.52,4.07-15.61.1-6-4.64-8-11.29-3.34-17.11,10.59-13.18,10.16-24.92-.11-38.29C83.35,135.15,90.92,123.83,101.39,124.18Z"/><path class="cls-1" d="M77.85,100.35C78.34,110.58,67,118.14,58.54,112c-13.34-9.69-25.23-10.91-38.39,0-6.06,5-12.46,2.22-17-3.44-4-5-4.31-10.49,0-15.57,4.81-5.68,11.17-7.86,17.16-3,12.65,10.21,24.26,10.43,37.22.26C65.75,83.73,77.36,90.1,77.85,100.35Z"/><path class="cls-1" d="M161.65,104.49c-6.21-.76-10.89,1.89-15.4,5.83-6,5.26-12.53,5.66-18.36-.42-5.3-5.53-5.36-11.92-.6-17.55,5.33-6.28,12.07-6.29,18.38-1.31,11.47,9.06,22.46,9.46,34-.16,6.19-5.18,13-4.44,18.45,1.54,5.11,5.63,5,12-.36,17.4-5.67,5.74-12.23,6.21-18.36.58A21.27,21.27,0,0,0,161.65,104.49Z"/><path class="cls-1" d="M100.49,0a14.14,14.14,0,0,1,11.86,7.2,11.22,11.22,0,0,1-.86,13.65c-9.9,12.2-9.88,23.92,0,36.2,4.81,6,3.38,12.38-2.08,17.38-5.16,4.72-11.08,4.94-16.49.33C86.7,69.5,85.5,63,90.71,56.56c9.55-11.83,9.91-23.31,0-35C87.27,17.45,86.57,12.65,89,7.9,91.27,3.34,95,.35,100.49,0Z"/></g></g></svg>