<svg xmlns="http://www.w3.org/2000/svg" xmlns:xlink="http://www.w3.org/1999/xlink" viewBox="0 0 638.93 77.53"><defs><style>.cls-1{fill:none;}.cls-2{clip-path:url(#clip-path);}.cls-3{clip-path:url(#clip-path-2);}.cls-4{fill:#fff;}</style><clipPath id="clip-path" transform="translate(0 0)"><rect class="cls-1" width="638.93" height="77.53"/></clipPath><clipPath id="clip-path-2" transform="translate(0 0)"><rect class="cls-1" width="638.93" height="77.53"/></clipPath></defs><g id="Layer_2" data-name="Layer 2"><g id="Layer_1-2" data-name="Layer 1"><g id="Logo_Turing"><g class="cls-2"><g class="cls-3"><path class="cls-4" d="M437.53,21.93c.11-1.8.19-3,.28-4.4h7v3.08c0,11.16,0,22.32,0,33.47a75.89,75.89,0,0,1-.57,8.92c-1,8.07-7.06,13.73-15.54,14.34-4.41.32-8.82.28-13-1.63-5.19-2.37-7.74-6.33-7.34-12.16a58.67,58.67,0,0,1,6.11.83c.61.14.94,1.27,1.5,1.84,1.41,1.46,2.64,3.56,4.37,4.13,4.46,1.5,9.19,1.67,13.14-1.52s3.56-7.89,3.39-12.94A16.51,16.51,0,0,1,424,60.71c-6.83-.39-11.72-3.74-14.51-9.75-4.35-9.38-4.12-18.8,1.87-27.4,5.59-8,16.85-9.22,24.44-3.06l1.73,1.43m.37,17-.23-.07c-.14-1.72-.19-3.46-.44-5.16a15.5,15.5,0,0,0-.94-3.32c-1.91-4.87-5.89-7.55-10.86-7.38-4.48.14-8.34,3.15-9.82,8a25.94,25.94,0,0,0,.14,15.88,10.82,10.82,0,0,0,20.66-.06A68.37,68.37,0,0,0,437.9,39" transform="translate(0 0)"/><path class="cls-4" d="M481.07,36.42v24.1h-8V1.71c10.54,0,20.94-.63,31.23.18,9.24.74,14.25,7.58,14.07,16.88s-5.83,16-15,17c-3.8.44-7.65.49-11.48.59-3.44.1-6.89,0-10.81,0m.2-7.52c7,0,13.71.35,20.37-.11,5.27-.37,8.28-4.49,8.36-10S507.19,9,502,8.56c-6.83-.54-13.74-.14-20.74-.14Z" transform="translate(0 0)"/><path class="cls-4" d="M638.93,41.08H607.17c-.73,9,6.65,15.58,15.18,13.73a10.11,10.11,0,0,0,7.4-6.65A2.54,2.54,0,0,1,633,46.3c1.68.31,3.38.54,5.05.81-.42,5.9-5.7,12-12.2,13.44-14.58,3.34-26.59-3.93-26.84-19.72a37.5,37.5,0,0,1,.93-9.7c2.48-9.78,10.23-14.83,21.37-14.34,8.32.37,15.37,7.1,16.86,16.26.41,2.51.48,5.08.74,8m-8.41-6.43c-.8-7.77-4.84-11.71-11.59-11.64-6.57.08-11.07,4.55-11.55,11.64Z" transform="translate(0 0)"/><path class="cls-4" d="M216.83,41H185.34c-.27,8.77,5.66,14.55,14,13.91a9.56,9.56,0,0,0,8.52-6.34c1-2.34,2.27-2.7,4.43-2.14a38.82,38.82,0,0,0,4.19.63c-.95,7.45-7.86,13.74-15.72,14.06a33.82,33.82,0,0,1-9.95-.86c-8.09-2.16-12.83-8.72-13.46-18.4a36.08,36.08,0,0,1,.7-9.72C180.28,21.61,188.49,16,200,16.8c8.75.62,15.85,8.21,16.78,18,.18,1.9,0,3.83,0,6.2m-8.06-6.35c-.29-7.74-5.13-12.09-12.56-11.62A11,11,0,0,0,186,34.69Z" transform="translate(0 0)"/><path class="cls-4" d="M144.32,60.52h-7.41V1.44h7.34V22.18a18.08,18.08,0,0,1,14.06-5.44c7.29.27,12.76,4.2,13.17,11.42.61,10.7.16,21.46.16,32.35h-7.31v-8.7c0-6.34,0-12.69,0-19,0-5.65-2.56-9-7.15-9.6-5.21-.73-10.5,2.24-11.84,7a30.36,30.36,0,0,0-.95,7.67c-.12,7.48-.05,15-.05,22.65" transform="translate(0 0)"/><polygon class="cls-4" points="264.85 60.58 256.47 60.58 256.47 8.18 237.27 8.18 237.27 1.35 284.13 1.35 284.13 7.99 264.85 7.99 264.85 60.58"/><path class="cls-4" d="M374.43,60.53H367V17.59h6.43c.13,1.43.27,3,.46,5.15,4-4.61,8.78-6.19,14.35-6,7.84.27,13.15,4.73,13.4,12.51.32,10.35.08,20.72.08,31.25h-7.46V57.34c0-8.36,0-16.72-.11-25.08-.08-5.35-2.58-8.41-7-9.08-5.06-.75-10.16,1.92-11.59,6.45A26.78,26.78,0,0,0,374.47,37c-.13,7.77,0,15.54,0,23.55" transform="translate(0 0)"/><path class="cls-4" d="M284.57,17.5h7.53c0,1.83,0,3.53,0,5.23.07,7.68,0,15.37.25,23.06.15,5.51,2.58,8.48,7,9.07,5.22.7,10.42-2.32,11.73-7.14a30.58,30.58,0,0,0,.91-7.39c.12-6.54,0-13.08,0-19.61V17.5h7.39v43h-6.57v-4.6c-3.14,1.67-6.08,4-9.4,4.85-8.22,2-18.71-.89-18.84-13.61-.11-9.78,0-19.57,0-29.61" transform="translate(0 0)"/><polygon class="cls-4" points="86.22 1.35 133.12 1.35 133.12 8.01 113.85 8.01 113.85 60.48 105.58 60.48 105.58 8.16 86.22 8.16 86.22 1.35"/><path class="cls-4" d="M586.37,23.42h-25.1V17.57h34.79a7.47,7.47,0,0,1-1.69,7.08c-7.93,9.15-15.67,18.47-23.47,27.73-.42.49-.82,1-1.5,1.84h28.08v6.26H559.67c-.64-3-.47-5.69,1.89-8.35,8.3-9.34,16.36-18.89,24.81-28.71" transform="translate(0 0)"/><path class="cls-4" d="M23.43.36V5.91c-.21.18-.35.38-.5.39C16.2,7,15.5,7.71,15.39,14.44c-.06,3.65,0,7.3-.21,11C14.9,31,13.07,35.75,7,38.41c7,3.16,8.05,9.15,8.33,15.45.14,3.36,0,6.73.07,10.09.08,5.53,1.22,6.73,6.71,7.1.37,0,.73.1,1.18.17a7.86,7.86,0,0,1,.17,1.17c0,1.53,0,3,0,4.54-8.38,2.18-14.4-2-14.92-10.33C8.28,61.81,8.21,57,8,52.21c-.26-7-1.48-8.67-8-10.88v-6c6.79-.62,8-5.42,8.06-11.07,0-4,.15-8.07.37-12.09.5-9.54,5.21-13.28,15-11.82" transform="translate(0 0)"/><path class="cls-4" d="M67.06,41.53c-6.34.58-7.93,4.95-8.12,10.33-.14,4.42-.12,8.84-.28,13.26-.24,6.62-2.88,10.71-8,11.92-2.19.52-4.55.34-7,.49V71.35c7.65-1.31,8-1.74,8.06-9.64,0-3.26.05-6.53.15-9.8.19-5.74,2.08-10.54,8-13.46-7.37-3.53-8.12-10-8.13-16.8q0-4.62-.21-9.22c-.21-4.59-1.31-5.66-5.92-6-.57,0-1.14-.06-1.91-.11V.38c9.3-1.66,14.31,2.12,14.94,11.41.29,4.31.08,8.65.37,13,.5,7.36,1.35,8.38,8.12,10.85Z" transform="translate(0 0)"/><path class="cls-4" d="M523.91,17.5h6.59c.12,1.61.23,3.09.38,5.14.69-.83,1-1.23,1.36-1.64,3.48-4.56,8.47-5.64,13.43-2.75a2.76,2.76,0,0,1,1,2.35,40.36,40.36,0,0,1-1.86,5.21c-1.26-.4-2.32-.77-3.4-1.08-3.81-1.07-7.5.64-8.65,4.56a37.18,37.18,0,0,0-1.36,9.34c-.2,7.19-.07,14.38-.07,21.81h-7.44Z" transform="translate(0 0)"/><path class="cls-4" d="M350.93,19.25l-2.52,6.61c-1.14-.4-2-.75-2.94-1-4.14-1.25-7.89.42-9.08,4.62a39,39,0,0,0-1.34,9.63c-.19,7.09-.06,14.18-.06,21.43h-7.5v-43h6.62c.07,1.67.14,3.25.19,4.38,2.41-1.64,4.71-3.95,7.48-4.89,3-1,6.22.08,9.15,2.27" transform="translate(0 0)"/><rect class="cls-4" x="351.82" y="17.45" width="7.31" height="43.06"/><rect class="cls-4" x="548.32" y="17.51" width="7.2" height="42.93"/><rect class="cls-4" x="351.89" y="1.33" width="7.28" height="7.74"/><rect class="cls-4" x="548.26" y="1.34" width="7.19" height="7.76"/></g></g></g></g></g></svg>