<?xml version="1.0" standalone="no"?>
<!DOCTYPE svg PUBLIC "-//W3C//DTD SVG 20010904//EN"
 "http://www.w3.org/TR/2001/REC-SVG-20010904/DTD/svg10.dtd">
<svg version="1.0" xmlns="http://www.w3.org/2000/svg"
 width="833.000000pt" height="466.000000pt" viewBox="0 0 833.000000 466.000000"
 preserveAspectRatio="xMidYMid meet">
<metadata>
Created by potrace 1.16, written by Peter Selinger 2001-2019
</metadata>
<g transform="translate(0.000000,466.000000) scale(0.100000,-0.100000)"
fill="#000000" stroke="none">
<path d="M845 4632 c-77 -31 -157 -75 -175 -97 -15 -19 -13 -19 40 0 44 16
140 21 140 8 0 -5 -29 -30 -65 -56 -36 -27 -89 -78 -119 -115 -114 -142 -160
-261 -176 -456 -9 -116 -12 -431 -3 -346 32 304 189 492 452 546 53 10 107 14
144 11 l59 -5 -38 26 c-21 14 -67 38 -101 52 l-63 27 42 17 c24 10 79 20 124
23 l81 6 58 -53 c56 -50 199 -127 268 -144 33 -8 28 -21 -10 -31 -46 -11 -215
-100 -288 -151 -320 -224 -510 -601 -492 -979 7 -131 16 -167 64 -237 20 -29
92 -147 161 -263 l124 -209 -42 -156 c-24 -85 -49 -176 -57 -202 l-14 -48
-107 54 c-161 81 -244 109 -328 110 -67 1 -75 -1 -130 -39 -60 -40 -354 -327
-374 -365 -10 -18 -8 -20 27 -20 49 0 190 -34 256 -62 171 -71 312 -216 363
-372 64 -194 221 -348 569 -556 210 -126 623 -322 922 -438 l102 -39 6 56 c16
143 76 221 170 221 52 0 99 -25 117 -63 l15 -31 51 101 c84 169 101 302 52
406 -25 52 -151 204 -332 400 -89 96 -138 156 -138 170 0 32 37 248 44 254 3
3 62 -31 131 -76 l126 -81 107 72 c353 236 701 535 827 712 57 80 103 180 107
230 l3 39 -124 31 -124 31 -22 79 c-22 75 -26 82 -114 170 l-91 91 0 102 c0
285 -92 620 -223 813 -36 53 -136 160 -149 160 -5 0 -18 -20 -29 -45 l-20 -45
31 -95 c30 -96 38 -145 21 -145 -11 0 -29 39 -71 150 -24 63 -44 95 -74 125
-51 49 -202 124 -322 160 -49 14 -96 29 -104 31 -10 4 -5 10 17 20 35 17 69
51 61 60 -4 3 -21 -2 -40 -12 -40 -21 -128 -24 -151 -5 -22 18 -22 72 0 164 9
40 17 113 17 162 1 80 -2 94 -24 125 l-25 35 -5 -48 c-4 -29 -14 -55 -27 -69
l-21 -21 -54 45 c-29 25 -76 60 -104 77 l-51 31 -404 0 -404 -1 -70 -27z m659
-1323 c51 -14 121 -80 142 -135 12 -32 15 -62 11 -110 l-5 -66 59 58 60 59 57
-61 c64 -69 102 -94 241 -164 243 -122 659 -260 1173 -389 220 -55 209 -46
162 -150 -88 -194 -436 -524 -831 -786 l-72 -48 -79 54 c-43 30 -194 135 -336
234 l-258 180 64 5 63 5 -75 39 c-103 53 -254 149 -317 201 -117 96 -143 153
-143 316 0 147 19 220 72 277 44 48 45 58 4 42 -63 -23 -159 -1 -214 51 -50
47 -72 99 -72 170 0 157 140 261 294 218z m1181 -101 l43 -93 106 -39 106 -38
0 -79 0 -79 -328 0 -327 0 10 116 11 116 -25 9 c-85 31 -131 53 -145 68 -15
17 -15 19 0 32 13 11 48 8 217 -15 230 -32 248 -30 273 30 8 20 13 43 10 50
-3 8 -3 14 0 14 3 0 25 -42 49 -92z"/>
<path d="M1666 2858 c-50 -102 -65 -195 -44 -279 17 -68 71 -170 119 -223 l28
-31 -24 80 c-59 191 -80 374 -47 407 11 11 51 5 185 -26 31 -8 57 -13 57 -11
0 6 -220 155 -230 155 -5 0 -25 -33 -44 -72z"/>
<path d="M2412 2476 l-84 -31 -119 -159 c-65 -88 -119 -164 -119 -170 0 -6 15
-21 34 -33 l33 -21 19 23 c11 13 64 75 120 137 107 120 194 229 213 266 15 29
8 28 -97 -12z"/>
<path d="M2790 2382 l-115 -13 -192 -191 -192 -192 19 -25 c11 -14 28 -37 38
-50 l20 -24 153 129 c175 147 394 356 388 370 -2 6 -48 4 -119 -4z"/>
<path d="M2832 2157 c-92 -90 -195 -189 -229 -222 -35 -32 -63 -64 -63 -72 0
-16 58 -133 66 -133 9 0 164 123 329 260 175 145 325 290 325 313 0 15 -16 17
-131 17 l-131 0 -166 -163z"/>
<path d="M6460 4619 c-36 -22 -84 -59 -108 -82 l-42 -41 -26 25 c-19 19 -25
36 -26 68 l0 43 -27 -26 c-37 -38 -41 -137 -10 -298 24 -130 23 -141 -24 -168
-22 -12 -33 -12 -74 -2 -26 7 -60 19 -75 27 -16 7 -28 9 -28 4 0 -15 40 -50
73 -64 36 -15 38 -14 -78 -45 -99 -26 -297 -122 -338 -164 -18 -18 -51 -80
-81 -151 -72 -169 -98 -147 -37 31 l28 83 -20 46 c-11 25 -24 45 -29 45 -16 0
-102 -93 -145 -155 -89 -133 -151 -286 -193 -485 -15 -71 -40 -308 -40 -385
l0 -60 -90 -90 c-87 -87 -91 -94 -111 -167 l-21 -77 -86 -19 c-48 -11 -104
-24 -126 -27 l-38 -8 6 -50 c24 -174 270 -447 686 -758 182 -136 352 -249 364
-242 6 4 65 42 131 85 l120 78 16 -97 c9 -54 18 -118 22 -143 l6 -45 -131
-140 c-139 -150 -273 -305 -318 -370 -82 -119 -62 -301 57 -504 l26 -44 13 31
c34 81 177 83 234 3 26 -37 50 -120 50 -173 0 -25 5 -38 13 -38 8 0 90 31 183
69 588 239 1029 489 1243 702 79 79 123 147 151 230 36 107 81 180 155 254
110 109 280 186 447 201 l67 7 -20 26 c-79 101 -323 332 -394 372 -89 51 -194
31 -420 -81 -64 -31 -118 -54 -120 -50 -8 14 -105 371 -105 389 0 19 175 321
270 467 60 91 74 148 73 294 -1 357 -176 700 -468 919 -66 49 -295 171 -321
171 -32 0 -19 19 24 35 99 37 189 88 240 135 52 49 55 50 116 50 53 0 152 -20
180 -37 4 -3 -27 -22 -70 -43 -128 -61 -130 -65 -22 -66 266 -2 466 -159 533
-419 8 -32 15 -75 15 -94 0 -26 3 -32 11 -24 9 9 9 63 1 215 -14 238 -32 322
-94 441 -46 85 -155 212 -227 262 -23 15 -41 32 -41 36 0 15 93 9 148 -10 50
-17 52 -17 36 0 -21 23 -159 95 -231 120 -52 17 -86 19 -437 19 l-381 0 -65
-41z m414 -1321 c54 -16 128 -90 144 -144 24 -82 4 -173 -51 -232 -53 -57
-157 -82 -242 -59 -28 8 -28 7 17 -41 52 -56 66 -102 75 -244 7 -107 -9 -192
-47 -252 -46 -72 -194 -180 -402 -295 -43 -23 -78 -44 -78 -47 0 -2 23 -4 50
-3 28 1 53 0 56 -3 3 -4 -106 -84 -243 -179 -136 -95 -285 -199 -330 -231 -44
-32 -84 -58 -88 -58 -11 0 -188 124 -305 213 -213 163 -415 352 -515 481 -53
68 -118 198 -113 224 2 13 37 25 153 54 650 161 1147 337 1357 479 31 22 76
61 100 89 24 27 47 50 53 50 5 0 35 -26 67 -57 l57 -57 -10 39 c-14 48 -6 113
20 163 50 97 163 143 275 110z m-1246 -101 c27 -26 81 -26 285 4 151 21 197
20 197 -6 0 -16 -72 -56 -139 -76 l-43 -13 6 -55 c3 -31 8 -84 12 -118 l7 -63
-332 0 -331 0 0 78 0 79 108 40 107 39 45 93 45 94 6 -38 c3 -20 16 -46 27
-58z"/>
<path d="M6403 2843 c-62 -42 -112 -78 -110 -79 1 -1 52 10 114 24 125 29 136
26 147 -33 10 -54 -26 -247 -73 -389 l-19 -59 24 29 c38 44 88 124 109 174 28
62 28 214 1 285 -22 56 -62 125 -74 125 -4 -1 -58 -35 -119 -77z"/>
<path d="M5720 2491 c0 -28 341 -431 364 -431 6 1 24 11 40 24 l28 24 -122
163 -122 164 -87 32 c-96 36 -101 37 -101 24z"/>
<path d="M5337 2359 c23 -40 186 -193 378 -353 l150 -126 37 42 c21 24 38 47
38 52 0 6 -84 94 -186 196 l-185 187 -102 12 c-56 7 -112 14 -125 17 l-24 5
19 -32z"/>
<path d="M4970 2300 c0 -16 137 -155 236 -241 110 -94 416 -339 424 -339 3 0
21 30 39 68 l32 67 -143 140 c-79 78 -184 180 -234 228 l-90 87 -132 0 c-81 0
-132 -4 -132 -10z"/>
<path d="M3429 1606 c-87 -31 -164 -101 -202 -184 -16 -36 -21 -68 -21 -137
-1 -78 2 -97 26 -145 15 -30 43 -71 62 -89 34 -33 37 -34 63 -20 78 41 324
318 396 448 l28 50 -42 31 c-23 16 -65 37 -92 45 -61 18 -169 19 -218 1z"/>
<path d="M4590 1604 c-51 -19 -119 -64 -120 -79 0 -19 74 -136 137 -214 71
-90 278 -291 298 -291 22 0 81 66 106 118 17 35 24 70 27 134 4 81 2 93 -26
150 -34 74 -82 124 -155 164 -43 23 -66 29 -137 31 -60 2 -98 -2 -130 -13z"/>
<path d="M3784 1441 c-35 -76 -134 -198 -268 -330 -69 -68 -123 -127 -120
-132 9 -15 78 -29 142 -29 l64 0 65 63 c36 34 99 107 140 161 l75 99 -7 56
c-6 51 -44 143 -62 154 -5 3 -18 -16 -29 -42z"/>
<path d="M4413 1458 c-22 -36 -38 -82 -47 -139 -5 -31 -1 -45 33 -95 52 -78
169 -212 215 -248 36 -27 42 -28 114 -24 43 3 89 11 104 18 l27 13 -113 108
c-127 122 -224 238 -277 335 l-36 66 -20 -34z"/>
<path d="M4231 1155 c-57 -52 -106 -95 -110 -95 -3 0 -49 40 -101 90 -52 49
-100 89 -106 90 -6 0 -46 -47 -89 -105 -42 -57 -101 -127 -130 -154 l-53 -50
94 -71 c52 -40 94 -75 94 -80 0 -4 -19 -25 -42 -45 -37 -33 -273 -257 -522
-496 l-70 -67 28 -55 c32 -66 86 -117 123 -117 20 0 128 76 399 280 204 154
374 280 377 280 3 0 82 -58 174 -128 452 -344 573 -432 598 -432 35 0 96 58
125 121 l25 52 -170 163 c-94 90 -236 225 -317 301 -80 76 -145 141 -145 145
1 3 43 38 94 77 l92 71 -53 53 c-28 28 -88 100 -133 159 l-80 107 -102 -94z"/>
</g>
</svg>
