<?xml version="1.0" standalone="no"?>
<!DOCTYPE svg PUBLIC "-//W3C//DTD SVG 20010904//EN"
 "http://www.w3.org/TR/2001/REC-SVG-20010904/DTD/svg10.dtd">
<svg version="1.0" xmlns="http://www.w3.org/2000/svg"
 width="2084.000000pt" height="1667.000000pt" viewBox="0 0 2084.000000 1667.000000"
 preserveAspectRatio="xMidYMid meet">
<metadata>
Created by potrace 1.16, written by Peter Selinger 2001-2019
</metadata>
<g transform="translate(0.000000,1667.000000) scale(0.100000,-0.100000)"
fill="#000000" stroke="none">
<path d="M5500 12445 c-328 -55 -709 -236 -1072 -508 -612 -458 -1165 -1152
-1473 -1849 l-52 -117 -62 29 c-153 73 -296 190 -370 304 -50 77 -114 236
-137 341 -37 169 -18 438 43 608 86 243 215 403 500 625 73 56 139 112 147
124 9 12 16 39 16 58 0 145 -296 110 -685 -80 -330 -161 -614 -390 -814 -656
-168 -225 -232 -401 -232 -643 1 -135 21 -222 79 -341 143 -292 501 -575 952
-753 112 -44 347 -117 377 -117 17 0 18 8 -22 -165 -56 -244 -69 -369 -69
-665 -1 -246 2 -288 22 -395 63 -331 212 -620 441 -858 281 -290 630 -467
1086 -548 114 -21 162 -24 385 -23 197 0 278 4 355 17 596 104 1138 440 1511
939 144 192 289 546 354 862 11 54 20 99 20 101 0 7 162 -27 219 -46 86 -29
114 -57 106 -106 -4 -21 -58 -144 -120 -273 -116 -239 -171 -374 -207 -510
-16 -58 -21 -108 -22 -225 -1 -135 1 -156 22 -207 56 -138 146 -233 294 -309
132 -67 209 -83 388 -84 168 0 241 15 355 72 130 66 315 210 415 323 34 39 65
70 70 70 4 0 24 -28 45 -61 128 -208 391 -360 692 -400 109 -15 380 -6 478 16
181 39 356 115 529 229 l93 61 29 -49 c72 -123 202 -217 350 -252 102 -24 255
-15 354 21 157 57 342 183 487 332 91 92 92 93 98 66 58 -268 249 -416 555
-430 129 -6 226 9 331 52 78 31 264 155 346 229 l61 56 84 -83 c167 -167 385
-257 620 -257 202 0 389 79 597 253 l55 45 26 -37 c83 -114 240 -208 407 -243
142 -29 325 -22 442 17 86 29 198 92 296 166 30 23 57 40 59 38 2 -2 14 -26
27 -53 30 -61 116 -151 163 -171 69 -29 204 -12 381 46 457 152 1187 855 1597
1539 185 307 288 565 324 812 31 213 7 311 -108 433 -77 83 -152 132 -257 168
-68 23 -97 28 -148 25 -98 -6 -105 -17 -114 -180 -5 -73 -13 -169 -19 -213
-81 -603 -431 -1433 -817 -1937 -176 -229 -289 -280 -350 -158 -55 108 -16
275 180 765 112 283 142 374 158 488 16 109 7 141 -66 230 -112 135 -280 247
-372 247 -57 0 -107 -24 -139 -65 -31 -41 -139 -310 -214 -535 -101 -303 -194
-680 -226 -920 -9 -69 -18 -135 -20 -147 -6 -32 -135 -136 -223 -181 -67 -33
-83 -37 -150 -37 -90 0 -127 21 -164 88 -20 38 -22 55 -21 167 2 209 34 342
189 805 82 242 107 331 117 406 10 79 9 102 -2 129 -32 77 -202 214 -330 267
-100 41 -195 25 -246 -42 -55 -73 -237 -566 -339 -921 -81 -283 -116 -450
-123 -592 l-5 -113 -81 -65 c-110 -88 -187 -125 -275 -132 -177 -12 -309 102
-319 278 -12 213 87 651 269 1188 45 130 90 265 102 300 l21 62 187 0 c177 0
188 1 220 23 75 51 134 162 111 212 l-12 25 -201 0 c-157 0 -200 3 -197 13 3
6 42 111 88 232 90 238 101 285 77 331 -60 116 -280 273 -409 290 -55 8 -126
-21 -157 -64 -65 -92 -194 -376 -301 -659 l-54 -143 -68 0 c-103 0 -148 -32
-197 -140 -43 -95 -24 -120 94 -120 l83 0 -40 -122 c-58 -177 -162 -546 -213
-753 -62 -249 -95 -446 -102 -603 l-6 -133 -61 -53 c-163 -143 -312 -197 -412
-150 -69 33 -91 103 -74 237 20 165 55 281 259 867 82 235 83 293 5 380 -59
65 -146 103 -269 119 -68 8 -72 11 -131 67 -80 77 -152 119 -277 163 -102 35
-103 36 -272 36 -167 0 -171 -1 -269 -34 -375 -130 -739 -526 -934 -1017 -70
-175 -122 -405 -122 -540 0 -50 -1 -53 -52 -92 -208 -159 -387 -231 -578 -234
-157 -3 -270 38 -375 134 -83 76 -144 217 -145 334 l0 42 78 -15 c103 -20 308
-12 412 16 308 83 533 309 617 619 53 197 31 357 -71 511 -166 249 -467 341
-786 239 -188 -60 -343 -159 -511 -327 -278 -279 -428 -611 -446 -985 l-5
-121 -54 -71 c-66 -88 -199 -216 -277 -267 -152 -101 -309 -101 -376 -2 -52
77 -34 269 44 480 20 55 99 228 175 385 138 285 170 369 170 452 0 106 -57
210 -137 249 -64 31 -132 29 -293 -11 -224 -55 -421 -47 -486 21 -24 26 -26
33 -21 81 3 29 18 82 33 118 38 92 44 200 15 259 -31 60 -84 115 -154 159 -78
49 -117 62 -181 62 -170 -1 -337 -216 -336 -433 1 -131 59 -284 139 -368 l47
-49 -46 -132 c-90 -255 -144 -372 -278 -598 -66 -110 -107 -166 -172 -234
-268 -280 -605 -481 -960 -573 -69 -18 -134 -26 -236 -30 -320 -13 -580 61
-779 221 -85 68 -137 128 -197 228 -192 316 -240 941 -117 1534 l21 101 141 6
c602 28 1166 189 1682 481 632 358 1089 895 1191 1398 22 109 15 285 -16 382
-57 179 -170 365 -309 506 -148 150 -333 261 -509 306 -80 20 -117 24 -241 23
-80 -1 -180 -7 -221 -14z m450 -526 c60 -27 98 -64 126 -124 20 -42 24 -66 24
-148 0 -428 -312 -962 -771 -1319 -249 -194 -592 -365 -878 -438 -110 -28
-306 -58 -427 -66 l-104 -7 26 69 c176 468 418 901 724 1291 114 145 381 412
507 505 243 182 426 257 628 257 80 0 109 -4 145 -20z m3705 -2975 c24 -10 45
-58 45 -106 0 -122 -95 -325 -218 -471 -136 -160 -298 -258 -466 -281 l-39 -5
6 62 c8 78 45 195 103 316 108 229 281 424 423 476 38 14 119 19 146 9z m1982
-70 c61 -49 83 -103 83 -205 0 -148 -43 -305 -145 -532 -177 -394 -459 -727
-615 -727 -134 0 -189 159 -145 422 56 335 235 712 439 927 110 114 182 152
283 148 52 -2 69 -8 100 -33z"/>
<path d="M7760 11710 l0 -750 95 0 95 0 0 666 0 666 28 -7 c15 -3 34 -14 43
-23 9 -9 162 -289 339 -622 178 -333 334 -622 347 -642 l23 -38 105 0 105 0 0
750 0 751 -97 -3 -98 -3 0 -455 c0 -250 3 -516 7 -590 l8 -135 -134 260 c-74
143 -206 395 -294 560 -149 281 -162 302 -207 333 l-47 32 -159 0 -159 0 0
-750z"/>
<path d="M9645 12441 c-16 -10 -38 -27 -48 -38 -9 -11 -127 -332 -261 -714
-135 -382 -248 -702 -251 -712 -7 -16 0 -18 96 -15 l104 3 70 202 70 203 376
0 376 0 53 -152 c29 -84 62 -177 72 -205 l19 -53 100 0 c54 0 99 3 99 7 0 3
-118 341 -262 750 l-262 743 -160 0 c-139 0 -165 -3 -191 -19z m341 -523 l130
-373 -310 -3 c-170 -1 -311 -1 -313 1 -2 3 53 168 122 367 69 200 125 365 125
366 0 5 37 12 76 13 l41 1 129 -372z"/>
<path d="M10427 12453 c-4 -3 -7 -42 -7 -85 l0 -78 225 0 225 0 0 -665 0 -665
94 0 c76 0 95 3 100 16 3 9 6 308 6 665 l0 649 223 2 222 3 3 83 3 82 -544 0
c-299 0 -547 -3 -550 -7z"/>
<path d="M11672 11828 l3 -633 23 -43 c37 -69 101 -132 167 -163 l60 -29 307
0 c284 0 311 2 362 20 76 29 139 88 178 168 l33 67 3 622 3 623 -95 0 c-76 0
-95 -3 -100 -16 -3 -9 -6 -282 -6 -608 l0 -593 -22 -33 c-13 -18 -36 -43 -51
-54 -27 -20 -40 -21 -295 -21 -257 0 -268 1 -302 22 -19 12 -44 37 -55 55 -19
32 -20 53 -23 641 l-3 607 -95 0 -95 0 3 -632z"/>
<path d="M13081 12430 l-31 -32 0 -719 0 -719 95 0 95 0 0 351 c0 326 1 350
17 338 12 -10 66 -15 211 -19 l195 -5 152 -323 c83 -177 156 -327 162 -333 5
-5 52 -9 110 -7 l100 3 -157 335 -158 334 53 21 c104 43 175 114 201 201 25
85 17 361 -13 425 -26 58 -79 111 -146 147 l-52 27 -401 3 -402 3 -31 -31z
m786 -166 c64 -47 73 -74 73 -216 0 -135 -4 -154 -48 -200 -39 -42 -99 -49
-381 -46 -211 3 -253 5 -261 18 -11 17 -13 430 -2 446 14 21 40 23 314 21 263
-2 278 -3 305 -23z"/>
<path d="M14805 12441 c-16 -10 -38 -27 -48 -38 -9 -11 -127 -332 -261 -714
-135 -382 -248 -702 -251 -712 -7 -16 0 -18 96 -15 l104 3 70 202 70 203 376
0 376 0 53 -152 c29 -84 62 -177 72 -205 l19 -53 100 0 c54 0 99 3 99 7 0 3
-118 341 -262 750 l-262 743 -160 0 c-139 0 -165 -3 -191 -19z m341 -523 l130
-373 -310 -3 c-170 -1 -311 -1 -313 1 -2 3 53 168 122 367 69 200 125 365 125
366 0 5 37 12 76 13 l41 1 129 -372z"/>
<path d="M15842 11828 l3 -633 23 -43 c36 -68 98 -128 165 -162 l60 -30 374 0
373 0 0 73 c0 39 -4 77 -8 84 -5 8 -100 12 -347 15 -334 3 -341 3 -377 26 -21
13 -45 40 -57 66 -21 41 -21 56 -21 639 l0 597 -95 0 -96 0 3 -632z"/>
<path d="M16992 11828 l3 -633 23 -43 c36 -68 98 -128 165 -162 l60 -30 374 0
373 0 0 73 c0 39 -4 77 -8 84 -5 8 -100 12 -347 15 -334 3 -341 3 -377 26 -21
13 -45 40 -57 66 -21 41 -21 56 -21 639 l0 597 -95 0 -96 0 3 -632z"/>
<path d="M17810 12454 c0 -14 312 -800 326 -822 28 -43 73 -62 147 -62 l67 0
0 -305 0 -306 98 3 97 3 3 303 2 302 74 0 c66 0 78 3 106 26 17 15 37 38 44
53 19 36 316 791 316 802 0 15 -196 11 -209 -4 -6 -8 -67 -159 -135 -337 -69
-178 -132 -330 -141 -339 -21 -22 -257 -28 -295 -9 -21 11 -47 71 -155 353
l-131 340 -107 3 c-59 1 -107 0 -107 -4z"/>
<path d="M15158 10586 c-121 -50 -216 -146 -283 -288 -102 -214 -79 -430 56
-528 69 -49 118 -63 211 -58 70 3 93 9 146 38 126 67 245 232 283 390 20 84
18 224 -5 289 -25 71 -94 141 -161 164 -72 25 -177 22 -247 -7z"/>
<path d="M18550 9236 c-233 -54 -416 -161 -611 -355 -219 -220 -358 -472 -420
-761 -27 -129 -33 -409 -10 -500 99 -397 477 -650 971 -650 60 0 144 5 187 11
203 28 484 164 659 321 144 129 232 253 220 311 -13 63 -86 109 -150 93 -13
-3 -68 -47 -123 -97 -123 -115 -218 -178 -330 -220 -85 -32 -94 -33 -233 -33
-166 -1 -212 12 -323 88 -110 75 -171 184 -184 328 l-6 66 79 -15 c106 -20
310 -12 414 16 243 65 441 225 551 443 92 183 119 399 67 545 -64 180 -205
319 -396 391 -55 20 -88 25 -187 28 -73 2 -141 -2 -175 -10z m355 -292 c24
-10 45 -58 45 -106 0 -122 -95 -325 -218 -471 -136 -160 -298 -258 -466 -281
l-39 -5 6 62 c8 78 45 195 103 316 108 229 281 424 423 476 38 14 119 19 146
9z"/>
</g>
</svg>
